<svg width="25" height="24" viewBox="0 0 25 24" fill="none" xmlns="http://www.w3.org/2000/svg">
<path fill-rule="evenodd" clip-rule="evenodd" d="M7.19683 19.4697C7.48973 19.7626 7.48973 20.2374 7.19683 20.5303L6.19683 21.5303C5.90394 21.8232 5.42907 21.8232 5.13617 21.5303C4.84328 21.2374 4.84328 20.7626 5.13617 20.4697L6.13617 19.4697C6.42907 19.1768 6.90394 19.1768 7.19683 19.4697ZM18.1362 19.4697C18.4291 19.1768 18.9039 19.1768 19.1968 19.4697L20.1968 20.4697C20.4897 20.7626 20.4897 21.2374 20.1968 21.5303C19.9039 21.8232 19.4291 21.8232 19.1362 21.5303L18.1362 20.5303C17.8433 20.2374 17.8433 19.7626 18.1362 19.4697Z" fill="#141B34"/>
<path fill-rule="evenodd" clip-rule="evenodd" d="M3.6665 11.25C4.08072 11.25 4.4165 11.5858 4.4165 12V13C4.4165 14.6711 4.4181 15.849 4.53796 16.7405C4.65492 17.6104 4.87197 18.0946 5.22196 18.4445C5.57195 18.7945 6.05606 19.0116 6.92599 19.1285C7.8175 19.2484 8.99539 19.25 10.6665 19.25L14.6665 19.25C16.3376 19.25 17.5155 19.2484 18.407 19.1285C19.277 19.0116 19.7611 18.7945 20.111 18.4445C20.461 18.0946 20.6781 17.6104 20.7951 16.7405C20.9149 15.849 20.9165 14.6711 20.9165 13V12C20.9165 11.5858 21.2523 11.25 21.6665 11.25C22.0807 11.25 22.4165 11.5858 22.4165 12V13.0557C22.4165 14.6583 22.4165 15.9373 22.2817 16.9404C22.1424 17.9767 21.8468 18.8301 21.1717 19.5052C20.4966 20.1803 19.6432 20.4758 18.6069 20.6152C17.6038 20.75 16.3248 20.75 14.7222 20.75L10.6108 20.75C9.00817 20.75 7.72921 20.75 6.72612 20.6152C5.68985 20.4758 4.83644 20.1803 4.1613 19.5052C3.48616 18.8301 3.19066 17.9767 3.05133 16.9404C2.91647 15.9373 2.91649 14.6583 2.9165 13.0557L2.9165 12C2.9165 11.5858 3.25229 11.25 3.6665 11.25Z" fill="#141B34"/>
<path fill-rule="evenodd" clip-rule="evenodd" d="M1.9165 12C1.9165 11.5858 2.25229 11.25 2.6665 11.25L22.6665 11.25C23.0807 11.25 23.4165 11.5858 23.4165 12C23.4165 12.4142 23.0807 12.75 22.6665 12.75L2.6665 12.75C2.25229 12.75 1.9165 12.4142 1.9165 12Z" fill="#141B34"/>
<path fill-rule="evenodd" clip-rule="evenodd" d="M7.18991 3.75C6.21048 3.75 5.4165 4.54398 5.4165 5.5234L5.4165 12C5.4165 12.4142 5.08072 12.75 4.6665 12.75C4.25229 12.75 3.9165 12.4142 3.9165 12L3.9165 5.5234C3.9165 3.71555 5.38206 2.25 7.18991 2.25C8.64053 2.25 9.91813 3.20473 10.3292 4.5959L10.3858 4.78749C10.5031 5.18473 10.2763 5.6019 9.87901 5.71926C9.48178 5.83663 9.06461 5.60975 8.94724 5.21251L8.89063 5.02092C8.66795 4.26723 7.9758 3.75 7.18991 3.75Z" fill="#141B34"/>
<path fill-rule="evenodd" clip-rule="evenodd" d="M11.7522 3.53151C12.0109 3.85495 11.9585 4.32692 11.6351 4.58568L9.13505 6.58568C8.81161 6.84444 8.33964 6.792 8.08088 6.46855C7.82212 6.1451 7.87456 5.67313 8.19801 5.41438L10.698 3.41438C11.0215 3.15562 11.4934 3.20806 11.7522 3.53151Z" fill="#141B34"/>
</svg>
