<svg width="24" height="24" viewBox="0 0 24 24" fill="none" xmlns="http://www.w3.org/2000/svg">
<path fill-rule="evenodd" clip-rule="evenodd" d="M12 3.75C10.4812 3.75 9.25 4.98122 9.25 6.5C9.25 8.01878 10.4812 9.25 12 9.25C13.5188 9.25 14.75 8.01878 14.75 6.5C14.75 4.98122 13.5188 3.75 12 3.75ZM7.75 6.5C7.75 4.15279 9.65279 2.25 12 2.25C14.3472 2.25 16.25 4.15279 16.25 6.5C16.25 8.84721 14.3472 10.75 12 10.75C9.65279 10.75 7.75 8.84721 7.75 6.5Z" fill="#141B34"/>
<path fill-rule="evenodd" clip-rule="evenodd" d="M18.5 14.75C16.9812 14.75 15.75 15.9812 15.75 17.5C15.75 19.0188 16.9812 20.25 18.5 20.25C20.0188 20.25 21.25 19.0188 21.25 17.5C21.25 15.9812 20.0188 14.75 18.5 14.75ZM14.25 17.5C14.25 15.1528 16.1528 13.25 18.5 13.25C20.8472 13.25 22.75 15.1528 22.75 17.5C22.75 19.8472 20.8472 21.75 18.5 21.75C16.1528 21.75 14.25 19.8472 14.25 17.5Z" fill="#141B34"/>
<path fill-rule="evenodd" clip-rule="evenodd" d="M5.5 14.75C3.98122 14.75 2.75 15.9812 2.75 17.5C2.75 19.0188 3.98122 20.25 5.5 20.25C7.01878 20.25 8.25 19.0188 8.25 17.5C8.25 15.9812 7.01878 14.75 5.5 14.75ZM1.25 17.5C1.25 15.1528 3.15279 13.25 5.5 13.25C7.84721 13.25 9.75 15.1528 9.75 17.5C9.75 19.8472 7.84721 21.75 5.5 21.75C3.15279 21.75 1.25 19.8472 1.25 17.5Z" fill="#141B34"/>
</svg>
