<svg width="25" height="24" viewBox="0 0 25 24" fill="none" xmlns="http://www.w3.org/2000/svg">
<path fill-rule="evenodd" clip-rule="evenodd" d="M21.333 7.75C18.9858 7.75 17.083 9.65279 17.083 12C17.083 14.3472 18.9858 16.25 21.333 16.25C21.7472 16.25 22.083 16.5858 22.083 17C22.083 17.4142 21.7472 17.75 21.333 17.75C18.1574 17.75 15.583 15.1756 15.583 12C15.583 8.82436 18.1574 6.25 21.333 6.25C21.7472 6.25 22.083 6.58579 22.083 7C22.083 7.41421 21.7472 7.75 21.333 7.75Z" fill="#141B34"/>
<path fill-rule="evenodd" clip-rule="evenodd" d="M21.333 3.75C16.7767 3.75 13.083 7.44365 13.083 12C13.083 16.5563 16.7767 20.25 21.333 20.25C21.7472 20.25 22.083 20.5858 22.083 21C22.083 21.4142 21.7472 21.75 21.333 21.75C15.9482 21.75 11.583 17.3848 11.583 12C11.583 6.61522 15.9482 2.25 21.333 2.25C21.7472 2.25 22.083 2.58579 22.083 3C22.083 3.41421 21.7472 3.75 21.333 3.75Z" fill="#141B34"/>
<path fill-rule="evenodd" clip-rule="evenodd" d="M6.33301 2.25C6.74722 2.25 7.08301 2.58579 7.08301 3L7.08301 8C7.08301 8.41421 6.74722 8.75 6.33301 8.75C5.91879 8.75 5.58301 8.41421 5.58301 8L5.58301 3C5.58301 2.58579 5.91879 2.25 6.33301 2.25ZM6.33301 10.25C6.74722 10.25 7.08301 10.5858 7.08301 11L7.08301 21C7.08301 21.4142 6.74722 21.75 6.33301 21.75C5.9188 21.75 5.58301 21.4142 5.58301 21L5.58301 11C5.58301 10.5858 5.91879 10.25 6.33301 10.25Z" fill="#141B34"/>
<path fill-rule="evenodd" clip-rule="evenodd" d="M3.08301 8C3.08301 7.58579 3.41879 7.25 3.83301 7.25H8.83301C9.24722 7.25 9.58301 7.58579 9.58301 8C9.58301 8.41421 9.24722 8.75 8.83301 8.75H3.83301C3.41879 8.75 3.08301 8.41421 3.08301 8Z" fill="#141B34"/>
<path fill-rule="evenodd" clip-rule="evenodd" d="M9.33301 2.25C9.74722 2.25 10.083 2.58579 10.083 3L10.083 7.35224C10.083 8.726 9.6564 9.82966 8.94602 10.5974C8.23858 11.3621 7.28758 11.75 6.33299 11.75C5.3784 11.75 4.42741 11.362 3.71998 10.5973C3.00962 9.82951 2.58301 8.72583 2.58301 7.35207L2.58301 3C2.58301 2.58579 2.91879 2.25 3.33301 2.25C3.74722 2.25 4.08301 2.58579 4.08301 3L4.08301 7.35208C4.08301 8.41021 4.4064 9.13048 4.82103 9.57865C5.2386 10.03 5.78762 10.25 6.33303 10.25C6.87844 10.25 7.42744 10.03 7.845 9.57875C8.25962 9.13062 8.58301 8.41038 8.58301 7.35224L8.58301 3C8.58301 2.58579 8.91879 2.25 9.33301 2.25Z" fill="#141B34"/>
</svg>
