<svg width="25" height="24" viewBox="0 0 25 24" fill="none" xmlns="http://www.w3.org/2000/svg">
<path fill-rule="evenodd" clip-rule="evenodd" d="M19.6092 22.0572C19.14 21.6611 18.3036 21.6434 17.806 22.0312C17.2272 22.4823 16.4772 22.7248 15.7451 22.7481C15.0122 22.7715 14.2238 22.5762 13.6092 22.0572C13.1149 21.6399 12.293 21.6516 11.7244 22.0947C11.1475 22.5445 10.3824 22.7427 9.67139 22.7428C8.96135 22.7428 8.18654 22.5448 7.60918 22.0572M20.5769 20.9112C20.7777 21.0807 21.035 21.1701 21.3947 21.207C21.6656 21.2347 21.9253 21.2297 22.2266 21.2239C22.363 21.2212 22.5081 21.2184 22.6665 21.2184C23.0807 21.2184 23.4165 21.5542 23.4165 21.9684C23.4165 22.3826 23.0807 22.7184 22.6665 22.7184C22.5712 22.7184 22.4637 22.7205 22.3482 22.7227C22.0125 22.7291 21.6093 22.7368 21.2418 22.6992C20.7139 22.6451 20.1246 22.4924 19.6092 22.0572M20.5769 20.9112C19.5591 20.0518 17.9341 20.0296 16.8839 20.8481L20.5769 20.9112ZM16.8839 20.8481L17.3303 21.4209L16.8839 20.8481ZM10.8023 20.9117C11.8426 20.1009 13.46 19.968 14.5769 20.9112C14.8463 21.1386 15.2448 21.2633 15.6973 21.2489C16.1505 21.2344 16.5845 21.0814 16.8839 20.8481L17.3303 21.4209M10.8023 20.9117C10.5502 21.1082 10.1355 21.2427 9.67127 21.2428L10.8023 20.9117ZM9.67127 21.2428C9.20611 21.2428 8.81031 21.1082 8.5769 20.9112L9.67127 21.2428Z" fill="#141B34"/>
<path fill-rule="evenodd" clip-rule="evenodd" d="M19.6092 18.0572C19.14 17.6611 18.3036 17.6434 17.806 18.0312C17.2272 18.4823 16.4772 18.7248 15.7451 18.7481C15.0122 18.7715 14.2238 18.5762 13.6092 18.0572C13.1149 17.6399 12.293 17.6516 11.7244 18.0947C11.1475 18.5445 10.3824 18.7427 9.67139 18.7428C8.96135 18.7428 8.18654 18.5448 7.60918 18.0572M20.5769 16.9112C20.7777 17.0807 21.035 17.1701 21.3947 17.207C21.6656 17.2347 21.9253 17.2297 22.2266 17.2239C22.363 17.2212 22.5081 17.2184 22.6665 17.2184C23.0807 17.2184 23.4165 17.5542 23.4165 17.9684C23.4165 18.3826 23.0807 18.7184 22.6665 18.7184C22.5712 18.7184 22.4637 18.7205 22.3482 18.7227C22.0125 18.7291 21.6093 18.7368 21.2418 18.6992C20.7139 18.6451 20.1246 18.4924 19.6092 18.0572M20.5769 16.9112C19.5591 16.0518 17.9341 16.0296 16.8839 16.8481L20.5769 16.9112ZM16.8839 16.8481L17.3303 17.4209L16.8839 16.8481ZM10.8023 16.9117C11.8426 16.1009 13.46 15.968 14.5769 16.9112C14.8463 17.1386 15.2448 17.2633 15.6973 17.2489C16.1505 17.2344 16.5845 17.0814 16.8839 16.8481L17.3303 17.4209M10.8023 16.9117C10.5502 17.1082 10.1355 17.2427 9.67127 17.2428L10.8023 16.9117ZM9.67127 17.2428C9.20611 17.2428 8.81031 17.1082 8.5769 16.9112L9.67127 17.2428Z" fill="#141B34"/>
<path fill-rule="evenodd" clip-rule="evenodd" d="M1.9165 14C1.9165 13.5858 2.25229 13.25 2.6665 13.25H22.6665C23.0807 13.25 23.4165 13.5858 23.4165 14C23.4165 14.4142 23.0807 14.75 22.6665 14.75H2.6665C2.25229 14.75 1.9165 14.4142 1.9165 14Z" fill="#141B34"/>
<path fill-rule="evenodd" clip-rule="evenodd" d="M6.6665 2.25C6.97914 2.25 7.25898 2.44393 7.36875 2.73666C7.47109 3.00957 7.72799 3.54327 8.13953 3.99475C8.54588 4.44053 9.04691 4.75 9.6665 4.75C10.0807 4.75 10.4165 5.08579 10.4165 5.5C10.4165 5.91421 10.0807 6.25 9.6665 6.25C8.72307 6.25 7.97539 5.86213 7.4165 5.38089V5.85557C7.5405 6.14695 7.78149 6.60196 8.13953 6.99475C8.54588 7.44053 9.04691 7.75 9.6665 7.75C10.0807 7.75 10.4165 8.08579 10.4165 8.5C10.4165 8.91421 10.0807 9.25 9.6665 9.25C8.72307 9.25 7.97539 8.86213 7.4165 8.38089V14C7.4165 14.4142 7.08072 14.75 6.6665 14.75C6.25229 14.75 5.9165 14.4142 5.9165 14V8.38089C5.35762 8.86213 4.60993 9.25 3.6665 9.25C3.25229 9.25 2.9165 8.91421 2.9165 8.5C2.9165 8.08579 3.25229 7.75 3.6665 7.75C4.2861 7.75 4.78713 7.44053 5.19347 6.99475C5.55152 6.60196 5.7925 6.14695 5.9165 5.85557V5.38089C5.35762 5.86213 4.60993 6.25 3.6665 6.25C3.25229 6.25 2.9165 5.91421 2.9165 5.5C2.9165 5.08579 3.25229 4.75 3.6665 4.75C4.2861 4.75 4.78713 4.44053 5.19347 3.99475C5.60502 3.54327 5.86191 3.00957 5.96426 2.73666C6.07403 2.44393 6.35387 2.25 6.6665 2.25Z" fill="#141B34"/>
<path fill-rule="evenodd" clip-rule="evenodd" d="M18.1665 2.75C17.2 2.75 16.4165 3.5335 16.4165 4.5C16.4165 5.4665 17.2 6.25 18.1665 6.25C19.133 6.25 19.9165 5.4665 19.9165 4.5C19.9165 3.5335 19.133 2.75 18.1665 2.75ZM14.9165 4.5C14.9165 2.70507 16.3716 1.25 18.1665 1.25C19.9614 1.25 21.4165 2.70507 21.4165 4.5C21.4165 6.29493 19.9614 7.75 18.1665 7.75C16.3716 7.75 14.9165 6.29493 14.9165 4.5Z" fill="#141B34"/>
</svg>
