<svg width="24" height="24" viewBox="0 0 24 24" fill="none" xmlns="http://www.w3.org/2000/svg">
<path fill-rule="evenodd" clip-rule="evenodd" d="M1.25 17.5C1.25 17.0858 1.58579 16.75 2 16.75L22 16.75C22.4142 16.75 22.75 17.0858 22.75 17.5C22.75 17.9142 22.4142 18.25 22 18.25L2 18.25C1.58579 18.25 1.25 17.9142 1.25 17.5Z" fill="black"/>
<path fill-rule="evenodd" clip-rule="evenodd" d="M5.948 11.25L18.052 11.25C18.9505 11.25 19.6997 11.2499 20.2945 11.3299C20.9223 11.4143 21.4891 11.6 21.9445 12.0555C22.4 12.5109 22.5857 13.0777 22.6701 13.7055C22.7501 14.3003 22.75 15.0495 22.75 15.948L22.75 21C22.75 21.4142 22.4142 21.75 22 21.75C21.5858 21.75 21.25 21.4142 21.25 21L21.25 16C21.25 15.036 21.2484 14.3884 21.1835 13.9054C21.1214 13.4439 21.0142 13.2464 20.8839 13.1161C20.7536 12.9858 20.5561 12.8786 20.0946 12.8165C19.6116 12.7516 18.964 12.75 18 12.75L6 12.75C5.03599 12.75 4.38843 12.7516 3.90539 12.8165C3.44393 12.8786 3.24644 12.9858 3.11612 13.1161C2.9858 13.2464 2.87858 13.4439 2.81654 13.9054C2.7516 14.3884 2.75 15.036 2.75 16L2.75 21C2.75 21.4142 2.41422 21.75 2 21.75C1.58579 21.75 1.25 21.4142 1.25 21L1.25 15.948C1.24997 15.0495 1.24995 14.3003 1.32991 13.7055C1.41432 13.0777 1.59999 12.5109 2.05546 12.0555C2.51093 11.6 3.07773 11.4143 3.70552 11.3299C4.3003 11.2499 5.04952 11.25 5.948 11.25Z" fill="black"/>
<path fill-rule="evenodd" clip-rule="evenodd" d="M6.75007 10.1937C6.75002 10.2 6.75 10.2065 6.75 10.2134L6.75 12C6.75 12.4142 6.41421 12.75 6 12.75C5.58579 12.75 5.25 12.4142 5.25 12V10.2134C5.25 10.0177 5.25737 9.72642 5.39951 9.45247C5.55816 9.14672 5.81389 8.9874 6.00846 8.88779C6.69241 8.53762 7.551 8.25 8.5 8.25C9.449 8.25 10.3076 8.53762 10.9915 8.88779C11.1861 8.9874 11.4418 9.14672 11.6005 9.45247C11.7426 9.72642 11.75 10.0177 11.75 10.2134V12C11.75 12.4142 11.4142 12.75 11 12.75C10.5858 12.75 10.25 12.4142 10.25 12V10.2134C10.25 10.2065 10.25 10.2 10.2499 10.1937C9.72663 9.93427 9.12507 9.75 8.5 9.75C7.87493 9.75 7.27337 9.93427 6.75007 10.1937Z" fill="black"/>
<path fill-rule="evenodd" clip-rule="evenodd" d="M13.7501 10.1937C13.75 10.2 13.75 10.2065 13.75 10.2134V12C13.75 12.4142 13.4142 12.75 13 12.75C12.5858 12.75 12.25 12.4142 12.25 12L12.25 10.2134C12.25 10.0177 12.2574 9.72642 12.3995 9.45247C12.5582 9.14672 12.8139 8.9874 13.0085 8.88779C13.6924 8.53762 14.551 8.25 15.5 8.25C16.449 8.25 17.3076 8.53762 17.9915 8.88779C18.1861 8.9874 18.4418 9.14672 18.6005 9.45247C18.7426 9.72642 18.75 10.0177 18.75 10.2134V12C18.75 12.4142 18.4142 12.75 18 12.75C17.5858 12.75 17.25 12.4142 17.25 12V10.2134C17.25 10.2065 17.25 10.2 17.2499 10.1937C16.7266 9.93427 16.1251 9.75 15.5 9.75C14.8749 9.75 14.2734 9.93427 13.7501 10.1937Z" fill="black"/>
<path fill-rule="evenodd" clip-rule="evenodd" d="M11.9998 3.75C9.23852 3.75 6.6876 4.51166 4.59945 5.80098C4.00657 6.16706 3.91767 6.24209 3.8384 6.37683C3.77185 6.48994 3.74984 6.59865 3.74984 7.36057L3.74984 12C3.74984 12.4142 3.41405 12.75 2.99984 12.75C2.58562 12.75 2.24984 12.4142 2.24984 12L2.24984 7.36057C2.24984 7.32261 2.24976 7.28479 2.24967 7.24712C2.24842 6.66813 2.24723 6.12328 2.54555 5.61622L3.19197 5.99653L2.54555 5.61622C2.83386 5.12615 3.25949 4.86429 3.72943 4.57516C3.75661 4.55844 3.78394 4.54163 3.81139 4.52467C6.13836 3.08789 8.9625 2.25 11.9998 2.25C15.0372 2.25 17.8613 3.08789 20.1883 4.52467C20.2157 4.54163 20.2431 4.55844 20.2702 4.57516C20.7402 4.86429 21.1658 5.12615 21.4541 5.61622C21.7524 6.12328 21.7513 6.66813 21.75 7.24712C21.7499 7.28479 21.7498 7.32261 21.7498 7.36057L21.7498 12C21.7498 12.4142 21.4141 12.75 20.9998 12.75C20.5856 12.75 20.2498 12.4142 20.2498 12L20.2498 7.36057C20.2498 6.59865 20.2278 6.48994 20.1613 6.37683C20.082 6.24209 19.9931 6.16706 19.4002 5.80098C17.3121 4.51166 14.7612 3.75 11.9998 3.75Z" fill="black"/>
</svg>
