<svg width="25" height="24" viewBox="0 0 25 24" fill="none" xmlns="http://www.w3.org/2000/svg">
<path fill-rule="evenodd" clip-rule="evenodd" d="M2.3332 15.7501L2.04408 15.0581C1.66188 15.2177 1.48149 15.657 1.64117 16.0392C1.8008 16.4213 2.23982 16.6017 2.62192 16.4423L2.62094 16.4427C2.62036 16.4429 2.62066 16.4428 2.62094 16.4427L2.62928 16.4394C2.63846 16.4358 2.65446 16.4296 2.6772 16.4211C2.72269 16.4043 2.79509 16.3785 2.89368 16.3468C3.09085 16.2833 3.39265 16.1958 3.79314 16.1074C4.59395 15.9306 5.78966 15.75 7.3332 15.75C9.60044 15.75 11.6574 16.4007 13.9436 17.1239C14.0394 17.1542 14.1357 17.1847 14.2324 17.2152C16.6105 17.9662 19.2073 18.75 22.3332 18.75C22.7474 18.75 23.0832 18.4142 23.0832 18C23.0832 17.5858 22.7474 17.25 22.3332 17.25C19.4591 17.25 17.0559 16.5338 14.6841 15.7848C14.5664 15.7476 14.4486 15.7104 14.3308 15.673C12.099 14.966 9.83866 14.25 7.3332 14.25C5.67208 14.25 4.36779 14.4444 3.46977 14.6427C3.02084 14.7418 2.67352 14.8418 2.43392 14.919C2.31412 14.9576 2.22123 14.9904 2.15601 15.0146C2.1234 15.0267 2.0977 15.0366 2.07902 15.0439L2.05626 15.053L2.04884 15.0561L2.04612 15.0572L2.04502 15.0577C2.04479 15.0578 2.04408 15.0581 2.3332 15.7501Z" fill="#141B34"/>
<path fill-rule="evenodd" clip-rule="evenodd" d="M1.58301 21C1.58301 20.5858 1.91879 20.25 2.33301 20.25H22.333C22.7472 20.25 23.083 20.5858 23.083 21C23.083 21.4142 22.7472 21.75 22.333 21.75H2.33301C1.91879 21.75 1.58301 21.4142 1.58301 21Z" fill="#141B34"/>
<path fill-rule="evenodd" clip-rule="evenodd" d="M19.3541 6.89998C18.1872 4.49347 15.6113 3.23839 13.1338 3.9489C10.6555 4.6596 8.99188 7.13115 9.08682 9.84921C9.08932 9.92075 9.09158 9.98488 9.09395 10.0432C9.15768 9.99905 9.22843 9.94908 9.30923 9.89199L10.5508 9.01464C10.874 8.78623 11.2644 8.67218 11.6626 8.69776L14.3143 8.86811L16.5359 7.29826C16.8591 7.06985 17.2495 6.95581 17.6476 6.98139L19.169 7.07912C19.2759 7.08599 19.3675 7.09184 19.4485 7.09606C19.421 7.03815 19.3898 6.9737 19.3541 6.89998ZM12.7203 2.50702C15.9652 1.57644 19.2499 3.247 20.7038 6.24556C20.7105 6.25943 20.7173 6.27341 20.7241 6.28749C20.8378 6.52145 20.9642 6.78177 21.0287 7.01819C21.1111 7.32046 21.1232 7.68778 20.8924 8.04562C20.6454 8.42869 20.2713 8.55305 19.9605 8.5885C19.7089 8.61721 19.4044 8.5975 19.121 8.57914C19.1049 8.5781 19.0888 8.57706 19.0728 8.57603L17.5515 8.4783C17.5035 8.47522 17.4512 8.48814 17.4015 8.52327L14.9635 10.2461C14.8235 10.345 14.6538 10.393 14.4826 10.382L11.5664 10.1947C11.5185 10.1916 11.4662 10.2045 11.4165 10.2396L10.1749 11.117C10.1615 11.1265 10.148 11.136 10.1345 11.1456C9.89211 11.317 9.63498 11.4989 9.4005 11.6089C9.11488 11.7428 8.71523 11.8402 8.29374 11.622C7.89952 11.418 7.73303 11.0731 7.66359 10.7629C7.60892 10.5186 7.59869 10.2204 7.58939 9.94955C7.58884 9.93345 7.58829 9.91746 7.58774 9.90157C7.4715 6.57402 9.50722 3.42844 12.7203 2.50702Z" fill="#141B34"/>
<path fill-rule="evenodd" clip-rule="evenodd" d="M12.1272 1.27905C12.5254 1.16526 12.9406 1.39588 13.0543 1.79415L13.3401 2.79415C13.4539 3.19243 13.2232 3.60754 12.825 3.72134C12.4267 3.83513 12.0116 3.60451 11.8978 3.20623L11.6121 2.20623C11.4983 1.80796 11.7289 1.39284 12.1272 1.27905ZM14.64 8.77552C15.0402 8.66879 15.4511 8.90672 15.5579 9.30695L17.5579 16.8069C17.6646 17.2072 17.4267 17.6181 17.0264 17.7249C16.6262 17.8316 16.2153 17.5937 16.1085 17.1934L14.1085 9.69344C14.0018 9.29321 14.2397 8.88224 14.64 8.77552Z" fill="#141B34"/>
</svg>
