<svg version="1.1" id="Слой_1" xmlns="http://www.w3.org/2000/svg" xmlns:xlink="http://www.w3.org/1999/xlink" x="0" y="0" viewBox="0 0 20 20" style="enable-background:new 0 0 20 20" xml:space="preserve"><style>.st1{fill:#1d1d1b}</style><defs><path id="SVGID_1_" d="M0 0h20v20H0z"/></defs><clipPath id="SVGID_2_"><use xlink:href="#SVGID_1_" style="overflow:visible"/></clipPath><g style="clip-path:url(#SVGID_2_)"><path class="st1" d="M17.1 2.9c-.9-1-2-1.7-3.2-2.2-1.2-.5-2.5-.8-3.9-.8-1.3 0-2.6.2-3.9.7-1.2.5-2.4 1.3-3.3 2.2-.9.9-1.7 2.1-2.2 3.3C.1 7.3-.1 8.6-.1 10c0 1.3.3 2.6.8 3.9.5 1.1 1.3 2.2 2.2 3.2.9 1 2 1.7 3.2 2.2 1.2.5 2.5.8 3.9.8 1.3 0 2.6-.2 3.9-.7 1.2-.5 2.3-1.2 3.3-2.2s1.7-2.1 2.2-3.3c.5-1.2.8-2.5.7-3.9 0-1.3-.3-2.6-.8-3.9-.5-1.1-1.3-2.2-2.2-3.2zm-7.1 16c-1.8 0-3.5-.5-4.9-1.5-1.5-1-2.6-2.4-3.3-4-.7-1.6-.9-3.4-.5-5.1.3-1.8 1.2-3.3 2.4-4.6C5 2.5 6.5 1.6 8.3 1.3c1.7-.3 3.5-.2 5.1.5s3 1.8 4 3.3c1 1.5 1.5 3.2 1.5 4.9 0 2.4-.9 4.6-2.6 6.3-1.7 1.6-3.9 2.6-6.3 2.6z"/><path class="st1" d="M13.3 10.8c-.2-.2-.4-.4-.5-.7-.1-.7-.5-1.2-1-1.7-.5-.4-1.1-.6-1.8-.6s-1.3.2-1.8.6c-.5.4-.9 1-1 1.7-.1.3-.2.5-.5.7-.4.3-.7.7-.9 1.1-.2.4-.3.9-.3 1.4 0 .5.1.9.3 1.3.2.4.5.8.8 1 .4.3.8.5 1.2.6.4.1.9.1 1.3 0 .5-.1 1-.1 1.5 0 .2 0 .4.1.6.1h.1c.8 0 1.5-.4 2.1-.9.6-.6.9-1.3.9-2.1 0-.5-.1-1-.3-1.4 0-.4-.3-.8-.7-1.1zm.3 2.5c0 .6-.3 1.1-.7 1.5-.4.4-.9.6-1.5.7h-.5c-.6-.1-1.2-.1-1.8 0h-.5c-.6 0-1.1-.3-1.5-.7s-.6-.9-.6-1.5c0-.3 0-.7.2-1 0-.3.3-.6.5-.8.4-.3.6-.7.8-1.1.1-.5.3-.9.7-1.2.4-.4.8-.6 1.3-.6s1 .2 1.3.5c.4.3.6.8.7 1.2.1.4.4.8.7 1.1.3.2.5.5.6.8.2.4.3.7.3 1.1zM12.2 7.4c.3 0 .6-.1.9-.3.3-.2.5-.4.6-.7.1-.3.1-.6.1-.9s-.3-.5-.5-.7c-.2-.2-.5-.4-.8-.4-.3-.1-.6 0-.9.1-.3.1-.5.3-.7.6-.2.3-.3.6-.3.9 0 .2 0 .4.1.6.2.1.3.2.4.4.3.3.7.4 1.1.4zm0-2.2c.1 0 .3 0 .4.1.1.1.2.2.2.3.1.1.1.3 0 .4 0 .1-.1.2-.2.3-.1.1-.2.2-.3.2h-.4c-.1 0-.2-.1-.3-.2-.1-.1-.1-.2-.1-.4s.1-.3.2-.5c.2-.1.3-.2.5-.2zM6.9 8.7c0-.3-.1-.5-.2-.8-.1-.2-.4-.4-.6-.5-.3-.1-.5-.1-.8 0-.3 0-.5.2-.7.3-.2.2-.3.5-.4.8 0 .2 0 .5.1.8.1.3.3.5.5.6.2.1.5.2.8.2.2 0 .4 0 .5-.1.2-.1.3-.2.4-.3.1-.1.2-.3.3-.4.1-.2.1-.4.1-.6zm-1.8 0c0-.1 0-.2.1-.3l.2-.2h.3c.1 0 .2.1.2.1.1.2.1.2.2.3v.3c-.1.1-.2.2-.3.2 0 .1-.1.1-.2.1h-.2c-.1 0-.1-.1-.2-.1 0 0-.1-.1-.1-.2v-.2zM14.4 7.4c-.3 0-.5.1-.8.2-.2.2-.4.4-.5.6-.1.3-.1.5 0 .8.1.3.2.5.4.7.2.2.4.3.7.4.3.1.5 0 .8-.1.3-.1.5-.3.6-.5.2-.2.2-.5.2-.8 0-.2 0-.4-.1-.5-.1-.2-.2-.3-.3-.4-.1-.1-.3-.2-.4-.3-.2-.1-.4-.2-.6-.1zm0 1.8c-.1 0-.2 0-.3-.1 0 0-.1-.1-.1-.2s-.1-.2 0-.3c0-.1.1-.2.1-.3.1-.1.2-.1.3-.1h.3c.1 0 .2.1.2.2.1.1.1.2.1.3v.2c0 .1-.2.1-.2.2 0 0-.1.1-.2.1h-.2zM8 7.4c.3 0 .6-.1.9-.3.2-.1.4-.3.5-.6.1-.3.2-.6.1-.9 0-.3-.2-.6-.4-.8-.2-.2-.5-.4-.8-.4-.3-.1-.6-.1-.9 0-.3.2-.5.4-.7.6-.1.3-.2.6-.2.9 0 .4.2.8.4 1.1.3.3.7.4 1.1.4zm0-2.2c.1 0 .3 0 .4.1.1.1.2.2.2.3 0 .1.1.3 0 .4 0 .1-.1.2-.2.3 0 .1-.1.2-.3.2h-.4c-.1 0-.2-.1-.3-.2 0-.2-.1-.3-.1-.4 0-.2.1-.3.2-.5.2-.1.3-.2.5-.2z"/></g></svg>