<svg width="1060" height="82" fill="none" xmlns="http://www.w3.org/2000/svg"><path d="M76.131 34.77V1.36h11.652v79.28H76.13V44.739h-64.48V80.64H0V1.359h11.652v33.412h64.48ZM205.975 80.64h-12.33l-8.032-15.969h-54.864l-8.032 15.97h-12.33L151.45 1.359h13.462l41.063 79.282ZM135.5 55.27h45.362l-18.213-35.903c-2.488-4.983-3.733-8.645-3.733-10.986v-.113h-1.47v.113c0 2.34-1.245 6.003-3.733 10.986L135.5 55.271ZM259.081 80.64h-11.652V11.327h-35.86V1.359h83.371v9.967h-35.859v69.315ZM384.433 1.36h13.461l-39.593 62.858c-3.846 6.116-7.843 10.609-11.991 13.478-4.147 2.87-9.351 4.304-15.611 4.304-3.544 0-6.825-.49-9.841-1.472V70.334c3.016.755 5.844 1.133 8.484 1.133 4.374 0 7.956-.755 10.747-2.265 2.865-1.51 5.354-3.964 7.466-7.362l1.357-2.265-39.819-58.216h13.688l26.923 40.774c1.508 2.34 2.64 4.341 3.394 6.002.829 1.586 1.244 2.983 1.244 4.191v.68h1.471v-.68c0-1.284.339-2.718 1.018-4.304.754-1.661 1.81-3.624 3.167-5.89L384.433 1.36ZM469.083 1.36c10.181 0 17.949 2.34 23.303 7.021 5.355 4.606 8.032 10.91 8.032 18.915 0 8.003-2.677 14.346-8.032 19.027-5.354 4.606-13.122 6.909-23.303 6.909h-38.009v27.409h-11.651V1.359h49.66Zm0 41.905c6.411 0 11.275-1.434 14.593-4.304 3.394-2.869 5.091-6.758 5.091-11.665 0-4.908-1.697-8.797-5.091-11.666-3.318-2.87-8.182-4.304-14.593-4.304h-38.348v31.94h38.348ZM605.624 80.64h-12.331l-8.031-15.969h-54.865l-8.031 15.97h-12.331l41.064-79.282h13.461l41.064 79.282Zm-70.476-25.37h45.362l-18.212-35.903c-2.489-4.983-3.733-8.645-3.733-10.986v-.113h-1.471v.113c0 2.34-1.244 6.003-3.733 10.986l-18.213 35.904ZM625.759 82c-2.866 0-5.43-.415-7.692-1.246V70.561c1.659.604 3.431.906 5.317.906 3.695 0 6.485-1.02 8.371-3.058 1.961-2.039 3.205-5.512 3.733-10.42l6.335-56.63h74.208v79.282h-11.652V11.326h-52.262L646.8 59.801c-.754 7.249-2.941 12.76-6.561 16.536-3.545 3.775-8.371 5.663-14.48 5.663ZM746.611 80.64V1.36h11.312v55.95c0 3.322-.151 6.153-.452 8.494-.302 2.265-.792 4.908-1.471 7.928h1.471l59.728-72.373h18.326v79.282h-11.312V24.69c0-3.323.151-6.116.452-8.382.302-2.34.792-5.02 1.471-8.041h-1.471l-59.728 72.373h-18.326ZM912.854 82c-10.709 0-19.872-1.774-27.489-5.323-7.617-3.549-13.424-8.42-17.421-14.61-3.921-6.268-5.882-13.29-5.882-21.067 0-7.777 1.961-14.762 5.882-20.953 3.997-6.267 9.804-11.175 17.421-14.724C892.982 1.774 902.145 0 912.854 0c10.03 0 18.627 1.435 25.792 4.304 7.164 2.794 12.782 6.644 16.855 11.552 4.148 4.908 6.863 10.458 8.145 16.65h-11.652c-1.659-6.494-5.732-11.855-12.217-16.083-6.41-4.304-15.385-6.456-26.923-6.456-8.221 0-15.31 1.359-21.267 4.077-5.883 2.718-10.332 6.418-13.349 11.1-3.016 4.681-4.525 9.967-4.525 15.856 0 5.89 1.509 11.175 4.525 15.856 3.017 4.682 7.466 8.382 13.349 11.1 5.957 2.718 13.046 4.077 21.267 4.077 11.538 0 20.513-2.114 26.923-6.342 6.485-4.304 10.558-9.703 12.217-16.197h11.652c-1.886 9.816-7.052 17.707-15.498 23.672-8.447 5.89-20.211 8.834-35.294 8.834ZM1024.14 80.64h-11.65V11.327h-35.861V1.359H1060v9.967h-35.86v69.315Z" fill="#000"/></svg>