<svg width="20" height="20" fill="none" xmlns="http://www.w3.org/2000/svg"><g clip-path="url(#a)" fill="#000"><path d="M17.07 2.93A10 10 0 1 0 2.93 17.07 10 10 0 1 0 17.07 2.93ZM10 18.89A8.89 8.89 0 1 1 18.89 10 8.9 8.9 0 0 1 10 18.89Z"/><path d="M14.35 5.26h-.57a1.08 1.08 0 0 0-1.048-.953 1.08 1.08 0 0 0-1.102.953H8.35a1.11 1.11 0 0 0-.52-.81 1.09 1.09 0 0 0-1.08 0 1.11 1.11 0 0 0-.55.8h-.57a1.33 1.33 0 0 0-1.31 1.33v7.79a1.33 1.33 0 0 0 1.31 1.31h8.72a1.292 1.292 0 0 0 .92-.39 1.26 1.26 0 0 0 .38-.92v-7.8a1.301 1.301 0 0 0-1.3-1.31Zm-6.85.67a.23.23 0 1 1-.46 0v-.5a.23.23 0 1 1 .46 0v.5Zm5.43 0a.23.23 0 1 1-.46 0v-.5a.24.24 0 0 1 .23-.23.23.23 0 0 1 .23.23v.5ZM5.17 8.85h9.63V11h-1.91a.419.419 0 0 0-.43.42v1.91H5.78a.62.62 0 0 1-.43-.18.64.64 0 0 1-.18-.43V8.85Zm8.14 3.87v-.87h.88l-.88.87ZM5.17 14c.192.088.4.132.61.13h7.11a.43.43 0 0 0 .3-.13l1.61-1.59v1.93a.42.42 0 0 1-.13.32.45.45 0 0 1-.32.14H5.63a.48.48 0 0 1-.46-.46V14Zm9.63-6H5.17V6.57a.46.46 0 0 1 .46-.46h.57a1.06 1.06 0 0 0 .51.81 1.07 1.07 0 0 0 1.63-.77h3.29a1.081 1.081 0 0 0 1.977.47 1.08 1.08 0 0 0 .173-.47h.57a.45.45 0 0 1 .32.14.42.42 0 0 1 .13.32V8Z"/></g><defs><clipPath id="a"><path fill="#fff" d="M0 0h20v20H0z"/></clipPath></defs></svg>