<svg width="20" height="20" fill="none" xmlns="http://www.w3.org/2000/svg"><g clip-path="url(#a)" fill="#000"><path d="M17.07 2.93A10 10 0 1 0 2.93 17.07 10 10 0 1 0 17.07 2.93ZM10 18.89A8.89 8.89 0 1 1 18.89 10 8.9 8.9 0 0 1 10 18.89Z"/><path d="M15.47 9.48V7.1a1.83 1.83 0 0 0-1.82-1.82H6.36A1.83 1.83 0 0 0 4.53 7.1v2.39a1.82 1.82 0 0 0-1.36 1.77V12A1.83 1.83 0 0 0 5 13.77h.53v.46a.44.44 0 0 0 .46.45.44.44 0 0 0 .45-.45v-.46h7.15v.46a.442.442 0 0 0 .45.45.442.442 0 0 0 .46-.45v-.46h.5A1.83 1.83 0 0 0 16.84 12v-.69a1.85 1.85 0 0 0-1.37-1.83ZM6.36 6.19h7.29a.91.91 0 0 1 .91.91v2.33H14v-.76a.6.6 0 0 0-.6-.6h-2.48a.6.6 0 0 0-.61.6v.76H9.7v-.76a.6.6 0 0 0-.61-.6H6.66a.61.61 0 0 0-.61.6v.76h-.6V7.1a.91.91 0 0 1 .91-.91ZM13 9v.46h-1.78V9H13ZM8.79 9v.46H7V9h1.79Zm7.14 3a.92.92 0 0 1-.91.92H5a.92.92 0 0 1-.91-.92v-.69a.91.91 0 0 1 .91-.98h10a.91.91 0 0 1 .91.91l.02.76Z"/></g><defs><clipPath id="a"><path fill="#fff" d="M0 0h20v20H0z"/></clipPath></defs></svg>