<svg width="20" height="20" fill="none" xmlns="http://www.w3.org/2000/svg"><g clip-path="url(#a)" fill="#000"><path d="M17.07 2.93A10 10 0 1 0 2.93 17.07 10 10 0 1 0 17.07 2.93ZM10 18.89A8.89 8.89 0 1 1 18.89 10 8.9 8.9 0 0 1 10 18.89Z"/><path d="M8.36 7.63a1.77 1.77 0 1 0-1.75 0 2.17 2.17 0 0 0-1.31 2v3.6a.42.42 0 0 0 .41.41h.47v1.62a.41.41 0 0 0 .41.42h1.78a.409.409 0 0 0 .41-.42v-1.62h.47a.42.42 0 0 0 .41-.41v-3.6a2.2 2.2 0 0 0-1.3-2Zm-.87-2.47a.94.94 0 1 1 0 1.88.94.94 0 0 1 0-1.88Zm1.34 7.65h-.46a.41.41 0 0 0-.41.42v1.62H7v-1.62a.41.41 0 0 0-.41-.42h-.46V9.63a1.35 1.35 0 1 1 2.7 0v3.18ZM13.39 7.63a1.76 1.76 0 1 0-2.63-1.53 1.78 1.78 0 0 0 .89 1.53 2.17 2.17 0 0 0-1.31 2v3.6a.41.41 0 0 0 .41.41h.46v1.62a.42.42 0 0 0 .42.42h1.78a.409.409 0 0 0 .41-.42v-1.62h.46a.42.42 0 0 0 .42-.41v-3.6a2.191 2.191 0 0 0-1.31-2Zm-.87-2.47a.94.94 0 1 1 .02 1.88.94.94 0 0 1-.02-1.88Zm1.35 7.65h-.46a.42.42 0 0 0-.42.42v1.62H12v-1.62a.41.41 0 0 0-.41-.42h-.46V9.63a1.35 1.35 0 1 1 2.7 0l.04 3.18Z"/></g><defs><clipPath id="a"><path fill="#fff" d="M0 0h20v20H0z"/></clipPath></defs></svg>