<svg width="20" height="20" fill="none" xmlns="http://www.w3.org/2000/svg"><g clip-path="url(#a)" fill="#000"><path d="M17.07 2.93A10 10 0 1 0 2.93 17.07 10 10 0 1 0 17.07 2.93ZM10 18.89A8.89 8.89 0 1 1 18.89 10 8.9 8.9 0 0 1 10 18.89Z"/><path d="M13.35 9.48V7.1a1.83 1.83 0 0 0-1.82-1.82h-3A1.83 1.83 0 0 0 6.65 7.1v2.4a1.8 1.8 0 0 0-1.36 1.76V12a1.83 1.83 0 0 0 1.82 1.83h.53v.45a.45.45 0 0 0 .46.46.441.441 0 0 0 .45-.46v-.45h2.9v.45a.46.46 0 1 0 .91 0v-.45h.53A1.831 1.831 0 0 0 14.72 12v-.73a1.85 1.85 0 0 0-1.37-1.79ZM8.48 6.19h3a.91.91 0 0 1 .91.91v2.34h-.62v-.76a.61.61 0 0 0-.61-.61H8.78a.61.61 0 0 0-.61.61v.76h-.6V7.1a.91.91 0 0 1 .91-.91ZM10.91 9v.45H9.09V9h1.82Zm2.89 3a.91.91 0 0 1-.91.91H7.11A.91.91 0 0 1 6.2 12v-.74a.91.91 0 0 1 .91-.91h5.78a.91.91 0 0 1 .91.91V12Z"/></g><defs><clipPath id="a"><path fill="#fff" d="M0 0h20v20H0z"/></clipPath></defs></svg>