<svg width="20" height="20" fill="none" xmlns="http://www.w3.org/2000/svg"><g clip-path="url(#a)" fill="#000"><path d="M17.07 2.93A10 10 0 1 0 2.93 17.07 10 10 0 1 0 17.07 2.93ZM10 18.89A8.89 8.89 0 1 1 18.89 10 8.9 8.9 0 0 1 10 18.89Z"/><path d="m10.58 6.13 1-1.79a.49.49 0 0 0-.2-.68.49.49 0 0 0-.68.19L10 5.08l-.67-1.23a.51.51 0 0 0-.949.303.5.5 0 0 0 .06.187l1 1.79L4.52 15a.51.51 0 0 0 .2.68.45.45 0 0 0 .25.07.51.51 0 0 0 .44-.26l.28-.49a.83.83 0 0 0 .8.78h7a.83.83 0 0 0 .8-.78l.28.52a.51.51 0 0 0 .45.26.44.44 0 0 0 .24-.07.51.51 0 0 0 .2-.68l-4.88-8.9ZM13.51 15h-1.57l-1.58-4.16a.39.39 0 0 0-.74 0L8.05 15H6.49v-1.43L10 7.18l3.52 6.39V15h-.01Zm-2.42 0h-2.2L10 12.08 11.09 15Z"/></g><defs><clipPath id="a"><path fill="#fff" d="M0 0h20v20H0z"/></clipPath></defs></svg>