<svg width="20" height="20" fill="none" xmlns="http://www.w3.org/2000/svg"><g clip-path="url(#a)" fill="#000"><path d="M17.07 2.93A10 10 0 1 0 2.93 17.07 10 10 0 1 0 17.07 2.93ZM10 18.89A8.89 8.89 0 1 1 18.89 10 8.9 8.9 0 0 1 10 18.89Z"/><path d="M7.39 7.63a1.77 1.77 0 1 0-1.75 0 2.17 2.17 0 0 0-1.31 2 .13.13 0 0 0 0 .06l.74 4.76a1.45 1.45 0 0 0 2.87 0l.74-4.76v-.06a2.18 2.18 0 0 0-1.29-2Zm-.87-2.47a.94.94 0 1 1 0 1.88.94.94 0 0 1 0-1.88Zm.61 9.16a.62.62 0 0 1-.62.53.61.61 0 0 1-.61-.53L5.16 9.6a1.35 1.35 0 1 1 2.7 0l-.73 4.72ZM14.9 8.68a1.43 1.43 0 0 0-.65-1 1.76 1.76 0 1 0-1.58 0 1.42 1.42 0 0 0-.64 1l-.74 4.75a.2.2 0 0 0 0 .07 2.18 2.18 0 1 0 4.36 0v-.07l-.75-4.75Zm-1.44-3.52a.94.94 0 1 1 .02 1.88.94.94 0 0 1-.02-1.88Zm0 9.69a1.36 1.36 0 0 1-1.35-1.32l.74-4.73a.61.61 0 0 1 .61-.52.62.62 0 0 1 .62.52l.73 4.73a1.34 1.34 0 0 1-1.35 1.32ZM10 4.28a.41.41 0 0 0-.41.42v11a.41.41 0 0 0 .82 0v-11a.41.41 0 0 0-.41-.42Z"/></g><defs><clipPath id="a"><path fill="#fff" d="M0 0h20v20H0z"/></clipPath></defs></svg>