<svg width="20" height="20" fill="none" xmlns="http://www.w3.org/2000/svg"><g clip-path="url(#a)" fill="#000"><path d="M17.07 2.93A10 10 0 1 0 2.93 17.07 10 10 0 1 0 17.07 2.93ZM10 18.89A8.89 8.89 0 1 1 18.89 10 8.9 8.9 0 0 1 10 18.89Z"/><path d="M10.09 7.91a1 1 0 0 0-.28.71.32.32 0 1 0 .64 0 .398.398 0 0 1 .12-.29 1 1 0 0 0 0-1.41.38.38 0 0 1-.12-.29.32.32 0 0 0-.32-.31.31.31 0 0 0-.32.31 1 1 0 0 0 .28.71.43.43 0 0 1 .12.29.42.42 0 0 1-.12.28Z"/><path d="M11.13 7.33a.43.43 0 0 1 .12.29.42.42 0 0 1-.12.28 1 1 0 0 0-.28.71.32.32 0 1 0 .63 0 .41.41 0 0 1 .13-.29 1 1 0 0 0 0-1.41.38.38 0 0 1-.12-.29.32.32 0 0 0-.32-.31.31.31 0 0 0-.32.31 1 1 0 0 0 .28.71Z"/><path d="M12.14 7.33a.43.43 0 0 1 .12.29.42.42 0 0 1-.12.28 1 1 0 0 0-.27.71.321.321 0 0 0 .32.32.32.32 0 0 0 .32-.32.45.45 0 0 1 .12-.29 1 1 0 0 0 0-1.41.39.39 0 0 1-.13-.29.32.32 0 0 0-.32-.31.31.31 0 0 0-.32.31 1 1 0 0 0 .28.71ZM7.12 6.44a1.19 1.19 0 0 0 1.21-1.19 1.21 1.21 0 0 0-2.24-.58 1.21 1.21 0 0 0-.18.58 1.2 1.2 0 0 0 .36.85c.229.22.533.341.85.34Zm-.45-.77a.59.59 0 0 1 .02-.85.6.6 0 0 1 1.02.44.61.61 0 0 1-.19.42.59.59 0 0 1-.42.17.6.6 0 0 1-.43-.18ZM5.74 5.25a.3.3 0 0 0-.3-.3h-.32a.3.3 0 1 0 0 .6h.32a.3.3 0 0 0 .3-.3ZM8.51 5.25a.29.29 0 0 0 .09.21.27.27 0 0 0 .21.09h.32a.3.3 0 0 0 0-.6H8.8a.31.31 0 0 0-.29.3ZM7.12 3.9a.29.29 0 0 0 .3-.29v-.32a.3.3 0 1 0-.59 0v.32a.29.29 0 0 0 .29.29ZM6.83 6.89v.32a.3.3 0 1 0 .59 0v-.32a.3.3 0 1 0-.59 0ZM5.73 4.3a.32.32 0 0 0 .2.08.34.34 0 0 0 .21-.08.3.3 0 0 0 0-.42l-.23-.22a.29.29 0 0 0-.41.41l.23.23ZM8.52 6.19a.29.29 0 0 0-.41 0 .3.3 0 0 0 0 .41l.23.23a.3.3 0 0 0 .42-.01.3.3 0 0 0 0-.41l-.24-.22ZM8.31 4.38a.32.32 0 0 0 .21-.08l.23-.23a.3.3 0 0 0 0-.41.31.31 0 0 0-.42 0l-.23.22a.31.31 0 0 0 0 .42.32.32 0 0 0 .21.08ZM5.94 6.11a.32.32 0 0 0-.21.08l-.23.24a.28.28 0 0 0 0 .41.29.29 0 0 0 .21.09.28.28 0 0 0 .2-.09l.23-.22a.3.3 0 0 0-.2-.51ZM15.47 14.21h-1.94a2.2 2.2 0 0 0 .48-.68.22.22 0 0 0 .07-.09 2 2 0 0 1 .57-.73 2.311 2.311 0 0 0 1.17-1.65 1.292 1.292 0 0 0-.3-1 1.12 1.12 0 0 0-.84-.38c-.16 0-.32.03-.47.09v-.35a.35.35 0 0 0-.1-.26.36.36 0 0 0-.26-.11h-5.4a.37.37 0 0 0-.36.37v3.16c-.007.385.09.765.28 1.1.106.195.241.374.4.53H6.82a.35.35 0 0 0-.355.36.38.38 0 0 0 .045.18c.156.209.326.406.51.59.44.46.52.46.59.46h7.07c.06 0 .14 0 .59-.45.188-.185.358-.385.51-.6a.38.38 0 0 0 0-.36.369.369 0 0 0-.31-.18Zm-.77.73a.59.59 0 0 1-.33.15H7.94a.59.59 0 0 1-.33-.15h7.09Zm-3.19-.73h-.69c-.92 0-2-.43-2-1.64V9.78h4.67v2.8c0 .78-.49 1.62-1.98 1.63Zm2.7-2.09V10.6a.65.65 0 0 1 .45-.22.44.44 0 0 1 .31.13.57.57 0 0 1 .13.45 1.69 1.69 0 0 1-.88 1.14l-.01.02Z"/></g><defs><clipPath id="a"><path fill="#fff" d="M0 0h20v20H0z"/></clipPath></defs></svg>