<svg xmlns="http://www.w3.org/2000/svg" viewBox="0 0 16 14" style="enable-background:new 0 0 16 14" xml:space="preserve"><path d="M1.5 4.5c0-.6.2-1.2.5-1.7.4-.5.9-.9 1.4-1.1.6-.2 1.2-.3 1.8-.1.6.2 1.2.5 1.6.9L8 3.8l1.1-1.3c.5-.6 1.3-1 2.1-1 .8-.1 1.6.2 2.2.7.6.5 1 1.2 1.1 2 .1.8-.1 1.5-.6 2.2v.2c-.2.2-.6.7-1.3 1.5-.7.7-1.5 1.5-2.3 2.2-1 .5-1.7 1.2-2.3 1.7-.6-.5-1.3-1.2-2.1-1.9S4.2 8.6 3.5 7.9c-.7-.7-1.1-1.2-1.3-1.5v-.2c-.5-.4-.7-1.1-.7-1.7zM8 14s6-5.2 7-6.8c.8-.9 1.1-2 1-3.2-.1-1.2-.7-2.2-1.6-3-.9-.7-2.1-1.1-3.3-1-.8.1-1.6.3-2.2.8-.4.2-.7.5-.9.7-.3-.2-.5-.5-.8-.7-.5-.3-1-.5-1.5-.7C4.8-.1 3.8 0 3 .3c-.9.3-1.7.9-2.2 1.6-.5.8-.8 1.7-.8 2.6 0 1 .3 2 1 2.8C2 8.8 8 14 8 14z" style="fill-rule:evenodd;clip-rule:evenodd;fill:#000"/></svg>
