<svg width="17" height="16" fill="none" xmlns="http://www.w3.org/2000/svg"><path d="M14.398 15.357 9.31.314A.474.474 0 0 0 9.15.086a.42.42 0 0 0-.508 0 .474.474 0 0 0-.161.228L3.414 15.36a.512.512 0 0 0-.008.296.48.48 0 0 0 .155.245.42.42 0 0 0 .523.012l12.631-9.53a.475.475 0 0 0 .166-.237c.03-.096.031-.2.003-.296a.477.477 0 0 0-.16-.241.421.421 0 0 0-.262-.092H1.347a.42.42 0 0 0-.262.092.477.477 0 0 0-.16.24.511.511 0 0 0 .003.297c.03.096.088.18.165.238l12.637 9.527a.42.42 0 0 0 .522-.014.479.479 0 0 0 .155-.245.512.512 0 0 0-.01-.296Z" fill="#D9D9D9"/></svg>