<svg version="1.1" id="Слой_1" xmlns="http://www.w3.org/2000/svg" xmlns:xlink="http://www.w3.org/1999/xlink" x="0" y="0" viewBox="0 0 20 20" style="enable-background:new 0 0 20 20" xml:space="preserve"><style>.st1{fill:#1d1d1b}</style><defs><path id="SVGID_1_" d="M0 0h20v20H0z"/></defs><clipPath id="SVGID_2_"><use xlink:href="#SVGID_1_" style="overflow:visible"/></clipPath><g style="clip-path:url(#SVGID_2_)"><path class="st1" d="M17.1 2.9c-.9-1-2-1.7-3.2-2.2-1.2-.5-2.5-.8-3.9-.8-1.3 0-2.6.2-3.9.7-1.2.5-2.4 1.3-3.3 2.2-.9.9-1.7 2.1-2.2 3.3C.1 7.3-.1 8.6-.1 10c0 1.3.3 2.6.8 3.9.5 1.1 1.3 2.2 2.2 3.2.9 1 2 1.7 3.2 2.2 1.2.5 2.5.8 3.9.8 1.3 0 2.6-.2 3.9-.7 1.2-.5 2.3-1.2 3.3-2.2s1.7-2.1 2.2-3.3c.5-1.2.8-2.5.7-3.9 0-1.3-.3-2.6-.8-3.9-.5-1.1-1.3-2.2-2.2-3.2zm-7.1 16c-1.8 0-3.5-.5-4.9-1.5-1.5-1-2.6-2.4-3.3-4-.7-1.6-.9-3.4-.5-5.1.3-1.8 1.2-3.3 2.4-4.6C5 2.5 6.5 1.6 8.3 1.3c1.7-.3 3.5-.2 5.1.5s3 1.8 4 3.3c1 1.5 1.5 3.2 1.5 4.9 0 2.4-.9 4.6-2.6 6.3-1.7 1.6-3.9 2.6-6.3 2.6z"/><path class="st1" d="m14.3 4 .1-.2c0-.1 0-.1.1-.2v-.2c0-.1 0-.1-.1-.2l-.1-.1c-.1 0-.1 0-.2-.1h-.2c-.1 0-.1 0-.2.1l-.1.1-.1.2c-.9-.3-1.8-.4-2.7-.1-.5.2-1 .4-1.4.8-.4.5-.7.9-1 1.4 0 .1-.1.1-.1.2v.2c0 .1 0 .1.1.2l.1.1c.1 0 .1.1.2.1h.4c.3-.1.6 0 .8.1.2.1.4.3.5.6h.1s0 .1.1.1h1l-2.2 4.5v.1c-1.8.2-3.4.9-4.7 2-.1.1-.1.1-.1.2v.2c0 .1.1.1.1.2.1 0 .1.1.2.1h10.4c.1 0 .2 0 .2-.1.1 0 .1-.1.1-.2v-.2c0-.1-.1-.1-.1-.2-1.4-1.2-3.3-1.9-5.2-2l2.1-4c.1.1.1.2.2.3l.1.2v.1h.5c.3-.1.6 0 .8.1.2.1.4.3.5.6l.1.2c0 .1.1.2.2.2s.2.1.3.1h.2c.1 0 .1-.1.2-.1 0 0 .1-.1.1-.2.5-.9.6-1.9.4-2.8-.3-1-.9-1.8-1.7-2.4zm-7.8 9.5c1.1-.6 2.3-.9 3.6-.9 1.2 0 2.5.3 3.6.9H6.5zm8.6-5.4c-.2-.2-.5-.4-.8-.5-.3-.1-.6-.1-1-.1-.2-.4-.5-.7-.9-.9s-.8-.3-1.3-.2c-.1-.3-.4-.5-.6-.7-.2-.2-.5-.4-.8-.4.4-.4.9-.7 1.4-.9.5-.2 1.1-.2 1.6 0 .5.1 1 .4 1.4.8.5.3.8.8.9 1.3.2.5.2 1.1.1 1.6z"/></g></svg>