<svg version="1.1" id="Слой_1" xmlns="http://www.w3.org/2000/svg" x="0" y="0" viewBox="0 0 20 20" style="enable-background:new 0 0 20 20" xml:space="preserve"><style>.st0{fill:#1d1d1b}</style><path class="st0" d="M9.9 0C8 0 6.1.6 4.4 1.7 2.8 2.8 1.5 4.3.8 6.1 0 8-.2 9.9.2 11.9c.4 1.9 1.3 3.7 2.7 5.1.9.9 2 1.7 3.2 2.2 1.2.5 2.6.8 3.9.8 1.3 0 2.6-.2 3.9-.7 1.2-.5 2.3-1.2 3.3-2.2.9-.9 1.7-2 2.2-3.3.5-1.2.8-2.5.7-3.8 0-1.3-.3-2.6-.8-3.8C18.8 5 18 3.9 17.1 3c-.9-.9-2-1.7-3.2-2.2-1.4-.5-2.7-.8-4-.8zm0 18.8c-1.7 0-3.5-.5-4.9-1.5s-2.6-2.4-3.3-4-.8-3.4-.4-5.1c.3-1.7 1.2-3.3 2.4-4.5s2.8-2.1 4.5-2.4c1.7-.3 3.5-.2 5.1.5 1.6.7 3 1.8 4 3.3 1 1.5 1.5 3.2 1.5 4.9 0 2.3-.9 4.6-2.6 6.2-1.7 1.6-3.9 2.6-6.3 2.6z"/><path class="st0" d="M12 10.3h2.5l-2.4-2.5h1.7L9.9 3.2 6.1 7.8h1.7l-2.4 2.5h2.4L5 13.6h4.6v2.7h.7v-2.7h4.5L12 10.3zm-2.8-.7H7l2.4-2.5H7.5l2.4-2.9 2.4 2.9h-1.9l2.4 2.5h-2.3l2.8 3.3h-7l2.9-3.3z"/></svg>