<svg version="1.1" id="Слой_1" xmlns="http://www.w3.org/2000/svg" xmlns:xlink="http://www.w3.org/1999/xlink" x="0" y="0" viewBox="0 0 20 20" style="enable-background:new 0 0 20 20" xml:space="preserve"><style>.st1{fill:#1d1d1b}</style><defs><path id="SVGID_1_" d="M0 0h20v20H0z"/></defs><clipPath id="SVGID_2_"><use xlink:href="#SVGID_1_" style="overflow:visible"/></clipPath><g style="clip-path:url(#SVGID_2_)"><path class="st1" d="M10 20c-2 0-3.9-.6-5.6-1.7-1.6-1.1-2.9-2.7-3.7-4.5C0 12-.2 10 .2 8c.4-1.9 1.3-3.7 2.7-5.1.9-1 2-1.7 3.2-2.2C7.4.2 8.7-.1 10-.1c1.3 0 2.6.2 3.9.7 1.2.5 2.3 1.2 3.3 2.2.9.9 1.7 2.1 2.2 3.3.5 1.2.8 2.5.7 3.9 0 1.3-.3 2.6-.8 3.9-.5 1.2-1.3 2.3-2.2 3.2-.9.9-2 1.7-3.2 2.2-1.3.4-2.6.7-3.9.7zm0-18.9c-1.8 0-3.5.5-4.9 1.5-1.5 1-2.6 2.4-3.3 4-.7 1.6-.9 3.4-.5 5.1.3 1.7 1.2 3.3 2.4 4.6s2.8 2.1 4.6 2.4c1.7.3 3.5.2 5.1-.5 1.6-.7 3-1.8 4-3.3 1-1.5 1.5-3.2 1.5-4.9 0-2.4-.9-4.6-2.6-6.3-1.7-1.6-3.9-2.6-6.3-2.6z"/><path class="st1" d="M18.4 12.4c-.6-.4-1.4-.6-2.1-.6-.8 0-1.5.2-2.1.6-.6.4-1.2.6-1.9.6-.6 0-1.3-.2-1.8-.5-.6-.4-1.4-.6-2.1-.6-.8 0-1.5.2-2.1.6-.5.3-1.2.5-1.8.5-.6 0-1.3-.2-1.8-.5-.4-.3-.9-.4-1.4-.5 0 .2.1.5.2.7.3.1.6.2.9.4.6.4 1.4.6 2.1.6.8 0 1.5-.2 2.1-.6.5-.4 1.2-.5 1.8-.5.6 0 1.3.2 1.8.5.6.4 1.4.6 2.1.6.8 0 1.5-.2 2.1-.6.5-.3 1.2-.5 1.8-.5.6 0 1.3.2 1.8.5.1.1.2.1.2.1.1-.2.1-.4.2-.6v-.2zM16.3 9.1c-.8 0-1.5.2-2.1.6-.5.4-1.2.5-1.8.5-.6 0-1.3-.2-1.8-.5-.7-.4-1.4-.6-2.2-.6-.8 0-1.5.2-2.1.6-.5.4-1.2.5-1.8.5-.6 0-1.3-.2-1.8-.5s-1-.5-1.5-.6v.6c.4.1.9.2 1.2.5.6.4 1.4.6 2.1.6.8 0 1.5-.2 2.1-.6.5-.3 1.2-.5 1.8-.5.6 0 1.3.2 1.8.5.6.4 1.4.6 2.1.6.8 0 1.5-.2 2.1-.6.5-.3 1.2-.5 1.8-.5.6 0 1.3.2 1.8.5.2.2.5.3.8.4v-.7c-.2-.1-.3-.2-.5-.3-.5-.3-1.3-.5-2-.5zM2.4 7.6c.6.4 1.3.6 2.1.6.7 0 1.5-.2 2.1-.6.5-.4 1.2-.5 1.8-.5.6 0 1.3.2 1.8.5.6.4 1.4.6 2.1.6.8 0 1.5-.2 2.1-.6.5-.3 1.2-.5 1.8-.5.6 0 1.3.2 1.8.5l.6.3-.3-.9c-.6-.4-1.4-.6-2.1-.6-.8 0-1.5.2-2.1.6-.5.3-1.2.5-1.8.5-.6 0-1.3-.2-1.8-.5-.6-.4-1.3-.6-2.1-.6-.7 0-1.5.2-2.1.6-.5.3-1.2.5-1.8.5-.7 0-1.3-.2-1.8-.5-.3-.2-.6-.3-.9-.4-.1.2-.2.4-.2.6.2.1.5.2.8.4z"/><path class="st1" d="M4.5 12.2c.8 0 1.5-.2 2.1-.6.5-.4 1.2-.5 1.8-.5.6 0 1.3.2 1.8.5.6.4 1.4.6 2.1.6.8 0 1.5-.2 2.1-.6.5-.3 1.2-.5 1.8-.5s1.3.2 1.8.5l.6.3c0-.2.1-.4.1-.6l-.4-.2c-.6-.4-1.4-.6-2.1-.6s-1.5.2-2.1.6c-.5.3-1.2.5-1.8.5-.6 0-1.3-.2-1.8-.5-.6-.4-1.4-.6-2.1-.6-.8 0-1.5.2-2.1.6-.5.3-1.2.5-1.8.5-.6 0-1.3-.2-1.8-.5s-1-.5-1.5-.6c0 .2 0 .4.1.7.4.1.8.2 1.2.5.5.4 1.2.6 2 .5zM18.4 8.4c-.6-.4-1.4-.6-2.1-.6-.8 0-1.5.2-2.1.6-.5.4-1.2.5-1.8.5-.6 0-1.3-.2-1.8-.5-.7-.4-1.4-.6-2.2-.6-.7 0-1.5.2-2.1.6-.5.3-1.2.5-1.8.5-.6 0-1.3-.2-1.8-.5-.4-.3-.9-.5-1.3-.6 0 .2-.1.4-.1.6.3.2.7.3 1.1.5.6.4 1.3.7 2.1.6.8 0 1.5-.2 2.1-.6.5-.4 1.2-.5 1.8-.5.6 0 1.3.2 1.8.5.6.4 1.4.6 2.1.6.8 0 1.5-.2 2.1-.6.5-.3 1.2-.5 1.8-.5.6 0 1.3.2 1.8.5.2.2.5.3.8.4 0-.2 0-.5-.1-.7-.1-.1-.2-.2-.3-.2z"/></g></svg>