<svg version="1.1" id="Слой_1" xmlns="http://www.w3.org/2000/svg" xmlns:xlink="http://www.w3.org/1999/xlink" x="0" y="0" viewBox="0 0 20 20" style="enable-background:new 0 0 20 20" xml:space="preserve"><style>.st1{fill:#1d1d1b}</style><defs><path id="SVGID_1_" d="M0 0h20v20H0z"/></defs><clipPath id="SVGID_2_"><use xlink:href="#SVGID_1_" style="overflow:visible"/></clipPath><g style="clip-path:url(#SVGID_2_)"><path class="st1" d="M17.1 2.9c-.9-1-2-1.7-3.2-2.2-1.2-.5-2.5-.8-3.9-.8-1.3 0-2.6.2-3.9.7-1.2.5-2.4 1.3-3.3 2.2-.9.9-1.7 2.1-2.2 3.3C.1 7.3-.1 8.6-.1 10c0 1.3.3 2.6.8 3.9.5 1.1 1.3 2.2 2.2 3.2.9 1 2 1.7 3.2 2.2 1.2.5 2.5.8 3.9.8 1.3 0 2.6-.2 3.9-.7 1.2-.5 2.3-1.2 3.3-2.2s1.7-2.1 2.2-3.3c.5-1.2.8-2.5.7-3.9 0-1.3-.3-2.6-.8-3.9-.5-1.1-1.3-2.2-2.2-3.2zm-7.1 16c-1.8 0-3.5-.5-4.9-1.5-1.5-1-2.6-2.4-3.3-4-.7-1.6-.9-3.4-.5-5.1.3-1.8 1.2-3.3 2.4-4.6C5 2.5 6.5 1.6 8.3 1.3c1.7-.3 3.5-.2 5.1.5s3 1.8 4 3.3c1 1.5 1.5 3.2 1.5 4.9 0 2.4-.9 4.6-2.6 6.3-1.7 1.6-3.9 2.6-6.3 2.6z"/><path class="st1" d="M10.7 8.1h-.2l-.1.1c0 .1-.1.1-.1.2v.2s0 .1.1.1l.1.1h.5l.1-.1.1-.1v-.4s-.1-.1-.2-.1h-.3zM9.8 8.3z"/><path class="st1" d="M15.6 4.4c-.3-.1-.7-.2-1.1-.2-.9.6-1.7 1.4-2.6 2-.4-.2-.9-.3-1.3-.2-.4.1-.8.3-1.1.7-.3.5-.5.9-.5 1.3 0 .5.1.9.4 1.3.3.4.7.6 1.1.7.4.1.9.1 1.3-.1s.7-.5 1-.9c.2-.4.3-.9.2-1.3.2-.1.4-.2.4-.5.2 0 .3-.1.4-.2.1-.1.2-.2.3-.4.2 0 .3-.1.4-.2s.2-.2.3-.4c.3 0 .4-.2.6-.3.2-.1.1-.6.2-.9v-.4zm-.8.5zm.1.5s0-.1 0 0zm0-.3v.2l-.1.1c-.4-.1-.7.1-.6.5h-.1c-.4-.1-.7.1-.6.5h-.1c-.4-.1-.7.1-.6.5-.2.2-.5.3-.4.6 0 .1.1.2.1.3v.4c0 .1 0 .2-.1.3 0 .1-.1.2-.2.3-.1 0-.2.1-.3.2-.1.1-.2.1-.3.2-.1 0-.2.1-.3.1H11c-.1 0-.2 0-.3-.1-.1 0-.2-.1-.3-.2l-.2-.2c-.1-.1-.2-.2-.2-.3 0-.1-.1-.2-.1-.3v-.3c0-.1 0-.2.1-.3 0-.1.1-.2.2-.3l.2-.2c.1-.1.2-.1.3-.2l.3-.2h.3s.1 0 0 0c.1 0 .3 0 .4.1.2.1.4.2.6 0 .8-.7 1.6-1.3 2.5-2l.1.3z"/><path class="st1" d="M14.5 9.2c-1 .1-1.4 1.3-2.3 1.6-.6-.4-1.4-.1-2-.2-1.5-.6-3.2-1-4.3.5-.6-.8-1.5.5-2 .9-1 .9 1.8 2.6 2.1 3.3.4.4 1.1 1.5 1.8.8.4-.5 1.8-1.2.9-1.9.2-.1.3-.3.5-.4 1-.1 2.4.3 3.3-.4 1-.8 4.7-3.6 2-4.2zm-7.2 6.3-2.8-3 .9-.8 2.8 3-.9.8zm7.4-5.4c-.9 1-1.8 2.6-3.2 2.9-1.1.1-2.5-.4-3.3.6l-1.8-1.9c.9-1.3 2-1 3.2-.4.6.3 1.6-.1 2.1.2 0 .7-1.6.2-2.2.4-1.8 1 3.6 1.3 2.9-.4.9-.1 1.8-2.1 2.3-1.4z"/></g></svg>