<svg width="64" height="64" viewBox="0 0 64 64" fill="none" xmlns="http://www.w3.org/2000/svg">
<path d="M64 32C64 49.6731 49.6731 64 32 64C14.3269 64 0 49.6731 0 32C0 14.3269 14.3269 0 32 0C49.6731 0 64 14.3269 64 32Z" fill="#E6C48E"/>
<path d="M32.0002 29.7189C34.1101 29.7181 36.1545 28.9858 37.7853 27.6469C39.416 26.308 40.5323 24.4451 40.944 22.3756C41.3557 20.306 41.0373 18.1578 40.0432 16.2966C39.0491 14.4354 37.4406 12.9764 35.4916 12.1679C33.5427 11.3595 31.3738 11.2517 29.3543 11.8628C27.3348 12.474 25.5896 13.7663 24.4158 15.5197C23.242 17.2731 22.7122 19.3792 22.9166 21.4794C23.1211 23.5795 24.0471 25.5439 25.537 27.038C26.3849 27.8882 27.3923 28.5627 28.5014 29.0228C29.6105 29.4828 30.7995 29.7194 32.0002 29.7189Z" fill="#FBEED7"/>
<path d="M32 31.9998C23.0175 31.9998 16 36.5195 16 42.3094C15.9991 43.0599 16.1462 43.8032 16.4329 44.4967C16.7197 45.1902 17.1404 45.8203 17.671 46.351C18.2017 46.8817 18.8317 47.3024 19.5252 47.5892C20.2187 47.876 20.9619 48.0231 21.7123 48.0222H42.2877C43.8027 48.0222 45.2557 47.4203 46.3269 46.3489C47.3982 45.2776 48 43.8245 48 42.3094C48 36.5405 40.9825 32.0209 32 32.0209V31.9998Z" fill="#FBEED7"/>
</svg>
