<svg width="16" height="16" viewBox="0 0 16 16" fill="none" xmlns="http://www.w3.org/2000/svg">
<path d="M14.6355 0.140722C14.6355 0.140722 16.1144 -0.550065 15.9929 1.12937C15.9507 1.8265 15.5809 4.24742 15.3168 6.87115L14.308 14.6346C14.308 14.6346 14.2235 15.7753 13.484 15.9718C12.7446 16.1683 11.6354 15.281 11.4294 15.0782C11.2234 14.8754 8.34481 12.708 7.31485 11.6179C7.20695 11.5281 7.11951 11.4073 7.0605 11.2665C7.00148 11.1257 6.97276 10.9695 6.97696 10.812C6.98116 10.6545 7.01815 10.5007 7.08455 10.3648C7.15094 10.2288 7.24464 10.1149 7.3571 10.0336L11.6776 5.0713C12.1689 4.47557 12.6601 3.094 10.6213 4.77344L4.84823 9.50755C4.55221 9.66866 4.23207 9.75621 3.9071 9.76493C3.58214 9.77364 3.25906 9.70333 2.95734 9.55825L0.284726 8.55059C0.284726 8.55059 -0.697695 7.8091 0.98721 7.06761C5.09648 4.74175 10.1565 2.37152 14.6355 0.140722Z" fill="#1B2D50"/>
</svg>
