<svg width="40" height="40" viewBox="0 0 40 40" fill="none" xmlns="http://www.w3.org/2000/svg">
<path d="M11.3381 24.9251C11.4064 24.9854 11.4719 25.0506 11.5387 25.1171L11.5405 25.1189C11.6233 25.2014 11.7082 25.2859 11.8005 25.3615C12.5893 26.0072 13.7157 25.9986 14.53 25.4158C14.6382 25.3384 14.7314 25.2541 14.8183 25.171C14.8467 25.1439 14.8741 25.1171 14.9011 25.0908C14.9577 25.0356 15.0123 24.9824 15.0693 24.9317C15.2346 24.7847 15.4102 24.6683 15.667 24.6303C15.8587 24.6262 16.0608 24.7373 16.295 24.9017C16.3648 24.9508 16.4374 25.0045 16.5126 25.0601C16.6854 25.188 16.8725 25.3265 17.0744 25.4439C17.3664 25.6136 17.6964 25.7441 18.0779 25.7455C18.4598 25.7469 18.8878 25.619 19.3756 25.2819L19.3472 25.2408L19.3756 25.2819C19.4662 25.2192 19.5508 25.1468 19.633 25.0764C19.6492 25.0625 19.6652 25.0487 19.6813 25.0351C19.7731 24.9571 19.8638 24.8837 19.963 24.8258C20.0795 24.8817 20.1859 24.9665 20.2947 25.0532C20.3287 25.0803 20.3629 25.1075 20.3977 25.1341L20.3977 25.1341C21.2226 25.7648 22.356 25.9516 23.2334 25.2879C23.3844 25.1736 23.511 25.0743 23.6197 24.9889C23.7371 24.8967 23.8338 24.8208 23.9183 24.7599C24.081 24.6426 24.1824 24.594 24.2772 24.5949C24.3722 24.5958 24.4727 24.6465 24.6333 24.7665C24.7154 24.8278 24.8089 24.9037 24.922 24.9955C25.0304 25.0835 25.1569 25.1862 25.3087 25.3047C25.7768 25.6701 26.2119 25.8316 26.606 25.8658C26.9999 25.9 27.3489 25.8068 27.6445 25.6693C27.9398 25.532 28.1829 25.35 28.3652 25.2058C28.3929 25.1839 28.419 25.163 28.4436 25.1433C28.5008 25.0976 28.5497 25.0584 28.5915 25.0281C28.6213 25.0065 28.6454 24.9909 28.6645 24.9812C28.6715 24.9777 28.677 24.9754 28.6812 24.9738C28.7144 25.0091 28.747 25.0722 28.777 25.1603C28.8104 25.2588 28.8377 25.3794 28.8606 25.5049C28.8834 25.6301 28.9016 25.7587 28.9171 25.8729C28.9194 25.8893 28.9216 25.9055 28.9237 25.9214C28.9363 26.0146 28.9474 26.0964 28.958 26.1536L28.958 26.1535L29.0072 26.1446L28.958 26.1538L11.3381 24.9251ZM11.3381 24.9251C11.2712 25.0794 11.2079 25.2944 11.1484 25.5461C11.0812 25.8307 11.0197 26.159 10.9636 26.4928C10.9075 26.8265 10.857 27.1653 10.8117 27.4709L10.8037 27.5247C10.7617 27.8082 10.7243 28.0611 10.6913 28.2502C10.4201 29.8043 10.1271 31.3586 9.82643 32.9063C9.81068 32.9874 9.79399 33.0681 9.77733 33.1488C9.72175 33.4178 9.66656 33.6849 9.64778 33.9551C9.83052 34.2217 10.1353 34.4336 10.5159 34.6049C10.9027 34.779 11.363 34.9091 11.842 35.0127C12.3209 35.1162 12.8165 35.1927 13.2734 35.2603C13.3307 35.2687 13.3874 35.2771 13.4434 35.2853C13.8102 35.3392 14.1468 35.3886 14.4201 35.4435C14.4629 35.1952 14.5089 34.9158 14.5585 34.6144C14.6976 33.7701 14.865 32.7533 15.0702 31.7661C15.3532 30.4042 15.71 29.0876 16.1686 28.3533C18.081 25.2913 22.2214 25.4806 23.9765 28.5751L23.9766 28.5751C24.3698 29.2692 24.7048 30.5617 24.9768 31.8937C25.2101 33.0361 25.3982 34.2142 25.5366 35.0813C25.557 35.2094 25.5764 35.3308 25.5947 35.4442C26.2321 35.3848 27.1877 35.2672 28.1013 35.0423C28.5693 34.9271 29.0252 34.7841 29.4212 34.6068C29.8085 34.4334 30.1355 34.2286 30.3608 33.9878C30.3209 33.7017 30.2683 33.4195 30.2153 33.1358C30.1885 32.992 30.1616 32.8478 30.1362 32.7026M20.4504 12.8146C20.4439 12.4507 20.4465 12.0861 20.4491 11.7211C20.4503 11.556 20.4515 11.3909 20.4518 11.2257C20.4519 11.1673 20.4549 11.1009 20.4581 11.0282C20.4605 10.9752 20.463 10.9189 20.4647 10.8599C20.4686 10.7225 20.4677 10.575 20.4474 10.4403C20.4273 10.3064 20.3873 10.1791 20.3082 10.0871C20.2266 9.99241 20.1085 9.94098 19.947 9.95131L19.9373 9.95193L19.9286 9.95612C19.7997 10.0179 19.7072 10.0834 19.6465 10.1758C19.5859 10.2681 19.561 10.3809 19.5531 10.5283C19.518 11.1867 19.5413 12.0782 19.5635 12.7795C19.5548 12.7634 19.5459 12.7467 19.5367 12.7296C19.3842 12.4456 19.1571 12.0227 18.9356 11.6282C18.7867 11.3631 18.6399 11.1099 18.5194 10.9195C18.4592 10.8244 18.405 10.744 18.3601 10.6853C18.3376 10.6561 18.3167 10.6312 18.298 10.6124C18.281 10.5954 18.2597 10.5769 18.2361 10.5697L18.2215 10.6175L18.2361 10.5697C18.0524 10.5133 17.8837 10.5901 17.7776 10.7218C17.6721 10.8529 17.6243 11.0426 17.6798 11.2243C17.7222 11.3634 17.8207 11.5752 17.947 11.8188C18.0738 12.0636 18.2305 12.3437 18.3912 12.6209C18.7127 13.1751 19.0516 13.7191 19.2032 13.9468L19.2033 13.9469L19.2746 14.0534C18.624 15.184 17.5459 16.6349 16.678 17.5231C14.734 19.5126 11.3122 21.701 8.89138 22.994L8.91493 23.0381L8.89138 22.994C8.54021 23.1815 8.35286 23.4484 8.29958 23.7423C8.24662 24.0345 8.32733 24.3464 8.49802 24.6248C8.82893 25.1645 9.50764 25.5936 10.2628 25.5258L8.94335 32.7392C8.94333 32.7393 8.94331 32.7394 8.94329 32.7395C8.9237 32.8401 8.90031 32.9414 8.87658 33.0441C8.86668 33.0869 8.85673 33.13 8.84696 33.1734C8.81399 33.3201 8.78355 33.4689 8.76709 33.617C8.73411 33.9137 8.75673 34.2116 8.92942 34.4903C9.2275 34.9716 9.8369 35.3418 10.6003 35.6293C11.3657 35.9175 12.2952 36.126 13.2452 36.278C15.1454 36.582 17.1358 36.6609 18.0768 36.696C18.3582 36.7065 18.6407 36.7025 18.9217 36.6986C18.9679 36.698 19.0141 36.6973 19.0602 36.6967C19.3874 36.6926 19.7125 36.6918 20.0353 36.7165L20.0353 36.7171L20.0428 36.7165C20.3409 36.6948 20.6404 36.6951 20.9419 36.6982C20.9858 36.6986 21.0299 36.6991 21.074 36.6996C21.3313 36.7026 21.5901 36.7056 21.8482 36.6966L21.9025 36.6947C22.7272 36.6659 25.0527 36.5849 27.1723 36.2091C28.256 36.017 29.29 35.7473 30.0429 35.3658C30.7932 34.9857 31.2831 34.4843 31.2353 33.8232C31.2129 33.5144 31.15 33.1993 31.0889 32.8932C31.0681 32.7892 31.0475 32.6862 31.0288 32.5848L30.0199 27.0615C29.9898 26.8938 29.9616 26.7239 29.9334 26.5533C29.8762 26.208 29.8184 25.8597 29.7423 25.5205C30.693 25.5888 31.6167 25.0041 31.712 23.8976C31.7273 23.7204 31.7056 23.5786 31.6544 23.4621C31.6032 23.3453 31.5241 23.2574 31.4305 23.1855C31.3375 23.1142 31.2292 23.0578 31.1188 23.0046C31.0916 22.9915 31.0642 22.9786 31.0369 22.9656C30.9522 22.9255 30.8676 22.8855 30.785 22.8391C28.33 21.4618 24.9943 19.3302 23.0607 17.2355C22.7864 16.9384 22.2814 16.3158 21.8077 15.6707C21.3428 15.0373 20.9131 14.3891 20.7586 14.0067C21.156 13.4187 22.0596 11.9277 22.3323 11.2544C22.4029 11.0802 22.3704 10.8891 22.2763 10.7524C22.1817 10.6148 22.0205 10.5273 21.8357 10.5733C21.7775 10.5878 21.7168 10.6378 21.6578 10.7007C21.5967 10.7659 21.5299 10.8532 21.4601 10.955C21.3204 11.1586 21.1655 11.4248 21.0167 11.6982C20.7902 12.1148 20.5765 12.5509 20.4504 12.8146ZM20.0296 14.5837C20.0681 14.634 20.1042 14.6912 20.1393 14.7513C20.1621 14.7903 20.1842 14.83 20.2061 14.8695L20.2089 14.8744C20.2317 14.9154 20.2544 14.9563 20.2773 14.995L20.3204 14.9696L20.2773 14.9951C21.8987 17.7341 23.6483 19.2569 26.1216 20.9945C27.328 21.8422 28.5631 22.6379 29.8289 23.3782C29.9366 23.4412 30.0486 23.4995 30.1593 23.5573C30.2203 23.589 30.2809 23.6206 30.3402 23.6527C30.4993 23.7386 30.6527 23.8298 30.7926 23.9426C30.7034 24.2143 30.5154 24.4235 30.2905 24.5277C30.0581 24.6354 29.7848 24.6318 29.534 24.4672C29.4591 24.418 29.3939 24.3615 29.3309 24.3027C29.3107 24.2838 29.2904 24.2645 29.27 24.245C29.228 24.2049 29.1857 24.1644 29.1426 24.1273C29.0117 24.0144 28.8628 23.9217 28.641 23.9114C28.5565 23.9075 28.4728 23.9355 28.3907 23.9799C28.3086 24.0244 28.2243 24.0874 28.1378 24.1583C28.0843 24.202 28.03 24.2486 27.9742 24.2965C27.8466 24.4061 27.7113 24.5222 27.5616 24.6248C27.3481 24.7711 27.1123 24.8844 26.8444 24.902C26.5774 24.9195 26.2722 24.8424 25.9188 24.5965C25.7925 24.5086 25.6809 24.4092 25.5725 24.3074C25.5456 24.2822 25.5188 24.2568 25.492 24.2313C25.4116 24.1548 25.3312 24.0783 25.2477 24.0079C25.0229 23.8183 24.7691 23.6662 24.4004 23.6465C23.8479 23.617 23.5082 23.8664 23.1938 24.1293C23.167 24.1517 23.1404 24.1742 23.1139 24.1966C22.8281 24.438 22.553 24.6705 22.1348 24.7254C21.8408 24.764 21.6147 24.7324 21.4287 24.6644C21.2422 24.5961 21.0931 24.4901 20.9538 24.375C20.9108 24.3395 20.8685 24.3027 20.8261 24.266C20.5984 24.0683 20.3691 23.8692 20.0208 23.8483L20.0208 23.848L20.0161 23.8482C19.6642 23.8603 19.4128 24.0587 19.1657 24.2562L19.1562 24.2637C18.9093 24.461 18.6627 24.6581 18.3108 24.7137C17.8479 24.7869 17.5939 24.7227 17.3841 24.5902C17.277 24.5226 17.1798 24.4361 17.0705 24.3355C17.0584 24.3244 17.0463 24.3132 17.0339 24.3018C16.935 24.2104 16.8256 24.1094 16.6932 24.0059C16.1006 23.5427 15.1983 23.5379 14.6402 24.0732C14.291 24.4082 13.878 24.723 13.4513 24.8444C13.2388 24.9048 13.0241 24.917 12.812 24.8608C12.6001 24.8047 12.3874 24.6793 12.1802 24.4592C12.1598 24.4375 12.1399 24.4163 12.1206 24.3958C11.9608 24.2257 11.8403 24.0974 11.7402 24.0101C11.6281 23.9124 11.532 23.8571 11.4247 23.8584C11.3199 23.8598 11.2166 23.9153 11.0905 24.0028C11.0227 24.0498 10.9439 24.1094 10.8513 24.1794C10.7717 24.2397 10.6818 24.3077 10.5799 24.3821L10.6094 24.4224L10.5799 24.3821C10.3198 24.5719 10.0015 24.6215 9.73752 24.536C9.483 24.4535 9.275 24.2443 9.21643 23.9031C9.34884 23.8121 9.50265 23.7282 9.66113 23.6464C9.71074 23.6208 9.76092 23.5954 9.81098 23.57C9.92992 23.5097 10.0482 23.4497 10.1564 23.3889C11.9427 22.3857 13.6871 21.2138 15.3163 19.9422C17.4775 18.2552 18.4834 16.9493 20.0296 14.5837Z" fill="black" stroke="black" stroke-width="0.1"/>
</svg>
