<svg width="41" height="40" viewBox="0 0 41 40" fill="none" xmlns="http://www.w3.org/2000/svg">
<path d="M20.0844 13.6447C20.0493 13.0293 20.0706 12.404 20.0708 11.7876C20.0709 11.2123 19.8431 10.1387 20.5923 10.0001C21.0074 9.99511 21.1474 10.3347 21.4594 10.5208C21.8845 10.7743 22.5996 10.8229 22.8839 11.244C23.5128 12.1755 21.7553 12.322 21.0654 12.1163C21.0739 12.6238 21.0739 13.1332 21.0622 13.6407C22.3423 13.7766 24.6041 14.6584 25.6781 15.232C29.1075 17.0638 31.4465 20.293 32.256 23.953C32.3537 24.3948 32.4296 24.8536 32.5584 25.2873C33.815 26.4747 35.2685 27.3733 35.3314 29.3577C35.4964 34.5663 26.0282 36.5214 22.0453 36.6251C19.0191 36.775 15.8835 36.5274 12.9523 35.7508C9.84061 34.9265 4.71192 32.7052 5.39548 28.8244C5.69963 27.0977 7.156 25.9472 8.55187 24.9953C9.82542 19.603 12.8639 15.7919 18.4606 14.0424C18.9833 13.879 19.534 13.6886 20.0844 13.6447ZM20.6059 14.5919C18.216 16.831 15.9822 20.789 15.1727 23.9814C15.7817 24.0029 16.3937 23.9916 17.0032 23.9916L20.4469 23.9929L23.8793 23.9916C24.5253 23.9916 25.1782 24.0105 25.8233 23.9794C25.1681 20.7759 24.1649 18.5238 21.9455 15.9572C21.6292 15.5916 21.0132 14.8112 20.6059 14.5919ZM18.8701 14.9463C15.7276 15.7286 12.2625 18.3348 10.9751 21.1631C11.4219 21.5939 11.9032 21.9975 12.4127 22.3586C13.0187 22.7891 13.6233 23.2237 14.243 23.6358C15.0614 20.9872 16.8116 16.9688 18.9097 14.9667L18.9066 14.9453L18.8701 14.9463ZM22.3588 14.957C24.4639 17.3053 26.3201 20.4284 26.7318 23.5655C27.4946 23.1618 28.1189 22.7585 28.8176 22.2574C29.2901 21.9098 29.7579 21.5653 30.2049 21.1872C28.907 18.1849 25.5212 15.8283 22.3588 14.957ZM10.4906 22.0886C9.79473 23.8022 8.96057 26.7497 9.09168 28.4565C9.20596 29.9444 11.4934 31.0161 12.6981 31.5973L12.7416 31.6177C12.8289 31.5143 12.7841 31.1519 12.7922 31.0053C12.9118 28.839 13.3725 26.7334 14.0371 24.6623C12.8044 23.8748 11.619 23.0084 10.4906 22.0886ZM30.6324 22.1069C29.5243 22.9767 28.2963 23.8705 27.0248 24.517C27.595 25.9237 27.9829 27.7663 27.995 29.251C27.9977 29.5809 28.098 30.1026 27.6828 30.2478C26.947 30.5052 27.0446 29.5203 27.0381 29.1779C27.0105 27.7257 26.6694 26.2556 26.0981 24.9145L14.9747 24.9279C14.3084 27.3251 13.6772 29.495 13.738 32.0429L14.2047 32.1779C15.2101 32.4508 16.0005 32.4913 16.9609 32.6819L16.9601 31.2915C16.9604 30.173 17.0269 29.2877 17.8967 28.4429C19.7476 26.6451 23.069 27.7193 23.3679 30.2882C23.461 31.0886 23.3745 31.9271 23.4003 32.7333C25.6772 32.5958 28.2942 31.7499 30.1219 30.482C31.2301 29.7133 31.7993 29.2369 31.7811 27.8438C31.7663 26.7196 31.2163 22.6359 30.6324 22.1069ZM8.29553 26.3272C5.16528 28.589 5.9792 31.3429 9.13411 33.187C14.1676 36.1293 22.2469 36.3299 27.8683 34.738C30.1972 34.0784 33.5762 32.6843 34.2723 30.1763C34.5968 28.5857 33.7101 27.7514 32.7428 26.661C32.8599 27.8149 32.9279 29.0631 32.1246 30.0036C30.1774 32.2833 26.2184 33.4492 23.3119 33.7092C19.5725 34.0438 14.636 33.7656 11.3786 32.0461C10.0343 31.3364 8.26224 30.1894 8.11001 28.5926C8.04814 27.944 8.34746 26.6172 8.29553 26.3272ZM19.9787 28.4998C17.6849 28.7133 17.8633 31.1203 17.9672 32.784C18.7752 32.8204 19.5806 32.8298 20.3877 32.8563C21.0592 32.8561 21.7408 32.8784 22.4108 32.8443L22.4121 31.4473C22.4122 30.5575 22.4344 29.8097 21.7316 29.1262C21.2843 28.6913 20.6184 28.4322 19.9787 28.4998Z" fill="black"/>
</svg>
