<svg width="41" height="40" viewBox="0 0 41 40" fill="none" xmlns="http://www.w3.org/2000/svg">
<path d="M20.7808 31.0074C23.0216 30.8673 23.2979 31.8692 24.8082 32.1086C26.5312 32.3818 27.372 30.2976 29.7488 31.5753C30.2343 31.8362 30.7582 32.1723 31.3251 32.2075C31.6971 32.2306 32.5325 32.2483 32.085 32.977C31.784 33.4672 30.5828 33.1817 30.16 33.0036C29.6097 32.7718 29.1519 32.3721 28.5462 32.2641C27.4272 32.0645 26.5326 33.3386 24.8137 33.205C22.8626 33.0535 22.7865 31.4704 19.476 32.2691C16.2863 33.1538 14.0717 34.2937 10.638 32.975C9.98319 32.7236 9.36981 32.3423 8.6787 32.1921C8.32793 32.1159 7.09748 31.9107 7.66485 31.2442C8.22321 30.5884 10.4011 31.7747 11.0793 32.0109C13.1092 32.7175 15.2629 32.5153 17.2836 31.8601C18.5152 31.4608 19.4612 31.077 20.7808 31.0074Z" fill="#E39250"/>
<path d="M20.7418 34.0486C21.9037 34.0297 22.6962 34.3888 23.7123 34.8709C25.4639 35.702 25.8904 34.8337 27.2464 34.3568C29.2081 33.667 29.9105 35.1119 31.2892 35.2178C32.4052 35.3036 33.4304 34.0681 34.1044 34.4216C34.3803 34.5663 34.4542 34.9222 34.2991 35.1827C34.2229 35.3107 32.8024 35.9936 32.6387 36.053C30.4192 36.8592 29.641 35.3249 28.3564 35.2549C27.3029 35.1975 26.4284 36.238 24.9823 36.2362C22.9035 36.2336 22.2458 34.5831 19.4937 35.2913L19.4749 35.2963C18.6852 35.4653 17.9284 35.8025 17.1599 36.0467C14.7963 36.7976 12.3101 36.8389 10.0198 35.8616C8.79444 35.3387 8.09268 34.9806 6.79195 35.5687C6.28549 35.7976 5.8234 36.2662 5.34051 35.7507C5.18234 34.8165 6.36969 34.5364 7.08707 34.3427C8.96312 33.8362 9.52333 34.6154 11.1486 35.1752C12.698 35.7088 14.5873 35.6355 16.1546 35.2241C17.8633 34.7756 18.9094 34.1761 20.7418 34.0486Z" fill="#E39250"/>
<path d="M23.6528 9.1755C25.5764 9.04863 27.4771 10.2985 28.4705 11.8891C28.6125 11.782 28.7497 11.669 28.8909 11.5609C30.826 10.0774 33.2353 10.4617 35.15 11.7307C35.5878 12.0209 35.8476 12.1692 35.7648 12.7385C35.3411 13.3516 32.6132 14.0521 31.8516 14.3198C32.9144 14.8922 33.8034 15.9733 34.1535 17.1322C34.3442 17.7638 34.4499 19.1323 33.587 19.359C33.1512 19.4735 32.7999 19.0906 32.4941 18.8441L31.5666 18.1037C30.6619 17.3867 29.7155 16.6935 28.7191 16.1089C28.9969 16.7019 29.1166 17.4563 29.2277 18.0997C29.7845 21.3258 29.5583 25.3457 28.5333 28.4867C30.0336 28.6332 30.2984 29.3466 31.2843 29.5378C32.6415 29.8009 33.3392 28.4398 34.206 28.6325C34.5577 28.7107 34.6472 28.9763 34.5416 29.3004C34.45 29.5813 34.0744 29.6917 33.8438 29.8248C32.5912 30.5477 31.6428 30.9961 30.1609 30.2169C29.775 30.0141 29.421 29.7546 29.0027 29.6184C27.1472 29.0141 26.4222 31.526 23.3997 30.0714C21.2719 29.0474 20.1358 29.5354 18.031 30.3606C15.2636 31.4454 12.939 31.5904 10.2882 30.2818C9.25857 29.7735 8.19978 29.2106 7.07767 29.7752C6.54949 30.1008 6.14419 30.505 5.49368 30.5676C4.61993 30.6516 3.29816 30.1415 2.67667 29.603C2.20417 29.1937 2.50694 28.499 3.15815 28.6676C3.83479 28.8428 4.32708 29.4948 5.1236 29.5407C5.63553 29.5703 5.98112 29.191 6.37044 28.9283C7.03529 28.4796 7.78213 28.4763 8.55929 28.4876C8.58051 27.9953 8.5622 27.4939 8.5622 27.0005L8.56412 24.0951C7.52429 23.8169 6.85866 22.8347 7.47651 21.8427C7.72406 21.4452 8.16514 21.2196 8.54069 20.9625L12.4353 18.3297C14.1771 17.1175 14.4584 16.8933 16.1687 18.0643L19.9905 20.6698C20.4136 20.9569 21.1077 21.3828 21.4114 21.7837C22.1194 22.7184 21.5086 23.9276 20.418 24.1089L20.4197 28.4665C21.3458 28.3545 22.3057 28.4633 23.1819 28.7781C24.6273 26.2156 25.2356 22.5253 25.7034 19.6726C25.9174 18.3676 26.1543 17.0066 26.2049 15.6835C25.0319 15.805 23.5886 16.2516 22.4972 16.6937C21.9904 16.899 20.6474 17.8042 20.4501 16.7609C20.2714 15.8154 20.9807 14.7352 21.6657 14.1235C22.5651 13.3204 23.5523 13.1103 24.689 12.8722C24.2874 12.6852 23.8138 12.276 23.4144 12.0255C22.9524 11.7358 21.6319 11.2176 21.5892 10.6998C21.5069 9.70163 22.8794 9.24734 23.6528 9.1755ZM14.4178 20.8191C13.4297 21.1339 10.6316 23.1501 9.62581 23.7771L9.62553 27.0219C9.62553 27.5933 9.66351 28.1962 9.60508 28.7634C10.1575 29.0194 10.6985 29.2852 11.2323 29.5789C11.2328 28.0542 10.9997 26.605 12.1913 25.4102C12.7868 24.8131 13.5794 24.5356 14.4133 24.5315C15.2513 24.537 16.0003 24.8561 16.5882 25.4563C17.6933 26.5846 17.4706 27.9815 17.4836 29.407C18.1209 29.2435 18.7041 28.8965 19.3495 28.7386C19.3825 27.0866 19.3199 25.4315 19.3608 23.7803C18.8672 23.5314 18.4144 23.185 17.9586 22.8735L16.1571 21.6623C15.7335 21.3782 14.9827 20.7669 14.4385 20.8174L14.4178 20.8191ZM27.3508 15.5427C27.2087 15.743 27.1824 16.7141 27.1487 17.0066C26.6642 21.2187 25.9597 25.4108 24.1748 29.2886C24.5401 29.5183 24.9154 29.5167 25.3325 29.4705C25.9268 29.3769 26.6934 29.0352 27.2253 28.7521C28.6765 25.8876 28.6576 20.094 27.9219 17.1349C27.8386 16.8 27.6714 15.7149 27.3508 15.5427ZM23.713 10.2254C23.4299 10.2559 23.1979 10.3179 22.9489 10.4569C23.9035 11.1577 24.9301 11.7713 25.9146 12.4991C26.2196 12.7246 27.0449 13.1516 26.6413 13.6449C26.2224 14.1573 23.0633 13.36 21.6851 15.8509C22.1623 15.6852 22.6232 15.4752 23.1013 15.3126C23.8314 15.0643 26.7947 14.3033 27.5547 14.4168C28.7522 14.5956 32.1485 17.1196 33.0819 17.9363L33.2041 18.0408C33.0436 16.5225 31.77 15.0454 30.25 14.7411C29.8476 14.6606 29.4172 14.6556 29.0626 14.4294C28.7572 13.4489 29.4897 13.563 30.1661 13.4783C31.2496 13.3426 32.2937 13.1111 33.3239 12.7459C33.642 12.6331 33.96 12.4925 34.2855 12.4054C32.6472 11.5577 30.5716 11.2579 29.1708 12.7045C28.1092 13.8009 28.225 13.4359 27.4484 12.3325C26.6253 11.1629 25.2262 10.0745 23.713 10.2254ZM14.1723 25.5937C12.3889 25.7741 12.2875 27.4044 12.2895 28.7955C12.2897 29.0035 12.1906 29.8472 12.3825 29.9698C12.6765 30.1577 14.2002 30.157 14.5716 30.1322C15.2171 30.0811 15.812 29.9166 16.4439 29.8005C16.4317 28.6275 16.6818 27.0397 15.8105 26.1813C15.4131 25.7898 14.7433 25.4856 14.1723 25.5937ZM14.543 18.3595C13.9336 18.4292 13.3282 19.0372 12.8349 19.3704L10.2777 21.0943C9.82324 21.3994 8.63908 22.069 8.36477 22.4648C8.3647 23.5426 9.30996 22.6992 9.75253 22.4144L12.1863 20.841C12.8979 20.3831 13.6582 19.7543 14.5452 19.7408C15.4382 19.782 16.1596 20.3974 16.8735 20.8673C17.3119 21.1557 19.8862 22.9377 20.278 23.0266C20.4631 23.0685 20.6756 22.9102 20.6782 22.7182C20.684 22.2873 19.374 21.5425 19.0485 21.3248L17.0238 19.9661C16.5176 19.6233 14.9912 18.4228 14.543 18.3595Z" fill="#000000"/>
</svg>
