<svg width="40" height="40" viewBox="0 0 40 40" fill="none" xmlns="http://www.w3.org/2000/svg">
<path d="M6.02441 35.0076C6.10115 34.6282 6.33202 34.6769 6.52729 34.4311C6.69768 34.2166 6.83213 33.8501 6.95331 33.5961C7.80512 31.8107 8.56916 29.987 9.42745 28.2038C11.2367 24.4449 13.1739 20.7463 15.1623 17.0797C15.8736 15.768 18.4255 10.3489 19.8991 10.0006C21.0039 9.9521 22.5821 13.0675 23.0698 13.9594L26.893 21.1785C28.4103 24.062 29.9219 26.957 31.2879 29.9163C31.9053 31.2537 32.4783 32.6265 33.1561 33.9349C33.2218 34.0616 33.2845 34.2044 33.3675 34.3207C33.5627 34.5942 34.3432 34.8 33.7685 35.3298C32.9348 36.0983 31.8858 35.9591 30.8351 35.9596L22.9968 35.9597C22.0513 35.9599 21.099 35.9825 20.1543 35.9513C19.2381 35.9801 18.3161 35.9599 17.3994 35.9599L9.27268 35.9597C8.46149 35.96 6.32779 36.1187 6.02441 35.0076ZM19.9523 10.93C18.8801 11.772 17.4148 14.6735 16.7349 15.9689L13.6243 21.787C12.1984 24.5181 10.8302 27.2902 9.50025 30.0686C8.71158 31.7162 8.12218 33.3529 7.22076 34.9666C7.5624 35.0309 7.91092 35.0714 8.25872 35.0815C9.80678 33.8325 12.3618 28.3852 13.0973 26.5938C13.3014 26.0968 13.4983 25.5966 13.7387 25.1155C14.4577 23.6763 15.3656 22.3397 16.0369 20.8739C16.8845 19.0231 17.6342 15.4587 20.0137 15.4746C21.8305 15.5619 22.4849 17.4961 23.0485 18.9176C23.7601 20.7128 24.3593 22.0104 25.3406 23.6976C26.2053 25.1842 26.6641 26.365 27.3716 27.9194C28.0486 29.4068 30.3572 34.0011 31.6473 35.0616C32.0147 35.0648 32.3781 35.055 32.7422 35.0012C32.1521 33.9033 31.6825 32.882 31.1603 31.7572C29.4653 28.1063 27.6896 24.51 25.8024 20.9534L22.6404 15.0218C22.2638 14.3035 20.5597 11.0923 19.9523 10.93ZM19.8726 16.3714C18.4278 16.5777 17.618 19.2646 17.0989 20.5584L20.0304 20.5574C20.9421 20.558 21.8622 20.5829 22.7728 20.5479C22.1842 19.2967 21.5738 16.2989 19.8726 16.3714ZM16.7564 21.4322C16.3504 22.1108 16.0098 22.8309 15.6137 23.5169L23.0598 23.5133L24.2476 23.513C23.8593 22.8275 23.5055 22.0891 23.1213 21.4253L19.1033 21.423C18.3224 21.423 17.5366 21.4049 16.7564 21.4322ZM16.7925 24.371C16.2429 24.3676 15.6872 24.351 15.1383 24.3792C13.8844 26.5748 13.188 29.1864 11.835 31.2874C13.2337 31.3458 14.6409 31.247 16.0393 31.3075C16.0531 29.8986 16.2523 27.9782 17.3138 26.9428C18.1563 26.1211 19.2414 26.3387 20.2982 26.3257C21.1823 26.3149 21.8502 26.2343 22.5535 26.8837C23.7261 28.0334 23.8218 29.7561 23.909 31.2982L28.0891 31.2982C26.6919 29.1414 26.0284 26.5862 24.7438 24.3663L19.4395 24.368C18.5576 24.368 17.6743 24.3576 16.7925 24.371ZM18.6504 27.1967C16.4655 27.593 16.8704 32.4712 17.15 33.982C17.2186 34.3528 17.3316 34.7127 17.4029 35.0813L21.3572 35.0833C21.8004 35.0844 22.2438 35.0882 22.687 35.0815C23.0585 33.1866 23.2239 31.1648 22.788 29.2652C22.4567 27.822 22.1195 27.1927 20.6558 27.1943L19.7204 27.1957C19.3679 27.1961 19.001 27.1691 18.6504 27.1967ZM11.4071 32.1422C10.7965 33.1394 10.2039 34.146 9.50155 35.0831L12.7673 35.0849C13.3765 35.0848 13.9925 35.0656 14.6009 35.097C15.2307 35.0657 15.8665 35.0858 16.4974 35.0824C16.2573 34.128 16.0835 33.1576 16.0661 32.171C15.6566 32.1542 15.2448 32.163 14.835 32.1631L12.7868 32.1639C12.3301 32.1639 11.8615 32.1856 11.4071 32.1422ZM23.9103 32.1684C23.8616 33.1287 23.7802 34.1387 23.5768 35.0823L30.1377 35.083C30.2552 35.0806 30.3733 35.0802 30.4907 35.0747C29.8778 34.4094 29.0024 32.9519 28.5748 32.1689C27.0324 32.1411 25.4526 32.1342 23.9103 32.1684Z" fill="black"/>
<path d="M22.3597 28.4138C21.6114 28.4667 21.5463 27.1973 22.168 26.9179C22.9231 26.8336 22.9962 28.1551 22.3597 28.4138Z" fill="black"/>
</svg>
