<svg width="40" height="40" viewBox="0 0 40 40" fill="none" xmlns="http://www.w3.org/2000/svg">
<path d="M19.5581 13.2599C19.5575 12.5035 19.2238 10.5698 20.009 10.3463C20.643 10.3861 20.5052 11.1096 20.5048 11.5589C20.5042 12.1263 20.4876 12.6989 20.5258 13.2653C22.9147 16.2752 26.9997 19.5237 30.3455 21.3471C31.0156 21.7124 31.712 22.1133 32.4509 22.32C32.4946 21.955 32.4252 21.4489 32.7577 21.2007C33.6016 20.5708 33.4865 22.3286 33.5487 22.5589C33.6124 22.7951 34.5379 24.6839 33.4176 24.3964C33.1054 24.3163 33.0106 23.6879 32.8355 23.4081C32.5037 23.6991 32.188 24.017 31.8674 24.3205C32.9538 27.2251 34.1743 30.327 35.0511 33.2644C35.198 33.7566 35.2946 34.3222 35.5402 34.7728C35.6113 34.5515 35.8411 32.7375 36.5101 33.3853C36.9848 33.8448 36.3696 35.1534 36.1947 35.6689C36.0342 36.1414 36.0025 36.7624 35.3915 36.7912C34.8677 36.8159 34.3318 36.7935 33.8071 36.7934L20.0523 36.7976C18.7435 36.7787 17.4325 36.7938 16.1235 36.7938L8.76649 36.7942C8.26131 36.7942 4.59648 36.8435 4.36072 36.7434C3.99806 36.5895 3.21284 33.9764 3.37473 33.6054C3.50545 33.3059 3.98358 33.1893 4.16431 33.4973C4.32035 33.7631 4.42836 34.4348 4.55681 34.7926C4.71089 34.4214 4.79247 34.0007 4.90562 33.614C5.81454 30.507 7.07078 27.3913 8.16447 24.339C7.84851 24.0398 7.57826 23.6856 7.24934 23.4028C7.07983 23.6547 6.70675 25.0236 6.16304 24.2152C5.8043 23.6819 6.45893 22.8272 6.58099 22.2875C6.64342 22.0118 6.45934 20.8904 7.23994 21.1382C7.73543 21.2955 7.37015 22.2742 7.71927 22.2816C7.9921 22.2874 9.1377 21.6453 9.41394 21.4962C13.6997 19.1829 16.3451 16.7184 19.5581 13.2599ZM20.5031 14.692C20.6837 17.9247 21.3879 20.9558 23.9346 23.2309C25.8631 24.9537 28.7087 25.4231 30.8709 23.875C31.1913 23.6391 31.4984 23.391 31.7969 23.128C31.2507 22.8435 30.6823 22.6104 30.1402 22.3159C26.5847 20.3843 23.6744 18.0184 20.8835 15.0733C20.7697 14.9533 20.6388 14.7821 20.5031 14.692ZM19.5539 14.7201C19.1244 15.1236 18.7282 15.567 18.3137 15.9862C15.9638 18.3623 13.3019 20.4143 10.3907 22.0564C9.71764 22.4361 9.00707 22.7466 8.33474 23.1235C8.61573 23.4263 8.92618 23.6997 9.2615 23.9409C10.4854 24.7241 11.96 25.0009 13.3814 24.6834C17.5216 23.7588 19.5294 18.5597 19.5776 14.756L19.5539 14.7201ZM20.0255 18.227C19.263 20.9321 17.8842 23.5286 15.3523 24.9483C13.4148 26.0348 10.8672 26.0406 8.97509 24.8528C8.81025 25.4672 8.53867 26.0696 8.32144 26.6677L6.79996 30.8308C6.19487 32.5148 5.77783 34.2014 5.21962 35.865C6.88183 35.9151 8.55511 35.8749 10.2184 35.8751L12.6558 35.8757C13.1013 35.8758 13.5527 35.8908 13.9974 35.8689C13.5865 34.9588 12.7527 33.5036 12.5978 32.5646C12.4047 31.3939 13.3441 31.0992 14.144 30.5492C15.9881 29.2811 17.0726 27.1582 18.1306 25.2478C18.4957 24.5887 19.1725 22.9223 20.0638 22.8902C20.907 23.0085 21.6519 24.8026 22.0123 25.4563C22.9791 27.2095 24.2989 29.5939 26.0671 30.6426C26.2888 30.7742 26.5315 30.8786 26.7461 31.0205C28.3571 32.0867 26.6752 34.4474 26.0214 35.8457C26.7361 35.8818 27.449 35.8755 28.1642 35.8756L33.313 35.8757C33.8213 35.8757 34.3332 35.8887 34.8406 35.8582C34.5289 34.917 34.2847 33.9559 33.982 33.0122C33.3455 31.0281 32.6139 29.0741 31.8789 27.1251L31.3163 25.6C31.2311 25.3643 31.1574 25.119 31.0618 24.8876C25.8785 27.7802 21.293 23.2603 20.0255 18.227ZM19.4422 24.8084C18.2868 27.0543 16.6949 30.0449 14.6033 31.3852C14.3183 31.5679 13.7748 31.7993 13.5787 32.0434C13.274 32.4224 14.2396 34.1956 14.4207 34.5592C14.5716 34.8565 14.7142 35.1658 14.8864 35.4511C15.3275 34.7455 15.8858 34.1149 16.3423 33.4164C17.6917 31.3515 18.6936 28.8267 19.1748 26.4088C19.2405 26.0781 19.5085 25.0805 19.4422 24.8084ZM20.536 24.8056C20.9753 28.857 22.7034 32.283 25.1977 35.4142C25.3224 35.0828 25.4624 34.7683 25.6264 34.4541C25.8216 34.0643 26.6426 32.5217 26.505 32.1175C26.4073 31.8309 25.828 31.62 25.59 31.4736C23.9186 30.4451 22.8242 28.7424 21.8459 27.0869C21.6368 26.7329 20.6751 24.9282 20.536 24.8056ZM19.9556 26.9431C19.6121 30.0213 17.6093 33.4066 15.7277 35.878L18.4494 35.8755C19.0051 35.8756 19.5623 35.885 20.1176 35.8629C21.418 35.914 23.0266 35.924 24.3248 35.8596C23.8428 35.2156 23.3394 34.5941 22.8941 33.9226C21.427 31.7101 20.6135 29.4738 19.9556 26.9431Z" fill="black"/>
</svg>
