<svg width="41" height="40" viewBox="0 0 41 40" fill="none" xmlns="http://www.w3.org/2000/svg">
<g clip-path="url(#clip0_3487_18064)">
<path d="M10.1295 18.7114C9.42521 18.9631 7.50481 20.223 7.30604 18.8176C7.06987 17.1479 9.93803 15.8393 11.1909 15.1379C12.2428 14.549 13.2539 13.9052 14.1011 13.08C15.3821 11.8322 16.5979 10.2322 18.6145 10.0114C19.73 9.88005 21.0858 10.9147 22.0372 11.3701C23.1161 11.8866 24.231 12.3458 25.3162 12.8519C27.2982 13.7761 33.9663 17.1304 33.9997 19.2738C34.0233 20.7921 31.4668 19.6123 30.7918 19.0106L30.767 18.9882L30.7684 21.6478C30.7683 22.2245 30.792 22.8089 30.7397 23.3836C31.7171 23.6252 33.554 23.9549 33.7864 25.0602C34.1788 26.9265 29.8788 27.2537 28.6094 27.4566C27.1098 29.7049 25.4431 31.831 23.9039 34.0393C23.716 34.3088 23.7563 35.7372 23.7567 36.0979L23.759 39.8078C23.7596 40.209 23.8085 40.9208 23.7236 41.2901C23.6387 41.6592 23.1343 41.7889 22.8433 41.5344C22.5143 41.2466 22.658 39.3622 22.6446 38.8686C22.2017 38.8539 21.7598 38.852 21.3167 38.8526L18.5297 38.8536C18.5224 39.2652 18.6266 41.2325 18.401 41.4754C18.08 41.8211 17.4941 41.6341 17.4367 41.2059C17.4055 40.9733 17.4233 40.7253 17.4234 40.4906L17.4252 39.215C17.4271 37.7142 17.4424 36.2114 17.4198 34.7107C16.819 34.0353 16.2514 33.3289 15.6706 32.6388L11.8482 28.131C11.0761 27.2153 11.4633 27.4596 10.1893 27.1847C9.31141 26.9952 4.46423 26.074 5.94624 24.4332C6.72926 23.5664 9.16584 23.4317 10.3411 23.3251C10.3433 23.0779 10.3188 22.8285 10.3058 22.5816L10.2158 20.9638C10.1773 20.2128 10.1866 19.4614 10.1295 18.7114ZM18.7228 11.0323C17.0766 11.2242 15.945 12.7818 14.8986 13.7969C14.0192 14.65 12.9712 15.3313 11.8821 15.9426C10.7111 16.5997 9.27211 17.2453 8.46421 18.2935C11.0438 16.9922 14.4666 16.586 17.301 15.4545C18.3149 15.0499 19.1515 14.5074 20.0012 13.8709C20.3265 13.6272 20.6394 13.3232 21.058 13.2224C21.5559 13.359 22.2329 13.7403 22.7254 13.9647C25.1446 15.0724 27.6565 16.036 30.0194 17.2428C31.0191 17.7534 31.8781 18.6083 32.8687 19.0208C30.791 16.2673 24.8149 13.8456 21.5261 12.2772C20.7937 11.9279 19.5361 10.9784 18.7228 11.0323ZM21.1313 14.3619C18.9201 16.0178 17.7653 16.4726 15.01 17.299C13.7573 17.6748 12.4779 18.0348 11.1858 18.2787L11.4257 22.8777C11.4612 23.3901 11.8196 25.1294 10.6008 24.5581C10.559 24.4969 10.5168 24.4367 10.4818 24.372C9.63694 24.3788 7.43053 24.5322 6.8323 25.0486C8.11247 26.1514 13.8583 26.6957 16.1068 26.9226C15.779 24.6308 16.6872 21.2444 19.1387 20.2481C20.0569 19.9074 21.1918 19.859 22.114 20.214C24.7842 21.2417 24.4169 24.6778 24.35 26.8136C25.8375 26.7768 31.994 26.2955 32.7081 25.2837C32.2574 24.7989 31.2791 24.5729 30.6191 24.4173C30.5713 25.0264 30.0498 25.4535 29.5952 24.9955C29.3542 24.7526 29.6678 22.4742 29.6704 21.9865L29.6693 19.9668C29.669 19.3901 29.6497 18.8188 29.7527 18.2472C26.9283 16.9352 23.8786 15.7257 21.1313 14.3619ZM20.3962 21.0019C17.5373 21.3273 17.0019 24.9119 17.1982 26.997C18.1626 27.0695 19.1284 27.0291 20.0948 27.0435C21.1499 27.0386 22.204 27.0057 23.2579 26.9997C23.3057 26.4578 23.2859 25.9086 23.2857 25.3651C23.285 23.5726 23.2563 20.6823 20.3962 21.0019ZM12.814 27.6298L17.1247 32.715C17.2239 32.8306 17.3266 32.9829 17.4465 33.0766C17.3518 31.531 17.3723 29.5434 17.4378 27.9918C15.8905 27.9235 14.3508 27.8151 12.814 27.6298ZM27.0809 27.6558C25.9827 27.7217 24.8866 27.8189 23.7881 27.8799C23.7523 28.2492 23.7335 32.3282 23.7883 32.4154L23.8323 32.3862C24.1245 32.0028 24.3862 31.599 24.6598 31.2043L26.0577 29.2217C26.43 28.6975 26.7952 28.168 27.2032 27.666C27.1582 27.6453 27.1303 27.6538 27.0809 27.6558ZM18.5257 28.0458C18.5254 28.9374 18.5038 29.8337 18.5364 30.7247C18.949 30.7339 22.5228 30.7624 22.6389 30.7209L22.6509 30.6942L22.6531 29.1618C22.6529 28.7902 22.6396 28.416 22.6821 28.046C21.2976 28.0522 19.91 28.0657 18.5257 28.0458ZM19.0801 31.7655L18.5275 31.7813L18.5277 34.4707C19.7385 34.4752 20.9554 34.4956 22.1655 34.4648L22.6673 34.4593C22.6245 33.5603 22.7132 32.6499 22.6747 31.7842C21.7019 31.6856 20.0787 31.7353 19.0801 31.7655ZM21.28 35.4786L18.5276 35.4829L18.5258 37.8242L19.929 37.8314C20.8312 37.8284 21.7371 37.8461 22.6386 37.8193C22.6798 37.0434 22.6595 36.2566 22.6491 35.4796C22.1949 35.4585 21.7355 35.484 21.28 35.4786Z" fill="black"/>
</g>
<defs>
<clipPath id="clip0_3487_18064">
<rect width="28.3333" height="26.6667" fill="white" transform="translate(5.6665 10)"/>
</clipPath>
</defs>
</svg>
