<svg width="41" height="40" viewBox="0 0 41 40" fill="none" xmlns="http://www.w3.org/2000/svg">
<path d="M5.5934 29.9085C7.43466 24.811 9.75301 19.4261 14.1176 16.6401C16.0428 15.4111 16.8465 15.4868 18.8996 15.6C21.0234 15.7171 22.7527 15.1606 24.604 13.97C24.917 13.7686 25.1919 13.4664 25.5342 13.3345C26.0798 13.3038 26.2071 13.9122 26.4486 14.3797C27.4371 16.2923 28.5008 18.1322 29.5943 19.9673L35.6159 29.9723C35.745 29.5862 35.9843 28.4569 36.2642 28.2732C36.6106 28.0458 37.0491 28.3999 37.0066 28.8437C36.9354 29.5859 36.3427 30.9199 36.1224 31.6862C36.4258 32.923 37.1009 34.3618 37.3227 35.4757C37.4084 35.9063 36.9797 36.252 36.6394 36.0854C36.273 35.9062 35.6819 33.662 35.4961 33.1463C35.2957 33.7895 34.8913 35.5871 34.531 36.0115C34.2896 36.2957 32.8516 36.1529 32.5035 36.1529L21.9241 36.1522C20.5387 36.1521 19.1517 36.1371 17.7666 36.1592C17.7106 36.8179 16.9111 36.8556 16.7501 36.1532L16.3356 36.1525L8.23321 36.1531C7.88514 36.153 7.02026 36.2429 6.71087 36.0705C6.43481 35.9166 5.94669 33.8699 5.77203 33.4068L5.33514 34.7212C5.20707 35.1159 5.08095 35.7857 4.75671 36.0363C4.43954 36.2814 3.93908 36.0019 4.00669 35.5437C4.15893 34.512 4.9073 32.879 5.20011 31.7637C4.95366 31.146 3.96321 29.1381 4.27965 28.4804C4.86334 27.2675 5.49528 29.5155 5.5934 29.9085ZM24.9522 16.5199C24.8233 16.7181 24.7329 16.9729 24.6325 17.194C22.7366 21.3698 20.5238 25.3541 18.3404 29.3342C17.9392 30.0655 17.3564 30.9517 17.067 31.7326C17.1604 32.4029 17.2657 33.0617 17.4067 33.7214C17.4422 33.8517 17.4732 33.9873 17.5179 34.1137C18.0123 32.7903 18.4305 31.4315 18.9162 30.1047C19.7131 27.9276 20.7532 25.8964 21.7351 23.8283C22.3582 22.5162 22.9444 21.1814 23.5534 19.8607C23.9841 18.9263 24.763 17.5456 24.9522 16.5199ZM24.2185 15.5587C22.4921 16.4776 20.8945 16.8554 18.999 16.7991C16.7565 16.7325 16.0837 16.5455 13.9956 18.1035C10.4188 20.7725 8.05277 25.7884 6.61107 30.2906C6.53173 30.5383 6.21375 31.2263 6.47978 31.2411C7.89753 31.3287 9.31931 31.3092 10.738 31.3393C11.26 31.3503 11.7797 31.4433 12.302 31.4484C13.5455 31.4608 14.793 31.4164 16.0357 31.4609C16.2199 30.8087 16.8636 29.7591 17.1982 29.1644L18.4509 26.8978C20.1876 23.7152 21.9007 20.5001 23.4729 17.2039C23.5971 16.9435 24.0568 15.8163 24.2048 15.6998L24.18 15.6793C24.2083 15.6339 24.2241 15.6242 24.226 15.5668L24.2185 15.5587ZM26.1477 16.0448C26.4931 19.1098 28.1381 23.0857 29.5976 25.5794C30.3637 26.8884 31.2419 28.1195 31.9544 29.4672C32.7815 31.0312 33.4209 32.758 34.0556 34.4359C34.2133 33.875 34.3685 33.3129 34.5506 32.7617C34.6129 32.5657 34.6797 32.3703 34.7344 32.1714C34.495 32.1359 33.9973 32.1224 33.8374 31.8954C33.6908 31.6872 33.632 31.1053 33.8537 30.9238C34.0758 30.7421 34.587 30.8289 34.8357 30.8915L34.9048 30.9096C34.5275 30.353 34.2207 29.7325 33.8841 29.1427C31.5715 25.0907 28.942 21.2918 26.7209 17.1641C26.6034 16.9458 26.2651 16.1626 26.1477 16.0448ZM25.5093 17.99C25.2612 18.4917 25.0562 19.0235 24.8283 19.5379L21.8744 25.9941C20.4021 29.0938 19.4192 31.5671 18.4261 34.9653C19.4685 35.0004 20.5285 35.008 21.5707 34.9665C23.0998 30.9696 23.8152 27.2839 24.1922 23.0033C24.2392 22.4686 24.2358 20.8243 24.7744 20.5904C25.1955 20.4075 25.4794 20.8544 25.5193 21.2785C25.5714 22.0305 25.5623 22.7915 25.6015 23.5458C25.7998 27.3685 26.3722 31.0428 28.3921 34.1638C28.5671 34.4342 28.7818 34.6917 28.9381 34.9752C30.2571 35.0397 31.7991 35.0078 33.1199 34.9698C32.6207 33.2726 31.4346 30.6753 30.5957 29.238C30.1227 28.4276 29.5965 27.6575 29.1078 26.8592C27.5486 24.3122 26.3585 21.4841 25.6174 18.4826C25.5777 18.3219 25.5554 18.1461 25.5093 17.99ZM24.833 26.5124C24.4262 29.1178 23.6841 32.554 22.666 34.9766C23.5932 34.9894 24.5208 34.9706 25.448 34.9813C26.1684 34.9799 26.8961 35.0029 27.6156 34.9652C26.1445 32.6464 25.3137 30.032 24.9015 27.2209C24.8688 26.9978 24.8919 26.7231 24.833 26.5124ZM6.59122 32.4197C6.78678 33.2917 7.07619 34.1148 7.32302 34.9665C8.18269 35.0003 9.04667 34.9792 9.90703 34.979L14.407 34.9784C15.1323 34.9785 15.8604 34.9619 16.5852 34.9917C16.4532 34.2136 16.2957 33.4296 16.1935 32.6464C15.0815 32.5883 13.9642 32.6658 12.8517 32.6298C12.3058 32.6122 11.7592 32.5405 11.2124 32.525L7.09577 32.4385C6.92813 32.4359 6.75851 32.4166 6.59122 32.4197Z" fill="black"/>
</svg>
