<svg width="41" height="40" viewBox="0 0 41 40" fill="none" xmlns="http://www.w3.org/2000/svg">
<path d="M20.3327 10.9497C20.6813 10.9557 21.7013 11.786 22.0393 12.0167L33.6887 20.0829C34.3299 20.5299 36.8463 22.0273 37.057 22.6511C36.8845 23.373 36.2421 23.229 35.6509 23.2288C34.9734 23.2286 34.2805 23.1995 33.6049 23.2553C33.6927 24.4168 33.636 25.779 33.6362 26.9583L33.6359 32.7138C33.6356 33.7116 33.6148 34.7103 33.6371 35.7077C34.255 35.7254 35.4875 35.628 36.0206 35.7419C36.1887 35.9074 36.2383 36.0126 36.2873 36.2416C36.2283 36.4457 36.1407 36.5532 35.9695 36.6763C35.4723 36.7648 34.9014 36.7117 34.3952 36.7115L20.5064 36.7103L6.29239 36.711C5.77523 36.7115 5.21484 36.7608 4.7029 36.7025C4.25102 36.4 4.28049 36.04 4.69538 35.7343C5.38879 35.6419 6.32836 35.7089 7.04561 35.7156C7.0844 35.0541 7.06039 34.3809 7.05987 33.7178L7.05945 25.7051C7.05953 24.8828 7.07936 24.0572 7.05577 23.2354C6.43481 23.2169 3.89397 23.4698 3.73694 22.8626C3.56307 22.1906 5.14196 21.3842 5.63221 21.0316C7.49014 19.6955 9.38182 18.4135 11.2615 17.1088L18.778 11.914C19.2102 11.6201 19.8189 11.0644 20.3327 10.9497ZM20.2981 14.8385C19.5415 15.4058 18.7474 15.9149 17.9729 16.4564L12.2156 20.442C11.3812 21.0164 8.9208 22.8859 8.06121 23.2042L8.07437 32.605C8.07872 33.6237 8.03694 34.6465 8.07368 35.6648C8.43038 35.7326 8.81614 35.7107 9.17882 35.7107L15.3403 35.7083C16.0324 35.7037 16.7242 35.668 17.4164 35.6746C17.4683 33.5835 17.2358 30.7837 17.4473 28.7978C17.5038 28.2678 18.5419 28.4305 18.9017 28.4335L20.4493 28.4343C23.38 28.444 22.903 28.0389 22.9013 30.9081C22.9003 32.4941 22.8681 34.0892 22.9121 35.6743C23.5322 35.7207 24.1522 35.7107 24.7736 35.7108L27.1923 35.7106C28.989 35.71 30.8001 35.7578 32.5951 35.6966C32.6312 34.5831 32.6086 33.4629 32.6084 32.3487L32.6067 24.3272C32.606 23.9593 32.5745 23.5652 32.6107 23.2012C32.0153 22.9096 31.4936 22.4992 30.9452 22.13L21.7093 15.7915C21.4915 15.6424 20.4522 14.8649 20.2981 14.8385ZM20.3328 12.1106C19.3203 12.8297 18.2849 13.5176 17.2618 14.2216L7.30414 21.1175C6.82133 21.4604 6.30631 21.8016 5.86306 22.1941C6.46702 22.2437 7.07551 22.1689 7.67768 22.2542C8.07368 22.0876 8.44508 21.7844 8.79854 21.54L16.2998 16.3543C16.752 16.0427 19.9717 13.6608 20.3752 13.6638C20.9903 13.9745 21.5522 14.4101 22.116 14.8047L31.8552 21.5021C33.1577 22.3921 33.1671 22.3131 34.8845 22.1757C34.5067 21.9504 34.1567 21.6649 33.7954 21.4124L21.1734 12.6656C20.9207 12.4935 20.6019 12.2284 20.3328 12.1106ZM20.5528 29.1683C19.8326 29.1702 19.1101 29.1618 18.3904 29.1862C18.3903 31.356 18.3596 33.5317 18.3941 35.7009C18.9614 35.7213 19.5311 35.7107 20.0987 35.7101C20.7821 35.7104 21.4668 35.7027 22.1501 35.7147L22.1515 31.7977C22.1514 30.9274 22.1401 30.0558 22.1721 29.186C21.6772 29.1141 21.0613 29.1707 20.5528 29.1683Z" fill="black"/>
<path d="M10.4354 26.2559C12.0544 26.2006 13.684 26.2734 15.3052 26.2444C16.1838 26.2287 15.9054 27.1055 15.9054 27.8669V29.5084C15.9053 30.4615 15.9509 31.4403 15.8975 32.3907C15.8776 32.7442 15.8643 32.8543 15.496 32.9101C14.7028 32.9574 13.8731 32.8959 13.0764 32.8958L11.426 32.8975C11.0444 32.9001 10.6253 32.9507 10.2524 32.867C10.1308 32.7411 10.0709 32.6776 10.0614 32.497C10.0124 31.5697 10.0067 26.7384 10.1026 26.4323C10.1924 26.3192 10.2972 26.2838 10.4354 26.2559ZM13.3312 26.962C13.3438 27.7241 13.3055 28.4855 13.3235 29.2466C13.9302 29.2332 14.5404 29.2226 15.1468 29.2492C15.2507 28.8141 15.1876 27.5144 15.1945 26.9819C14.576 26.9463 13.951 26.9757 13.3312 26.962ZM10.7829 26.9747L10.7813 29.2348L12.5974 29.2351C12.6194 28.4886 12.6089 27.7419 12.6196 26.9953C12.0084 26.9619 11.3948 26.9692 10.7829 26.9747ZM13.3495 29.9677C13.3438 30.7116 13.3352 31.4571 13.3479 32.2008L15.158 32.2048C15.202 31.4679 15.1868 30.7236 15.1884 29.9853C14.5861 29.9621 13.95 29.9295 13.3495 29.9677ZM10.7892 29.9844C10.7781 30.7207 10.7701 31.4601 10.7902 32.1962L12.6019 32.2256C12.6202 31.4796 12.6156 30.7307 12.6071 29.9845C12.0055 29.9609 11.3906 29.9495 10.7892 29.9844Z" fill="black"/>
<path d="M26.034 26.2578C26.6262 26.2575 30.4072 26.1894 30.6198 26.3334C30.91 26.5297 30.7648 28.218 30.7649 28.5812C30.7653 29.1415 30.8783 32.4899 30.705 32.7722C30.4424 32.9725 30.0018 32.9027 29.6871 32.8964C28.99 32.8968 25.392 32.9668 25.0193 32.8284C24.7499 32.5669 24.8929 29.5355 24.8927 28.9951L24.89 27.6261C24.8761 26.3479 24.685 26.2466 26.034 26.2578ZM25.6734 26.9782L25.611 26.9981C25.5487 27.194 25.5757 28.9141 25.5867 29.2465C26.1692 29.2378 26.7506 29.2324 27.333 29.2484L27.3915 29.2309C27.4938 28.9462 27.4512 27.3907 27.4322 26.9823C26.8477 26.9625 26.2583 26.9664 25.6734 26.9782ZM28.1909 26.9763L28.1761 29.2183C28.787 29.2441 29.408 29.2017 30.0157 29.2452C30.0365 28.4948 30.0068 27.7438 30.0324 26.9935C29.4247 26.9576 28.7993 26.9528 28.1909 26.9763ZM28.2256 29.9675L28.1746 29.9984C28.1743 30.7248 28.1283 31.4734 28.1642 32.1964L29.9538 32.2039L29.9921 32.1821C30.071 31.6271 30.0317 30.5697 30.0173 29.9832C29.4206 29.9605 28.8227 29.9671 28.2256 29.9675ZM25.6265 29.9551C25.6228 30.7015 25.6091 31.4508 25.6263 32.197C26.2289 32.2038 26.8316 32.2053 27.4343 32.1977C27.4677 31.4685 27.4624 30.709 27.4349 29.9795C26.8369 29.9291 26.2275 29.9808 25.6265 29.9551Z" fill="black"/>
</svg>
