<svg width="41" height="40" viewBox="0 0 41 40" fill="none" xmlns="http://www.w3.org/2000/svg">
<path d="M19.7655 35.7458C19.3226 35.7448 18.8793 35.748 18.436 35.7513C17.5808 35.7575 16.7256 35.7638 15.8738 35.7395C15.8846 35.7195 15.8991 35.6959 15.9166 35.6693C15.959 35.6049 16.0171 35.5267 16.0789 35.4466C16.1293 35.3812 16.1827 35.3139 16.2314 35.2525L19.7655 35.7458ZM19.7655 35.7458L19.7632 28.3615V28.3614C19.7633 28.3017 19.7658 28.2347 19.7683 28.1668C19.7703 28.1127 19.7723 28.058 19.7732 28.006C19.7737 27.9711 19.7738 27.9366 19.7731 27.9027C19.0183 30.2681 17.7898 33.026 16.3884 35.0494L19.7655 35.7458ZM21.3458 13.0383C21.3809 12.9598 21.4207 12.8723 21.4636 12.7779C21.4759 12.751 21.4884 12.7234 21.5011 12.6954C21.6209 12.4315 21.7592 12.1245 21.8841 11.8213C22.0089 11.5184 22.121 11.2178 22.1879 10.9672C22.2213 10.842 22.2439 10.7275 22.2507 10.6306C22.2573 10.5353 22.2494 10.4491 22.2141 10.3864C22.0186 10.039 21.5118 10.059 21.3157 10.3783C21.1125 10.7092 20.9536 11.1262 20.7943 11.5505L20.7784 11.5927C20.6373 11.9687 20.4944 12.3492 20.3183 12.6876C20.295 12.622 20.2672 12.5419 20.2356 12.4508C20.2121 12.3831 20.1865 12.3093 20.1591 12.2311C20.0722 11.9828 19.9679 11.6905 19.8575 11.4064C19.7472 11.1227 19.6302 10.8459 19.5179 10.6291C19.4618 10.5207 19.4062 10.4261 19.3525 10.3527C19.3 10.2808 19.2449 10.223 19.188 10.1965C18.9633 10.0917 18.7647 10.1403 18.6324 10.2667C18.5028 10.3906 18.4401 10.5859 18.4739 10.771C18.5011 10.9199 18.5526 11.0708 18.6094 11.2178C18.6353 11.2847 18.6617 11.3493 18.6876 11.4128C18.7198 11.4919 18.7513 11.5691 18.7802 11.6467C18.7802 11.6468 18.7803 11.6468 18.7803 11.6469L19.2877 13.0243C19.1339 12.8492 18.9687 12.6817 18.8055 12.5161C18.7535 12.4633 18.7017 12.4108 18.6505 12.3582L18.6504 12.3581L17.4808 11.1649L17.4806 11.1646C17.3941 11.0777 17.3 10.9695 17.1982 10.8524C17.1854 10.8377 17.1725 10.8228 17.1595 10.8079C17.0433 10.6745 16.9182 10.5329 16.7867 10.4044C16.5267 10.1502 16.2294 9.93468 15.9139 9.95085L15.906 9.95126L15.8985 9.95412C15.7638 10.0059 15.6648 10.0696 15.5984 10.1447C15.5312 10.2207 15.4992 10.3064 15.496 10.3973C15.4899 10.575 15.5941 10.7655 15.7336 10.9447C15.8747 11.126 16.0601 11.3055 16.2322 11.4624C16.2977 11.5222 16.3609 11.5783 16.4192 11.6301C16.5158 11.7159 16.599 11.7898 16.6572 11.8485C16.8944 12.088 17.1348 12.3257 17.3753 12.5635C18.0804 13.2607 18.7864 13.9589 19.4158 14.705L19.3924 14.7483C18.308 16.7566 17.2301 18.7528 16.0214 20.7024C14.2217 23.6054 12.2094 26.3975 10.1453 29.1541C10.1452 29.1541 10.1452 29.1542 10.1452 29.1542L7.90829 32.1081C7.90822 32.1082 7.90815 32.1083 7.90809 32.1084C7.79863 32.2501 7.66603 32.4092 7.52319 32.5806C7.23923 32.9213 6.91482 33.3106 6.65136 33.708C6.45248 34.0079 6.28523 34.3166 6.19331 34.6185C6.1013 34.9207 6.08381 35.2193 6.18907 35.496C6.31727 35.833 6.49566 36.0791 6.71177 36.2576C6.92766 36.436 7.17884 36.545 7.44993 36.6112C7.89607 36.7202 8.40333 36.7146 8.90359 36.7091C9.0078 36.7079 9.1117 36.7068 9.21469 36.7066L30.6727 36.7054C30.821 36.7055 30.9782 36.7081 31.1406 36.7108C31.4039 36.715 31.6809 36.7196 31.9562 36.7142C32.4025 36.7056 32.8517 36.6712 33.2476 36.567C33.6435 36.4629 33.9906 36.2878 34.2271 35.9947C34.4645 35.7007 34.5853 35.2944 34.5414 34.7389L34.5419 34.7389L34.5404 34.732C34.427 34.224 34.1422 33.8642 33.8307 33.4706C33.8054 33.4386 33.78 33.4065 33.7544 33.3741C33.7544 33.374 33.7543 33.3739 33.7542 33.3737L30.2169 28.735C30.2168 28.7349 30.2167 28.7348 30.2167 28.7347C27.364 24.8921 24.8941 21.2701 22.581 17.139C22.581 17.139 22.581 17.1389 22.581 17.1389L21.5945 15.3517C21.5944 15.3516 21.5944 15.3515 21.5943 15.3515C21.5482 15.2668 21.5011 15.1835 21.4541 15.1006C21.3799 14.9694 21.3062 14.8391 21.238 14.706C21.621 14.2079 22.137 13.6748 22.6728 13.149C22.8819 12.9439 23.0941 12.7397 23.3025 12.5393C23.6357 12.2187 23.9589 11.9078 24.2426 11.6184C24.2912 11.5687 24.3591 11.5069 24.4375 11.4356C24.4583 11.4166 24.4799 11.3969 24.5021 11.3766C24.6068 11.2807 24.723 11.1722 24.8291 11.0594C24.9348 10.9468 25.0323 10.8283 25.0983 10.7122C25.1638 10.5971 25.2028 10.4768 25.1792 10.3642L25.1303 10.3744L25.1792 10.3642C25.1411 10.1818 24.9939 10.0471 24.8241 9.9882C24.6539 9.92912 24.4515 9.94286 24.2981 10.0691L24.2981 10.0691C23.3967 10.8113 22.1804 12.1231 21.3458 13.0383ZM9.41741 35.7455H9.41737C9.30055 35.7456 9.17015 35.7509 9.03397 35.7565C8.96133 35.7594 8.88706 35.7624 8.81233 35.7648C8.59592 35.7715 8.37292 35.7727 8.16332 35.7511C7.7413 35.7077 7.39183 35.5743 7.24933 35.2309L7.20315 35.2501L7.24933 35.2309C7.14823 34.9873 7.20786 34.7636 7.33702 34.5473C7.42972 34.392 7.55395 34.2469 7.67589 34.1045C7.72655 34.0453 7.77682 33.9866 7.82426 33.9278L7.78535 33.8964L7.82427 33.9278C10.3814 30.7586 12.8566 27.3408 15.1459 24.0205C17.0168 21.3067 18.8243 18.2122 20.3268 15.2891C20.4883 15.5123 20.615 15.7643 20.7412 16.0151C20.7885 16.1092 20.8358 16.2031 20.8847 16.2952C23.9803 22.1227 27.7302 27.2597 31.7874 32.5769C31.8744 32.6909 32.0116 32.86 32.1705 33.0556C32.3339 33.2569 32.5202 33.4864 32.6978 33.7127C32.874 33.9371 33.0426 34.1596 33.1754 34.3523C33.3095 34.5468 33.4029 34.7054 33.4335 34.8037L33.4812 34.7888L33.4335 34.8037C33.5109 35.0521 33.4832 35.2276 33.3982 35.3547C33.3118 35.4839 33.1597 35.5728 32.9685 35.6326C32.6016 35.7472 32.1194 35.7464 31.7768 35.7458C31.7614 35.7458 31.7464 35.7458 31.7317 35.7458L26.1108 35.741C23.9099 33.2111 22.5555 29.6259 21.6118 26.5692C21.5739 26.4466 21.5384 26.298 21.4994 26.1349C21.487 26.0831 21.4743 26.0299 21.4611 25.9755C21.4064 25.7514 21.343 25.5108 21.2588 25.2869C21.092 24.8431 20.8353 24.4437 20.3793 24.3892L20.3794 24.3883L20.3697 24.389C20.1646 24.4041 20.0024 24.4678 19.8725 24.5654C19.7431 24.6627 19.6483 24.7917 19.5745 24.9339C19.5008 25.0759 19.4472 25.2328 19.4013 25.3872C19.3817 25.453 19.3637 25.5174 19.3462 25.5801C19.3219 25.6672 19.2984 25.7512 19.2727 25.8317L19.3203 25.847L19.2727 25.8317C18.1567 29.321 16.9108 32.7901 14.5004 35.7372C14.2635 35.7519 14.0231 35.7494 13.7822 35.7469C13.6897 35.746 13.5972 35.745 13.5047 35.745L9.41741 35.7455ZM20.8545 29.9208C20.8544 29.7439 20.8536 29.5671 20.8527 29.3904C20.8499 28.8238 20.8471 28.2582 20.8721 27.6938C20.9094 27.8133 20.954 27.9667 20.9988 28.1242C21.0328 28.2435 21.0669 28.3654 21.098 28.4764C21.1497 28.6614 21.1931 28.8163 21.2132 28.8789C21.8634 30.9074 22.8071 32.9657 24.0493 34.7627C24.0775 34.8034 24.2741 35.0672 24.4625 35.3198C24.557 35.4466 24.6498 35.571 24.719 35.6641C24.7336 35.6837 24.7471 35.7019 24.7594 35.7185C24.7656 35.7269 24.7715 35.7349 24.7771 35.7424C23.785 35.756 22.7913 35.7514 21.7979 35.7469C21.4782 35.7454 21.1586 35.744 20.839 35.7431C20.8754 35.2491 20.8679 34.7439 20.8606 34.2449C20.8575 34.0408 20.8545 33.8378 20.8545 33.637L20.8545 29.9208Z" fill="black" stroke="black" stroke-width="0.1"/>
</svg>
