<svg width="41" height="40" viewBox="0 0 41 40" fill="none" xmlns="http://www.w3.org/2000/svg">
<path d="M9.22065 22.5312C8.80814 22.872 6.66906 24.8986 6.49205 23.2774C6.43132 22.7212 7.37835 22.2078 7.74054 21.9329L8.80605 21.1087C9.35573 20.6774 9.39665 20.61 9.67228 19.9764C10.4218 18.2531 11.946 14.4169 13.5418 13.4376C14.5624 12.8112 15.6809 12.3183 16.7489 11.779L19.1897 10.5748C19.617 10.3668 20.0624 10.039 20.5482 10C21.0206 10.0032 23.9475 11.558 24.4856 11.8228L26.2096 12.6661C27.8391 13.4501 28.2318 13.6819 29.1425 15.2031C29.8791 16.4334 30.4934 17.7335 31.0431 19.0565C31.7002 20.6375 31.4436 20.5369 32.7672 21.5319C33.1425 21.814 34.4225 22.699 34.5021 23.1295C34.5711 23.5029 34.2364 23.8504 33.8818 23.8991C33.4364 23.9601 32.2996 22.9684 31.8684 22.6347C31.8421 24.5752 31.8661 26.5184 31.8747 28.4591L31.939 35.7623C31.9556 36.5852 30.9361 36.3471 30.3627 36.3463L20.3734 36.347L10.7804 36.346C10.4209 36.3461 9.49202 36.4621 9.24194 36.1655C9.14993 36.0564 9.20677 34.375 9.20683 34.1185L9.20688 24.5576C9.20682 23.8843 9.18595 23.2035 9.22065 22.5312ZM20.5575 11.436C20.0205 11.7263 19.4658 11.9859 18.9196 12.2586L15.7366 13.8563C14.2181 14.629 14.1005 14.3945 13.2073 15.8978C12.4717 17.1359 11.8491 18.4072 11.2994 19.7365C10.9761 20.5182 10.6867 21.3659 10.0455 21.9488C10.0293 22.5339 10.0381 23.1206 10.0381 23.7059L10.0044 33.9436C10.0044 34.4433 10.0222 34.9491 9.98858 35.4476L13.1171 35.4479C13.7006 35.4478 14.288 35.4339 14.8711 35.4584L14.875 29.6535C14.875 28.7473 14.8424 27.8276 14.8872 26.9228C14.5655 26.9204 14.1157 26.8611 14.1411 26.4313C14.1732 25.8873 14.8956 25.9939 15.2624 25.9981L20.4453 25.9978L25.7027 25.9999C25.9749 25.9999 26.4755 25.9241 26.6907 26.136C27.0211 26.4615 26.7684 26.9555 26.157 26.8986L26.1145 26.8946L26.1115 32.6399C26.1116 33.5712 26.1361 34.51 26.1018 35.4404C27.7226 35.4817 29.4894 35.4847 31.1101 35.4404L31.0359 21.9828C30.185 21.1013 29.9028 19.9345 29.4266 18.837C29.0458 17.9592 27.8463 15.4862 27.16 14.8028C26.7589 14.4035 25.5645 13.8925 25.0119 13.6206L21.0951 11.6904C20.9178 11.6051 20.7299 11.5296 20.5575 11.436ZM16.634 26.8628L16.1818 26.8713C17.4918 27.9871 19.2977 29.4583 20.4831 30.6849C21.14 30.041 21.8644 29.4611 22.5521 28.8499C23.3007 28.1899 24.0263 27.4994 24.7891 26.8561C23.1371 26.8235 21.4804 26.8486 19.8279 26.8486L17.8469 26.8489C17.4437 26.849 17.0364 26.8371 16.634 26.8628ZM25.2796 27.5616L22.4909 30.0699C22.0477 30.4613 21.5371 30.8664 21.1178 31.2717C21.7953 31.8391 22.4355 32.4507 23.11 33.0209L24.4148 34.1627C24.709 34.4182 25.0205 34.6684 25.2814 34.9586C25.2577 34.3484 25.2819 33.7299 25.2819 33.1189L25.2834 28.1628C25.2837 27.9713 25.3054 27.7493 25.2796 27.5616ZM15.7257 27.581C15.6988 28.1271 15.708 28.6742 15.7079 29.2207L15.7076 33.6504C15.7077 34.0742 15.6956 34.5033 15.7241 34.9262C16.4404 34.3209 17.1638 33.6007 17.8836 32.9691L19.0236 31.9546C19.2851 31.723 19.5487 31.474 19.8381 31.2782C19.2562 30.7356 18.648 30.2242 18.0558 29.6933L15.7257 27.581ZM20.4689 31.8654L16.9907 34.9297C16.7996 35.1005 16.6002 35.2676 16.4203 35.4501L18.9319 35.4476C19.4555 35.4476 19.9806 35.4393 20.5037 35.4571C21.8421 35.4154 23.2413 35.514 24.5605 35.4364C24.2903 35.211 24.0334 34.9701 23.7675 34.7397L20.7721 32.1277C20.6803 32.0464 20.5733 31.9244 20.4689 31.8654Z" fill="black"/>
<path d="M20.8546 19.3657C17.299 19.5484 17.1673 14.633 20.3742 14.3409C23.5012 14.0083 24.2268 18.8961 20.8546 19.3657ZM20.3388 15.2188C18.1777 15.5569 18.6753 18.8489 20.8495 18.4826C23.005 18.0669 22.4424 14.9101 20.3388 15.2188Z" fill="black"/>
</svg>
