<svg width="34" height="32" fill="none" xmlns="http://www.w3.org/2000/svg"><path fill-rule="evenodd" clip-rule="evenodd" d="M1.605 14.446a5.24 5.24 0 0 1 .495-.283c.713-.361 1.679-.685 2.836-.965.216-.973.55-1.902.987-2.772l-.08.04c-2.2 1.1-3.676 2.486-4.238 3.98Zm5.384-4.499a11.292 11.292 0 0 0-1.292 3.079c1.391-.294 3.026-.534 4.832-.704.22-1.335.562-2.576 1.005-3.677-1.669.307-3.202.75-4.545 1.302Zm4.882-2.072c-1.505.251-2.915.61-4.193 1.06a11.67 11.67 0 0 1 6.6-4.27c-.81.637-1.523 1.543-2.11 2.628-.103.188-.201.382-.296.582Zm.481.632c-.483 1.096-.86 2.365-1.102 3.752a70.334 70.334 0 0 1 5.4-.226V8.162a30.588 30.588 0 0 0-4.298.345Zm4.298-1.045a31.516 31.516 0 0 0-3.932.284l.065-.12C13.83 5.691 15.2 4.531 16.65 4.37v3.092Zm.7.7v3.87c1.898.01 3.716.088 5.4.227-.24-1.387-.618-2.656-1.101-3.752a30.59 30.59 0 0 0-4.299-.345Zm3.932-.416a31.517 31.517 0 0 0-3.932-.284V4.37c1.45.161 2.82 1.32 3.868 3.256l.064.12Zm1.184.899a17.477 17.477 0 0 1 1.005 3.677c1.807.17 3.442.41 4.833.704a11.294 11.294 0 0 0-1.292-3.079c-1.343-.551-2.876-.995-4.546-1.302Zm3.856.29a25.108 25.108 0 0 0-4.193-1.06c-.095-.2-.193-.394-.295-.582-.588-1.085-1.302-1.991-2.111-2.628a11.67 11.67 0 0 1 6.6 4.27Zm1.755 1.491c.437.87.772 1.8.988 2.772 1.157.28 2.123.604 2.836.965.179.09.344.185.495.283-.562-1.494-2.038-2.88-4.238-3.98a10.018 10.018 0 0 0-.08-.04Zm4.573 5.384c0-.118-.054-.267-.228-.45-.175-.183-.451-.377-.837-.572-.589-.299-1.392-.58-2.377-.833a12.073 12.073 0 0 1 0 3.71c.985-.253 1.788-.534 2.377-.833.386-.195.662-.39.837-.573.174-.182.228-.33.228-.45Zm-4.182 2.033a11.344 11.344 0 0 0 0-4.065l-.227-.05c-1.337-.286-2.915-.522-4.665-.693.114.892.174 1.821.174 2.775s-.06 1.883-.174 2.775c1.75-.17 3.328-.406 4.665-.693l.227-.05Zm-4.997 1.456c1.806-.17 3.442-.41 4.833-.704a11.292 11.292 0 0 1-1.292 3.078c-1.343.551-2.877.995-4.546 1.302a17.488 17.488 0 0 0 1.005-3.677Zm-.61-.649c.123-.907.19-1.859.19-2.84 0-.981-.066-1.933-.19-2.84a69.361 69.361 0 0 0-5.51-.237v6.155a69.262 69.262 0 0 0 5.51-.238Zm-5.51.938a70.328 70.328 0 0 0 5.4-.226c-.241 1.386-.62 2.655-1.102 3.751a30.595 30.595 0 0 1-4.299.345v-3.87Zm-.7-.7v-6.155a69.363 69.363 0 0 0-5.511.237c-.124.907-.19 1.859-.19 2.84 0 .981.066 1.933.19 2.84 1.71.146 3.566.23 5.51.238Zm-5.4.474c1.684.138 3.502.218 5.4.226v3.87a30.592 30.592 0 0 1-4.299-.345c-.483-1.096-.86-2.365-1.102-3.751Zm-.826-.777a21.836 21.836 0 0 1-.175-2.775c0-.954.06-1.883.175-2.775-1.75.17-3.328.407-4.665.693a32.34 32.34 0 0 0-.227.05 11.343 11.343 0 0 0 0 4.065l.227.05c1.337.286 2.915.522 4.665.692Zm-4.728.01c1.391.293 3.026.533 4.833.704.219 1.335.561 2.575 1.005 3.676-1.67-.307-3.203-.75-4.546-1.302a11.29 11.29 0 0 1-1.292-3.078Zm-.904-.93c-.986-.253-1.788-.534-2.377-.833-.386-.195-.662-.39-.837-.573-.174-.182-.229-.33-.229-.45 0-.117.055-.266.229-.448.175-.184.451-.378.837-.573.588-.299 1.391-.58 2.377-.833a12.073 12.073 0 0 0 0 3.71Zm.143.758c.216.972.55 1.9.988 2.77a30.15 30.15 0 0 1-.08-.04c-2.202-1.1-3.677-2.485-4.24-3.98.152.1.317.193.496.284.713.361 1.679.685 2.836.965Zm1.575 3.81a17.377 17.377 0 0 1-.98-.453c-1.426-.713-2.619-1.573-3.468-2.546.755 1.764 2.08 3.352 3.832 4.645 1.4 1.034 3.069 1.875 4.925 2.46a12.328 12.328 0 0 1-4.309-4.107Zm10.49 5.736c-4.486 0-8.56-1.341-11.522-3.527C2.517 22.256.65 19.208.65 15.81c0-3.399 1.867-6.446 4.829-8.632C8.44 4.992 12.515 3.65 17 3.65c4.486 0 8.56 1.342 11.522 3.528 2.961 2.186 4.828 5.234 4.828 8.632 0 3.398-1.867 6.446-4.828 8.632C25.56 26.628 21.486 27.97 17 27.97Zm15.395-10.795c-.15.098-.316.192-.495.283-.713.361-1.679.685-2.836.965-.216.973-.55 1.902-.988 2.772l.08-.04c2.201-1.1 3.677-2.486 4.239-3.98Zm-4.907 5.058c.34-.144.667-.295.982-.452 1.425-.713 2.617-1.573 3.467-2.546-.755 1.764-2.08 3.352-3.832 4.645-1.4 1.034-3.07 1.875-4.925 2.46 1.755-1 3.237-2.414 4.308-4.107Zm-1.167.452c-1.277.45-2.687.81-4.193 1.061-.095.2-.193.394-.295.582-.588 1.085-1.302 1.991-2.111 2.628a11.67 11.67 0 0 0 6.6-4.27ZM17.35 27.25c1.45-.162 2.82-1.321 3.868-3.256l.064-.12c-1.258.172-2.575.27-3.932.284v3.092Zm-.7-3.092a31.506 31.506 0 0 1-3.931-.284c.02.04.042.08.064.12 1.048 1.935 2.418 3.095 3.867 3.256v-3.092Zm-4.778-.413c.095.2.193.394.295.582.588 1.085 1.302 1.991 2.111 2.628a11.67 11.67 0 0 1-6.6-4.27c1.278.45 2.688.809 4.194 1.06Zm20.066-11.36c-.85-.972-2.042-1.832-3.467-2.545a17.433 17.433 0 0 0-.982-.452 12.328 12.328 0 0 0-4.308-4.108c1.856.586 3.525 1.427 4.925 2.46 1.752 1.294 3.077 2.882 3.832 4.646ZM10.82 5.28a12.328 12.328 0 0 0-4.309 4.108c-.339.144-.666.295-.98.452-1.426.713-2.619 1.573-3.468 2.546.755-1.764 2.08-3.352 3.832-4.645 1.4-1.034 3.069-1.875 4.925-2.46Z" fill="#000"/></svg>