<svg width="16" height="16" fill="none" xmlns="http://www.w3.org/2000/svg"><path d="M8 8a4 4 0 0 0-4 4h8a4 4 0 0 0-4-4Z" fill="#000"/><path fill-rule="evenodd" clip-rule="evenodd" d="M8 3.25a.75.75 0 0 1 .75.75v2.002a.75.75 0 0 1-1.5 0V4A.75.75 0 0 1 8 3.25ZM0 12c0-.414.307-.75.686-.75h14.628c.379 0 .686.336.686.75s-.307.75-.686.75H.686C.307 12.75 0 12.414 0 12ZM14.186 5.814a.75.75 0 0 1 0 1.06L12.771 8.29a.75.75 0 0 1-1.061-1.06l1.416-1.416a.75.75 0 0 1 1.06 0ZM1.813 5.814a.75.75 0 0 1 1.061 0L4.29 7.227A.75.75 0 1 1 3.23 8.29L1.813 6.874a.75.75 0 0 1 0-1.06Z" fill="#000"/></svg>