<svg width="16" height="16" fill="none" xmlns="http://www.w3.org/2000/svg"><path d="M5.013 13.399c-1.394 0-2.44-.258-3.137-.773-.687-.526-1.03-1.213-1.03-2.063 0-.688.21-1.26.63-1.719.429-.468.95-.754 1.56-.86v-.229H0V6.123h1.89c.297 0 .507-.063.631-.187s.186-.334.186-.63V4.218h1.848V6.05H8.68v1.704H4.168a1.979 1.979 0 0 0-.845.731c-.2.306-.3.702-.3 1.189 0 1.222.663 1.833 1.99 1.833.678 0 1.184-.133 1.519-.4.334-.268.5-.636.5-1.104v-.172h2.25v.215c0 1.05-.354 1.872-1.06 2.464-.707.592-1.776.888-3.209.888ZM13.207 7.985c-.564 0-1.055-.105-1.476-.315a2.442 2.442 0 0 1-.973-.889 2.458 2.458 0 0 1-.344-1.289c0-.477.114-.902.344-1.274.229-.382.553-.678.974-.889.42-.22.912-.329 1.475-.329.563 0 1.055.11 1.475.33.42.21.745.506.974.888.23.372.344.797.344 1.274 0 .478-.115.907-.344 1.29a2.44 2.44 0 0 1-.974.888c-.42.21-.912.315-1.475.315Zm0-1.347c.382 0 .687-.105.917-.315a1.08 1.08 0 0 0 .358-.83c0-.335-.12-.607-.358-.817-.23-.22-.535-.33-.917-.33s-.688.11-.917.33c-.229.21-.344.482-.344.816 0 .335.115.611.344.831.23.21.535.315.917.315Z" fill="#000"/></svg>