<svg width="64" height="64" viewBox="0 0 64 64" fill="none" xmlns="http://www.w3.org/2000/svg">
<g clip-path="url(#clip0_4879_59206)">
<path d="M32 0C14.3262 0 0 14.3262 0 32C0 49.6738 14.3262 64 32 64C49.6738 64 64 49.6707 64 32C64 14.3293 49.6707 0 32 0Z" fill="#1B2D50"/>
<path d="M31.8931 52.4548C27.1307 52.4548 22.9905 51.5869 19.4724 49.8509C15.9543 48.1149 13.2655 45.7257 11.4062 42.6833C9.54676 39.6418 8.61707 36.1854 8.61707 32.3141C8.61707 28.4428 9.55429 24.9859 11.4287 21.9435C13.3022 18.901 16.0115 16.5118 19.5567 14.7758C23.1019 13.0399 27.2732 12.1719 32.0707 12.1719C36.8632 12.1719 41.0345 13.0323 44.5847 14.7532C48.1349 16.4742 50.8442 18.8323 52.7126 21.8276C54.5981 24.8249 55.5409 28.2125 55.5409 31.9905C55.5409 34.2643 55.2107 36.1618 54.5505 37.6831C53.8902 39.2043 52.9369 40.3412 51.6906 41.0938C50.4474 41.8464 48.9648 42.2227 47.2428 42.2227C45.2771 42.2227 43.7027 41.8077 42.5196 40.9779C41.3478 40.168 40.5173 38.953 40.1881 37.5672H39.6357C38.9283 38.9499 37.8295 40.0718 36.3394 40.9327C34.8492 41.7937 32.9211 42.2237 30.555 42.2227C28.4357 42.2227 26.5843 41.8077 25.0009 40.9779C23.472 40.2004 22.2057 38.9901 21.3599 37.4979C20.516 36.0088 20.0935 34.2809 20.0925 32.3141C20.0915 30.3474 20.514 28.6189 21.3599 27.1288C22.2 25.6422 23.4554 24.4329 24.9723 23.6488C26.5387 22.818 28.3825 22.403 30.5038 22.404C32.7766 22.404 34.628 22.8496 36.0579 23.7406C37.4878 24.6317 38.4787 25.7069 39.0306 26.9662H39.7365L38.8154 22.8646H43.0931V34.3416C43.0931 35.5708 43.4237 36.5156 44.085 37.1758C44.7463 37.8361 45.6754 38.1667 46.8726 38.1677C47.7636 38.1677 48.5012 37.9756 49.0852 37.5913C49.6692 37.2069 50.1147 36.5547 50.4218 35.6345C50.7288 34.7134 50.8823 33.4997 50.8823 31.9935C50.8823 28.9511 50.1453 26.2392 48.6712 23.858C47.1972 21.4769 45.0398 19.6104 42.199 18.2588C39.3532 16.9051 35.9796 16.2283 32.0782 16.2283C28.1768 16.2283 24.8042 16.9117 21.9604 18.2784C19.1187 19.6461 16.9612 21.5436 15.4882 23.9709C14.0151 26.3983 13.2776 29.1793 13.2756 32.3141C13.2756 35.4479 14.0131 38.2284 15.4882 40.6558C16.9633 43.0831 19.0986 44.9807 21.8942 46.3484C24.6908 47.7151 28.0248 48.3989 31.8961 48.3999C33.855 48.4224 35.8105 48.2291 37.7271 47.8234C39.3218 47.4761 40.8745 46.9583 42.3586 46.2791L44.2491 49.741C42.8964 50.5699 41.1905 51.2301 39.1315 51.7218C37.0724 52.2135 34.6596 52.4579 31.8931 52.4548ZM31.6176 38.1677C33.0606 38.1677 34.2973 37.9219 35.3279 37.4302C36.2966 36.9919 37.1085 36.2683 37.6549 35.3561C38.1693 34.4247 38.4391 33.3781 38.4391 32.3141C38.4391 31.2501 38.1693 30.2035 37.6549 29.2722C37.1089 28.3597 36.2969 27.6359 35.3279 27.198C34.2963 26.7053 33.0596 26.4595 31.6176 26.4605C30.1426 26.4605 28.8882 26.7063 27.8547 27.198C26.8814 27.6391 26.0626 28.3615 25.5036 29.2722C24.9749 30.1988 24.6968 31.2472 24.6968 32.3141C24.6968 33.381 24.9749 34.4294 25.5036 35.3561C26.063 36.2664 26.8817 36.9887 27.8547 37.4302C28.8882 37.9209 30.1426 38.1667 31.6176 38.1677Z" fill="#F18D3F"/>
</g>
<defs>
<clipPath id="clip0_4879_59206">
<rect width="64" height="64" fill="white"/>
</clipPath>
</defs>
</svg>
