<svg width="348" height="467" viewBox="0 0 348 467" fill="none" xmlns="http://www.w3.org/2000/svg" xmlns:xlink="http://www.w3.org/1999/xlink">
<rect width="348" height="467" fill="url(#pattern0)" fill-opacity="0.5"/>
<path d="M90.5 49C80.2824 49 72 57.2826 72 67.4996C72 77.7166 80.2824 86 90.5 86C100.718 86 109 77.7174 109 67.4996C109 57.2817 100.717 49 90.5 49Z" fill="#1D2E52"/>
<path d="M102.839 73.6666L96.6717 61.3403L93.3894 67.8937L86.8125 56.3723L78.1795 73.6666L94.022 73.6579L102.839 73.6666Z" fill="#E2C189"/>
<g clip-path="url(#clip0_6701_21687)">
<path d="M275.5 359C265.282 359 257 367.282 257 377.5C257 387.718 265.282 396 275.5 396C285.718 396 294 387.716 294 377.5C294 367.284 285.716 359 275.5 359Z" fill="#F18D3F"/>
<path d="M281.191 370.166C281.191 369.856 281.068 369.559 280.849 369.34C280.631 369.121 280.334 368.998 280.024 368.998H271.09C270.937 368.998 270.785 369.028 270.643 369.087C270.502 369.146 270.373 369.232 270.265 369.34C270.156 369.449 270.07 369.577 270.012 369.719C269.953 369.861 269.923 370.013 269.923 370.166C269.923 370.319 269.893 370.471 269.834 370.613C269.776 370.754 269.69 370.883 269.581 370.991C269.473 371.1 269.344 371.186 269.202 371.244C269.061 371.303 268.909 371.333 268.756 371.333H265.623C265.313 371.333 265.016 371.456 264.797 371.675C264.578 371.894 264.455 372.191 264.455 372.501V384.701C264.455 385.011 264.578 385.308 264.797 385.527C265.016 385.746 265.313 385.869 265.623 385.869H285.488C285.641 385.869 285.793 385.839 285.935 385.78C286.077 385.721 286.205 385.635 286.314 385.527C286.422 385.419 286.508 385.29 286.567 385.148C286.625 385.006 286.655 384.855 286.655 384.701V372.501C286.655 372.347 286.625 372.195 286.567 372.054C286.508 371.912 286.422 371.783 286.314 371.675C286.205 371.566 286.077 371.48 285.935 371.422C285.793 371.363 285.641 371.333 285.488 371.333H282.356C282.046 371.332 281.75 371.209 281.532 370.99C281.314 370.771 281.191 370.475 281.191 370.166Z" fill="#1B2D50"/>
<path d="M275.555 382.432C278.28 382.432 280.488 380.224 280.488 377.499C280.488 374.775 278.28 372.566 275.555 372.566C272.831 372.566 270.622 374.775 270.622 377.499C270.622 380.224 272.831 382.432 275.555 382.432Z" fill="#E9E6E1"/>
</g>
<g clip-path="url(#clip1_6701_21687)">
<path d="M53.5 410C43.2824 410 35 418.282 35 428.5C35 438.718 43.2824 447 53.5 447C63.7176 447 72 438.716 72 428.5C72 418.284 63.7159 410 53.5 410Z" fill="#1D2E52"/>
<path d="M53.5118 440.469C53.281 440.469 53.0597 440.378 52.8965 440.214C52.7333 440.051 52.6416 439.83 52.6416 439.599V417.396C52.6416 417.165 52.7333 416.943 52.8965 416.78C53.0597 416.617 53.281 416.525 53.5118 416.525C53.7426 416.525 53.9639 416.617 54.1271 416.78C54.2903 416.943 54.382 417.165 54.382 417.396V439.599C54.382 439.83 54.2903 440.051 54.1271 440.214C53.9639 440.378 53.7426 440.469 53.5118 440.469Z" fill="#F18E3C"/>
<path d="M58.082 438.73H52.6416V440.471H58.082V438.73Z" fill="#F18E3C"/>
<path d="M54.0393 416.721L52.9521 418.08L59.1186 423.013L60.2058 421.654L54.0393 416.721Z" fill="#F18E3C"/>
<path d="M52.9682 416.721L46.8018 421.654L47.889 423.013L54.0554 418.08L52.9682 416.721Z" fill="#F18E3C"/>
<path d="M52.9682 422.887L46.8018 427.82L47.889 429.179L54.0554 424.246L52.9682 422.887Z" fill="#F18E3C"/>
<path d="M52.9682 429.055L46.8018 433.988L47.889 435.347L54.0554 430.414L52.9682 429.055Z" fill="#F18E3C"/>
<path d="M54.0393 422.887L52.9521 424.246L59.1186 429.179L60.2058 427.82L54.0393 422.887Z" fill="#F18E3C"/>
<path d="M54.0384 429.053L52.9512 430.412L59.1176 435.345L60.2048 433.986L54.0384 429.053Z" fill="#F18E3C"/>
</g>
<defs>
<pattern id="pattern0" patternContentUnits="objectBoundingBox" width="1" height="1">
<use xlink:href="#image0_6701_21687" transform="matrix(0.000665774 0 0 0.000472915 -0.655172 -0.0957157)"/>
</pattern>
<clipPath id="clip0_6701_21687">
<rect width="37" height="37" fill="white" transform="translate(257 359)"/>
</clipPath>
<clipPath id="clip1_6701_21687">
<rect width="37" height="37" fill="white" transform="translate(35 410)"/>
</clipPath>
</defs>
</svg>
