<svg width="1378" height="655" viewBox="0 0 1378 655" fill="none" xmlns="http://www.w3.org/2000/svg" xmlns:xlink="http://www.w3.org/1999/xlink">
<rect width="1378" height="654.579" fill="url(#pattern0)" fill-opacity="0.5"/>
<g clip-path="url(#clip0_6701_21684)">
<path d="M1215 147C1201.74 147 1191 157.745 1191 171C1191 184.255 1201.74 195 1215 195C1228.26 195 1239 184.253 1239 171C1239 157.747 1228.25 147 1215 147Z" fill="#1B2D50"/>
<path d="M1228.92 180.402L1228.09 175.999C1228.09 175.994 1228.09 175.989 1228.09 175.983C1228.08 175.939 1228.07 175.896 1228.05 175.853C1228.05 175.853 1228.05 175.853 1228.05 175.847C1228.04 175.802 1228.02 175.759 1228 175.717L1227.98 175.689C1227.97 175.656 1227.95 175.624 1227.93 175.594C1227.92 175.585 1227.92 175.576 1227.91 175.567C1227.88 175.53 1227.86 175.494 1227.83 175.459C1227.82 175.456 1227.81 175.453 1227.8 175.448C1227.78 175.42 1227.75 175.393 1227.72 175.368L1227.69 175.344C1227.66 175.317 1227.63 175.292 1227.59 175.269L1227.58 175.263C1227.54 175.238 1227.5 175.216 1227.46 175.195L1227.43 175.184C1227.4 175.167 1227.36 175.153 1227.32 175.141L1227.3 175.134H1227.29C1227.25 175.12 1227.2 175.11 1227.15 175.103H1227.13C1227.11 175.103 1227.08 175.095 1227.05 175.093H1226.98C1226.94 175.093 1226.9 175.093 1226.86 175.093H1226.83C1226.79 175.098 1226.74 175.106 1226.7 175.117H1226.69C1226.65 175.129 1226.6 175.142 1226.57 175.157L1226.53 175.169C1226.5 175.184 1226.46 175.201 1226.43 175.22L1226.41 175.231C1226.37 175.253 1226.33 175.278 1226.29 175.305L1226.26 175.33C1226.24 175.351 1226.21 175.373 1226.19 175.397L1226.16 175.414L1223.02 178.582C1222.88 178.72 1222.78 178.89 1222.73 179.077C1222.68 179.264 1222.68 179.461 1222.73 179.65C1222.77 179.838 1222.87 180.011 1223 180.152C1223.13 180.293 1223.3 180.397 1223.49 180.455L1224.45 180.756C1223.6 182.262 1222.4 183.542 1220.95 184.492C1219.5 185.441 1217.85 186.032 1216.12 186.217V163.743H1220.93V161.485H1216.13V158.967C1216.98 158.697 1217.71 158.132 1218.18 157.374C1218.65 156.616 1218.83 155.715 1218.7 154.833C1218.56 153.952 1218.11 153.148 1217.44 152.568C1216.76 151.987 1215.9 151.668 1215.01 151.668C1214.11 151.668 1213.25 151.987 1212.57 152.568C1211.9 153.148 1211.45 153.952 1211.31 154.833C1211.18 155.715 1211.36 156.616 1211.83 157.374C1212.3 158.132 1213.03 158.697 1213.88 158.967V161.487H1209.07V163.745H1213.88V186.214C1212.15 186.031 1210.5 185.44 1209.05 184.49C1207.6 183.541 1206.4 182.26 1205.55 180.754L1206.52 180.451C1206.7 180.394 1206.87 180.289 1207 180.148C1207.14 180.007 1207.23 179.834 1207.28 179.646C1207.32 179.458 1207.32 179.261 1207.27 179.074C1207.22 178.887 1207.12 178.716 1206.98 178.579L1203.84 175.411C1203.82 175.393 1203.8 175.378 1203.78 175.361L1203.77 175.353C1203.7 175.292 1203.62 175.24 1203.54 175.199L1203.49 175.173L1203.43 175.149C1203.4 175.139 1203.37 175.13 1203.34 175.122L1203.3 175.11C1203.26 175.099 1203.22 175.091 1203.17 175.086H1203.14C1203.11 175.086 1203.07 175.086 1203.03 175.086H1202.95C1202.69 175.103 1202.44 175.213 1202.25 175.396C1202.06 175.578 1201.94 175.822 1201.91 176.085L1201.09 180.406C1201.06 180.57 1201.06 180.738 1201.1 180.899C1201.14 181.06 1201.22 181.209 1201.33 181.337C1201.43 181.465 1201.57 181.568 1201.72 181.639C1201.87 181.71 1202.03 181.746 1202.2 181.746C1202.31 181.746 1202.43 181.729 1202.54 181.695L1203.35 181.443C1204.46 183.58 1206.13 185.372 1208.18 186.623C1210.24 187.874 1212.6 188.536 1215.01 188.536C1217.41 188.536 1219.77 187.874 1221.83 186.623C1223.88 185.372 1225.56 183.58 1226.66 181.443L1227.48 181.697C1227.66 181.754 1227.86 181.763 1228.05 181.722C1228.24 181.68 1228.42 181.59 1228.57 181.461C1228.71 181.331 1228.82 181.166 1228.88 180.981C1228.95 180.796 1228.96 180.599 1228.92 180.407V180.402ZM1215.01 153.924C1215.3 153.924 1215.58 154.011 1215.83 154.173C1216.07 154.336 1216.26 154.567 1216.37 154.837C1216.48 155.107 1216.51 155.404 1216.46 155.691C1216.4 155.978 1216.26 156.242 1216.05 156.448C1215.84 156.655 1215.58 156.796 1215.29 156.853C1215.01 156.91 1214.71 156.881 1214.44 156.769C1214.17 156.657 1213.94 156.467 1213.78 156.224C1213.61 155.981 1213.53 155.695 1213.53 155.403C1213.53 155.011 1213.68 154.635 1213.96 154.357C1214.24 154.08 1214.61 153.924 1215.01 153.924Z" fill="#FBEED7"/>
</g>
<path d="M226 34C212.745 34 202 44.7449 202 57.9994C202 71.2539 212.745 82 226 82C239.255 82 250 71.2551 250 57.9994C250 44.7438 239.254 34 226 34Z" fill="#1D2E52"/>
<path d="M242.008 65.9999L234.006 50.009L229.748 58.5108L221.216 43.564L210.017 65.9999L230.569 65.9887L242.008 65.9999Z" fill="#E2C189"/>
<path d="M911.998 58C898.744 58 888 68.7447 888 82C888 95.2553 898.744 106 911.998 106C925.253 106 936 95.2531 936 82C936 68.7469 925.252 58 911.998 58Z" fill="#F18E3C"/>
<path d="M926.292 67.4826L906.331 76.3341L897.55 96.4598L917.674 87.6794L926.292 67.4826Z" fill="#1D2E52"/>
<path d="M907.716 77.7127L922.784 71.0308L916.272 86.2899L907.716 77.7127Z" fill="#E2C189"/>
<g clip-path="url(#clip1_6701_21684)">
<path d="M128 439C114.745 439 104 449.745 104 463C104 476.255 114.745 487 128 487C141.255 487 152 476.253 152 463C152 449.747 141.253 439 128 439Z" fill="#F18D3F"/>
<path d="M135.383 453.486C135.383 453.084 135.223 452.699 134.939 452.415C134.655 452.131 134.27 451.971 133.869 451.971H122.279C122.08 451.971 121.883 452.01 121.699 452.086C121.515 452.162 121.348 452.274 121.208 452.414C121.067 452.555 120.956 452.722 120.88 452.906C120.804 453.09 120.765 453.287 120.765 453.486C120.765 453.685 120.726 453.881 120.649 454.065C120.573 454.249 120.462 454.416 120.321 454.556C120.18 454.697 120.013 454.809 119.829 454.885C119.646 454.961 119.449 455 119.25 454.999H115.186C114.784 454.999 114.399 455.159 114.115 455.443C113.831 455.727 113.671 456.113 113.671 456.514V472.342C113.671 472.744 113.831 473.13 114.115 473.414C114.399 473.698 114.784 473.857 115.186 473.857H140.957C141.156 473.857 141.353 473.818 141.537 473.742C141.72 473.666 141.887 473.554 142.028 473.414C142.168 473.273 142.28 473.106 142.356 472.922C142.432 472.738 142.471 472.541 142.471 472.342V456.514C142.471 456.316 142.432 456.119 142.356 455.935C142.28 455.751 142.168 455.584 142.028 455.443C141.887 455.303 141.72 455.191 141.537 455.115C141.353 455.039 141.156 454.999 140.957 454.999H136.893C136.492 454.999 136.108 454.839 135.825 454.555C135.542 454.271 135.383 453.887 135.383 453.486Z" fill="#1B2D50"/>
<path d="M128.071 469.399C131.605 469.399 134.471 466.534 134.471 462.999C134.471 459.465 131.605 456.6 128.071 456.6C124.537 456.6 121.671 459.465 121.671 462.999C121.671 466.534 124.537 469.399 128.071 469.399Z" fill="#E9E6E1"/>
</g>
<g clip-path="url(#clip2_6701_21684)">
<path d="M709 570C695.745 570 685 580.745 685 594C685 607.255 695.745 618 709 618C722.255 618 733 607.253 733 594C733 580.747 722.253 570 709 570Z" fill="#1D2E52"/>
<path d="M709.016 609.529C708.716 609.529 708.429 609.41 708.217 609.198C708.006 608.987 707.887 608.7 707.887 608.4V579.596C707.887 579.296 708.006 579.009 708.217 578.797C708.429 578.586 708.716 578.467 709.016 578.467C709.315 578.467 709.602 578.586 709.814 578.797C710.026 579.009 710.144 579.296 710.144 579.596V608.4C710.144 608.7 710.026 608.987 709.814 609.198C709.602 609.41 709.315 609.529 709.016 609.529Z" fill="#F18E3C"/>
<path d="M714.944 607.271H707.887V609.529H714.944V607.271Z" fill="#F18E3C"/>
<path d="M709.699 578.717L708.289 580.48L716.289 586.88L717.699 585.117L709.699 578.717Z" fill="#F18E3C"/>
<path d="M708.31 578.719L700.311 585.119L701.721 586.882L709.721 580.482L708.31 578.719Z" fill="#F18E3C"/>
<path d="M708.31 586.719L700.31 593.119L701.72 594.882L709.72 588.482L708.31 586.719Z" fill="#F18E3C"/>
<path d="M708.31 594.719L700.311 601.119L701.721 602.882L709.721 596.482L708.31 594.719Z" fill="#F18E3C"/>
<path d="M709.699 586.719L708.289 588.482L716.289 594.882L717.699 593.119L709.699 586.719Z" fill="#F18E3C"/>
<path d="M709.699 594.719L708.288 596.482L716.288 602.882L717.698 601.119L709.699 594.719Z" fill="#F18E3C"/>
</g>
<g clip-path="url(#clip3_6701_21684)">
<path d="M1159 515C1145.74 515 1135 525.745 1135 539C1135 552.255 1145.74 563 1159 563C1172.26 563 1183 552.253 1183 539C1183 525.747 1172.25 515 1159 515Z" fill="#1B2D50"/>
<path d="M1171.02 535.021C1171.02 546.038 1159.02 555.021 1159.02 555.021C1159.02 555.021 1147.02 546.103 1147.02 535.021C1147.02 531.839 1148.29 528.787 1150.54 526.536C1152.79 524.286 1155.84 523.021 1159.02 523.021C1162.2 523.021 1165.26 524.286 1167.51 526.536C1169.76 528.787 1171.02 531.839 1171.02 535.021Z" fill="#F18D3F"/>
<path d="M1159 539.865C1162.11 539.865 1164.64 537.341 1164.64 534.228C1164.64 531.115 1162.11 528.592 1159 528.592C1155.89 528.592 1153.36 531.115 1153.36 534.228C1153.36 537.341 1155.89 539.865 1159 539.865Z" fill="#E9E6E1"/>
</g>
<defs>
<pattern id="pattern0" patternContentUnits="objectBoundingBox" width="1" height="1">
<use xlink:href="#image0_6701_21684" transform="matrix(0.000283914 0 0 0.000597686 -0.0461565 -0.0289566)"/>
</pattern>
<clipPath id="clip0_6701_21684">
<rect width="48" height="48" fill="white" transform="translate(1191 147)"/>
</clipPath>
<clipPath id="clip1_6701_21684">
<rect width="48" height="48" fill="white" transform="translate(104 439)"/>
</clipPath>
<clipPath id="clip2_6701_21684">
<rect width="48" height="48" fill="white" transform="translate(685 570)"/>
</clipPath>
<clipPath id="clip3_6701_21684">
<rect width="48" height="48" fill="white" transform="translate(1135 515)"/>
</clipPath>

</defs>
</svg>
