<svg width="1061" height="655" viewBox="0 0 1061 655" fill="none" xmlns="http://www.w3.org/2000/svg" xmlns:xlink="http://www.w3.org/1999/xlink">
<rect width="1061" height="655" fill="url(#pattern0)" fill-opacity="0.5"/>
<g clip-path="url(#clip0_6701_21685)">
<path d="M984 118C970.745 118 960 128.745 960 142C960 155.255 970.745 166 984 166C997.255 166 1008 155.253 1008 142C1008 128.747 997.253 118 984 118Z" fill="#1B2D50"/>
<path d="M997.922 151.402L997.086 146.999C997.086 146.994 997.086 146.989 997.086 146.983C997.077 146.939 997.065 146.896 997.052 146.853C997.052 146.853 997.052 146.853 997.052 146.847C997.036 146.802 997.018 146.759 996.998 146.717L996.983 146.689C996.966 146.656 996.948 146.624 996.928 146.594C996.922 146.585 996.916 146.576 996.909 146.567C996.884 146.53 996.856 146.494 996.827 146.459C996.818 146.456 996.81 146.453 996.801 146.448C996.775 146.42 996.748 146.393 996.719 146.368L996.69 146.344C996.658 146.317 996.625 146.292 996.59 146.269L996.581 146.263C996.541 146.238 996.5 146.216 996.458 146.195L996.432 146.184C996.395 146.167 996.358 146.153 996.319 146.141L996.302 146.134H996.292C996.247 146.12 996.201 146.11 996.154 146.103H996.134C996.105 146.103 996.076 146.095 996.046 146.093H995.975C995.938 146.093 995.901 146.093 995.862 146.093H995.834C995.787 146.098 995.741 146.106 995.695 146.117H995.687C995.645 146.129 995.605 146.142 995.565 146.157L995.533 146.169C995.498 146.184 995.463 146.201 995.428 146.22L995.407 146.231C995.368 146.253 995.33 146.278 995.294 146.305L995.262 146.33C995.235 146.351 995.209 146.373 995.185 146.397L995.164 146.414L992.019 149.582C991.883 149.72 991.784 149.89 991.732 150.077C991.681 150.264 991.678 150.461 991.725 150.65C991.772 150.838 991.867 151.011 992 151.152C992.133 151.293 992.3 151.397 992.485 151.455L993.453 151.756C992.597 153.262 991.395 154.542 989.947 155.492C988.498 156.441 986.845 157.032 985.123 157.217V134.743H989.925V132.485H985.134V129.967C985.984 129.697 986.71 129.132 987.181 128.374C987.651 127.616 987.834 126.715 987.698 125.833C987.562 124.952 987.114 124.148 986.437 123.568C985.76 122.987 984.897 122.668 984.005 122.668C983.113 122.668 982.251 122.987 981.573 123.568C980.896 124.148 980.449 124.952 980.313 125.833C980.176 126.715 980.36 127.616 980.83 128.374C981.3 129.132 982.026 129.697 982.876 129.967V132.487H978.074V134.745H982.876V157.214C981.154 157.031 979.501 156.44 978.052 155.49C976.604 154.541 975.402 153.26 974.546 151.754L975.517 151.451C975.702 151.394 975.869 151.289 976.002 151.148C976.135 151.007 976.23 150.834 976.277 150.646C976.323 150.458 976.321 150.261 976.269 150.074C976.218 149.887 976.119 149.716 975.982 149.579L972.837 146.411C972.819 146.393 972.799 146.378 972.78 146.361L972.772 146.353C972.701 146.292 972.622 146.24 972.538 146.199L972.485 146.173L972.425 146.149C972.398 146.139 972.371 146.13 972.343 146.122L972.304 146.11C972.261 146.099 972.218 146.091 972.173 146.086H972.141C972.105 146.086 972.07 146.086 972.028 146.086H971.954C971.691 146.103 971.441 146.213 971.25 146.396C971.059 146.578 970.938 146.822 970.908 147.085L970.087 151.406C970.056 151.57 970.062 151.738 970.103 151.899C970.144 152.06 970.221 152.209 970.327 152.337C970.433 152.465 970.566 152.568 970.716 152.639C970.867 152.71 971.031 152.746 971.197 152.746C971.312 152.746 971.426 152.729 971.536 152.695L972.35 152.443C973.455 154.58 975.127 156.372 977.183 157.623C979.239 158.874 981.599 159.536 984.005 159.536C986.412 159.536 988.772 158.874 990.827 157.623C992.883 156.372 994.555 154.58 995.661 152.443L996.478 152.697C996.664 152.754 996.862 152.763 997.053 152.722C997.243 152.68 997.42 152.59 997.565 152.461C997.71 152.331 997.82 152.166 997.882 151.981C997.945 151.796 997.959 151.599 997.922 151.407V151.402ZM984.005 124.924C984.298 124.924 984.584 125.011 984.827 125.173C985.07 125.336 985.26 125.567 985.372 125.837C985.483 126.107 985.513 126.404 985.456 126.691C985.399 126.978 985.258 127.242 985.051 127.448C984.844 127.655 984.581 127.796 984.294 127.853C984.007 127.91 983.71 127.881 983.439 127.769C983.169 127.657 982.938 127.467 982.776 127.224C982.613 126.981 982.526 126.695 982.526 126.403C982.527 126.011 982.683 125.635 982.96 125.357C983.237 125.08 983.613 124.924 984.005 124.924Z" fill="#FBEED7"/>
</g>
<path d="M136 33C122.745 33 112 43.7449 112 56.9994C112 70.2539 122.745 81 136 81C149.255 81 160 70.2551 160 56.9994C160 43.7438 149.254 33 136 33Z" fill="#1D2E52"/>
<path d="M152.008 64.9999L144.006 49.009L139.748 57.5108L131.216 42.564L120.017 64.9999L140.569 64.9887L152.008 64.9999Z" fill="#E2C189"/>
<path d="M683.998 48C670.744 48 660 58.7447 660 72C660 85.2553 670.744 96 683.998 96C697.253 96 708 85.2531 708 72C708 58.7469 697.252 48 683.998 48Z" fill="#F18E3C"/>
<path d="M698.292 57.4826L678.331 66.3341L669.55 86.4598L689.674 77.6794L698.292 57.4826Z" fill="#1D2E52"/>
<path d="M679.716 67.7127L694.784 61.0308L688.272 76.2899L679.716 67.7127Z" fill="#E2C189"/>
<g clip-path="url(#clip1_6701_21685)">
<path d="M111 426C97.7447 426 87 436.745 87 450C87 463.255 97.7447 474 111 474C124.255 474 135 463.253 135 450C135 436.747 124.253 426 111 426Z" fill="#F18D3F"/>
<path d="M118.383 440.486C118.383 440.084 118.223 439.699 117.939 439.415C117.655 439.131 117.27 438.971 116.869 438.971H105.279C105.08 438.971 104.883 439.01 104.699 439.086C104.515 439.162 104.348 439.274 104.208 439.414C104.067 439.555 103.956 439.722 103.88 439.906C103.804 440.09 103.765 440.287 103.765 440.486C103.765 440.685 103.726 440.881 103.649 441.065C103.573 441.249 103.462 441.416 103.321 441.556C103.18 441.697 103.013 441.809 102.829 441.885C102.646 441.961 102.449 442 102.25 441.999H98.1859C97.7841 441.999 97.3987 442.159 97.1146 442.443C96.8305 442.727 96.6709 443.113 96.6709 443.514V459.342C96.6709 459.744 96.8305 460.13 97.1146 460.414C97.3987 460.698 97.7841 460.857 98.1859 460.857H123.957C124.156 460.857 124.353 460.818 124.537 460.742C124.72 460.666 124.887 460.554 125.028 460.414C125.168 460.273 125.28 460.106 125.356 459.922C125.432 459.738 125.471 459.541 125.471 459.342V443.514C125.471 443.316 125.432 443.119 125.356 442.935C125.28 442.751 125.168 442.584 125.028 442.443C124.887 442.303 124.72 442.191 124.537 442.115C124.353 442.039 124.156 441.999 123.957 441.999H119.893C119.492 441.999 119.108 441.839 118.825 441.555C118.542 441.271 118.383 440.887 118.383 440.486Z" fill="#1B2D50"/>
<path d="M111.071 456.399C114.605 456.399 117.471 453.534 117.471 449.999C117.471 446.465 114.605 443.6 111.071 443.6C107.537 443.6 104.671 446.465 104.671 449.999C104.671 453.534 107.537 456.399 111.071 456.399Z" fill="#E9E6E1"/>
</g>
<g clip-path="url(#clip2_6701_21685)">
<path d="M516 546C502.745 546 492 556.745 492 570C492 583.255 502.745 594 516 594C529.255 594 540 583.253 540 570C540 556.747 529.253 546 516 546Z" fill="#1D2E52"/>
<path d="M516.016 585.529C515.716 585.529 515.429 585.41 515.217 585.198C515.006 584.987 514.887 584.7 514.887 584.4V555.596C514.887 555.296 515.006 555.009 515.217 554.797C515.429 554.586 515.716 554.467 516.016 554.467C516.315 554.467 516.602 554.586 516.814 554.797C517.026 555.009 517.144 555.296 517.144 555.596V584.4C517.144 584.7 517.026 584.987 516.814 585.198C516.602 585.41 516.315 585.529 516.016 585.529Z" fill="#F18E3C"/>
<path d="M521.944 583.271H514.887V585.529H521.944V583.271Z" fill="#F18E3C"/>
<path d="M516.699 554.717L515.289 556.48L523.289 562.88L524.699 561.117L516.699 554.717Z" fill="#F18E3C"/>
<path d="M515.31 554.719L507.311 561.119L508.721 562.882L516.721 556.482L515.31 554.719Z" fill="#F18E3C"/>
<path d="M515.31 562.719L507.311 569.119L508.721 570.882L516.721 564.482L515.31 562.719Z" fill="#F18E3C"/>
<path d="M515.31 570.719L507.311 577.119L508.721 578.882L516.721 572.482L515.31 570.719Z" fill="#F18E3C"/>
<path d="M516.699 562.719L515.289 564.482L523.289 570.882L524.699 569.119L516.699 562.719Z" fill="#F18E3C"/>
<path d="M516.699 570.719L515.288 572.482L523.288 578.882L524.698 577.119L516.699 570.719Z" fill="#F18E3C"/>
</g>
<g clip-path="url(#clip3_6701_21685)">
<path d="M910 488C896.745 488 886 498.745 886 512C886 525.255 896.745 536 910 536C923.255 536 934 525.253 934 512C934 498.747 923.253 488 910 488Z" fill="#1B2D50"/>
<path d="M922.021 508.021C922.021 519.038 910.021 528.021 910.021 528.021C910.021 528.021 898.021 519.103 898.021 508.021C898.021 504.839 899.286 501.787 901.536 499.536C903.787 497.286 906.839 496.021 910.021 496.021C913.204 496.021 916.256 497.286 918.507 499.536C920.757 501.787 922.021 504.839 922.021 508.021Z" fill="#F18D3F"/>
<path d="M910 512.865C913.113 512.865 915.636 510.341 915.636 507.228C915.636 504.115 913.113 501.592 910 501.592C906.887 501.592 904.363 504.115 904.363 507.228C904.363 510.341 906.887 512.865 910 512.865Z" fill="#E9E6E1"/>
</g>
<defs>
<pattern id="pattern0" patternContentUnits="objectBoundingBox" width="1" height="1">
<use xlink:href="#image0_6701_21685" transform="matrix(0.000341153 0 0 0.000552971 -0.188128 -0.0442336)"/>
</pattern>
<clipPath id="clip0_6701_21685">
<rect width="48" height="48" fill="white" transform="translate(960 118)"/>
</clipPath>
<clipPath id="clip1_6701_21685">
<rect width="48" height="48" fill="white" transform="translate(87 426)"/>
</clipPath>
<clipPath id="clip2_6701_21685">
<rect width="48" height="48" fill="white" transform="translate(492 546)"/>
</clipPath>
<clipPath id="clip3_6701_21685">
<rect width="48" height="48" fill="white" transform="translate(886 488)"/>
</clipPath>
</defs>
</svg>
