<svg width="733" height="817" viewBox="0 0 733 817" fill="none" xmlns="http://www.w3.org/2000/svg" xmlns:xlink="http://www.w3.org/1999/xlink">
<rect width="733" height="817" fill="url(#pattern0)" fill-opacity="0.5"/>
<g clip-path="url(#clip0_6701_21686)">
<path d="M652 123C638.745 123 628 133.745 628 147C628 160.255 638.745 171 652 171C665.255 171 676 160.253 676 147C676 133.747 665.253 123 652 123Z" fill="#1B2D50"/>
<path d="M665.922 156.402L665.086 151.999C665.086 151.994 665.086 151.989 665.086 151.983C665.077 151.939 665.065 151.896 665.052 151.853C665.052 151.853 665.052 151.853 665.052 151.847C665.036 151.802 665.018 151.759 664.998 151.717L664.983 151.689C664.966 151.656 664.948 151.624 664.928 151.594C664.922 151.585 664.916 151.576 664.909 151.567C664.884 151.53 664.856 151.494 664.827 151.459C664.818 151.456 664.81 151.453 664.801 151.448C664.775 151.42 664.748 151.393 664.719 151.368L664.69 151.344C664.658 151.317 664.625 151.292 664.59 151.269L664.581 151.263C664.541 151.238 664.5 151.216 664.458 151.195L664.432 151.184C664.395 151.167 664.358 151.153 664.319 151.141L664.302 151.134H664.292C664.247 151.12 664.201 151.11 664.154 151.103H664.134C664.105 151.103 664.076 151.095 664.046 151.093H663.975C663.938 151.093 663.901 151.093 663.862 151.093H663.834C663.787 151.098 663.741 151.106 663.695 151.117H663.687C663.645 151.129 663.605 151.142 663.565 151.157L663.533 151.169C663.498 151.184 663.463 151.201 663.428 151.22L663.407 151.231C663.368 151.253 663.33 151.278 663.294 151.305L663.262 151.33C663.235 151.351 663.209 151.373 663.185 151.397L663.164 151.414L660.019 154.582C659.883 154.72 659.784 154.89 659.732 155.077C659.681 155.264 659.678 155.461 659.725 155.65C659.772 155.838 659.867 156.011 660 156.152C660.133 156.293 660.3 156.397 660.485 156.455L661.453 156.756C660.597 158.262 659.395 159.542 657.947 160.492C656.498 161.441 654.845 162.032 653.123 162.217V139.743H657.925V137.485H653.134V134.967C653.984 134.697 654.71 134.132 655.181 133.374C655.651 132.616 655.834 131.715 655.698 130.833C655.562 129.952 655.114 129.148 654.437 128.568C653.76 127.987 652.897 127.668 652.005 127.668C651.113 127.668 650.251 127.987 649.573 128.568C648.896 129.148 648.449 129.952 648.313 130.833C648.176 131.715 648.36 132.616 648.83 133.374C649.3 134.132 650.026 134.697 650.876 134.967V137.487H646.074V139.745H650.876V162.214C649.154 162.031 647.501 161.44 646.052 160.49C644.604 159.541 643.402 158.26 642.546 156.754L643.517 156.451C643.702 156.394 643.869 156.289 644.002 156.148C644.135 156.007 644.23 155.834 644.277 155.646C644.323 155.458 644.321 155.261 644.269 155.074C644.218 154.887 644.119 154.716 643.982 154.579L640.837 151.411C640.819 151.393 640.799 151.378 640.78 151.361L640.772 151.353C640.701 151.292 640.622 151.24 640.538 151.199L640.485 151.173L640.425 151.149C640.398 151.139 640.371 151.13 640.343 151.122L640.304 151.11C640.261 151.099 640.218 151.091 640.173 151.086H640.141C640.105 151.086 640.07 151.086 640.028 151.086H639.954C639.691 151.103 639.441 151.213 639.25 151.396C639.059 151.578 638.938 151.822 638.908 152.085L638.087 156.406C638.056 156.57 638.062 156.738 638.103 156.899C638.144 157.06 638.221 157.209 638.327 157.337C638.433 157.465 638.566 157.568 638.716 157.639C638.867 157.71 639.031 157.746 639.197 157.746C639.312 157.746 639.426 157.729 639.536 157.695L640.35 157.443C641.455 159.58 643.127 161.372 645.183 162.623C647.239 163.874 649.599 164.536 652.005 164.536C654.412 164.536 656.772 163.874 658.827 162.623C660.883 161.372 662.555 159.58 663.661 157.443L664.478 157.697C664.664 157.754 664.862 157.763 665.053 157.722C665.243 157.68 665.42 157.59 665.565 157.461C665.71 157.331 665.82 157.166 665.882 156.981C665.945 156.796 665.959 156.599 665.922 156.407V156.402ZM652.005 129.924C652.298 129.924 652.584 130.011 652.827 130.173C653.07 130.336 653.26 130.567 653.372 130.837C653.483 131.107 653.513 131.404 653.456 131.691C653.399 131.978 653.258 132.242 653.051 132.448C652.844 132.655 652.581 132.796 652.294 132.853C652.007 132.91 651.71 132.881 651.439 132.769C651.169 132.657 650.938 132.467 650.776 132.224C650.613 131.981 650.526 131.695 650.526 131.403C650.527 131.011 650.683 130.635 650.96 130.357C651.237 130.08 651.613 129.924 652.005 129.924Z" fill="#FBEED7"/>
</g>
<path d="M54 23C40.7447 23 30 33.7449 30 46.9994C30 60.2539 40.7447 71 54 71C67.2553 71 78 60.2551 78 46.9994C78 33.7438 67.2542 23 54 23Z" fill="#1D2E52"/>
<path d="M70.008 54.9999L62.0065 39.009L57.7484 47.5108L49.2163 32.564L38.0166 54.9999L58.5691 54.9887L70.008 54.9999Z" fill="#E2C189"/>
<path d="M306.998 104C293.744 104 283 114.745 283 128C283 141.255 293.744 152 306.998 152C320.253 152 331 141.253 331 128C331 114.747 320.252 104 306.998 104Z" fill="#F18E3C"/>
<path d="M321.292 113.483L301.331 122.334L292.55 142.46L312.674 133.679L321.292 113.483Z" fill="#1D2E52"/>
<path d="M302.716 123.713L317.784 117.031L311.272 132.29L302.716 123.713Z" fill="#E2C189"/>
<g clip-path="url(#clip1_6701_21686)">
<path d="M444 557C430.745 557 420 567.745 420 581C420 594.255 430.745 605 444 605C457.255 605 468 594.253 468 581C468 567.747 457.253 557 444 557Z" fill="#F18D3F"/>
<path d="M451.383 571.486C451.383 571.084 451.223 570.699 450.939 570.415C450.655 570.131 450.27 569.971 449.869 569.971H438.279C438.08 569.971 437.883 570.01 437.699 570.086C437.515 570.162 437.348 570.274 437.208 570.414C437.067 570.555 436.956 570.722 436.88 570.906C436.804 571.09 436.765 571.287 436.765 571.486C436.765 571.685 436.726 571.881 436.649 572.065C436.573 572.249 436.462 572.416 436.321 572.556C436.18 572.697 436.013 572.809 435.829 572.885C435.646 572.961 435.449 573 435.25 572.999H431.186C430.784 572.999 430.399 573.159 430.115 573.443C429.831 573.727 429.671 574.113 429.671 574.514V590.342C429.671 590.744 429.831 591.13 430.115 591.414C430.399 591.698 430.784 591.857 431.186 591.857H456.957C457.156 591.857 457.353 591.818 457.537 591.742C457.72 591.666 457.887 591.554 458.028 591.414C458.168 591.273 458.28 591.106 458.356 590.922C458.432 590.738 458.471 590.541 458.471 590.342V574.514C458.471 574.316 458.432 574.119 458.356 573.935C458.28 573.751 458.168 573.584 458.028 573.443C457.887 573.303 457.72 573.191 457.537 573.115C457.353 573.039 457.156 572.999 456.957 572.999H452.893C452.492 572.999 452.108 572.839 451.825 572.555C451.542 572.271 451.383 571.887 451.383 571.486Z" fill="#1B2D50"/>
<path d="M444.071 587.399C447.606 587.399 450.471 584.534 450.471 580.999C450.471 577.465 447.606 574.6 444.071 574.6C440.537 574.6 437.672 577.465 437.672 580.999C437.672 584.534 440.537 587.399 444.071 587.399Z" fill="#E9E6E1"/>
</g>
<g clip-path="url(#clip2_6701_21686)">
<path d="M97 541C83.7447 541 73 551.745 73 565C73 578.255 83.7447 589 97 589C110.255 589 121 578.253 121 565C121 551.747 110.253 541 97 541Z" fill="#1D2E52"/>
<path d="M97.0156 580.529C96.7162 580.529 96.4291 580.41 96.2174 580.198C96.0057 579.987 95.8867 579.7 95.8867 579.4V550.596C95.8867 550.296 96.0057 550.009 96.2174 549.797C96.4291 549.586 96.7162 549.467 97.0156 549.467C97.315 549.467 97.6021 549.586 97.8138 549.797C98.0255 550.009 98.1445 550.296 98.1445 550.596V579.4C98.1445 579.7 98.0255 579.987 97.8138 580.198C97.6021 580.41 97.315 580.529 97.0156 580.529Z" fill="#F18E3C"/>
<path d="M102.944 578.271H95.8867V580.529H102.944V578.271Z" fill="#F18E3C"/>
<path d="M97.6995 549.717L96.2891 551.48L104.289 557.88L105.699 556.117L97.6995 549.717Z" fill="#F18E3C"/>
<path d="M96.3102 549.719L88.3105 556.119L89.721 557.882L97.7206 551.482L96.3102 549.719Z" fill="#F18E3C"/>
<path d="M96.3102 557.719L88.3105 564.119L89.721 565.882L97.7206 559.482L96.3102 557.719Z" fill="#F18E3C"/>
<path d="M96.3102 565.719L88.3105 572.119L89.721 573.882L97.7206 567.482L96.3102 565.719Z" fill="#F18E3C"/>
<path d="M97.6995 557.719L96.2891 559.482L104.289 565.882L105.699 564.119L97.6995 557.719Z" fill="#F18E3C"/>
<path d="M97.6985 565.719L96.2881 567.482L104.288 573.882L105.698 572.119L97.6985 565.719Z" fill="#F18E3C"/>
</g>
<g clip-path="url(#clip3_6701_21686)">
<path d="M556 721C542.745 721 532 731.745 532 745C532 758.255 542.745 769 556 769C569.255 769 580 758.253 580 745C580 731.747 569.253 721 556 721Z" fill="#1B2D50"/>
<path d="M568.021 741.021C568.021 752.038 556.021 761.021 556.021 761.021C556.021 761.021 544.021 752.103 544.021 741.021C544.021 737.839 545.286 734.787 547.536 732.536C549.787 730.286 552.839 729.021 556.021 729.021C559.204 729.021 562.256 730.286 564.507 732.536C566.757 734.787 568.021 737.839 568.021 741.021Z" fill="#F18D3F"/>
<path d="M556 745.865C559.113 745.865 561.636 743.341 561.636 740.228C561.636 737.115 559.113 734.592 556 734.592C552.887 734.592 550.363 737.115 550.363 740.228C550.363 743.341 552.887 745.865 556 745.865Z" fill="#E9E6E1"/>
</g>
<defs>
<pattern id="pattern0" patternContentUnits="objectBoundingBox" width="1" height="1">
<use xlink:href="#image0_6701_21686" transform="matrix(0.000488876 0 0 0.000418094 -0.714577 -0.0192157)"/>
</pattern>
<clipPath id="clip0_6701_21686">
<rect width="48" height="48" fill="white" transform="translate(628 123)"/>
</clipPath>
<clipPath id="clip1_6701_21686">
<rect width="48" height="48" fill="white" transform="translate(420 557)"/>
</clipPath>
<clipPath id="clip2_6701_21686">
<rect width="48" height="48" fill="white" transform="translate(73 541)"/>
</clipPath>
<clipPath id="clip3_6701_21686">
<rect width="48" height="48" fill="white" transform="translate(532 721)"/>
</clipPath>

</defs>
</svg>
