<svg width="1062" height="54" viewBox="0 0 1062 54" fill="none" xmlns="http://www.w3.org/2000/svg">
<path d="M51.3173 33V23.2933H53.5638L60.8854 32.1541H61.0657C60.9825 31.7843 60.9224 31.4608 60.8854 31.1835C60.8484 30.8969 60.8299 30.5502 60.8299 30.1434V23.2933H62.2166V33H59.9702L52.6485 24.1391H52.4683C52.5515 24.5089 52.6116 24.8371 52.6485 25.1237C52.6855 25.401 52.704 25.7431 52.704 26.1498V33H51.3173ZM69.685 33.1664C67.9009 33.1664 66.5928 32.8844 65.7607 32.3205C64.938 31.7566 64.5266 31.0171 64.5266 30.1018V29.9493H65.9549V30.0602C65.9549 30.6427 66.2461 31.1141 66.8285 31.4747C67.4201 31.8352 68.3769 32.0155 69.6989 32.0155C71.0024 32.0155 71.9499 31.8167 72.5416 31.4192C73.1425 31.0217 73.4429 30.4947 73.4429 29.8384C73.4429 29.182 73.1425 28.6551 72.5416 28.2576C71.9499 27.8601 70.9931 27.6613 69.6712 27.6613C68.4879 27.6613 67.605 27.7953 67.0226 28.0634C66.4495 28.3315 66.0612 28.6366 65.8578 28.9786H64.4295L65.0951 23.2933H74.5939V24.4442H66.1906L65.733 28.0357H65.9133C66.5696 27.065 67.9656 26.5797 70.101 26.5797C71.7466 26.5797 72.953 26.8709 73.7203 27.4533C74.4876 28.0265 74.8712 28.8307 74.8712 29.8661C74.8712 30.8923 74.4598 31.7011 73.6371 32.2928C72.8143 32.8752 71.497 33.1664 69.685 33.1664ZM81.7237 33.1664C79.9395 33.1664 78.6314 32.8844 77.7994 32.3205C76.9766 31.7566 76.5652 31.0171 76.5652 30.1018V29.9493H77.9935V30.0602C77.9935 30.6427 78.2847 31.1141 78.8671 31.4747C79.4587 31.8352 80.4156 32.0155 81.7375 32.0155C83.041 32.0155 83.9886 31.8167 84.5802 31.4192C85.1811 31.0217 85.4815 30.4947 85.4815 29.8384C85.4815 29.182 85.1811 28.6551 84.5802 28.2576C83.9886 27.8601 83.0317 27.6613 81.7098 27.6613C80.5265 27.6613 79.6436 27.7953 79.0612 28.0634C78.4881 28.3315 78.0998 28.6366 77.8964 28.9786H76.4682L77.1338 23.2933H86.6325V24.4442H78.2292L77.7716 28.0357H77.9519C78.6083 27.065 80.0042 26.5797 82.1397 26.5797C83.7852 26.5797 84.9916 26.8709 85.7589 27.4533C86.5262 28.0265 86.9098 28.8307 86.9098 29.8661C86.9098 30.8923 86.4984 31.7011 85.6757 32.2928C84.8529 32.8752 83.5356 33.1664 81.7237 33.1664ZM89.103 33.1664C88.8442 33.1664 88.6316 33.0924 88.4652 32.9445C88.308 32.7874 88.2294 32.5932 88.2294 32.3621C88.2294 32.131 88.308 31.9415 88.4652 31.7936C88.6316 31.6364 88.8442 31.5579 89.103 31.5579C89.3619 31.5579 89.5699 31.6364 89.727 31.7936C89.8934 31.9415 89.9766 32.131 89.9766 32.3621C89.9766 32.5932 89.8934 32.7874 89.727 32.9445C89.5699 33.0924 89.3619 33.1664 89.103 33.1664ZM92.6697 32.7643C92.6697 30.8784 93.0903 29.2698 93.9316 27.9386C94.7821 26.5982 96.1456 25.5166 98.0223 24.6938V24.5136H89.9796V23.2933H99.409V24.7216C97.5323 25.4796 96.1872 26.515 95.3737 27.8277C94.5695 29.1404 94.1673 30.7859 94.1673 32.7643V33H92.6697V32.7643ZM105.774 33.1664C103.99 33.1664 102.682 32.8844 101.85 32.3205C101.027 31.7566 100.615 31.0171 100.615 30.1018V29.9493H102.044V30.0602C102.044 30.6427 102.335 31.1141 102.917 31.4747C103.509 31.8352 104.466 32.0155 105.788 32.0155C107.091 32.0155 108.039 31.8167 108.63 31.4192C109.231 31.0217 109.532 30.4947 109.532 29.8384C109.532 29.182 109.231 28.6551 108.63 28.2576C108.039 27.8601 107.082 27.6613 105.76 27.6613C104.577 27.6613 103.694 27.7953 103.111 28.0634C102.538 28.3315 102.15 28.6366 101.947 28.9786H100.518L101.184 23.2933H110.683V24.4442H102.279L101.822 28.0357H102.002C102.658 27.065 104.054 26.5797 106.19 26.5797C107.835 26.5797 109.042 26.8709 109.809 27.4533C110.576 28.0265 110.96 28.8307 110.96 29.8661C110.96 30.8923 110.549 31.7011 109.726 32.2928C108.903 32.8752 107.586 33.1664 105.774 33.1664ZM117.812 33.1664C116.028 33.1664 114.72 32.8844 113.888 32.3205C113.065 31.7566 112.654 31.0171 112.654 30.1018V29.9493H114.082V30.0602C114.082 30.6427 114.373 31.1141 114.956 31.4747C115.548 31.8352 116.504 32.0155 117.826 32.0155C119.13 32.0155 120.077 31.8167 120.669 31.4192C121.27 31.0217 121.57 30.4947 121.57 29.8384C121.57 29.182 121.27 28.6551 120.669 28.2576C120.077 27.8601 119.12 27.6613 117.799 27.6613C116.615 27.6613 115.732 27.7953 115.15 28.0634C114.577 28.3315 114.189 28.6366 113.985 28.9786H112.557L113.223 23.2933H122.721V24.4442H114.318L113.86 28.0357H114.041C114.697 27.065 116.093 26.5797 118.228 26.5797C119.874 26.5797 121.08 26.8709 121.848 27.4533C122.615 28.0265 122.999 28.8307 122.999 29.8661C122.999 30.8923 122.587 31.7011 121.764 32.2928C120.942 32.8752 119.624 33.1664 117.812 33.1664ZM132.333 28.0773C133.193 28.0958 133.891 28.3177 134.427 28.7429C134.972 29.1589 135.245 29.7228 135.245 30.4347C135.245 31.2944 134.838 31.9646 134.025 32.4453C133.221 32.926 131.829 33.1664 129.851 33.1664C127.873 33.1664 126.477 32.926 125.663 32.4453C124.859 31.9646 124.457 31.2944 124.457 30.4347C124.457 29.7228 124.725 29.1589 125.261 28.7429C125.807 28.3177 126.509 28.0958 127.369 28.0773V27.897C126.574 27.8693 125.936 27.6567 125.455 27.2592C124.975 26.8524 124.734 26.3255 124.734 25.6784C124.734 23.9774 126.44 23.1269 129.851 23.1269C133.262 23.1269 134.968 23.9774 134.968 25.6784C134.968 26.3255 134.727 26.8524 134.247 27.2592C133.766 27.6567 133.128 27.8693 132.333 27.897V28.0773ZM126.162 25.9141C126.162 26.4133 126.435 26.8108 126.981 27.1066C127.526 27.3932 128.483 27.5365 129.851 27.5365C131.219 27.5365 132.176 27.3932 132.721 27.1066C133.267 26.8108 133.54 26.4133 133.54 25.9141C133.54 25.4056 133.267 25.0081 132.721 24.7216C132.176 24.4257 131.219 24.2778 129.851 24.2778C128.483 24.2778 127.526 24.4257 126.981 24.7216C126.435 25.0081 126.162 25.4056 126.162 25.9141ZM129.851 32.0155C131.33 32.0155 132.361 31.8629 132.943 31.5579C133.526 31.2435 133.817 30.8183 133.817 30.2821C133.817 29.7459 133.526 29.3253 132.943 29.0202C132.361 28.7059 131.33 28.5488 129.851 28.5488C128.372 28.5488 127.341 28.7059 126.759 29.0202C126.176 29.3253 125.885 29.7459 125.885 30.2821C125.885 30.8183 126.176 31.2435 126.759 31.5579C127.341 31.8629 128.372 32.0155 129.851 32.0155ZM142.24 27.1066C145.485 27.1066 147.107 28.1097 147.107 30.1157C147.107 31.0402 146.686 31.7797 145.845 32.3344C145.013 32.8891 143.664 33.1664 141.796 33.1664C139.892 33.1664 138.528 32.8891 137.705 32.3344C136.892 31.7797 136.485 30.9939 136.485 29.977V29.6026H137.913V29.9493C137.913 30.6057 138.205 31.1141 138.787 31.4747C139.379 31.8352 140.382 32.0155 141.796 32.0155C144.385 32.0155 145.679 31.3637 145.679 30.0602C145.679 28.766 144.417 28.1189 141.893 28.1189H139.938V27.1898L145.166 24.2223V24.0421C144.408 24.3102 143.603 24.4442 142.753 24.4442H136.901V23.2933H146.691V24.4442L141.935 27.1066H142.24ZM153.936 31.7797H157.472V33H148.486V31.7797H152.508V27.5781C152.508 27.1529 152.54 26.7692 152.605 26.4272C152.67 26.0759 152.79 25.5859 152.965 24.9573H152.785C152.499 25.9002 152.101 26.5797 151.593 26.9957C151.084 27.4117 150.349 27.6197 149.388 27.6197H149.041V26.3994H149.582C150.59 26.3994 151.338 26.1544 151.828 25.6645C152.327 25.1653 152.577 24.4119 152.577 23.4042V23.2933H153.936V31.7797ZM160.32 27.9248C159.793 27.9248 159.326 27.8231 158.919 27.6197C158.522 27.4163 158.217 27.1344 158.004 26.7738C157.791 26.4041 157.685 25.988 157.685 25.5258C157.685 25.0636 157.791 24.6522 158.004 24.2917C158.217 23.9219 158.522 23.6353 158.919 23.4319C159.326 23.2286 159.793 23.1269 160.32 23.1269C160.847 23.1269 161.309 23.2286 161.706 23.4319C162.113 23.6353 162.423 23.9219 162.635 24.2917C162.848 24.6522 162.954 25.0636 162.954 25.5258C162.954 25.988 162.848 26.4041 162.635 26.7738C162.423 27.1344 162.113 27.4163 161.706 27.6197C161.309 27.8231 160.847 27.9248 160.32 27.9248ZM160.32 27.065C160.828 27.065 161.24 26.9217 161.554 26.6352C161.868 26.3393 162.025 25.9696 162.025 25.5258C162.025 25.0821 161.868 24.7169 161.554 24.4303C161.24 24.1345 160.828 23.9866 160.32 23.9866C159.811 23.9866 159.4 24.1345 159.086 24.4303C158.771 24.7169 158.614 25.0821 158.614 25.5258C158.614 25.9696 158.771 26.3393 159.086 26.6352C159.4 26.9217 159.811 27.065 160.32 27.065ZM165.017 31.5579C165.636 31.5579 165.946 31.9276 165.946 32.6672C165.946 33.2588 165.853 33.7719 165.668 34.2064C165.484 34.6501 165.225 34.9876 164.892 35.2187C164.568 35.459 164.199 35.5792 163.783 35.5792V34.4005H163.894C164.347 34.4005 164.707 34.285 164.975 34.0539C165.243 33.832 165.4 33.5131 165.447 33.0971C165.326 33.1433 165.202 33.1664 165.072 33.1664C164.813 33.1664 164.601 33.0924 164.434 32.9445C164.277 32.7874 164.199 32.5932 164.199 32.3621C164.199 32.131 164.277 31.9415 164.434 31.7936C164.592 31.6364 164.786 31.5579 165.017 31.5579ZM181.062 23.2933V24.5136H173.199V27.4949H180.091V28.6458H173.199V31.7797H181.062V33H171.771V23.2933H181.062ZM188.688 27.1066C191.933 27.1066 193.555 28.1097 193.555 30.1157C193.555 31.0402 193.135 31.7797 192.293 32.3344C191.461 32.8891 190.112 33.1664 188.244 33.1664C186.34 33.1664 184.976 32.8891 184.154 32.3344C183.34 31.7797 182.933 30.9939 182.933 29.977V29.6026H184.362V29.9493C184.362 30.6057 184.653 31.1141 185.235 31.4747C185.827 31.8352 186.83 32.0155 188.244 32.0155C190.833 32.0155 192.127 31.3637 192.127 30.0602C192.127 28.766 190.865 28.1189 188.341 28.1189H186.386V27.1898L191.614 24.2223V24.0421C190.856 24.3102 190.052 24.4442 189.201 24.4442H183.349V23.2933H193.139V24.4442L188.383 27.1066H188.688ZM197.347 32.7643C197.347 30.8784 197.768 29.2698 198.609 27.9386C199.46 26.5982 200.823 25.5166 202.7 24.6938V24.5136H194.657V23.2933H204.087V24.7216C202.21 25.4796 200.865 26.515 200.051 27.8277C199.247 29.1404 198.845 30.7859 198.845 32.7643V33H197.347V32.7643ZM204.127 33.1664C203.868 33.1664 203.655 33.0924 203.489 32.9445C203.332 32.7874 203.253 32.5932 203.253 32.3621C203.253 32.131 203.332 31.9415 203.489 31.7936C203.655 31.6364 203.868 31.5579 204.127 31.5579C204.385 31.5579 204.593 31.6364 204.751 31.7936C204.917 31.9415 205 32.131 205 32.3621C205 32.5932 204.917 32.7874 204.751 32.9445C204.593 33.0924 204.385 33.1664 204.127 33.1664ZM212.181 33.1664C210.831 33.1664 209.745 33 208.922 32.6672C208.099 32.3344 207.494 31.8028 207.105 31.0725C206.717 30.3422 206.523 29.3669 206.523 28.1466C206.523 26.4364 206.953 25.1745 207.813 24.361C208.682 23.5383 210.054 23.1269 211.931 23.1269C213.715 23.1269 215.028 23.4135 215.869 23.9866C216.72 24.5598 217.145 25.304 217.145 26.2192V26.344H215.717V26.2469C215.717 25.683 215.416 25.2161 214.815 24.8464C214.224 24.4673 213.281 24.2778 211.987 24.2778C210.554 24.2778 209.509 24.5829 208.853 25.193C208.206 25.7939 207.882 26.7369 207.882 28.0218C207.882 28.3546 207.891 28.6274 207.91 28.84H208.09C208.256 28.2946 208.686 27.8462 209.38 27.4949C210.082 27.1436 211.122 26.968 212.5 26.968C214.136 26.968 215.342 27.2499 216.119 27.8138C216.895 28.3778 217.284 29.1312 217.284 30.0741C217.284 31.0078 216.872 31.7566 216.05 32.3205C215.236 32.8844 213.946 33.1664 212.181 33.1664ZM212.098 32.0155C213.41 32.0155 214.362 31.8306 214.954 31.4608C215.555 31.091 215.855 30.6149 215.855 30.0325C215.855 29.4501 215.55 28.974 214.94 28.6042C214.339 28.2345 213.369 28.0496 212.028 28.0496C210.688 28.0496 209.712 28.2345 209.102 28.6042C208.501 28.974 208.201 29.4501 208.201 30.0325C208.201 30.6149 208.506 31.091 209.116 31.4608C209.726 31.8306 210.72 32.0155 212.098 32.0155ZM224.191 31.7797H227.727V33H218.741V31.7797H222.762V27.5781C222.762 27.1529 222.795 26.7692 222.859 26.4272C222.924 26.0759 223.044 25.5859 223.22 24.9573H223.04C222.753 25.9002 222.356 26.5797 221.847 26.9957C221.339 27.4117 220.604 27.6197 219.642 27.6197H219.296V26.3994H219.836C220.844 26.3994 221.593 26.1544 222.083 25.6645C222.582 25.1653 222.832 24.4119 222.832 23.4042V23.2933H224.191V31.7797ZM230.349 32.7643C230.349 30.8784 230.769 29.2698 231.611 27.9386C232.461 26.5982 233.825 25.5166 235.701 24.6938V24.5136H227.658V23.2933H237.088V24.7216C235.211 25.4796 233.866 26.515 233.053 27.8277C232.248 29.1404 231.846 30.7859 231.846 32.7643V33H230.349V32.7643ZM243.449 33.1664C242.099 33.1664 241.013 33 240.19 32.6672C239.367 32.3344 238.762 31.8028 238.373 31.0725C237.985 30.3422 237.791 29.3669 237.791 28.1466C237.791 26.4364 238.221 25.1745 239.081 24.361C239.95 23.5383 241.322 23.1269 243.199 23.1269C244.983 23.1269 246.296 23.4135 247.137 23.9866C247.988 24.5598 248.413 25.304 248.413 26.2192V26.344H246.985V26.2469C246.985 25.683 246.684 25.2161 246.083 24.8464C245.492 24.4673 244.549 24.2778 243.254 24.2778C241.822 24.2778 240.777 24.5829 240.121 25.193C239.473 25.7939 239.15 26.7369 239.15 28.0218C239.15 28.3546 239.159 28.6274 239.178 28.84H239.358C239.524 28.2946 239.954 27.8462 240.648 27.4949C241.35 27.1436 242.39 26.968 243.768 26.968C245.404 26.968 246.61 27.2499 247.387 27.8138C248.163 28.3778 248.552 29.1312 248.552 30.0741C248.552 31.0078 248.14 31.7566 247.317 32.3205C246.504 32.8844 245.214 33.1664 243.449 33.1664ZM243.365 32.0155C244.678 32.0155 245.63 31.8306 246.222 31.4608C246.823 31.091 247.123 30.6149 247.123 30.0325C247.123 29.4501 246.818 28.974 246.208 28.6042C245.607 28.2345 244.637 28.0496 243.296 28.0496C241.956 28.0496 240.98 28.2345 240.37 28.6042C239.769 28.974 239.469 29.4501 239.469 30.0325C239.469 30.6149 239.774 31.091 240.384 31.4608C240.994 31.8306 241.988 32.0155 243.365 32.0155ZM252.015 32.7643C252.015 30.8784 252.436 29.2698 253.277 27.9386C254.128 26.5982 255.491 25.5166 257.368 24.6938V24.5136H249.325V23.2933H258.755V24.7216C256.878 25.4796 255.533 26.515 254.719 27.8277C253.915 29.1404 253.513 30.7859 253.513 32.7643V33H252.015V32.7643ZM265.212 27.1066C268.457 27.1066 270.08 28.1097 270.08 30.1157C270.08 31.0402 269.659 31.7797 268.818 32.3344C267.986 32.8891 266.636 33.1664 264.769 33.1664C262.864 33.1664 261.501 32.8891 260.678 32.3344C259.865 31.7797 259.458 30.9939 259.458 29.977V29.6026H260.886V29.9493C260.886 30.6057 261.177 31.1141 261.76 31.4747C262.351 31.8352 263.354 32.0155 264.769 32.0155C267.357 32.0155 268.651 31.3637 268.651 30.0602C268.651 28.766 267.39 28.1189 264.866 28.1189H262.911V27.1898L268.138 24.2223V24.0421C267.38 24.3102 266.576 24.4442 265.726 24.4442H259.874V23.2933H269.664V24.4442L264.907 27.1066H265.212ZM274.097 27.9248C273.571 27.9248 273.104 27.8231 272.697 27.6197C272.299 27.4163 271.994 27.1344 271.782 26.7738C271.569 26.4041 271.463 25.988 271.463 25.5258C271.463 25.0636 271.569 24.6522 271.782 24.2917C271.994 23.9219 272.299 23.6353 272.697 23.4319C273.104 23.2286 273.571 23.1269 274.097 23.1269C274.624 23.1269 275.087 23.2286 275.484 23.4319C275.891 23.6353 276.201 23.9219 276.413 24.2917C276.626 24.6522 276.732 25.0636 276.732 25.5258C276.732 25.988 276.626 26.4041 276.413 26.7738C276.201 27.1344 275.891 27.4163 275.484 27.6197C275.087 27.8231 274.624 27.9248 274.097 27.9248ZM274.097 27.065C274.606 27.065 275.017 26.9217 275.332 26.6352C275.646 26.3393 275.803 25.9696 275.803 25.5258C275.803 25.0821 275.646 24.7169 275.332 24.4303C275.017 24.1345 274.606 23.9866 274.097 23.9866C273.589 23.9866 273.178 24.1345 272.863 24.4303C272.549 24.7169 272.392 25.0821 272.392 25.5258C272.392 25.9696 272.549 26.3393 272.863 26.6352C273.178 26.9217 273.589 27.065 274.097 27.065Z" fill="black"/>
<path fill-rule="evenodd" clip-rule="evenodd" d="M3.647 25.9022C3.80786 25.7972 3.98457 25.6968 4.17472 25.6005C4.93578 25.2149 5.96569 24.8693 7.20013 24.5706C7.43073 23.5332 7.78743 22.5424 8.25355 21.6144C8.22491 21.6285 8.19637 21.6427 8.16794 21.6569C5.82044 22.8307 4.24676 24.3082 3.647 25.9022ZM9.38969 21.1032C8.77726 22.113 8.30867 23.2169 8.01163 24.3872C9.49578 24.0738 11.2399 23.8183 13.1665 23.6367C13.4006 22.212 13.766 20.8886 14.2387 19.7141C12.4581 20.042 10.8224 20.5152 9.38969 21.1032ZM14.5982 18.893C12.992 19.1611 11.4881 19.5445 10.1255 20.0246C11.8346 17.7853 14.3075 16.1415 17.1654 15.4688C16.3021 16.1482 15.5408 17.1144 14.9136 18.2717C14.8048 18.4725 14.6996 18.6798 14.5982 18.893ZM15.1108 19.567C14.5955 20.7366 14.1924 22.0899 13.9352 23.5689C15.732 23.4215 17.6717 23.3371 19.6957 23.3278V19.1991C18.101 19.2164 16.563 19.3442 15.1108 19.567ZM19.6957 18.4523C18.2484 18.4677 16.8432 18.5722 15.5015 18.7559C15.5242 18.7128 15.547 18.67 15.5701 18.6275C16.6887 16.5632 18.1494 15.3264 19.6957 15.1542V18.4523ZM20.4423 19.1991V23.3278C22.4664 23.3371 24.4061 23.4215 26.2029 23.5689C25.9457 22.0899 25.5426 20.7366 25.0273 19.567C23.5751 19.3442 22.037 19.2164 20.4423 19.1991ZM24.6366 18.7559C23.2948 18.5722 21.8897 18.4677 20.4423 18.4523V15.1542C21.9886 15.3264 23.4493 16.5632 24.568 18.6275C24.591 18.67 24.6139 18.7128 24.6366 18.7559ZM25.8994 19.7141C26.3721 20.8886 26.7375 22.212 26.9716 23.6367C28.8981 23.8183 30.6422 24.0738 32.1263 24.3872C31.8292 23.2168 31.3606 22.113 30.7482 21.1032C29.3155 20.5152 27.6799 20.042 25.8994 19.7141ZM30.0124 20.0245C28.6498 19.5445 27.146 19.1611 25.5399 18.893C25.4385 18.6798 25.3333 18.4726 25.2245 18.2717C24.5973 17.1144 23.836 16.1482 22.9727 15.4688C25.8305 16.1415 28.3033 17.7853 30.0124 20.0245ZM31.8843 21.6144C32.3505 22.5423 32.7072 23.5331 32.9378 24.5706C34.1723 24.8693 35.2022 25.2149 35.9633 25.6005C36.1534 25.6968 36.3302 25.7973 36.491 25.9022C35.8913 24.3082 34.3176 22.8307 31.9701 21.6569C31.9416 21.6427 31.913 21.6285 31.8843 21.6144ZM36.7624 27.357C36.7624 27.2309 36.7045 27.072 36.519 26.8778C36.332 26.6819 36.0375 26.4751 35.6259 26.2665C34.998 25.9485 34.1417 25.6483 33.0901 25.3781C33.1903 26.0232 33.2424 26.6841 33.2424 27.357C33.2424 28.03 33.1903 28.691 33.09 29.3362C34.1416 29.0659 34.998 28.7657 35.6258 28.4475C36.0375 28.239 36.332 28.0321 36.519 27.8362C36.7045 27.6419 36.7624 27.483 36.7624 27.357ZM32.3007 29.5253C32.4288 28.8214 32.4957 28.0968 32.4957 27.357C32.4957 26.6173 32.4288 25.8928 32.3008 25.1892C32.221 25.1714 32.1404 25.1537 32.0588 25.1362C30.6331 24.8308 28.9497 24.579 27.0827 24.3974C27.2048 25.3489 27.2691 26.3398 27.2691 27.357C27.2691 28.3744 27.2047 29.3656 27.0826 30.3173C28.9497 30.1356 30.633 29.8837 32.0588 29.5782C32.1403 29.5607 32.221 29.543 32.3007 29.5253ZM26.9714 31.0781C28.898 30.8964 30.642 30.6407 32.1261 30.3272C31.8291 31.4975 31.3605 32.6012 30.7481 33.6109C29.3154 34.1989 27.6798 34.6721 25.8993 35C26.372 33.8257 26.7374 32.5025 26.9714 31.0781ZM26.3203 30.3868C26.4521 29.4188 26.5224 28.4039 26.5224 27.357C26.5224 26.3103 26.4522 25.2957 26.3204 24.328C24.4973 24.1733 22.5166 24.0841 20.4423 24.0745V30.6404C22.5166 30.6308 24.4972 30.5416 26.3203 30.3868ZM20.4423 31.3871C22.4663 31.3778 24.406 31.2934 26.2027 31.1459C25.9455 32.6246 25.5424 33.9777 25.0272 35.1471C23.575 35.37 22.037 35.4978 20.4423 35.5151V31.3871ZM19.6957 30.6404V24.0745C17.6214 24.0841 15.6408 24.1733 13.8177 24.328C13.6859 25.2957 13.6157 26.3103 13.6157 27.357C13.6157 28.4039 13.686 29.4188 13.8178 30.3868C15.6409 30.5416 17.6215 30.6308 19.6957 30.6404ZM13.9354 31.1459C15.7321 31.2934 17.6717 31.3778 19.6957 31.3871V35.5151C18.1011 35.4978 16.5631 35.37 15.1109 35.1471C14.5957 33.9777 14.1926 32.6246 13.9354 31.1459ZM13.0555 30.3174C12.9334 29.3656 12.869 28.3744 12.869 27.357C12.869 26.3398 12.9334 25.3489 13.0554 24.3974C11.1883 24.579 9.50497 24.8308 8.07919 25.1362C7.9976 25.1537 7.91689 25.1714 7.83711 25.1892C7.70904 25.8928 7.6422 26.6173 7.6422 27.357C7.6422 28.0968 7.70907 28.8214 7.8372 29.5252C7.91697 29.543 7.99764 29.5607 8.07922 29.5782C9.50502 29.8837 11.1884 30.1356 13.0555 30.3174ZM8.01177 30.3272C9.49592 30.6407 11.2401 30.8964 13.1667 31.0781C13.4007 32.5025 13.7661 33.8257 14.2388 35C12.4582 34.6721 10.8225 34.1989 9.38982 33.6109C8.77742 32.6012 8.30884 31.4975 8.01177 30.3272ZM7.04788 29.3362C5.99633 29.0659 5.14 28.7656 4.51217 28.4475C4.10054 28.239 3.80601 28.0321 3.61899 27.8362C3.4335 27.6419 3.37558 27.483 3.37558 27.357C3.37558 27.2309 3.43349 27.072 3.61897 26.8778C3.80599 26.6819 4.10051 26.4751 4.51214 26.2665C5.13996 25.9485 5.99628 25.6483 7.04781 25.3781C6.94754 26.0233 6.89553 26.6841 6.89553 27.357C6.89553 28.03 6.94757 28.6909 7.04788 29.3362ZM7.20023 30.1437C7.43085 31.1811 7.78755 32.1718 8.25365 33.0997C8.22497 33.0855 8.19641 33.0713 8.16795 33.0571C5.82051 31.8834 4.24684 30.4058 3.64705 28.8118C3.80789 28.9168 3.98457 29.0173 4.17469 29.1136C4.93578 29.4992 5.96574 29.845 7.20023 30.1437ZM8.88055 34.2074C8.51895 34.0538 8.16981 33.8929 7.83402 33.725C6.31367 32.9648 5.04163 32.0473 4.13567 31.0095C4.9407 32.8906 6.3537 34.5844 8.22269 35.9639C9.71647 37.0665 11.4967 37.9636 13.4766 38.5886C11.6044 37.5211 10.0234 36.0128 8.88055 34.2074ZM20.069 40.3272C15.2846 40.3272 10.9383 38.8963 7.77928 36.5647C4.6204 34.2331 2.62891 30.9819 2.62891 27.357C2.62891 23.732 4.6204 20.4808 7.77928 18.1492C10.9383 15.8176 15.2846 14.3867 20.069 14.3867C24.8535 14.3867 29.1998 15.8176 32.3587 18.1492C35.5176 20.4808 37.5091 23.732 37.5091 27.357C37.5091 30.9819 35.5176 34.2331 32.3587 36.5647C29.1998 38.8963 24.8535 40.3272 20.069 40.3272ZM36.491 28.8118C36.3301 28.9168 36.1534 29.0173 35.9633 29.1136C35.2022 29.4992 34.1722 29.845 32.9377 30.1438C32.707 31.1811 32.3503 32.1719 31.8842 33.0997C31.913 33.0856 31.9416 33.0714 31.9701 33.0571C34.3175 31.8834 35.8912 30.4058 36.491 28.8118ZM31.2574 34.2074C31.619 34.0538 31.9682 33.8929 32.304 33.725C33.8243 32.9648 35.0964 32.0473 36.0024 31.0095C35.1973 32.8906 33.7843 34.5844 31.9153 35.9639C30.4215 37.0665 28.6413 37.9636 26.6613 38.5886C28.5335 37.5211 30.1145 36.0128 31.2574 34.2074ZM30.0122 34.6896C28.6497 35.1697 27.1459 35.553 25.5398 35.8212C25.4384 36.0343 25.3333 36.2414 25.2245 36.4422C24.5973 37.5995 23.836 38.5657 22.9727 39.2451C25.8304 38.5724 28.3031 36.9288 30.0122 34.6896ZM20.4423 39.5598C21.9886 39.3876 23.4493 38.1507 24.568 36.0864C24.591 36.044 24.6138 36.0013 24.6364 35.9583C23.2947 36.1419 21.8896 36.2465 20.4423 36.2618V39.5598ZM19.6957 36.2618C18.2484 36.2465 16.8433 36.1419 15.5016 35.9583C15.5243 36.0013 15.5471 36.044 15.5701 36.0864C16.6887 38.1507 18.1494 39.3876 19.6957 39.5598V36.2618ZM14.5983 35.8212C14.6996 36.0343 14.8048 36.2414 14.9136 36.4422C15.5407 37.5995 16.3021 38.5657 17.1654 39.2452C14.3076 38.5724 11.8348 36.9287 10.1257 34.6896C11.4883 35.1697 12.9921 35.553 14.5983 35.8212ZM36.0024 23.7045C35.0964 22.6667 33.8244 21.7493 32.304 20.9891C31.9682 20.8212 31.6191 20.6603 31.2575 20.5067C30.1147 18.7012 28.5336 17.1928 26.6613 16.1253C28.6413 16.7503 30.4215 17.6474 31.9153 18.75C33.7843 20.1295 35.1974 21.8233 36.0024 23.7045ZM13.4766 16.1253C11.6043 17.1929 10.0233 18.7012 8.88041 20.5067C8.51886 20.6603 8.16977 20.8212 7.83402 20.9891C6.31365 21.7493 5.0416 22.6667 4.13563 23.7045C4.94066 21.8233 6.35368 20.1295 8.22269 18.75C9.71647 17.6474 11.4967 16.7503 13.4766 16.1253Z" fill="black"/>
<line x1="0.935547" y1="1.46666" x2="1061.94" y2="1.46656" stroke="black" stroke-width="1.06667"/>
<line x1="0.935547" y1="53.4667" x2="1061.94" y2="53.4667" stroke="black" stroke-width="1.06667"/>
<path d="M690.484 31.3507C692.626 31.3507 694.363 29.6141 694.363 27.4719C694.363 25.3297 692.626 23.5931 690.484 23.5931C688.342 23.5931 686.605 25.3297 686.605 27.4719C686.605 29.6141 688.342 31.3507 690.484 31.3507Z" fill="black"/>
<path fill-rule="evenodd" clip-rule="evenodd" d="M690.484 19.2051C690.926 19.2051 691.284 19.5633 691.284 20.0051V22.1409C691.284 22.5827 690.926 22.9409 690.484 22.9409C690.043 22.9409 689.684 22.5827 689.684 22.1409V20.0051C689.684 19.5633 690.043 19.2051 690.484 19.2051ZM684.585 21.5727C684.898 21.2603 685.404 21.2603 685.717 21.5727L686.783 22.6394C687.096 22.9518 687.096 23.4584 686.783 23.7708C686.471 24.0832 685.965 24.0832 685.652 23.7708L684.585 22.7041C684.273 22.3917 684.273 21.8852 684.585 21.5727ZM696.384 21.5727C696.696 21.8852 696.696 22.3917 696.384 22.7041L695.317 23.7708C695.004 24.0832 694.498 24.0832 694.185 23.7708C693.873 23.4584 693.873 22.9518 694.185 22.6394L695.252 21.5727C695.565 21.2603 696.071 21.2603 696.384 21.5727ZM682.218 27.4713C682.218 27.0294 682.576 26.6713 683.018 26.6713H685.154C685.595 26.6713 685.954 27.0294 685.954 27.4713C685.954 27.9131 685.595 28.2713 685.154 28.2713H683.018C682.576 28.2713 682.218 27.9131 682.218 27.4713ZM695.016 27.4713C695.016 27.0294 695.374 26.6713 695.816 26.6713H697.951C698.393 26.6713 698.751 27.0294 698.751 27.4713C698.751 27.9131 698.393 28.2713 697.951 28.2713H695.816C695.374 28.2713 695.016 27.9131 695.016 27.4713ZM686.783 31.1728C687.096 31.4852 687.096 31.9918 686.783 32.3042L685.717 33.3708C685.404 33.6833 684.898 33.6833 684.585 33.3708C684.273 33.0584 684.273 32.5519 684.585 32.2395L685.652 31.1728C685.965 30.8604 686.471 30.8604 686.783 31.1728ZM694.185 31.1728C694.498 30.8604 695.004 30.8604 695.317 31.1728L696.384 32.2395C696.696 32.5519 696.696 33.0584 696.384 33.3708C696.071 33.6833 695.565 33.6833 695.252 33.3708L694.185 32.3042C693.873 31.9918 693.873 31.4852 694.185 31.1728ZM690.484 32.0041C690.926 32.0041 691.284 32.3623 691.284 32.8041V34.9393C691.284 35.3812 690.926 35.7394 690.484 35.7394C690.043 35.7394 689.684 35.3812 689.684 34.9393V32.8041C689.684 32.3623 690.043 32.0041 690.484 32.0041Z" fill="black"/>
<path d="M713.862 32.1039C712.79 32.1039 711.842 31.8867 711.019 31.4522C710.206 31.0177 709.573 30.4214 709.12 29.6634C708.676 28.9053 708.454 28.0456 708.454 27.0841C708.454 26.1227 708.676 25.263 709.12 24.5049C709.573 23.7469 710.206 23.1506 711.019 22.7161C711.842 22.2816 712.79 22.0644 713.862 22.0644C714.934 22.0644 715.877 22.2816 716.691 22.7161C717.514 23.1506 718.147 23.7469 718.591 24.5049C719.044 25.263 719.27 26.1227 719.27 27.0841C719.27 28.0456 719.044 28.9053 718.591 29.6634C718.147 30.4214 717.514 31.0177 716.691 31.4522C715.877 31.8867 714.934 32.1039 713.862 32.1039ZM713.862 30.8836C714.648 30.8836 715.341 30.7218 715.942 30.3983C716.543 30.0747 717.01 29.6264 717.343 29.0532C717.675 28.4708 717.842 27.8145 717.842 27.0841C717.842 26.3538 717.675 25.7021 717.343 25.1289C717.01 24.5465 716.543 24.0935 715.942 23.77C715.341 23.4464 714.648 23.2846 713.862 23.2846C713.076 23.2846 712.383 23.4464 711.782 23.77C711.181 24.0935 710.714 24.5465 710.382 25.1289C710.049 25.7021 709.882 26.3538 709.882 27.0841C709.882 27.8145 710.049 28.4708 710.382 29.0532C710.714 29.6264 711.181 30.0747 711.782 30.3983C712.383 30.7218 713.076 30.8836 713.862 30.8836ZM726.41 26.0441C729.655 26.0441 731.277 27.0472 731.277 29.0532C731.277 29.9777 730.856 30.7172 730.015 31.2719C729.183 31.8266 727.834 32.1039 725.966 32.1039C724.062 32.1039 722.698 31.8266 721.875 31.2719C721.062 30.7172 720.655 29.9314 720.655 28.9145V28.5401H722.083V28.8868C722.083 29.5432 722.375 30.0516 722.957 30.4122C723.549 30.7727 724.552 30.953 725.966 30.953C728.555 30.953 729.849 30.3012 729.849 28.9977C729.849 27.7035 728.587 27.0564 726.063 27.0564H724.108V26.1273L729.336 23.1598V22.9796C728.578 23.2477 727.773 23.3817 726.923 23.3817H721.071V22.2308H730.861V23.3817L726.105 26.0441H726.41ZM733.534 25.018C733.275 25.018 733.062 24.944 732.896 24.7961C732.739 24.639 732.66 24.4448 732.66 24.2137C732.66 23.9826 732.739 23.7931 732.896 23.6452C733.062 23.488 733.275 23.4095 733.534 23.4095C733.793 23.4095 734.001 23.488 734.158 23.6452C734.324 23.7931 734.407 23.9826 734.407 24.2137C734.407 24.4448 734.324 24.639 734.158 24.7961C734.001 24.944 733.793 25.018 733.534 25.018ZM733.534 30.745C733.275 30.745 733.062 30.671 732.896 30.5231C732.739 30.3659 732.66 30.1718 732.66 29.9407C732.66 29.7096 732.739 29.5201 732.896 29.3722C733.062 29.215 733.275 29.1364 733.534 29.1364C733.793 29.1364 734.001 29.215 734.158 29.3722C734.324 29.5201 734.407 29.7096 734.407 29.9407C734.407 30.1718 734.324 30.3659 734.158 30.5231C734.001 30.671 733.793 30.745 733.534 30.745ZM741.186 32.1039C739.402 32.1039 738.093 31.8219 737.261 31.258C736.439 30.6941 736.027 29.9546 736.027 29.0393V28.8868H737.456V28.9977C737.456 29.5802 737.747 30.0516 738.329 30.4122C738.921 30.7727 739.878 30.953 741.2 30.953C742.503 30.953 743.451 30.7542 744.042 30.3567C744.643 29.9592 744.944 29.4322 744.944 28.7759C744.944 28.1195 744.643 27.5926 744.042 27.1951C743.451 26.7976 742.494 26.5988 741.172 26.5988C739.989 26.5988 739.106 26.7328 738.523 27.0009C737.95 27.269 737.562 27.5741 737.359 27.9161H735.93L736.596 22.2308H746.095V23.3817H737.691L737.234 26.9732H737.414C738.07 26.0025 739.466 25.5172 741.602 25.5172C743.247 25.5172 744.454 25.8084 745.221 26.3908C745.988 26.964 746.372 27.7682 746.372 28.8036C746.372 29.8298 745.961 30.6386 745.138 31.2303C744.315 31.8127 742.998 32.1039 741.186 32.1039ZM753.627 32.1039C752.277 32.1039 751.191 31.9375 750.368 31.6047C749.545 31.2719 748.94 30.7403 748.551 30.01C748.163 29.2797 747.969 28.3044 747.969 27.0841C747.969 25.3739 748.399 24.112 749.258 23.2985C750.127 22.4758 751.5 22.0644 753.377 22.0644C755.161 22.0644 756.474 22.351 757.315 22.9241C758.166 23.4973 758.591 24.2415 758.591 25.1567V25.2815H757.163V25.1844C757.163 24.6205 756.862 24.1536 756.261 23.7839C755.67 23.4048 754.727 23.2153 753.432 23.2153C751.999 23.2153 750.955 23.5204 750.298 24.1305C749.651 24.7314 749.328 25.6744 749.328 26.9593C749.328 27.2921 749.337 27.5649 749.356 27.7775H749.536C749.702 27.2321 750.132 26.7837 750.825 26.4324C751.528 26.0811 752.568 25.9055 753.945 25.9055C755.582 25.9055 756.788 26.1874 757.565 26.7513C758.341 27.3153 758.729 28.0687 758.729 29.0116C758.729 29.9453 758.318 30.6941 757.495 31.258C756.682 31.8219 755.392 32.1039 753.627 32.1039ZM753.543 30.953C754.856 30.953 755.808 30.7681 756.4 30.3983C757.001 30.0285 757.301 29.5524 757.301 28.97C757.301 28.3876 756.996 27.9115 756.386 27.5417C755.785 27.172 754.814 26.9871 753.474 26.9871C752.134 26.9871 751.158 27.172 750.548 27.5417C749.947 27.9115 749.647 28.3876 749.647 28.97C749.647 29.5524 749.952 30.0285 750.562 30.3983C751.172 30.7681 752.166 30.953 753.543 30.953Z" fill="black"/>
<path d="M801.524 27.4727C799.167 27.4727 797.257 29.3829 797.257 31.7393H805.79C805.79 29.3829 803.88 27.4727 801.524 27.4727Z" fill="black"/>
<path fill-rule="evenodd" clip-rule="evenodd" d="M801.524 22.4023C801.965 22.4023 802.324 22.7605 802.324 23.2023V25.3381C802.324 25.7799 801.965 26.1381 801.524 26.1381C801.082 26.1381 800.724 25.7799 800.724 25.3381V23.2023C800.724 22.7605 801.082 22.4023 801.524 22.4023Z" fill="black"/>
<path fill-rule="evenodd" clip-rule="evenodd" d="M792.99 31.7336C792.99 31.2918 793.318 30.9336 793.722 30.9336H809.326C809.73 30.9336 810.057 31.2918 810.057 31.7336C810.057 32.1754 809.73 32.5336 809.326 32.5336H793.722C793.318 32.5336 792.99 32.1754 792.99 31.7336Z" fill="black"/>
<path fill-rule="evenodd" clip-rule="evenodd" d="M808.123 25.1407C808.435 25.4532 808.435 25.9597 808.123 26.2721L806.613 27.7815C806.3 28.0939 805.794 28.0938 805.481 27.7813C805.169 27.4688 805.169 26.9623 805.481 26.6499L806.992 25.1405C807.304 24.8281 807.811 24.8282 808.123 25.1407Z" fill="black"/>
<path fill-rule="evenodd" clip-rule="evenodd" d="M794.926 25.1407C795.238 24.8282 795.745 24.8281 796.057 25.1405L797.567 26.6499C797.88 26.9623 797.88 27.4688 797.567 27.7813C797.255 28.0938 796.748 28.0939 796.436 27.7815L794.926 26.2721C794.613 25.9597 794.613 25.4532 794.926 25.1407Z" fill="black"/>
<path d="M821.087 30.7866H829.851V31.9375H819.7V30.3151C819.7 29.3906 819.941 28.6973 820.421 28.2351C820.911 27.7636 821.498 27.4585 822.182 27.3199C822.876 27.172 823.777 27.061 824.886 26.9871C825.746 26.9316 826.421 26.8623 826.911 26.7791C827.401 26.6959 827.808 26.5341 828.131 26.2937C828.464 26.0441 828.63 25.6744 828.63 25.1844C828.63 23.8717 827.359 23.2153 824.817 23.2153C823.495 23.2153 822.524 23.4326 821.905 23.8671C821.295 24.3015 820.99 24.8793 820.99 25.6004V25.9748H819.561V25.5727C819.561 24.4911 819.987 23.6359 820.837 23.0073C821.688 22.3787 823.014 22.0644 824.817 22.0644C826.657 22.0644 827.988 22.3417 828.811 22.8964C829.643 23.4511 830.059 24.1952 830.059 25.1289C830.059 25.9424 829.837 26.5526 829.393 26.9593C828.949 27.3661 828.408 27.6342 827.771 27.7636C827.133 27.893 826.282 27.9947 825.219 28.0687C824.285 28.1334 823.546 28.2166 823 28.3183C822.464 28.4107 822.011 28.6095 821.642 28.9145C821.272 29.2104 821.087 29.6541 821.087 30.2458V30.7866ZM837.128 32.1039C836.056 32.1039 835.108 31.8867 834.286 31.4522C833.472 31.0177 832.839 30.4214 832.386 29.6634C831.942 28.9053 831.72 28.0456 831.72 27.0841C831.72 26.1227 831.942 25.263 832.386 24.5049C832.839 23.7469 833.472 23.1506 834.286 22.7161C835.108 22.2816 836.056 22.0644 837.128 22.0644C838.201 22.0644 839.144 22.2816 839.957 22.7161C840.78 23.1506 841.413 23.7469 841.857 24.5049C842.31 25.263 842.536 26.1227 842.536 27.0841C842.536 28.0456 842.31 28.9053 841.857 29.6634C841.413 30.4214 840.78 31.0177 839.957 31.4522C839.144 31.8867 838.201 32.1039 837.128 32.1039ZM837.128 30.8836C837.914 30.8836 838.608 30.7218 839.208 30.3983C839.809 30.0747 840.276 29.6264 840.609 29.0532C840.942 28.4708 841.108 27.8145 841.108 27.0841C841.108 26.3538 840.942 25.7021 840.609 25.1289C840.276 24.5465 839.809 24.0935 839.208 23.77C838.608 23.4464 837.914 23.2846 837.128 23.2846C836.343 23.2846 835.649 23.4464 835.048 23.77C834.447 24.0935 833.981 24.5465 833.648 25.1289C833.315 25.7021 833.149 26.3538 833.149 27.0841C833.149 27.8145 833.315 28.4708 833.648 29.0532C833.981 29.6264 834.447 30.0747 835.048 30.3983C835.649 30.7218 836.343 30.8836 837.128 30.8836ZM844.938 25.018C844.679 25.018 844.466 24.944 844.3 24.7961C844.143 24.639 844.064 24.4448 844.064 24.2137C844.064 23.9826 844.143 23.7931 844.3 23.6452C844.466 23.488 844.679 23.4095 844.938 23.4095C845.196 23.4095 845.404 23.488 845.562 23.6452C845.728 23.7931 845.811 23.9826 845.811 24.2137C845.811 24.4448 845.728 24.639 845.562 24.7961C845.404 24.944 845.196 25.018 844.938 25.018ZM844.938 30.745C844.679 30.745 844.466 30.671 844.3 30.5231C844.143 30.3659 844.064 30.1718 844.064 29.9407C844.064 29.7096 844.143 29.5201 844.3 29.3722C844.466 29.215 844.679 29.1364 844.938 29.1364C845.196 29.1364 845.404 29.215 845.562 29.3722C845.728 29.5201 845.811 29.7096 845.811 29.9407C845.811 30.1718 845.728 30.3659 845.562 30.5231C845.404 30.671 845.196 30.745 844.938 30.745ZM852.589 32.1039C850.805 32.1039 849.497 31.8219 848.665 31.258C847.842 30.6941 847.431 29.9546 847.431 29.0393V28.8868H848.859V28.9977C848.859 29.5802 849.151 30.0516 849.733 30.4122C850.325 30.7727 851.281 30.953 852.603 30.953C853.907 30.953 854.854 30.7542 855.446 30.3567C856.047 29.9592 856.347 29.4322 856.347 28.7759C856.347 28.1195 856.047 27.5926 855.446 27.1951C854.854 26.7976 853.898 26.5988 852.576 26.5988C851.392 26.5988 850.509 26.7328 849.927 27.0009C849.354 27.269 848.966 27.5741 848.762 27.9161H847.334L848 22.2308H857.498V23.3817H849.095L848.637 26.9732H848.818C849.474 26.0025 850.87 25.5172 853.005 25.5172C854.651 25.5172 855.857 25.8084 856.625 26.3908C857.392 26.964 857.776 27.7682 857.776 28.8036C857.776 29.8298 857.364 30.6386 856.542 31.2303C855.719 31.8127 854.401 32.1039 852.589 32.1039ZM865.03 32.1039C863.681 32.1039 862.594 31.9375 861.772 31.6047C860.949 31.2719 860.343 30.7403 859.955 30.01C859.567 29.2797 859.373 28.3044 859.373 27.0841C859.373 25.3739 859.802 24.112 860.662 23.2985C861.531 22.4758 862.904 22.0644 864.781 22.0644C866.565 22.0644 867.878 22.351 868.719 22.9241C869.569 23.4973 869.995 24.2415 869.995 25.1567V25.2815H868.566V25.1844C868.566 24.6205 868.266 24.1536 867.665 23.7839C867.073 23.4048 866.13 23.2153 864.836 23.2153C863.403 23.2153 862.359 23.5204 861.702 24.1305C861.055 24.7314 860.732 25.6744 860.732 26.9593C860.732 27.2921 860.741 27.5649 860.759 27.7775H860.94C861.106 27.2321 861.536 26.7837 862.229 26.4324C862.932 26.0811 863.972 25.9055 865.349 25.9055C866.985 25.9055 868.192 26.1874 868.968 26.7513C869.745 27.3153 870.133 28.0687 870.133 29.0116C870.133 29.9453 869.722 30.6941 868.899 31.258C868.086 31.8219 866.796 32.1039 865.03 32.1039ZM864.947 30.953C866.26 30.953 867.212 30.7681 867.804 30.3983C868.404 30.0285 868.705 29.5524 868.705 28.97C868.705 28.3876 868.4 27.9115 867.79 27.5417C867.189 27.172 866.218 26.9871 864.878 26.9871C863.537 26.9871 862.562 27.172 861.952 27.5417C861.351 27.9115 861.05 28.3876 861.05 28.97C861.05 29.5524 861.356 30.0285 861.966 30.3983C862.576 30.7681 863.57 30.953 864.947 30.953Z" fill="black"/>
<path d="M908.294 28.8414C908.294 25.7401 912.682 21.0684 912.682 21.0684C912.682 21.0684 917.094 25.7401 917.094 28.8414C917.101 29.3593 916.992 29.8732 916.774 30.3534C916.556 30.8336 916.233 31.2706 915.824 31.6389C915.414 32.0073 914.927 32.2998 914.39 32.4994C913.853 32.699 913.276 32.8018 912.694 32.8018C912.112 32.8018 911.535 32.699 910.998 32.4994C910.461 32.2998 909.974 32.0073 909.564 31.6389C909.155 31.2706 908.832 30.8336 908.614 30.3534C908.396 29.8732 908.287 29.3593 908.294 28.8414Z" fill="black"/>
<path d="M936.285 26.0441C939.53 26.0441 941.152 27.0472 941.152 29.0532C941.152 29.9777 940.732 30.7172 939.89 31.2719C939.058 31.8266 937.709 32.1039 935.841 32.1039C933.937 32.1039 932.573 31.8266 931.751 31.2719C930.937 30.7172 930.53 29.9314 930.53 28.9145V28.5401H931.959V28.8868C931.959 29.5432 932.25 30.0516 932.832 30.4122C933.424 30.7727 934.427 30.953 935.841 30.953C938.43 30.953 939.724 30.3012 939.724 28.9977C939.724 27.7035 938.462 27.0564 935.938 27.0564H933.983V26.1273L939.211 23.1598V22.9796C938.453 23.2477 937.649 23.3817 936.798 23.3817H930.946V22.2308H940.736V23.3817L935.98 26.0441H936.285ZM948.068 32.1039C946.284 32.1039 944.976 31.8219 944.144 31.258C943.321 30.6941 942.91 29.9546 942.91 29.0393V28.8868H944.338V28.9977C944.338 29.5802 944.629 30.0516 945.212 30.4122C945.803 30.7727 946.76 30.953 948.082 30.953C949.385 30.953 950.333 30.7542 950.925 30.3567C951.526 29.9592 951.826 29.4322 951.826 28.7759C951.826 28.1195 951.526 27.5926 950.925 27.1951C950.333 26.7976 949.376 26.5988 948.054 26.5988C946.871 26.5988 945.988 26.7328 945.406 27.0009C944.833 27.269 944.444 27.5741 944.241 27.9161H942.813L943.478 22.2308H952.977V23.3817H944.574L944.116 26.9732H944.296C944.953 26.0025 946.349 25.5172 948.484 25.5172C950.13 25.5172 951.336 25.8084 952.103 26.3908C952.871 26.964 953.254 27.7682 953.254 28.8036C953.254 29.8298 952.843 30.6386 952.02 31.2303C951.197 31.8127 949.88 32.1039 948.068 32.1039ZM957.347 27.0009C956.802 27.0009 956.326 26.8946 955.919 26.682C955.512 26.4694 955.198 26.1782 954.976 25.8084C954.754 25.4294 954.643 25.0041 954.643 24.5327C954.643 24.0612 954.754 23.6406 954.976 23.2708C955.198 22.8918 955.512 22.5959 955.919 22.3833C956.326 22.1707 956.802 22.0644 957.347 22.0644C957.893 22.0644 958.369 22.1707 958.776 22.3833C959.182 22.5959 959.497 22.8918 959.718 23.2708C959.94 23.6406 960.051 24.0612 960.051 24.5327C960.051 25.0041 959.94 25.4294 959.718 25.8084C959.497 26.1782 959.182 26.4694 958.776 26.682C958.369 26.8946 957.893 27.0009 957.347 27.0009ZM957.417 31.9375H956.169L963.379 22.2308H964.627L957.417 31.9375ZM957.347 26.1412C957.883 26.1412 958.313 25.9887 958.637 25.6836C958.96 25.3785 959.122 24.9949 959.122 24.5327C959.122 24.0704 958.96 23.6868 958.637 23.3817C958.313 23.0766 957.883 22.9241 957.347 22.9241C956.811 22.9241 956.381 23.0766 956.058 23.3817C955.734 23.6868 955.572 24.0704 955.572 24.5327C955.572 24.9949 955.734 25.3785 956.058 25.6836C956.381 25.9887 956.811 26.1412 957.347 26.1412ZM963.449 32.1039C962.903 32.1039 962.427 31.9976 962.02 31.785C961.614 31.5723 961.299 31.2811 961.077 30.9114C960.856 30.5323 960.745 30.1071 960.745 29.6356C960.745 29.1642 960.856 28.7435 961.077 28.3737C961.299 27.9947 961.614 27.6989 962.02 27.4863C962.427 27.2737 962.903 27.1673 963.449 27.1673C963.994 27.1673 964.47 27.2737 964.877 27.4863C965.284 27.6989 965.598 27.9947 965.82 28.3737C966.042 28.7435 966.153 29.1642 966.153 29.6356C966.153 30.1071 966.042 30.5323 965.82 30.9114C965.598 31.2811 965.284 31.5723 964.877 31.785C964.47 31.9976 963.994 32.1039 963.449 32.1039ZM963.449 31.2442C963.985 31.2442 964.415 31.0916 964.738 30.7866C965.062 30.4815 965.224 30.0978 965.224 29.6356C965.224 29.1734 965.062 28.7897 964.738 28.4847C964.415 28.1796 963.985 28.0271 963.449 28.0271C962.912 28.0271 962.483 28.1796 962.159 28.4847C961.835 28.7897 961.674 29.1734 961.674 29.6356C961.674 30.0978 961.835 30.4815 962.159 30.7866C962.483 31.0916 962.912 31.2442 963.449 31.2442Z" fill="black"/>
<path d="M1004.41 33.231C1002.93 33.231 1001.81 32.956 1001.07 32.4059C1000.33 31.8457 999.968 31.1124 999.968 30.2058C999.968 29.4724 1000.19 28.8613 1000.64 28.3724C1001.1 27.8733 1001.65 27.5677 1002.31 27.4557V27.2112H999.066V25.4694H1001.08C1001.4 25.4694 1001.62 25.4032 1001.76 25.2708C1001.89 25.1384 1001.95 24.9143 1001.95 24.5985V23.4374H1003.93V25.393H1008.33V27.2112H1003.51C1003.13 27.3945 1002.82 27.6543 1002.61 27.9904C1002.4 28.3164 1002.29 28.7391 1002.29 29.2585C1002.29 30.5623 1003 31.2142 1004.41 31.2142C1005.14 31.2142 1005.68 31.0716 1006.03 30.7864C1006.39 30.5012 1006.57 30.1091 1006.57 29.6099V29.4266H1008.97V29.6558C1008.97 30.7762 1008.59 31.6522 1007.84 32.2837C1007.08 32.9152 1005.94 33.231 1004.41 33.231Z" fill="black"/>
<path d="M1013.15 27.4557C1012.55 27.4557 1012.03 27.3436 1011.58 27.1195C1011.13 26.8852 1010.79 26.5695 1010.54 26.1722C1010.3 25.7648 1010.17 25.3065 1010.17 24.7972C1010.17 24.2879 1010.3 23.8346 1010.54 23.4374C1010.79 23.0299 1011.13 22.7142 1011.58 22.4901C1012.03 22.2558 1012.55 22.1387 1013.15 22.1387C1013.75 22.1387 1014.28 22.2558 1014.73 22.4901C1015.18 22.7142 1015.52 23.0299 1015.77 23.4374C1016.01 23.8346 1016.13 24.2879 1016.13 24.7972C1016.13 25.3065 1016.01 25.7648 1015.77 26.1722C1015.52 26.5695 1015.18 26.8852 1014.73 27.1195C1014.28 27.3436 1013.75 27.4557 1013.15 27.4557ZM1013.15 26.0195C1013.56 26.0195 1013.89 25.9074 1014.13 25.6833C1014.39 25.4491 1014.51 25.1537 1014.51 24.7972C1014.51 24.4407 1014.39 24.1504 1014.13 23.9263C1013.89 23.692 1013.56 23.5749 1013.15 23.5749C1012.75 23.5749 1012.42 23.692 1012.18 23.9263C1011.93 24.1504 1011.81 24.4407 1011.81 24.7972C1011.81 25.1537 1011.93 25.4491 1012.18 25.6833C1012.42 25.9074 1012.75 26.0195 1013.15 26.0195Z" fill="black"/>
<path d="M1029.4 30.1626H1028.26V27.6111H1025.57V26.5433H1028.26V23.9919H1029.4V26.5433H1032.09V27.6111H1029.4V30.1626ZM1039.47 30.7172H1043.01V31.9375H1034.02V30.7172H1038.04V26.5156C1038.04 26.0904 1038.08 25.7067 1038.14 25.3647C1038.2 25.0134 1038.32 24.5234 1038.5 23.8948H1038.32C1038.03 24.8377 1037.64 25.5172 1037.13 25.9332C1036.62 26.3492 1035.88 26.5572 1034.92 26.5572H1034.58V25.3369H1035.12C1036.12 25.3369 1036.87 25.0919 1037.36 24.602C1037.86 24.1028 1038.11 23.3494 1038.11 22.3417V22.2308H1039.47V30.7172ZM1051.64 27.0148C1052.5 27.0333 1053.2 27.2552 1053.74 27.6804C1054.28 28.0964 1054.55 28.6603 1054.55 29.3722C1054.55 30.2319 1054.15 30.9021 1053.33 31.3828C1052.53 31.8635 1051.14 32.1039 1049.16 32.1039C1047.18 32.1039 1045.79 31.8635 1044.97 31.3828C1044.17 30.9021 1043.77 30.2319 1043.77 29.3722C1043.77 28.6603 1044.03 28.0964 1044.57 27.6804C1045.11 27.2552 1045.82 27.0333 1046.68 27.0148V26.8345C1045.88 26.8068 1045.24 26.5942 1044.76 26.1967C1044.28 25.7899 1044.04 25.263 1044.04 24.6159C1044.04 22.9149 1045.75 22.0644 1049.16 22.0644C1052.57 22.0644 1054.28 22.9149 1054.28 24.6159C1054.28 25.263 1054.04 25.7899 1053.56 26.1967C1053.07 26.5942 1052.44 26.8068 1051.64 26.8345V27.0148ZM1045.47 24.8516C1045.47 25.3508 1045.74 25.7483 1046.29 26.0441C1046.83 26.3307 1047.79 26.474 1049.16 26.474C1050.53 26.474 1051.48 26.3307 1052.03 26.0441C1052.58 25.7483 1052.85 25.3508 1052.85 24.8516C1052.85 24.3431 1052.58 23.9456 1052.03 23.6591C1051.48 23.3632 1050.53 23.2153 1049.16 23.2153C1047.79 23.2153 1046.83 23.3632 1046.29 23.6591C1045.74 23.9456 1045.47 24.3431 1045.47 24.8516ZM1049.16 30.953C1050.64 30.953 1051.67 30.8004 1052.25 30.4954C1052.83 30.181 1053.13 29.7558 1053.13 29.2196C1053.13 28.6834 1052.83 28.2628 1052.25 27.9577C1051.67 27.6434 1050.64 27.4863 1049.16 27.4863C1047.68 27.4863 1046.65 27.6434 1046.07 27.9577C1045.48 28.2628 1045.19 28.6834 1045.19 29.2196C1045.19 29.7558 1045.48 30.181 1046.07 30.4954C1046.65 30.8004 1047.68 30.953 1049.16 30.953Z" fill="black"/>
</svg>
