<svg width="348" height="50" viewBox="0 0 348 50" fill="none" xmlns="http://www.w3.org/2000/svg">
<path d="M49.144 30V20.9H51.965L57.867 28.921H58.062C57.9667 28.557 57.8973 28.2233 57.854 27.92C57.8107 27.6167 57.789 27.244 57.789 26.802V20.9H59.531V30H56.71L50.795 21.979H50.613C50.7083 22.343 50.7777 22.6767 50.821 22.98C50.8643 23.2833 50.886 23.656 50.886 24.098V30H49.144ZM66.4289 30.156C64.7303 30.156 63.4909 29.8917 62.7109 29.363C61.9309 28.8343 61.5409 28.1323 61.5409 27.257V27.114H63.3479V27.205C63.3479 27.6643 63.5863 28.0413 64.0629 28.336C64.5483 28.622 65.3413 28.765 66.4419 28.765C67.5253 28.765 68.3096 28.6047 68.7949 28.284C69.2889 27.9547 69.5359 27.5257 69.5359 26.997C69.5359 26.4597 69.2889 26.0307 68.7949 25.71C68.3009 25.3893 67.4993 25.229 66.3899 25.229C65.4106 25.229 64.6783 25.333 64.1929 25.541C63.7076 25.749 63.3783 25.9873 63.2049 26.256H61.4369L62.0609 20.9H71.0699V22.291H63.4129L63.0359 25.294H63.2179C63.7639 24.41 65.0163 23.968 66.9749 23.968C68.4829 23.968 69.5879 24.2367 70.2899 24.774C70.9919 25.3113 71.3429 26.061 71.3429 27.023C71.3429 29.1117 69.7049 30.156 66.4289 30.156ZM77.6897 30.156C75.991 30.156 74.7517 29.8917 73.9717 29.363C73.1917 28.8343 72.8017 28.1323 72.8017 27.257V27.114H74.6087V27.205C74.6087 27.6643 74.847 28.0413 75.3237 28.336C75.809 28.622 76.602 28.765 77.7027 28.765C78.786 28.765 79.5703 28.6047 80.0557 28.284C80.5497 27.9547 80.7967 27.5257 80.7967 26.997C80.7967 26.4597 80.5497 26.0307 80.0557 25.71C79.5617 25.3893 78.76 25.229 77.6507 25.229C76.6713 25.229 75.939 25.333 75.4537 25.541C74.9683 25.749 74.639 25.9873 74.4657 26.256H72.6977L73.3217 20.9H82.3307V22.291H74.6737L74.2967 25.294H74.4787C75.0247 24.41 76.277 23.968 78.2357 23.968C79.7437 23.968 80.8487 24.2367 81.5507 24.774C82.2527 25.3113 82.6037 26.061 82.6037 27.023C82.6037 29.1117 80.9657 30.156 77.6897 30.156ZM84.7254 30.156C84.4221 30.156 84.1751 30.0693 83.9844 29.896C83.8024 29.7227 83.7114 29.5017 83.7114 29.233C83.7114 28.9557 83.8024 28.7303 83.9844 28.557C84.1751 28.3837 84.4221 28.297 84.7254 28.297C85.0201 28.297 85.2584 28.3837 85.4404 28.557C85.6311 28.7303 85.7264 28.9557 85.7264 29.233C85.7264 29.5017 85.6311 29.7227 85.4404 29.896C85.2584 30.0693 85.0201 30.156 84.7254 30.156ZM87.9721 29.74C87.9721 28.05 88.3534 26.607 89.1161 25.411C89.8874 24.215 91.1354 23.279 92.8601 22.603V22.421H85.5931V20.9H94.5631V22.616C92.8731 23.266 91.6641 24.1717 90.9361 25.333C90.2167 26.4857 89.8571 27.9547 89.8571 29.74V30H87.9721V29.74ZM100.452 30.156C98.7537 30.156 97.5144 29.8917 96.7344 29.363C95.9544 28.8343 95.5644 28.1323 95.5644 27.257V27.114H97.3714V27.205C97.3714 27.6643 97.6097 28.0413 98.0864 28.336C98.5717 28.622 99.3647 28.765 100.465 28.765C101.549 28.765 102.333 28.6047 102.818 28.284C103.312 27.9547 103.559 27.5257 103.559 26.997C103.559 26.4597 103.312 26.0307 102.818 25.71C102.324 25.3893 101.523 25.229 100.413 25.229C99.434 25.229 98.7017 25.333 98.2164 25.541C97.731 25.749 97.4017 25.9873 97.2284 26.256H95.4604L96.0844 20.9H105.093V22.291H97.4364L97.0594 25.294H97.2414C97.7874 24.41 99.0397 23.968 100.998 23.968C102.506 23.968 103.611 24.2367 104.313 24.774C105.015 25.3113 105.366 26.061 105.366 27.023C105.366 29.1117 103.728 30.156 100.452 30.156ZM111.713 30.156C110.014 30.156 108.775 29.8917 107.995 29.363C107.215 28.8343 106.825 28.1323 106.825 27.257V27.114H108.632V27.205C108.632 27.6643 108.87 28.0413 109.347 28.336C109.832 28.622 110.625 28.765 111.726 28.765C112.809 28.765 113.594 28.6047 114.079 28.284C114.573 27.9547 114.82 27.5257 114.82 26.997C114.82 26.4597 114.573 26.0307 114.079 25.71C113.585 25.3893 112.783 25.229 111.674 25.229C110.695 25.229 109.962 25.333 109.477 25.541C108.992 25.749 108.662 25.9873 108.489 26.256H106.721L107.345 20.9H116.354V22.291H108.697L108.32 25.294H108.502C109.048 24.41 110.3 23.968 112.259 23.968C113.767 23.968 114.872 24.2367 115.574 24.774C116.276 25.3113 116.627 26.061 116.627 27.023C116.627 29.1117 114.989 30.156 111.713 30.156ZM125.483 25.385C126.263 25.4023 126.891 25.606 127.368 25.996C127.853 26.3773 128.096 26.8973 128.096 27.556C128.096 28.3707 127.71 29.0077 126.939 29.467C126.168 29.9263 124.846 30.156 122.974 30.156C121.102 30.156 119.78 29.9263 119.009 29.467C118.238 29.0077 117.852 28.3707 117.852 27.556C117.852 26.8973 118.09 26.3773 118.567 25.996C119.052 25.606 119.685 25.4023 120.465 25.385V25.19C119.754 25.1727 119.182 24.9777 118.749 24.605C118.324 24.2323 118.112 23.747 118.112 23.149C118.112 21.5457 119.733 20.744 122.974 20.744C126.215 20.744 127.836 21.5457 127.836 23.149C127.836 23.747 127.619 24.2323 127.186 24.605C126.761 24.9777 126.194 25.1727 125.483 25.19V25.385ZM119.919 23.448C119.919 23.8553 120.14 24.176 120.582 24.41C121.033 24.644 121.83 24.761 122.974 24.761C124.118 24.761 124.911 24.644 125.353 24.41C125.804 24.176 126.029 23.8553 126.029 23.448C126.029 23.0407 125.804 22.72 125.353 22.486C124.911 22.252 124.118 22.135 122.974 22.135C121.83 22.135 121.033 22.252 120.582 22.486C120.14 22.72 119.919 23.0407 119.919 23.448ZM122.974 28.765C124.213 28.765 125.076 28.6393 125.561 28.388C126.046 28.1367 126.289 27.7943 126.289 27.361C126.289 26.919 126.046 26.5767 125.561 26.334C125.084 26.0827 124.222 25.957 122.974 25.957C121.726 25.957 120.859 26.0827 120.374 26.334C119.897 26.5767 119.659 26.919 119.659 27.361C119.659 27.7943 119.902 28.1367 120.387 28.388C120.872 28.6393 121.735 28.765 122.974 28.765ZM134.719 24.436C137.683 24.436 139.165 25.3763 139.165 27.257C139.165 28.141 138.766 28.8473 137.969 29.376C137.172 29.896 135.889 30.156 134.121 30.156C132.318 30.156 131.027 29.8917 130.247 29.363C129.476 28.8257 129.09 28.063 129.09 27.075V26.789H130.897V27.036C130.897 27.5907 131.135 28.0197 131.612 28.323C132.097 28.6177 132.934 28.765 134.121 28.765C135.3 28.765 136.132 28.622 136.617 28.336C137.111 28.05 137.358 27.6643 137.358 27.179C137.358 26.1303 136.327 25.606 134.264 25.606H132.314V24.566L136.994 22.031V21.836C136.145 22.1653 135.243 22.33 134.29 22.33H129.48V20.9H138.749V22.291L134.719 24.436ZM145.686 28.505H148.845V30H140.291V28.505H143.905V25.372C143.905 24.9213 143.944 24.5183 144.022 24.163C144.108 23.8077 144.26 23.305 144.477 22.655H144.282C143.978 23.5477 143.588 24.1847 143.112 24.566C142.635 24.9387 141.955 25.125 141.071 25.125H140.798V23.604H141.331C143.133 23.604 144.035 22.733 144.035 20.991V20.9H145.686V28.505ZM151.436 25.242C150.933 25.242 150.491 25.1467 150.11 24.956C149.737 24.7653 149.447 24.501 149.239 24.163C149.039 23.8163 148.94 23.4263 148.94 22.993C148.94 22.5597 149.039 22.174 149.239 21.836C149.447 21.4893 149.737 21.2207 150.11 21.03C150.491 20.8393 150.933 20.744 151.436 20.744C151.938 20.744 152.38 20.8393 152.762 21.03C153.143 21.2207 153.433 21.4893 153.633 21.836C153.841 22.174 153.945 22.5597 153.945 22.993C153.945 23.4263 153.841 23.8163 153.633 24.163C153.433 24.501 153.143 24.7653 152.762 24.956C152.38 25.1467 151.938 25.242 151.436 25.242ZM151.436 24.241C151.852 24.241 152.185 24.124 152.437 23.89C152.697 23.656 152.827 23.357 152.827 22.993C152.827 22.629 152.697 22.33 152.437 22.096C152.185 21.862 151.852 21.745 151.436 21.745C151.02 21.745 150.686 21.862 150.435 22.096C150.183 22.33 150.058 22.629 150.058 22.993C150.058 23.357 150.183 23.656 150.435 23.89C150.686 24.124 151.02 24.241 151.436 24.241ZM155.919 28.297C156.257 28.297 156.517 28.401 156.699 28.609C156.89 28.8083 156.985 29.116 156.985 29.532C156.985 30.442 156.773 31.157 156.348 31.677C155.924 32.197 155.36 32.457 154.658 32.457V31.17H154.788C155.698 31.17 156.214 30.8147 156.335 30.104C156.231 30.1387 156.114 30.156 155.984 30.156C155.681 30.156 155.434 30.0693 155.243 29.896C155.061 29.7227 154.97 29.5017 154.97 29.233C154.97 28.9643 155.057 28.7433 155.23 28.57C155.412 28.388 155.642 28.297 155.919 28.297ZM171.1 20.9V22.369H164.041V24.709H170.19V26.048H164.041V28.531H171.1V30H162.234V20.9H171.1ZM178.315 24.436C181.279 24.436 182.761 25.3763 182.761 27.257C182.761 28.141 182.362 28.8473 181.565 29.376C180.767 29.896 179.485 30.156 177.717 30.156C175.914 30.156 174.623 29.8917 173.843 29.363C173.071 28.8257 172.686 28.063 172.686 27.075V26.789H174.493V27.036C174.493 27.5907 174.731 28.0197 175.208 28.323C175.693 28.6177 176.529 28.765 177.717 28.765C178.895 28.765 179.727 28.622 180.213 28.336C180.707 28.05 180.954 27.6643 180.954 27.179C180.954 26.1303 179.922 25.606 177.86 25.606H175.91V24.566L180.59 22.031V21.836C179.74 22.1653 178.839 22.33 177.886 22.33H173.076V20.9H182.345V22.291L178.315 24.436ZM186.005 29.74C186.005 28.05 186.387 26.607 187.149 25.411C187.921 24.215 189.169 23.279 190.893 22.603V22.421H183.626V20.9H192.596V22.616C190.906 23.266 189.697 24.1717 188.969 25.333C188.25 26.4857 187.89 27.9547 187.89 29.74V30H186.005V29.74ZM192.699 30.156C192.396 30.156 192.149 30.0693 191.958 29.896C191.776 29.7227 191.685 29.5017 191.685 29.233C191.685 28.9557 191.776 28.7303 191.958 28.557C192.149 28.3837 192.396 28.297 192.699 28.297C192.994 28.297 193.232 28.3837 193.414 28.557C193.605 28.7303 193.7 28.9557 193.7 29.233C193.7 29.5017 193.605 29.7227 193.414 29.896C193.232 30.0693 192.994 30.156 192.699 30.156ZM200.361 30.156C199.087 30.156 198.055 29.9957 197.267 29.675C196.487 29.3543 195.91 28.8517 195.538 28.167C195.174 27.4737 194.992 26.568 194.992 25.45C194.992 23.8467 195.399 22.6637 196.214 21.901C197.037 21.1297 198.333 20.744 200.101 20.744C201.808 20.744 203.065 21.017 203.871 21.563C204.677 22.109 205.08 22.8153 205.08 23.682V23.799H203.273V23.734C203.273 23.266 203.026 22.8803 202.532 22.577C202.038 22.2737 201.253 22.122 200.179 22.122C198.965 22.122 198.077 22.382 197.514 22.902C196.959 23.4133 196.682 24.2063 196.682 25.281C196.682 25.541 196.69 25.7577 196.708 25.931H196.89C197.046 25.4543 197.436 25.0687 198.06 24.774C198.692 24.4793 199.62 24.332 200.842 24.332C202.324 24.332 203.42 24.5963 204.131 25.125C204.85 25.645 205.21 26.3383 205.21 27.205C205.21 28.1063 204.82 28.8257 204.04 29.363C203.268 29.8917 202.042 30.156 200.361 30.156ZM200.231 28.778C201.349 28.778 202.155 28.6307 202.649 28.336C203.151 28.0327 203.403 27.6427 203.403 27.166C203.403 26.698 203.151 26.3167 202.649 26.022C202.146 25.7187 201.327 25.567 200.192 25.567C199.048 25.567 198.224 25.7187 197.722 26.022C197.219 26.3167 196.968 26.698 196.968 27.166C196.968 27.6427 197.219 28.0327 197.722 28.336C198.233 28.6307 199.069 28.778 200.231 28.778ZM211.815 28.505H214.974V30H206.42V28.505H210.034V25.372C210.034 24.9213 210.073 24.5183 210.151 24.163C210.238 23.8077 210.39 23.305 210.606 22.655H210.411C210.108 23.5477 209.718 24.1847 209.241 24.566C208.765 24.9387 208.084 25.125 207.2 25.125H206.927V23.604H207.46C209.263 23.604 210.164 22.733 210.164 20.991V20.9H211.815V28.505ZM217.185 29.74C217.185 28.05 217.566 26.607 218.329 25.411C219.1 24.215 220.348 23.279 222.073 22.603V22.421H214.806V20.9H223.776V22.616C222.086 23.266 220.877 24.1717 220.149 25.333C219.43 26.4857 219.07 27.9547 219.07 29.74V30H217.185V29.74ZM229.661 30.156C228.387 30.156 227.356 29.9957 226.567 29.675C225.787 29.3543 225.211 28.8517 224.838 28.167C224.474 27.4737 224.292 26.568 224.292 25.45C224.292 23.8467 224.7 22.6637 225.514 21.901C226.338 21.1297 227.633 20.744 229.401 20.744C231.109 20.744 232.365 21.017 233.171 21.563C233.977 22.109 234.38 22.8153 234.38 23.682V23.799H232.573V23.734C232.573 23.266 232.326 22.8803 231.832 22.577C231.338 22.2737 230.554 22.122 229.479 22.122C228.266 22.122 227.378 22.382 226.814 22.902C226.26 23.4133 225.982 24.2063 225.982 25.281C225.982 25.541 225.991 25.7577 226.008 25.931H226.19C226.346 25.4543 226.736 25.0687 227.36 24.774C227.993 24.4793 228.92 24.332 230.142 24.332C231.624 24.332 232.721 24.5963 233.431 25.125C234.151 25.645 234.51 26.3383 234.51 27.205C234.51 28.1063 234.12 28.8257 233.34 29.363C232.569 29.8917 231.343 30.156 229.661 30.156ZM229.531 28.778C230.649 28.778 231.455 28.6307 231.949 28.336C232.452 28.0327 232.703 27.6427 232.703 27.166C232.703 26.698 232.452 26.3167 231.949 26.022C231.447 25.7187 230.628 25.567 229.492 25.567C228.348 25.567 227.525 25.7187 227.022 26.022C226.52 26.3167 226.268 26.698 226.268 27.166C226.268 27.6427 226.52 28.0327 227.022 28.336C227.534 28.6307 228.37 28.778 229.531 28.778ZM237.459 29.74C237.459 28.05 237.841 26.607 238.603 25.411C239.375 24.215 240.623 23.279 242.347 22.603V22.421H235.08V20.9H244.05V22.616C242.36 23.266 241.151 24.1717 240.423 25.333C239.704 26.4857 239.344 27.9547 239.344 29.74V30H237.459V29.74ZM250.183 24.436C253.147 24.436 254.629 25.3763 254.629 27.257C254.629 28.141 254.23 28.8473 253.433 29.376C252.635 29.896 251.353 30.156 249.585 30.156C247.782 30.156 246.491 29.8917 245.711 29.363C244.939 28.8257 244.554 28.063 244.554 27.075V26.789H246.361V27.036C246.361 27.5907 246.599 28.0197 247.076 28.323C247.561 28.6177 248.397 28.765 249.585 28.765C250.763 28.765 251.595 28.622 252.081 28.336C252.575 28.05 252.822 27.6643 252.822 27.179C252.822 26.1303 251.79 25.606 249.728 25.606H247.778V24.566L252.458 22.031V21.836C251.608 22.1653 250.707 22.33 249.754 22.33H244.944V20.9H254.213V22.291L250.183 24.436ZM258.254 25.242C257.751 25.242 257.309 25.1467 256.928 24.956C256.555 24.7653 256.265 24.501 256.057 24.163C255.858 23.8163 255.758 23.4263 255.758 22.993C255.758 22.5597 255.858 22.174 256.057 21.836C256.265 21.4893 256.555 21.2207 256.928 21.03C257.309 20.8393 257.751 20.744 258.254 20.744C258.757 20.744 259.199 20.8393 259.58 21.03C259.961 21.2207 260.252 21.4893 260.451 21.836C260.659 22.174 260.763 22.5597 260.763 22.993C260.763 23.4263 260.659 23.8163 260.451 24.163C260.252 24.501 259.961 24.7653 259.58 24.956C259.199 25.1467 258.757 25.242 258.254 25.242ZM258.254 24.241C258.67 24.241 259.004 24.124 259.255 23.89C259.515 23.656 259.645 23.357 259.645 22.993C259.645 22.629 259.515 22.33 259.255 22.096C259.004 21.862 258.67 21.745 258.254 21.745C257.838 21.745 257.504 21.862 257.253 22.096C257.002 22.33 256.876 22.629 256.876 22.993C256.876 23.357 257.002 23.656 257.253 23.89C257.504 24.124 257.838 24.241 258.254 24.241Z" fill="black"/>
<path d="M17 36.6191C25.8366 36.6191 33 31.3317 33 24.8095C33 18.2873 25.8366 13 17 13C8.16344 13 1 18.2873 1 24.8095C1 31.3317 8.16344 36.6191 17 36.6191Z" stroke="black" stroke-width="0.7" stroke-miterlimit="10"/>
<path d="M17 36.6191C23.6274 36.6191 29 31.3317 29 24.8095C29 18.2873 23.6274 13 17 13C10.3726 13 5 18.2873 5 24.8095C5 31.3317 10.3726 36.6191 17 36.6191Z" stroke="black" stroke-width="0.7" stroke-miterlimit="10"/>
<path d="M17 32.8105C25.8366 32.8105 33 29.2288 33 24.8105C33 20.3923 25.8366 16.8105 17 16.8105C8.16344 16.8105 1 20.3923 1 24.8105C1 29.2288 8.16344 32.8105 17 32.8105Z" stroke="black" stroke-width="0.7" stroke-miterlimit="10"/>
<path d="M17 28.238C25.8366 28.238 33 26.703 33 24.8094C33 22.9159 25.8366 21.3809 17 21.3809C8.16344 21.3809 1 22.9159 1 24.8094C1 26.703 8.16344 28.238 17 28.238Z" stroke="black" stroke-width="0.7" stroke-miterlimit="10"/>
<path d="M17 13V36.6191" stroke="black" stroke-width="0.7" stroke-miterlimit="10"/>
<path d="M16.9996 36.6191C20.5342 36.6191 23.3996 31.3317 23.3996 24.8095C23.3996 18.2873 20.5342 13 16.9996 13C13.465 13 10.5996 18.2873 10.5996 24.8095C10.5996 31.3317 13.465 36.6191 16.9996 36.6191Z" stroke="black" stroke-width="0.7" stroke-miterlimit="10"/>
</svg>
