<svg width="734" height="54" viewBox="0 0 734 54" fill="none" xmlns="http://www.w3.org/2000/svg">
<path d="M46.3173 33V23.2933H48.5638L55.8854 32.1541H56.0657C55.9825 31.7843 55.9224 31.4608 55.8854 31.1835C55.8484 30.8969 55.8299 30.5502 55.8299 30.1434V23.2933H57.2166V33H54.9702L47.6485 24.1391H47.4683C47.5515 24.5089 47.6116 24.8371 47.6485 25.1237C47.6855 25.401 47.704 25.7431 47.704 26.1498V33H46.3173ZM64.685 33.1664C62.9009 33.1664 61.5928 32.8844 60.7607 32.3205C59.938 31.7566 59.5266 31.0171 59.5266 30.1018V29.9493H60.9549V30.0602C60.9549 30.6427 61.2461 31.1141 61.8285 31.4747C62.4201 31.8352 63.3769 32.0155 64.6989 32.0155C66.0024 32.0155 66.9499 31.8167 67.5416 31.4192C68.1425 31.0217 68.4429 30.4947 68.4429 29.8384C68.4429 29.182 68.1425 28.6551 67.5416 28.2576C66.9499 27.8601 65.9931 27.6613 64.6712 27.6613C63.4879 27.6613 62.605 27.7953 62.0226 28.0634C61.4495 28.3315 61.0612 28.6366 60.8578 28.9786H59.4295L60.0951 23.2933H69.5939V24.4442H61.1906L60.733 28.0357H60.9133C61.5696 27.065 62.9656 26.5797 65.101 26.5797C66.7466 26.5797 67.953 26.8709 68.7203 27.4533C69.4876 28.0265 69.8712 28.8307 69.8712 29.8661C69.8712 30.8923 69.4598 31.7011 68.6371 32.2928C67.8143 32.8752 66.497 33.1664 64.685 33.1664ZM76.7237 33.1664C74.9395 33.1664 73.6314 32.8844 72.7994 32.3205C71.9766 31.7566 71.5652 31.0171 71.5652 30.1018V29.9493H72.9935V30.0602C72.9935 30.6427 73.2847 31.1141 73.8671 31.4747C74.4587 31.8352 75.4156 32.0155 76.7375 32.0155C78.041 32.0155 78.9886 31.8167 79.5802 31.4192C80.1811 31.0217 80.4815 30.4947 80.4815 29.8384C80.4815 29.182 80.1811 28.6551 79.5802 28.2576C78.9886 27.8601 78.0317 27.6613 76.7098 27.6613C75.5265 27.6613 74.6436 27.7953 74.0612 28.0634C73.4881 28.3315 73.0998 28.6366 72.8964 28.9786H71.4682L72.1338 23.2933H81.6325V24.4442H73.2292L72.7716 28.0357H72.9519C73.6083 27.065 75.0042 26.5797 77.1397 26.5797C78.7852 26.5797 79.9916 26.8709 80.7589 27.4533C81.5262 28.0265 81.9098 28.8307 81.9098 29.8661C81.9098 30.8923 81.4984 31.7011 80.6757 32.2928C79.8529 32.8752 78.5356 33.1664 76.7237 33.1664ZM84.103 33.1664C83.8442 33.1664 83.6316 33.0924 83.4652 32.9445C83.308 32.7874 83.2294 32.5932 83.2294 32.3621C83.2294 32.131 83.308 31.9415 83.4652 31.7936C83.6316 31.6364 83.8442 31.5579 84.103 31.5579C84.3619 31.5579 84.5699 31.6364 84.727 31.7936C84.8934 31.9415 84.9766 32.131 84.9766 32.3621C84.9766 32.5932 84.8934 32.7874 84.727 32.9445C84.5699 33.0924 84.3619 33.1664 84.103 33.1664ZM87.6697 32.7643C87.6697 30.8784 88.0903 29.2698 88.9316 27.9386C89.7821 26.5982 91.1456 25.5166 93.0223 24.6938V24.5136H84.9796V23.2933H94.409V24.7216C92.5323 25.4796 91.1872 26.515 90.3737 27.8277C89.5695 29.1404 89.1673 30.7859 89.1673 32.7643V33H87.6697V32.7643ZM100.774 33.1664C98.9896 33.1664 97.6815 32.8844 96.8495 32.3205C96.0267 31.7566 95.6154 31.0171 95.6154 30.1018V29.9493H97.0436V30.0602C97.0436 30.6427 97.3348 31.1141 97.9172 31.4747C98.5089 31.8352 99.4657 32.0155 100.788 32.0155C102.091 32.0155 103.039 31.8167 103.63 31.4192C104.231 31.0217 104.532 30.4947 104.532 29.8384C104.532 29.182 104.231 28.6551 103.63 28.2576C103.039 27.8601 102.082 27.6613 100.76 27.6613C99.5766 27.6613 98.6938 27.7953 98.1114 28.0634C97.5382 28.3315 97.1499 28.6366 96.9466 28.9786H95.5183L96.1839 23.2933H105.683V24.4442H97.2794L96.8218 28.0357H97.002C97.6584 27.065 99.0543 26.5797 101.19 26.5797C102.835 26.5797 104.042 26.8709 104.809 27.4533C105.576 28.0265 105.96 28.8307 105.96 29.8661C105.96 30.8923 105.549 31.7011 104.726 32.2928C103.903 32.8752 102.586 33.1664 100.774 33.1664ZM112.812 33.1664C111.028 33.1664 109.72 32.8844 108.888 32.3205C108.065 31.7566 107.654 31.0171 107.654 30.1018V29.9493H109.082V30.0602C109.082 30.6427 109.373 31.1141 109.956 31.4747C110.548 31.8352 111.504 32.0155 112.826 32.0155C114.13 32.0155 115.077 31.8167 115.669 31.4192C116.27 31.0217 116.57 30.4947 116.57 29.8384C116.57 29.182 116.27 28.6551 115.669 28.2576C115.077 27.8601 114.12 27.6613 112.799 27.6613C111.615 27.6613 110.732 27.7953 110.15 28.0634C109.577 28.3315 109.189 28.6366 108.985 28.9786H107.557L108.223 23.2933H117.721V24.4442H109.318L108.86 28.0357H109.041C109.697 27.065 111.093 26.5797 113.228 26.5797C114.874 26.5797 116.08 26.8709 116.848 27.4533C117.615 28.0265 117.999 28.8307 117.999 29.8661C117.999 30.8923 117.587 31.7011 116.764 32.2928C115.942 32.8752 114.624 33.1664 112.812 33.1664ZM127.333 28.0773C128.193 28.0958 128.891 28.3177 129.427 28.7429C129.972 29.1589 130.245 29.7228 130.245 30.4347C130.245 31.2944 129.838 31.9646 129.025 32.4453C128.221 32.926 126.829 33.1664 124.851 33.1664C122.873 33.1664 121.477 32.926 120.663 32.4453C119.859 31.9646 119.457 31.2944 119.457 30.4347C119.457 29.7228 119.725 29.1589 120.261 28.7429C120.807 28.3177 121.509 28.0958 122.369 28.0773V27.897C121.574 27.8693 120.936 27.6567 120.455 27.2592C119.975 26.8524 119.734 26.3255 119.734 25.6784C119.734 23.9774 121.44 23.1269 124.851 23.1269C128.262 23.1269 129.968 23.9774 129.968 25.6784C129.968 26.3255 129.727 26.8524 129.247 27.2592C128.766 27.6567 128.128 27.8693 127.333 27.897V28.0773ZM121.162 25.9141C121.162 26.4133 121.435 26.8108 121.981 27.1066C122.526 27.3932 123.483 27.5365 124.851 27.5365C126.219 27.5365 127.176 27.3932 127.721 27.1066C128.267 26.8108 128.54 26.4133 128.54 25.9141C128.54 25.4056 128.267 25.0081 127.721 24.7216C127.176 24.4257 126.219 24.2778 124.851 24.2778C123.483 24.2778 122.526 24.4257 121.981 24.7216C121.435 25.0081 121.162 25.4056 121.162 25.9141ZM124.851 32.0155C126.33 32.0155 127.361 31.8629 127.943 31.5579C128.526 31.2435 128.817 30.8183 128.817 30.2821C128.817 29.7459 128.526 29.3253 127.943 29.0202C127.361 28.7059 126.33 28.5488 124.851 28.5488C123.372 28.5488 122.341 28.7059 121.759 29.0202C121.176 29.3253 120.885 29.7459 120.885 30.2821C120.885 30.8183 121.176 31.2435 121.759 31.5579C122.341 31.8629 123.372 32.0155 124.851 32.0155ZM137.24 27.1066C140.485 27.1066 142.107 28.1097 142.107 30.1157C142.107 31.0402 141.686 31.7797 140.845 32.3344C140.013 32.8891 138.664 33.1664 136.796 33.1664C134.892 33.1664 133.528 32.8891 132.705 32.3344C131.892 31.7797 131.485 30.9939 131.485 29.977V29.6026H132.913V29.9493C132.913 30.6057 133.205 31.1141 133.787 31.4747C134.379 31.8352 135.382 32.0155 136.796 32.0155C139.385 32.0155 140.679 31.3637 140.679 30.0602C140.679 28.766 139.417 28.1189 136.893 28.1189H134.938V27.1898L140.166 24.2223V24.0421C139.408 24.3102 138.603 24.4442 137.753 24.4442H131.901V23.2933H141.691V24.4442L136.935 27.1066H137.24ZM148.936 31.7797H152.472V33H143.486V31.7797H147.508V27.5781C147.508 27.1529 147.54 26.7692 147.605 26.4272C147.67 26.0759 147.79 25.5859 147.965 24.9573H147.785C147.499 25.9002 147.101 26.5797 146.593 26.9957C146.084 27.4117 145.349 27.6197 144.388 27.6197H144.041V26.3994H144.582C145.59 26.3994 146.338 26.1544 146.828 25.6645C147.327 25.1653 147.577 24.4119 147.577 23.4042V23.2933H148.936V31.7797ZM155.32 27.9248C154.793 27.9248 154.326 27.8231 153.919 27.6197C153.522 27.4163 153.217 27.1344 153.004 26.7738C152.791 26.4041 152.685 25.988 152.685 25.5258C152.685 25.0636 152.791 24.6522 153.004 24.2917C153.217 23.9219 153.522 23.6353 153.919 23.4319C154.326 23.2286 154.793 23.1269 155.32 23.1269C155.847 23.1269 156.309 23.2286 156.706 23.4319C157.113 23.6353 157.423 23.9219 157.635 24.2917C157.848 24.6522 157.954 25.0636 157.954 25.5258C157.954 25.988 157.848 26.4041 157.635 26.7738C157.423 27.1344 157.113 27.4163 156.706 27.6197C156.309 27.8231 155.847 27.9248 155.32 27.9248ZM155.32 27.065C155.828 27.065 156.24 26.9217 156.554 26.6352C156.868 26.3393 157.025 25.9696 157.025 25.5258C157.025 25.0821 156.868 24.7169 156.554 24.4303C156.24 24.1345 155.828 23.9866 155.32 23.9866C154.811 23.9866 154.4 24.1345 154.086 24.4303C153.771 24.7169 153.614 25.0821 153.614 25.5258C153.614 25.9696 153.771 26.3393 154.086 26.6352C154.4 26.9217 154.811 27.065 155.32 27.065ZM160.017 31.5579C160.636 31.5579 160.946 31.9276 160.946 32.6672C160.946 33.2588 160.853 33.7719 160.668 34.2064C160.484 34.6501 160.225 34.9876 159.892 35.2187C159.568 35.459 159.199 35.5792 158.783 35.5792V34.4005H158.894C159.347 34.4005 159.707 34.285 159.975 34.0539C160.243 33.832 160.4 33.5131 160.447 33.0971C160.326 33.1433 160.202 33.1664 160.072 33.1664C159.813 33.1664 159.601 33.0924 159.434 32.9445C159.277 32.7874 159.199 32.5932 159.199 32.3621C159.199 32.131 159.277 31.9415 159.434 31.7936C159.592 31.6364 159.786 31.5579 160.017 31.5579ZM176.062 23.2933V24.5136H168.199V27.4949H175.091V28.6458H168.199V31.7797H176.062V33H166.771V23.2933H176.062ZM183.688 27.1066C186.933 27.1066 188.555 28.1097 188.555 30.1157C188.555 31.0402 188.135 31.7797 187.293 32.3344C186.461 32.8891 185.112 33.1664 183.244 33.1664C181.34 33.1664 179.976 32.8891 179.154 32.3344C178.34 31.7797 177.933 30.9939 177.933 29.977V29.6026H179.362V29.9493C179.362 30.6057 179.653 31.1141 180.235 31.4747C180.827 31.8352 181.83 32.0155 183.244 32.0155C185.833 32.0155 187.127 31.3637 187.127 30.0602C187.127 28.766 185.865 28.1189 183.341 28.1189H181.386V27.1898L186.614 24.2223V24.0421C185.856 24.3102 185.052 24.4442 184.201 24.4442H178.349V23.2933H188.139V24.4442L183.383 27.1066H183.688ZM192.347 32.7643C192.347 30.8784 192.768 29.2698 193.609 27.9386C194.46 26.5982 195.823 25.5166 197.7 24.6938V24.5136H189.657V23.2933H199.087V24.7216C197.21 25.4796 195.865 26.515 195.051 27.8277C194.247 29.1404 193.845 30.7859 193.845 32.7643V33H192.347V32.7643ZM199.127 33.1664C198.868 33.1664 198.655 33.0924 198.489 32.9445C198.332 32.7874 198.253 32.5932 198.253 32.3621C198.253 32.131 198.332 31.9415 198.489 31.7936C198.655 31.6364 198.868 31.5579 199.127 31.5579C199.385 31.5579 199.593 31.6364 199.751 31.7936C199.917 31.9415 200 32.131 200 32.3621C200 32.5932 199.917 32.7874 199.751 32.9445C199.593 33.0924 199.385 33.1664 199.127 33.1664ZM207.181 33.1664C205.831 33.1664 204.745 33 203.922 32.6672C203.099 32.3344 202.494 31.8028 202.105 31.0725C201.717 30.3422 201.523 29.3669 201.523 28.1466C201.523 26.4364 201.953 25.1745 202.813 24.361C203.682 23.5383 205.054 23.1269 206.931 23.1269C208.715 23.1269 210.028 23.4135 210.869 23.9866C211.72 24.5598 212.145 25.304 212.145 26.2192V26.344H210.717V26.2469C210.717 25.683 210.416 25.2161 209.815 24.8464C209.224 24.4673 208.281 24.2778 206.987 24.2778C205.554 24.2778 204.509 24.5829 203.853 25.193C203.206 25.7939 202.882 26.7369 202.882 28.0218C202.882 28.3546 202.891 28.6274 202.91 28.84H203.09C203.256 28.2946 203.686 27.8462 204.38 27.4949C205.082 27.1436 206.122 26.968 207.5 26.968C209.136 26.968 210.342 27.2499 211.119 27.8138C211.895 28.3778 212.284 29.1312 212.284 30.0741C212.284 31.0078 211.872 31.7566 211.05 32.3205C210.236 32.8844 208.946 33.1664 207.181 33.1664ZM207.098 32.0155C208.41 32.0155 209.362 31.8306 209.954 31.4608C210.555 31.091 210.855 30.6149 210.855 30.0325C210.855 29.4501 210.55 28.974 209.94 28.6042C209.339 28.2345 208.369 28.0496 207.028 28.0496C205.688 28.0496 204.712 28.2345 204.102 28.6042C203.501 28.974 203.201 29.4501 203.201 30.0325C203.201 30.6149 203.506 31.091 204.116 31.4608C204.726 31.8306 205.72 32.0155 207.098 32.0155ZM219.191 31.7797H222.727V33H213.741V31.7797H217.762V27.5781C217.762 27.1529 217.795 26.7692 217.859 26.4272C217.924 26.0759 218.044 25.5859 218.22 24.9573H218.04C217.753 25.9002 217.356 26.5797 216.847 26.9957C216.339 27.4117 215.604 27.6197 214.642 27.6197H214.296V26.3994H214.836C215.844 26.3994 216.593 26.1544 217.083 25.6645C217.582 25.1653 217.832 24.4119 217.832 23.4042V23.2933H219.191V31.7797ZM225.349 32.7643C225.349 30.8784 225.769 29.2698 226.611 27.9386C227.461 26.5982 228.825 25.5166 230.701 24.6938V24.5136H222.658V23.2933H232.088V24.7216C230.211 25.4796 228.866 26.515 228.053 27.8277C227.248 29.1404 226.846 30.7859 226.846 32.7643V33H225.349V32.7643ZM238.449 33.1664C237.099 33.1664 236.013 33 235.19 32.6672C234.367 32.3344 233.762 31.8028 233.373 31.0725C232.985 30.3422 232.791 29.3669 232.791 28.1466C232.791 26.4364 233.221 25.1745 234.081 24.361C234.95 23.5383 236.322 23.1269 238.199 23.1269C239.983 23.1269 241.296 23.4135 242.137 23.9866C242.988 24.5598 243.413 25.304 243.413 26.2192V26.344H241.985V26.2469C241.985 25.683 241.684 25.2161 241.083 24.8464C240.492 24.4673 239.549 24.2778 238.254 24.2778C236.822 24.2778 235.777 24.5829 235.121 25.193C234.473 25.7939 234.15 26.7369 234.15 28.0218C234.15 28.3546 234.159 28.6274 234.178 28.84H234.358C234.524 28.2946 234.954 27.8462 235.648 27.4949C236.35 27.1436 237.39 26.968 238.768 26.968C240.404 26.968 241.61 27.2499 242.387 27.8138C243.163 28.3778 243.552 29.1312 243.552 30.0741C243.552 31.0078 243.14 31.7566 242.317 32.3205C241.504 32.8844 240.214 33.1664 238.449 33.1664ZM238.365 32.0155C239.678 32.0155 240.63 31.8306 241.222 31.4608C241.823 31.091 242.123 30.6149 242.123 30.0325C242.123 29.4501 241.818 28.974 241.208 28.6042C240.607 28.2345 239.637 28.0496 238.296 28.0496C236.956 28.0496 235.98 28.2345 235.37 28.6042C234.769 28.974 234.469 29.4501 234.469 30.0325C234.469 30.6149 234.774 31.091 235.384 31.4608C235.994 31.8306 236.988 32.0155 238.365 32.0155ZM247.015 32.7643C247.015 30.8784 247.436 29.2698 248.277 27.9386C249.128 26.5982 250.491 25.5166 252.368 24.6938V24.5136H244.325V23.2933H253.755V24.7216C251.878 25.4796 250.533 26.515 249.719 27.8277C248.915 29.1404 248.513 30.7859 248.513 32.7643V33H247.015V32.7643ZM260.212 27.1066C263.457 27.1066 265.08 28.1097 265.08 30.1157C265.08 31.0402 264.659 31.7797 263.818 32.3344C262.986 32.8891 261.636 33.1664 259.769 33.1664C257.864 33.1664 256.501 32.8891 255.678 32.3344C254.865 31.7797 254.458 30.9939 254.458 29.977V29.6026H255.886V29.9493C255.886 30.6057 256.177 31.1141 256.76 31.4747C257.351 31.8352 258.354 32.0155 259.769 32.0155C262.357 32.0155 263.651 31.3637 263.651 30.0602C263.651 28.766 262.39 28.1189 259.866 28.1189H257.911V27.1898L263.138 24.2223V24.0421C262.38 24.3102 261.576 24.4442 260.726 24.4442H254.874V23.2933H264.664V24.4442L259.907 27.1066H260.212ZM269.097 27.9248C268.571 27.9248 268.104 27.8231 267.697 27.6197C267.299 27.4163 266.994 27.1344 266.782 26.7738C266.569 26.4041 266.463 25.988 266.463 25.5258C266.463 25.0636 266.569 24.6522 266.782 24.2917C266.994 23.9219 267.299 23.6353 267.697 23.4319C268.104 23.2286 268.571 23.1269 269.097 23.1269C269.624 23.1269 270.087 23.2286 270.484 23.4319C270.891 23.6353 271.201 23.9219 271.413 24.2917C271.626 24.6522 271.732 25.0636 271.732 25.5258C271.732 25.988 271.626 26.4041 271.413 26.7738C271.201 27.1344 270.891 27.4163 270.484 27.6197C270.087 27.8231 269.624 27.9248 269.097 27.9248ZM269.097 27.065C269.606 27.065 270.017 26.9217 270.332 26.6352C270.646 26.3393 270.803 25.9696 270.803 25.5258C270.803 25.0821 270.646 24.7169 270.332 24.4303C270.017 24.1345 269.606 23.9866 269.097 23.9866C268.589 23.9866 268.178 24.1345 267.863 24.4303C267.549 24.7169 267.392 25.0821 267.392 25.5258C267.392 25.9696 267.549 26.3393 267.863 26.6352C268.178 26.9217 268.589 27.065 269.097 27.065Z" fill="black"/>
<path fill-rule="evenodd" clip-rule="evenodd" d="M1.64603 25.9022C1.80689 25.7972 1.9836 25.6968 2.17375 25.6005C2.93481 25.2149 3.96472 24.8693 5.19915 24.5706C5.42975 23.5332 5.78645 22.5424 6.25258 21.6144C6.22393 21.6285 6.1954 21.6427 6.16696 21.6569C3.81947 22.8307 2.24579 24.3082 1.64603 25.9022ZM7.38871 21.1032C6.77629 22.113 6.30769 23.2169 6.01065 24.3872C7.4948 24.0738 9.23894 23.8183 11.1656 23.6367C11.3996 22.212 11.765 20.8886 12.2377 19.7141C10.4571 20.042 8.82143 20.5152 7.38871 21.1032ZM12.5972 18.893C10.991 19.1611 9.48713 19.5445 8.12453 20.0246C9.83367 17.7853 12.3065 16.1415 15.1644 15.4688C14.3011 16.1482 13.5398 17.1144 12.9126 18.2717C12.8038 18.4725 12.6986 18.6798 12.5972 18.893ZM13.1098 19.567C12.5945 20.7366 12.1914 22.0899 11.9342 23.5689C13.731 23.4215 15.6707 23.3371 17.6947 23.3278V19.1991C16.1001 19.2164 14.562 19.3442 13.1098 19.567ZM17.6947 18.4523C16.2474 18.4677 14.8422 18.5722 13.5005 18.7559C13.5232 18.7128 13.5461 18.67 13.5691 18.6275C14.6878 16.5632 16.1484 15.3264 17.6947 15.1542V18.4523ZM18.4414 19.1991V23.3278C20.4654 23.3371 22.4051 23.4215 24.2019 23.5689C23.9447 22.0899 23.5416 20.7366 23.0264 19.567C21.5741 19.3442 20.036 19.2164 18.4414 19.1991ZM22.6356 18.7559C21.2939 18.5722 19.8887 18.4677 18.4414 18.4523V15.1542C19.9876 15.3264 21.4483 16.5632 22.567 18.6275C22.5901 18.67 22.6129 18.7128 22.6356 18.7559ZM23.8984 19.7141C24.3712 20.8886 24.7366 22.212 24.9706 23.6367C26.8971 23.8183 28.6412 24.0738 30.1253 24.3872C29.8282 23.2168 29.3597 22.113 28.7472 21.1032C27.3146 20.5152 25.679 20.042 23.8984 19.7141ZM28.0114 20.0245C26.6489 19.5445 25.145 19.1611 23.5389 18.893C23.4375 18.6798 23.3323 18.4726 23.2235 18.2717C22.5963 17.1144 21.835 16.1482 20.9717 15.4688C23.8295 16.1415 26.3023 17.7853 28.0114 20.0245ZM29.8834 21.6144C30.3495 22.5423 30.7062 23.5331 30.9368 24.5706C32.1713 24.8693 33.2012 25.2149 33.9623 25.6005C34.1525 25.6968 34.3292 25.7973 34.49 25.9022C33.8903 24.3082 32.3166 22.8307 29.9691 21.6569C29.9406 21.6427 29.912 21.6285 29.8834 21.6144ZM34.7615 27.357C34.7615 27.2309 34.7035 27.072 34.5181 26.8778C34.3311 26.6819 34.0365 26.4751 33.6249 26.2665C32.9971 25.9485 32.1407 25.6483 31.0891 25.3781C31.1894 26.0232 31.2414 26.6841 31.2414 27.357C31.2414 28.03 31.1893 28.691 31.089 29.3362C32.1406 29.0659 32.997 28.7657 33.6249 28.4475C34.0365 28.239 34.331 28.0321 34.5181 27.8362C34.7035 27.6419 34.7615 27.483 34.7615 27.357ZM30.2997 29.5253C30.4278 28.8214 30.4947 28.0968 30.4947 27.357C30.4947 26.6173 30.4279 25.8928 30.2998 25.1892C30.2201 25.1714 30.1394 25.1537 30.0578 25.1362C28.6321 24.8308 26.9488 24.579 25.0817 24.3974C25.2038 25.3489 25.2681 26.3398 25.2681 27.357C25.2681 28.3744 25.2037 29.3656 25.0816 30.3173C26.9487 30.1356 28.632 29.8837 30.0578 29.5782C30.1394 29.5607 30.22 29.543 30.2997 29.5253ZM24.9705 31.0781C26.897 30.8964 28.641 30.6407 30.1251 30.3272C29.8281 31.4975 29.3595 32.6012 28.7471 33.6109C27.3144 34.1989 25.6788 34.6721 23.8983 35C24.371 33.8257 24.7364 32.5025 24.9705 31.0781ZM24.3193 30.3868C24.4512 29.4188 24.5215 28.4039 24.5215 27.357C24.5215 26.3103 24.4512 25.2957 24.3194 24.328C22.4963 24.1733 20.5157 24.0841 18.4414 24.0745V30.6404C20.5156 30.6308 22.4962 30.5416 24.3193 30.3868ZM18.4414 31.3871C20.4653 31.3778 22.405 31.2934 24.2017 31.1459C23.9446 32.6246 23.5414 33.9777 23.0262 35.1471C21.574 35.37 20.036 35.4978 18.4414 35.5151V31.3871ZM17.6947 30.6404V24.0745C15.6204 24.0841 13.6398 24.1733 11.8167 24.328C11.685 25.2957 11.6147 26.3103 11.6147 27.357C11.6147 28.4039 11.685 29.4188 11.8168 30.3868C13.6399 30.5416 15.6205 30.6308 17.6947 30.6404ZM11.9344 31.1459C13.7311 31.2934 15.6708 31.3778 17.6947 31.3871V35.5151C16.1001 35.4978 14.5621 35.37 13.1099 35.1471C12.5947 33.9777 12.1916 32.6246 11.9344 31.1459ZM11.0545 30.3174C10.9324 29.3656 10.868 28.3744 10.868 27.357C10.868 26.3398 10.9324 25.3489 11.0544 24.3974C9.18736 24.579 7.50399 24.8308 6.07822 25.1362C5.99662 25.1537 5.91592 25.1714 5.83613 25.1892C5.70806 25.8928 5.64123 26.6173 5.64123 27.357C5.64123 28.0968 5.7081 28.8214 5.83623 29.5252C5.91599 29.543 5.99667 29.5607 6.07824 29.5782C7.50404 29.8837 9.18744 30.1356 11.0545 30.3174ZM6.01079 30.3272C7.49495 30.6407 9.23908 30.8964 11.1657 31.0781C11.3998 32.5025 11.7651 33.8257 12.2378 35C10.4572 34.6721 8.82155 34.1989 7.38884 33.6109C6.77645 32.6012 6.30786 31.4975 6.01079 30.3272ZM5.0469 29.3362C3.99536 29.0659 3.13902 28.7656 2.51119 28.4475C2.09956 28.239 1.80503 28.0321 1.61801 27.8362C1.43252 27.6419 1.3746 27.483 1.3746 27.357C1.3746 27.2309 1.43252 27.072 1.618 26.8778C1.80501 26.6819 2.09953 26.4751 2.51117 26.2665C3.13898 25.9485 3.9953 25.6483 5.04683 25.3781C4.94657 26.0233 4.89456 26.6841 4.89456 27.357C4.89456 28.03 4.94659 28.6909 5.0469 29.3362ZM5.19926 30.1437C5.42988 31.1811 5.78657 32.1718 6.25267 33.0997C6.224 33.0855 6.19543 33.0713 6.16697 33.0571C3.81953 31.8834 2.24587 30.4058 1.64607 28.8118C1.80691 28.9168 1.9836 29.0173 2.17372 29.1136C2.9348 29.4992 3.96476 29.845 5.19926 30.1437ZM6.87957 34.2074C6.51797 34.0538 6.16883 33.8929 5.83304 33.725C4.31269 32.9648 3.04066 32.0473 2.13469 31.0095C2.93973 32.8906 4.35273 34.5844 6.22171 35.9639C7.71549 37.0665 9.4957 37.9636 11.4756 38.5886C9.60343 37.5211 8.0224 36.0128 6.87957 34.2074ZM18.068 40.3272C13.2836 40.3272 8.93729 38.8963 5.7783 36.5647C2.61942 34.2331 0.62793 30.9819 0.62793 27.357C0.62793 23.732 2.61942 20.4808 5.7783 18.1492C8.93729 15.8176 13.2836 14.3867 18.068 14.3867C22.8525 14.3867 27.1988 15.8176 30.3578 18.1492C33.5166 20.4808 35.5081 23.732 35.5081 27.357C35.5081 30.9819 33.5166 34.2331 30.3578 36.5647C27.1988 38.8963 22.8525 40.3272 18.068 40.3272ZM34.49 28.8118C34.3292 28.9168 34.1525 29.0173 33.9623 29.1136C33.2012 29.4992 32.1712 29.845 30.9367 30.1438C30.7061 31.1811 30.3494 32.1719 29.8833 33.0997C29.912 33.0856 29.9406 33.0714 29.9691 33.0571C32.3165 31.8834 33.8902 30.4058 34.49 28.8118ZM29.2564 34.2074C29.618 34.0538 29.9672 33.8929 30.303 33.725C31.8234 32.9648 33.0954 32.0473 34.0014 31.0095C33.1963 32.8906 31.7833 34.5844 29.9144 35.9639C28.4206 37.0665 26.6403 37.9636 24.6604 38.5886C26.5325 37.5211 28.1136 36.0128 29.2564 34.2074ZM28.0112 34.6896C26.6487 35.1697 25.1449 35.553 23.5388 35.8212C23.4375 36.0343 23.3323 36.2414 23.2235 36.4422C22.5963 37.5995 21.835 38.5657 20.9717 39.2451C23.8294 38.5724 26.3021 36.9288 28.0112 34.6896ZM18.4414 39.5598C19.9876 39.3876 21.4483 38.1507 22.567 36.0864C22.59 36.044 22.6128 36.0013 22.6355 35.9583C21.2938 36.1419 19.8887 36.2465 18.4414 36.2618V39.5598ZM17.6947 36.2618C16.2474 36.2465 14.8423 36.1419 13.5007 35.9583C13.5233 36.0013 13.5461 36.044 13.5691 36.0864C14.6878 38.1507 16.1484 39.3876 17.6947 39.5598V36.2618ZM12.5973 35.8212C12.6987 36.0343 12.8038 36.2414 12.9126 36.4422C13.5398 37.5995 14.3011 38.5657 15.1644 39.2452C12.3066 38.5724 9.83385 36.9287 8.12471 34.6896C9.4873 35.1697 10.9912 35.553 12.5973 35.8212ZM34.0014 23.7045C33.0954 22.6667 31.8234 21.7493 30.303 20.9891C29.9672 20.8212 29.6181 20.6603 29.2565 20.5067C28.1137 18.7012 26.5326 17.1928 24.6604 16.1253C26.6403 16.7503 28.4206 17.6474 29.9144 18.75C31.7834 20.1295 33.1964 21.8233 34.0014 23.7045ZM11.4756 16.1253C9.60336 17.1929 8.02228 18.7012 6.87943 20.5067C6.51788 20.6603 6.16879 20.8212 5.83305 20.9891C4.31268 21.7493 3.04062 22.6667 2.13466 23.7045C2.93968 21.8233 4.3527 20.1295 6.22171 18.75C7.71549 17.6474 9.4957 16.7503 11.4756 16.1253Z" fill="black"/>
<line x1="0.955078" y1="1.46666" x2="733.955" y2="1.46656" stroke="black" stroke-width="1.06667"/>
<line x1="0.955078" y1="53.4667" x2="733.955" y2="53.4667" stroke="black" stroke-width="1.06667"/>
<path d="M386.497 31.38C388.639 31.38 390.376 29.6434 390.376 27.5012C390.376 25.359 388.639 23.6224 386.497 23.6224C384.355 23.6224 382.618 25.359 382.618 27.5012C382.618 29.6434 384.355 31.38 386.497 31.38Z" fill="black"/>
<path fill-rule="evenodd" clip-rule="evenodd" d="M386.497 19.2344C386.939 19.2344 387.297 19.5925 387.297 20.0344V22.1702C387.297 22.612 386.939 22.9702 386.497 22.9702C386.055 22.9702 385.697 22.612 385.697 22.1702V20.0344C385.697 19.5925 386.055 19.2344 386.497 19.2344ZM380.598 21.602C380.911 21.2896 381.417 21.2896 381.73 21.602L382.796 22.6687C383.109 22.9811 383.109 23.4877 382.796 23.8001C382.484 24.1125 381.977 24.1125 381.665 23.8001L380.598 22.7334C380.286 22.421 380.286 21.9145 380.598 21.602ZM392.396 21.602C392.709 21.9145 392.709 22.421 392.396 22.7334L391.33 23.8001C391.017 24.1125 390.511 24.1125 390.198 23.8001C389.886 23.4877 389.886 22.9811 390.198 22.6687L391.265 21.602C391.577 21.2896 392.084 21.2896 392.396 21.602ZM378.23 27.5006C378.23 27.0587 378.589 26.7006 379.03 26.7006H381.166C381.608 26.7006 381.966 27.0587 381.966 27.5006C381.966 27.9424 381.608 28.3006 381.166 28.3006H379.03C378.589 28.3006 378.23 27.9424 378.23 27.5006ZM391.028 27.5006C391.028 27.0587 391.387 26.7006 391.828 26.7006H393.964C394.406 26.7006 394.764 27.0587 394.764 27.5006C394.764 27.9424 394.406 28.3006 393.964 28.3006H391.828C391.387 28.3006 391.028 27.9424 391.028 27.5006ZM382.796 31.2021C383.109 31.5145 383.109 32.021 382.796 32.3335L381.73 33.4001C381.417 33.7126 380.911 33.7126 380.598 33.4001C380.286 33.0877 380.286 32.5812 380.598 32.2688L381.665 31.2021C381.977 30.8897 382.484 30.8897 382.796 31.2021ZM390.198 31.2021C390.511 30.8897 391.017 30.8897 391.33 31.2021L392.396 32.2688C392.709 32.5812 392.709 33.0877 392.396 33.4001C392.084 33.7126 391.577 33.7126 391.265 33.4001L390.198 32.3335C389.886 32.021 389.886 31.5145 390.198 31.2021ZM386.497 32.0334C386.939 32.0334 387.297 32.3916 387.297 32.8334V34.9686C387.297 35.4105 386.939 35.7686 386.497 35.7686C386.055 35.7686 385.697 35.4105 385.697 34.9686V32.8334C385.697 32.3916 386.055 32.0334 386.497 32.0334Z" fill="black"/>
<path d="M409.875 32.1332C408.802 32.1332 407.855 31.916 407.032 31.4815C406.219 31.047 405.585 30.4507 405.132 29.6927C404.689 28.9346 404.467 28.0749 404.467 27.1134C404.467 26.152 404.689 25.2923 405.132 24.5342C405.585 23.7762 406.219 23.1799 407.032 22.7454C407.855 22.3109 408.802 22.0937 409.875 22.0937C410.947 22.0937 411.89 22.3109 412.704 22.7454C413.526 23.1799 414.16 23.7762 414.603 24.5342C415.056 25.2923 415.283 26.152 415.283 27.1134C415.283 28.0749 415.056 28.9346 414.603 29.6927C414.16 30.4507 413.526 31.047 412.704 31.4815C411.89 31.916 410.947 32.1332 409.875 32.1332ZM409.875 30.9129C410.661 30.9129 411.354 30.7511 411.955 30.4276C412.556 30.104 413.023 29.6557 413.355 29.0825C413.688 28.5001 413.855 27.8438 413.855 27.1134C413.855 26.3831 413.688 25.7314 413.355 25.1582C413.023 24.5758 412.556 24.1228 411.955 23.7993C411.354 23.4757 410.661 23.3139 409.875 23.3139C409.089 23.3139 408.396 23.4757 407.795 23.7993C407.194 24.1228 406.727 24.5758 406.394 25.1582C406.061 25.7314 405.895 26.3831 405.895 27.1134C405.895 27.8438 406.061 28.5001 406.394 29.0825C406.727 29.6557 407.194 30.104 407.795 30.4276C408.396 30.7511 409.089 30.9129 409.875 30.9129ZM422.423 26.0734C425.667 26.0734 427.29 27.0765 427.29 29.0825C427.29 30.007 426.869 30.7465 426.028 31.3012C425.196 31.8559 423.846 32.1332 421.979 32.1332C420.074 32.1332 418.711 31.8559 417.888 31.3012C417.075 30.7465 416.668 29.9607 416.668 28.9438V28.5694H418.096V28.9161C418.096 29.5725 418.387 30.0809 418.97 30.4415C419.561 30.802 420.564 30.9823 421.979 30.9823C424.567 30.9823 425.862 30.3305 425.862 29.027C425.862 27.7328 424.6 27.0857 422.076 27.0857H420.121V26.1566L425.348 23.1891V23.0089C424.59 23.277 423.786 23.411 422.936 23.411H417.084V22.2601H426.874V23.411L422.118 26.0734H422.423ZM429.547 25.0473C429.288 25.0473 429.075 24.9733 428.909 24.8254C428.751 24.6683 428.673 24.4741 428.673 24.243C428.673 24.0119 428.751 23.8224 428.909 23.6745C429.075 23.5173 429.288 23.4387 429.547 23.4387C429.805 23.4387 430.013 23.5173 430.171 23.6745C430.337 23.8224 430.42 24.0119 430.42 24.243C430.42 24.4741 430.337 24.6683 430.171 24.8254C430.013 24.9733 429.805 25.0473 429.547 25.0473ZM429.547 30.7743C429.288 30.7743 429.075 30.7003 428.909 30.5524C428.751 30.3952 428.673 30.2011 428.673 29.97C428.673 29.7389 428.751 29.5494 428.909 29.4014C429.075 29.2443 429.288 29.1657 429.547 29.1657C429.805 29.1657 430.013 29.2443 430.171 29.4014C430.337 29.5494 430.42 29.7389 430.42 29.97C430.42 30.2011 430.337 30.3952 430.171 30.5524C430.013 30.7003 429.805 30.7743 429.547 30.7743ZM437.198 32.1332C435.414 32.1332 434.106 31.8512 433.274 31.2873C432.451 30.7234 432.04 29.9839 432.04 29.0686V28.9161H433.468V29.027C433.468 29.6094 433.76 30.0809 434.342 30.4415C434.934 30.802 435.89 30.9823 437.212 30.9823C438.516 30.9823 439.463 30.7835 440.055 30.386C440.656 29.9885 440.956 29.4615 440.956 28.8052C440.956 28.1488 440.656 27.6219 440.055 27.2244C439.463 26.8269 438.507 26.6281 437.185 26.6281C436.001 26.6281 435.118 26.7621 434.536 27.0302C433.963 27.2983 433.575 27.6034 433.371 27.9454H431.943L432.609 22.2601H442.107V23.411H433.704L433.246 27.0025H433.427C434.083 26.0318 435.479 25.5465 437.614 25.5465C439.26 25.5465 440.466 25.8377 441.234 26.4201C442.001 26.9933 442.385 27.7975 442.385 28.8329C442.385 29.8591 441.973 30.6679 441.15 31.2596C440.328 31.842 439.01 32.1332 437.198 32.1332ZM449.639 32.1332C448.29 32.1332 447.203 31.9668 446.381 31.634C445.558 31.3012 444.952 30.7696 444.564 30.0393C444.176 29.309 443.982 28.3337 443.982 27.1134C443.982 25.4032 444.411 24.1413 445.271 23.3278C446.14 22.5051 447.513 22.0937 449.39 22.0937C451.174 22.0937 452.487 22.3803 453.328 22.9534C454.178 23.5266 454.604 24.2708 454.604 25.186V25.3108H453.175V25.2137C453.175 24.6498 452.875 24.1829 452.274 23.8131C451.682 23.4341 450.739 23.2446 449.445 23.2446C448.012 23.2446 446.968 23.5497 446.311 24.1598C445.664 24.7607 445.341 25.7036 445.341 26.9886C445.341 27.3214 445.35 27.5941 445.368 27.8068H445.549C445.715 27.2613 446.145 26.813 446.838 26.4617C447.541 26.1104 448.581 25.9348 449.958 25.9348C451.594 25.9348 452.801 26.2167 453.577 26.7806C454.354 27.3445 454.742 28.098 454.742 29.0409C454.742 29.9746 454.331 30.7234 453.508 31.2873C452.695 31.8512 451.405 32.1332 449.639 32.1332ZM449.556 30.9823C450.869 30.9823 451.821 30.7974 452.413 30.4276C453.013 30.0578 453.314 29.5817 453.314 28.9993C453.314 28.4169 453.009 27.9408 452.399 27.571C451.798 27.2013 450.827 27.0164 449.487 27.0164C448.146 27.0164 447.171 27.2013 446.561 27.571C445.96 27.9408 445.659 28.4169 445.659 28.9993C445.659 29.5817 445.965 30.0578 446.575 30.4276C447.185 30.7974 448.179 30.9823 449.556 30.9823Z" fill="black"/>
<path d="M489.532 27.502C487.176 27.502 485.266 29.4122 485.266 31.7686H493.799C493.799 29.4122 491.889 27.502 489.532 27.502Z" fill="black"/>
<path fill-rule="evenodd" clip-rule="evenodd" d="M489.532 22.4316C489.974 22.4316 490.332 22.7898 490.332 23.2316V25.3674C490.332 25.8092 489.974 26.1674 489.532 26.1674C489.091 26.1674 488.732 25.8092 488.732 25.3674V23.2316C488.732 22.7898 489.091 22.4316 489.532 22.4316Z" fill="black"/>
<path fill-rule="evenodd" clip-rule="evenodd" d="M480.999 31.7629C480.999 31.3211 481.326 30.9629 481.73 30.9629H497.334C497.738 30.9629 498.066 31.3211 498.066 31.7629C498.066 32.2047 497.738 32.5629 497.334 32.5629H481.73C481.326 32.5629 480.999 32.2047 480.999 31.7629Z" fill="black"/>
<path fill-rule="evenodd" clip-rule="evenodd" d="M496.132 25.17C496.444 25.4825 496.444 25.989 496.132 26.3014L494.621 27.8108C494.309 28.1232 493.802 28.1231 493.49 27.8106C493.178 27.4981 493.178 26.9916 493.49 26.6792L495 25.1697C495.313 24.8574 495.819 24.8575 496.132 25.17Z" fill="black"/>
<path fill-rule="evenodd" clip-rule="evenodd" d="M482.934 25.17C483.247 24.8575 483.753 24.8574 484.066 25.1697L485.576 26.6792C485.888 26.9916 485.888 27.4981 485.576 27.8106C485.264 28.1231 484.757 28.1232 484.445 27.8108L482.935 26.3014C482.622 25.989 482.622 25.4825 482.934 25.17Z" fill="black"/>
<path d="M509.096 30.8159H517.859V31.9668H507.709V30.3444C507.709 29.4199 507.949 28.7266 508.43 28.2644C508.92 27.7929 509.507 27.4878 510.191 27.3492C510.884 27.2013 511.786 27.0903 512.895 27.0164C513.755 26.9609 514.43 26.8916 514.92 26.8084C515.41 26.7252 515.816 26.5634 516.14 26.323C516.473 26.0734 516.639 25.7036 516.639 25.2137C516.639 23.901 515.368 23.2446 512.826 23.2446C511.504 23.2446 510.533 23.4619 509.914 23.8963C509.304 24.3308 508.999 24.9086 508.999 25.6297V26.0041H507.57V25.602C507.57 24.5204 507.996 23.6652 508.846 23.0366C509.697 22.408 511.023 22.0937 512.826 22.0937C514.665 22.0937 515.997 22.371 516.819 22.9257C517.651 23.4803 518.067 24.2245 518.067 25.1582C518.067 25.9717 517.846 26.5819 517.402 26.9886C516.958 27.3954 516.417 27.6635 515.779 27.7929C515.142 27.9223 514.291 28.024 513.228 28.098C512.294 28.1627 511.555 28.2459 511.009 28.3476C510.473 28.44 510.02 28.6388 509.65 28.9438C509.281 29.2397 509.096 29.6834 509.096 30.2751V30.8159ZM525.137 32.1332C524.065 32.1332 523.117 31.916 522.294 31.4815C521.481 31.047 520.848 30.4507 520.395 29.6927C519.951 28.9346 519.729 28.0749 519.729 27.1134C519.729 26.152 519.951 25.2923 520.395 24.5342C520.848 23.7762 521.481 23.1799 522.294 22.7454C523.117 22.3109 524.065 22.0937 525.137 22.0937C526.21 22.0937 527.152 22.3109 527.966 22.7454C528.789 23.1799 529.422 23.7762 529.866 24.5342C530.319 25.2923 530.545 26.152 530.545 27.1134C530.545 28.0749 530.319 28.9346 529.866 29.6927C529.422 30.4507 528.789 31.047 527.966 31.4815C527.152 31.916 526.21 32.1332 525.137 32.1332ZM525.137 30.9129C525.923 30.9129 526.616 30.7511 527.217 30.4276C527.818 30.104 528.285 29.6557 528.618 29.0825C528.951 28.5001 529.117 27.8438 529.117 27.1134C529.117 26.3831 528.951 25.7314 528.618 25.1582C528.285 24.5758 527.818 24.1228 527.217 23.7993C526.616 23.4757 525.923 23.3139 525.137 23.3139C524.351 23.3139 523.658 23.4757 523.057 23.7993C522.456 24.1228 521.989 24.5758 521.657 25.1582C521.324 25.7314 521.157 26.3831 521.157 27.1134C521.157 27.8438 521.324 28.5001 521.657 29.0825C521.989 29.6557 522.456 30.104 523.057 30.4276C523.658 30.7511 524.351 30.9129 525.137 30.9129ZM532.946 25.0473C532.687 25.0473 532.475 24.9733 532.308 24.8254C532.151 24.6683 532.073 24.4741 532.073 24.243C532.073 24.0119 532.151 23.8224 532.308 23.6745C532.475 23.5173 532.687 23.4387 532.946 23.4387C533.205 23.4387 533.413 23.5173 533.57 23.6745C533.737 23.8224 533.82 24.0119 533.82 24.243C533.82 24.4741 533.737 24.6683 533.57 24.8254C533.413 24.9733 533.205 25.0473 532.946 25.0473ZM532.946 30.7743C532.687 30.7743 532.475 30.7003 532.308 30.5524C532.151 30.3952 532.073 30.2011 532.073 29.97C532.073 29.7389 532.151 29.5494 532.308 29.4014C532.475 29.2443 532.687 29.1657 532.946 29.1657C533.205 29.1657 533.413 29.2443 533.57 29.4014C533.737 29.5494 533.82 29.7389 533.82 29.97C533.82 30.2011 533.737 30.3952 533.57 30.5524C533.413 30.7003 533.205 30.7743 532.946 30.7743ZM540.598 32.1332C538.814 32.1332 537.506 31.8512 536.674 31.2873C535.851 30.7234 535.44 29.9839 535.44 29.0686V28.9161H536.868V29.027C536.868 29.6094 537.159 30.0809 537.742 30.4415C538.333 30.802 539.29 30.9823 540.612 30.9823C541.916 30.9823 542.863 30.7835 543.455 30.386C544.056 29.9885 544.356 29.4615 544.356 28.8052C544.356 28.1488 544.056 27.6219 543.455 27.2244C542.863 26.8269 541.906 26.6281 540.584 26.6281C539.401 26.6281 538.518 26.7621 537.936 27.0302C537.363 27.2983 536.974 27.6034 536.771 27.9454H535.343L536.008 22.2601H545.507V23.411H537.104L536.646 27.0025H536.827C537.483 26.0318 538.879 25.5465 541.014 25.5465C542.66 25.5465 543.866 25.8377 544.633 26.4201C545.401 26.9933 545.784 27.7975 545.784 28.8329C545.784 29.8591 545.373 30.6679 544.55 31.2596C543.728 31.842 542.41 32.1332 540.598 32.1332ZM553.039 32.1332C551.689 32.1332 550.603 31.9668 549.78 31.634C548.958 31.3012 548.352 30.7696 547.964 30.0393C547.576 29.309 547.381 28.3337 547.381 27.1134C547.381 25.4032 547.811 24.1413 548.671 23.3278C549.54 22.5051 550.913 22.0937 552.789 22.0937C554.574 22.0937 555.886 22.3803 556.728 22.9534C557.578 23.5266 558.003 24.2708 558.003 25.186V25.3108H556.575V25.2137C556.575 24.6498 556.275 24.1829 555.674 23.8131C555.082 23.4341 554.139 23.2446 552.845 23.2446C551.412 23.2446 550.367 23.5497 549.711 24.1598C549.064 24.7607 548.74 25.7036 548.74 26.9886C548.74 27.3214 548.75 27.5941 548.768 27.8068H548.948C549.115 27.2613 549.545 26.813 550.238 26.4617C550.941 26.1104 551.981 25.9348 553.358 25.9348C554.994 25.9348 556.201 26.2167 556.977 26.7806C557.754 27.3445 558.142 28.098 558.142 29.0409C558.142 29.9746 557.731 30.7234 556.908 31.2873C556.094 31.8512 554.805 32.1332 553.039 32.1332ZM552.956 30.9823C554.269 30.9823 555.221 30.7974 555.812 30.4276C556.413 30.0578 556.714 29.5817 556.714 28.9993C556.714 28.4169 556.409 27.9408 555.799 27.571C555.198 27.2013 554.227 27.0164 552.886 27.0164C551.546 27.0164 550.571 27.2013 549.961 27.571C549.36 27.9408 549.059 28.4169 549.059 28.9993C549.059 29.5817 549.364 30.0578 549.974 30.4276C550.585 30.7974 551.578 30.9823 552.956 30.9823Z" fill="black"/>
<path d="M588.298 28.8707C588.298 25.7694 592.686 21.0977 592.686 21.0977C592.686 21.0977 597.098 25.7694 597.098 28.8707C597.104 29.3886 596.996 29.9025 596.778 30.3827C596.56 30.8629 596.237 31.2999 595.828 31.6682C595.418 32.0366 594.931 32.3291 594.394 32.5287C593.856 32.7283 593.28 32.8311 592.698 32.8311C592.116 32.8311 591.539 32.7283 591.002 32.5287C590.465 32.3291 589.977 32.0366 589.568 31.6682C589.159 31.2999 588.836 30.8629 588.618 30.3827C588.4 29.9025 588.291 29.3886 588.298 28.8707Z" fill="black"/>
<path d="M616.289 26.0734C619.534 26.0734 621.156 27.0765 621.156 29.0825C621.156 30.007 620.735 30.7465 619.894 31.3012C619.062 31.8559 617.713 32.1332 615.845 32.1332C613.941 32.1332 612.577 31.8559 611.754 31.3012C610.941 30.7465 610.534 29.9607 610.534 28.9438V28.5694H611.962V28.9161C611.962 29.5725 612.254 30.0809 612.836 30.4415C613.428 30.802 614.431 30.9823 615.845 30.9823C618.434 30.9823 619.728 30.3305 619.728 29.027C619.728 27.7328 618.466 27.0857 615.942 27.0857H613.987V26.1566L619.215 23.1891V23.0089C618.457 23.277 617.652 23.411 616.802 23.411H610.95V22.2601H620.74V23.411L615.984 26.0734H616.289ZM628.072 32.1332C626.288 32.1332 624.98 31.8512 624.148 31.2873C623.325 30.7234 622.914 29.9839 622.914 29.0686V28.9161H624.342V29.027C624.342 29.6094 624.633 30.0809 625.215 30.4415C625.807 30.802 626.764 30.9823 628.086 30.9823C629.389 30.9823 630.337 30.7835 630.929 30.386C631.529 29.9885 631.83 29.4615 631.83 28.8052C631.83 28.1488 631.529 27.6219 630.929 27.2244C630.337 26.8269 629.38 26.6281 628.058 26.6281C626.875 26.6281 625.992 26.7621 625.41 27.0302C624.836 27.2983 624.448 27.6034 624.245 27.9454H622.817L623.482 22.2601H632.981V23.411H624.578L624.12 27.0025H624.3C624.957 26.0318 626.353 25.5465 628.488 25.5465C630.134 25.5465 631.34 25.8377 632.107 26.4201C632.875 26.9933 633.258 27.7975 633.258 28.8329C633.258 29.8591 632.847 30.6679 632.024 31.2596C631.201 31.842 629.884 32.1332 628.072 32.1332ZM637.351 27.0302C636.806 27.0302 636.33 26.9239 635.923 26.7113C635.516 26.4987 635.202 26.2075 634.98 25.8377C634.758 25.4587 634.647 25.0334 634.647 24.562C634.647 24.0905 634.758 23.6699 634.98 23.3001C635.202 22.9211 635.516 22.6252 635.923 22.4126C636.33 22.2 636.806 22.0937 637.351 22.0937C637.897 22.0937 638.373 22.2 638.779 22.4126C639.186 22.6252 639.5 22.9211 639.722 23.3001C639.944 23.6699 640.055 24.0905 640.055 24.562C640.055 25.0334 639.944 25.4587 639.722 25.8377C639.5 26.2075 639.186 26.4987 638.779 26.7113C638.373 26.9239 637.897 27.0302 637.351 27.0302ZM637.42 31.9668H636.172L643.383 22.2601H644.631L637.42 31.9668ZM637.351 26.1705C637.887 26.1705 638.317 26.018 638.641 25.7129C638.964 25.4078 639.126 25.0242 639.126 24.562C639.126 24.0997 638.964 23.7161 638.641 23.411C638.317 23.1059 637.887 22.9534 637.351 22.9534C636.815 22.9534 636.385 23.1059 636.062 23.411C635.738 23.7161 635.576 24.0997 635.576 24.562C635.576 25.0242 635.738 25.4078 636.062 25.7129C636.385 26.018 636.815 26.1705 637.351 26.1705ZM643.453 32.1332C642.907 32.1332 642.431 32.0269 642.024 31.8143C641.617 31.6016 641.303 31.3104 641.081 30.9407C640.859 30.5616 640.748 30.1364 640.748 29.6649C640.748 29.1934 640.859 28.7728 641.081 28.403C641.303 28.024 641.617 27.7282 642.024 27.5156C642.431 27.3029 642.907 27.1966 643.453 27.1966C643.998 27.1966 644.474 27.3029 644.881 27.5156C645.288 27.7282 645.602 28.024 645.824 28.403C646.046 28.7728 646.157 29.1934 646.157 29.6649C646.157 30.1364 646.046 30.5616 645.824 30.9407C645.602 31.3104 645.288 31.6016 644.881 31.8143C644.474 32.0269 643.998 32.1332 643.453 32.1332ZM643.453 31.2735C643.989 31.2735 644.419 31.1209 644.742 30.8159C645.066 30.5108 645.227 30.1271 645.227 29.6649C645.227 29.2027 645.066 28.819 644.742 28.514C644.419 28.2089 643.989 28.0564 643.453 28.0564C642.916 28.0564 642.486 28.2089 642.163 28.514C641.839 28.819 641.678 29.2027 641.678 29.6649C641.678 30.1271 641.839 30.5108 642.163 30.8159C642.486 31.1209 642.916 31.2735 643.453 31.2735Z" fill="black"/>
<path d="M676.414 33.2603C674.927 33.2603 673.811 32.9853 673.068 32.4352C672.335 31.875 671.968 31.1417 671.968 30.2351C671.968 29.5017 672.192 28.8906 672.64 28.4017C673.098 27.9026 673.654 27.597 674.305 27.485V27.2405H671.066V25.4987H673.083C673.399 25.4987 673.623 25.4325 673.755 25.3001C673.888 25.1677 673.954 24.9436 673.954 24.6278V23.4667H675.925V25.4223H680.325V27.2405H675.513C675.125 27.4238 674.825 27.6836 674.611 28.0197C674.397 28.3457 674.29 28.7684 674.29 29.2878C674.29 30.5916 674.998 31.2435 676.414 31.2435C677.137 31.2435 677.677 31.1009 678.033 30.8157C678.39 30.5305 678.568 30.1383 678.568 29.6392V29.4559H680.967V29.6851C680.967 30.8055 680.59 31.6815 679.836 32.313C679.083 32.9445 677.942 33.2603 676.414 33.2603Z" fill="black"/>
<path d="M685.154 27.485C684.553 27.485 684.028 27.3729 683.58 27.1488C683.132 26.9145 682.786 26.5988 682.541 26.2015C682.297 25.7941 682.174 25.3357 682.174 24.8265C682.174 24.3172 682.297 23.8639 682.541 23.4667C682.786 23.0592 683.132 22.7435 683.58 22.5194C684.028 22.2851 684.553 22.168 685.154 22.168C685.755 22.168 686.279 22.2851 686.728 22.5194C687.176 22.7435 687.522 23.0592 687.766 23.4667C688.011 23.8639 688.133 24.3172 688.133 24.8265C688.133 25.3357 688.011 25.7941 687.766 26.2015C687.522 26.5988 687.176 26.9145 686.728 27.1488C686.279 27.3729 685.755 27.485 685.154 27.485ZM685.154 26.0488C685.561 26.0488 685.887 25.9367 686.132 25.7126C686.386 25.4784 686.514 25.183 686.514 24.8265C686.514 24.47 686.386 24.1797 686.132 23.9556C685.887 23.7213 685.561 23.6042 685.154 23.6042C684.746 23.6042 684.42 23.7213 684.176 23.9556C683.932 24.1797 683.809 24.47 683.809 24.8265C683.809 25.183 683.932 25.4784 684.176 25.7126C684.42 25.9367 684.746 26.0488 685.154 26.0488Z" fill="black"/>
<path d="M701.396 30.1919H700.258V27.6404H697.568V26.5726H700.258V24.0212H701.396V26.5726H704.086V27.6404H701.396V30.1919ZM711.471 30.7465H715.007V31.9668H706.022V30.7465H710.043V26.5449C710.043 26.1197 710.075 25.736 710.14 25.394C710.205 25.0427 710.325 24.5527 710.501 23.9241H710.32C710.034 24.867 709.636 25.5465 709.128 25.9625C708.619 26.3785 707.884 26.5865 706.923 26.5865H706.576V25.3662H707.117C708.125 25.3662 708.874 25.1212 709.364 24.6313C709.863 24.1321 710.112 23.3787 710.112 22.371V22.2601H711.471V30.7465ZM723.641 27.0441C724.501 27.0626 725.199 27.2845 725.735 27.7097C726.281 28.1257 726.554 28.6896 726.554 29.4014C726.554 30.2612 726.147 30.9314 725.333 31.4121C724.529 31.8928 723.138 32.1332 721.159 32.1332C719.181 32.1332 717.785 31.8928 716.972 31.4121C716.167 30.9314 715.765 30.2612 715.765 29.4014C715.765 28.6896 716.033 28.1257 716.569 27.7097C717.115 27.2845 717.817 27.0626 718.677 27.0441V26.8638C717.882 26.8361 717.244 26.6235 716.764 26.226C716.283 25.8192 716.043 25.2923 716.043 24.6452C716.043 22.9442 717.748 22.0937 721.159 22.0937C724.571 22.0937 726.276 22.9442 726.276 24.6452C726.276 25.2923 726.036 25.8192 725.555 26.226C725.074 26.6235 724.437 26.8361 723.641 26.8638V27.0441ZM717.471 24.8809C717.471 25.3801 717.744 25.7776 718.289 26.0734C718.834 26.36 719.791 26.5033 721.159 26.5033C722.528 26.5033 723.484 26.36 724.03 26.0734C724.575 25.7776 724.848 25.3801 724.848 24.8809C724.848 24.3724 724.575 23.9749 724.03 23.6883C723.484 23.3925 722.528 23.2446 721.159 23.2446C719.791 23.2446 718.834 23.3925 718.289 23.6883C717.744 23.9749 717.471 24.3724 717.471 24.8809ZM721.159 30.9823C722.638 30.9823 723.669 30.8297 724.252 30.5247C724.834 30.2103 725.125 29.7851 725.125 29.2489C725.125 28.7127 724.834 28.2921 724.252 27.987C723.669 27.6727 722.638 27.5156 721.159 27.5156C719.68 27.5156 718.649 27.6727 718.067 27.987C717.485 28.2921 717.193 28.7127 717.193 29.2489C717.193 29.7851 717.485 30.2103 718.067 30.5247C718.649 30.8297 719.68 30.9823 721.159 30.9823Z" fill="black"/>
</svg>
