<svg width="1379" height="54" viewBox="0 0 1379 54" fill="none" xmlns="http://www.w3.org/2000/svg">
<path d="M66.0166 32.918V23.2112H68.263L75.5846 32.0721H75.7649C75.6817 31.7023 75.6216 31.3788 75.5846 31.1014C75.5476 30.8148 75.5291 30.4682 75.5291 30.0614V23.2112H76.9158V32.918H74.6694L67.3478 24.0571H67.1675C67.2507 24.4269 67.3108 24.7551 67.3478 25.0417C67.3847 25.319 67.4032 25.661 67.4032 26.0678V32.918H66.0166ZM84.3843 33.0844C82.6001 33.0844 81.292 32.8024 80.46 32.2385C79.6372 31.6746 79.2258 30.935 79.2258 30.0198V29.8673H80.6541V29.9782C80.6541 30.5606 80.9453 31.0321 81.5277 31.3926C82.1194 31.7532 83.0762 31.9334 84.3981 31.9334C85.7016 31.9334 86.6492 31.7347 87.2408 31.3372C87.8417 30.9396 88.1421 30.4127 88.1421 29.7564C88.1421 29.1 87.8417 28.5731 87.2408 28.1755C86.6492 27.778 85.6924 27.5793 84.3704 27.5793C83.1871 27.5793 82.3042 27.7133 81.7218 27.9814C81.1487 28.2495 80.7604 28.5546 80.557 28.8966H79.1288L79.7944 23.2112H89.2931V24.3622H80.8898L80.4322 27.9537H80.6125C81.2689 26.983 82.6648 26.4977 84.8003 26.4977C86.4458 26.4977 87.6522 26.7889 88.4195 27.3713C89.1868 27.9444 89.5704 28.7487 89.5704 29.7841C89.5704 30.8102 89.159 31.6191 88.3363 32.2108C87.5135 32.7932 86.1962 33.0844 84.3843 33.0844ZM96.4229 33.0844C94.6387 33.0844 93.3306 32.8024 92.4986 32.2385C91.6758 31.6746 91.2644 30.935 91.2644 30.0198V29.8673H92.6927V29.9782C92.6927 30.5606 92.9839 31.0321 93.5663 31.3926C94.158 31.7532 95.1148 31.9334 96.4367 31.9334C97.7402 31.9334 98.6878 31.7347 99.2794 31.3372C99.8803 30.9396 100.181 30.4127 100.181 29.7564C100.181 29.1 99.8803 28.5731 99.2794 28.1755C98.6878 27.778 97.731 27.5793 96.409 27.5793C95.2257 27.5793 94.3429 27.7133 93.7605 27.9814C93.1873 28.2495 92.799 28.5546 92.5956 28.8966H91.1674L91.833 23.2112H101.332V24.3622H92.9284L92.4708 27.9537H92.6511C93.3075 26.983 94.7034 26.4977 96.8389 26.4977C98.4844 26.4977 99.6908 26.7889 100.458 27.3713C101.225 27.9444 101.609 28.7487 101.609 29.7841C101.609 30.8102 101.198 31.6191 100.375 32.2108C99.5521 32.7932 98.2348 33.0844 96.4229 33.0844ZM103.802 33.0844C103.543 33.0844 103.331 33.0104 103.164 32.8625C103.007 32.7053 102.929 32.5112 102.929 32.2801C102.929 32.049 103.007 31.8595 103.164 31.7116C103.331 31.5544 103.543 31.4758 103.802 31.4758C104.061 31.4758 104.269 31.5544 104.426 31.7116C104.593 31.8595 104.676 32.049 104.676 32.2801C104.676 32.5112 104.593 32.7053 104.426 32.8625C104.269 33.0104 104.061 33.0844 103.802 33.0844ZM107.369 32.6822C107.369 30.7964 107.79 29.1878 108.631 27.8566C109.481 26.5162 110.845 25.4345 112.721 24.6118V24.4315H104.679V23.2112H114.108V24.6395C112.232 25.3976 110.886 26.433 110.073 27.7457C109.269 29.0584 108.867 30.7039 108.867 32.6822V32.918H107.369V32.6822ZM120.473 33.0844C118.689 33.0844 117.381 32.8024 116.549 32.2385C115.726 31.6746 115.315 30.935 115.315 30.0198V29.8673H116.743V29.9782C116.743 30.5606 117.034 31.0321 117.616 31.3926C118.208 31.7532 119.165 31.9334 120.487 31.9334C121.79 31.9334 122.738 31.7347 123.33 31.3372C123.93 30.9396 124.231 30.4127 124.231 29.7564C124.231 29.1 123.93 28.5731 123.33 28.1755C122.738 27.778 121.781 27.5793 120.459 27.5793C119.276 27.5793 118.393 27.7133 117.811 27.9814C117.237 28.2495 116.849 28.5546 116.646 28.8966H115.218L115.883 23.2112H125.382V24.3622H116.979L116.521 27.9537H116.701C117.358 26.983 118.754 26.4977 120.889 26.4977C122.535 26.4977 123.741 26.7889 124.508 27.3713C125.276 27.9444 125.659 28.7487 125.659 29.7841C125.659 30.8102 125.248 31.6191 124.425 32.2108C123.602 32.7932 122.285 33.0844 120.473 33.0844ZM132.512 33.0844C130.727 33.0844 129.419 32.8024 128.587 32.2385C127.765 31.6746 127.353 30.935 127.353 30.0198V29.8673H128.781V29.9782C128.781 30.5606 129.073 31.0321 129.655 31.3926C130.247 31.7532 131.204 31.9334 132.525 31.9334C133.829 31.9334 134.777 31.7347 135.368 31.3372C135.969 30.9396 136.27 30.4127 136.27 29.7564C136.27 29.1 135.969 28.5731 135.368 28.1755C134.777 27.778 133.82 27.5793 132.498 27.5793C131.314 27.5793 130.432 27.7133 129.849 27.9814C129.276 28.2495 128.888 28.5546 128.684 28.8966H127.256L127.922 23.2112H137.42V24.3622H129.017L128.56 27.9537H128.74C129.396 26.983 130.792 26.4977 132.928 26.4977C134.573 26.4977 135.78 26.7889 136.547 27.3713C137.314 27.9444 137.698 28.7487 137.698 29.7841C137.698 30.8102 137.286 31.6191 136.464 32.2108C135.641 32.7932 134.324 33.0844 132.512 33.0844ZM147.032 27.9953C147.892 28.0138 148.59 28.2356 149.126 28.6609C149.672 29.0769 149.944 29.6408 149.944 30.3526C149.944 31.2124 149.538 31.8826 148.724 32.3633C147.92 32.844 146.529 33.0844 144.55 33.0844C142.572 33.0844 141.176 32.844 140.362 32.3633C139.558 31.8826 139.156 31.2124 139.156 30.3526C139.156 29.6408 139.424 29.0769 139.96 28.6609C140.506 28.2356 141.208 28.0138 142.068 27.9953V27.815C141.273 27.7873 140.635 27.5746 140.154 27.1771C139.674 26.7704 139.433 26.2434 139.433 25.5963C139.433 23.8953 141.139 23.0448 144.55 23.0448C147.961 23.0448 149.667 23.8953 149.667 25.5963C149.667 26.2434 149.427 26.7704 148.946 27.1771C148.465 27.5746 147.827 27.7873 147.032 27.815V27.9953ZM140.862 25.8321C140.862 26.3313 141.134 26.7288 141.68 27.0246C142.225 27.3112 143.182 27.4545 144.55 27.4545C145.918 27.4545 146.875 27.3112 147.421 27.0246C147.966 26.7288 148.239 26.3313 148.239 25.8321C148.239 25.3236 147.966 24.9261 147.421 24.6395C146.875 24.3437 145.918 24.1958 144.55 24.1958C143.182 24.1958 142.225 24.3437 141.68 24.6395C141.134 24.9261 140.862 25.3236 140.862 25.8321ZM144.55 31.9334C146.029 31.9334 147.06 31.7809 147.643 31.4758C148.225 31.1615 148.516 30.7363 148.516 30.2001C148.516 29.6639 148.225 29.2433 147.643 28.9382C147.06 28.6239 146.029 28.4667 144.55 28.4667C143.071 28.4667 142.04 28.6239 141.458 28.9382C140.876 29.2433 140.584 29.6639 140.584 30.2001C140.584 30.7363 140.876 31.1615 141.458 31.4758C142.04 31.7809 143.071 31.9334 144.55 31.9334ZM156.939 27.0246C160.184 27.0246 161.806 28.0276 161.806 30.0337C161.806 30.9581 161.386 31.6977 160.544 32.2524C159.712 32.807 158.363 33.0844 156.495 33.0844C154.591 33.0844 153.227 32.807 152.405 32.2524C151.591 31.6977 151.184 30.9119 151.184 29.895V29.5206H152.613V29.8673C152.613 30.5236 152.904 31.0321 153.486 31.3926C154.078 31.7532 155.081 31.9334 156.495 31.9334C159.084 31.9334 160.378 31.2817 160.378 29.9782C160.378 28.684 159.116 28.0369 156.592 28.0369H154.637V27.1078L159.865 24.1403V23.96C159.107 24.2281 158.303 24.3622 157.452 24.3622H151.6V23.2112H161.39V24.3622L156.634 27.0246H156.939ZM168.635 31.6977H172.171V32.918H163.186V31.6977H167.207V27.4961C167.207 27.0708 167.239 26.6872 167.304 26.3451C167.369 25.9938 167.489 25.5039 167.665 24.8753H167.484C167.198 25.8182 166.8 26.4977 166.292 26.9137C165.783 27.3297 165.048 27.5377 164.087 27.5377H163.74V26.3174H164.281C165.289 26.3174 166.038 26.0724 166.528 25.5825C167.027 25.0833 167.276 24.3298 167.276 23.3222V23.2112H168.635V31.6977ZM175.019 27.8427C174.492 27.8427 174.025 27.741 173.618 27.5377C173.221 27.3343 172.916 27.0523 172.703 26.6918C172.491 26.322 172.384 25.906 172.384 25.4438C172.384 24.9816 172.491 24.5702 172.703 24.2097C172.916 23.8399 173.221 23.5533 173.618 23.3499C174.025 23.1465 174.492 23.0448 175.019 23.0448C175.546 23.0448 176.008 23.1465 176.406 23.3499C176.812 23.5533 177.122 23.8399 177.335 24.2097C177.547 24.5702 177.654 24.9816 177.654 25.4438C177.654 25.906 177.547 26.322 177.335 26.6918C177.122 27.0523 176.812 27.3343 176.406 27.5377C176.008 27.741 175.546 27.8427 175.019 27.8427ZM175.019 26.983C175.527 26.983 175.939 26.8397 176.253 26.5531C176.567 26.2573 176.725 25.8875 176.725 25.4438C176.725 25.0001 176.567 24.6349 176.253 24.3483C175.939 24.0525 175.527 23.9046 175.019 23.9046C174.51 23.9046 174.099 24.0525 173.785 24.3483C173.47 24.6349 173.313 25.0001 173.313 25.4438C173.313 25.8875 173.47 26.2573 173.785 26.5531C174.099 26.8397 174.51 26.983 175.019 26.983ZM179.716 31.4758C180.335 31.4758 180.645 31.8456 180.645 32.5852C180.645 33.1768 180.553 33.6899 180.368 34.1244C180.183 34.5681 179.924 34.9055 179.591 35.1366C179.268 35.377 178.898 35.4972 178.482 35.4972V34.3185H178.593C179.046 34.3185 179.406 34.203 179.674 33.9718C179.942 33.75 180.1 33.431 180.146 33.015C180.026 33.0613 179.901 33.0844 179.771 33.0844C179.513 33.0844 179.3 33.0104 179.134 32.8625C178.976 32.7053 178.898 32.5112 178.898 32.2801C178.898 32.049 178.976 31.8595 179.134 31.7116C179.291 31.5544 179.485 31.4758 179.716 31.4758ZM195.761 23.2112V24.4315H187.899V27.4129H194.79V28.5638H187.899V31.6977H195.761V32.918H186.47V23.2112H195.761ZM203.387 27.0246C206.632 27.0246 208.254 28.0276 208.254 30.0337C208.254 30.9581 207.834 31.6977 206.993 32.2524C206.161 32.807 204.811 33.0844 202.944 33.0844C201.039 33.0844 199.676 32.807 198.853 32.2524C198.039 31.6977 197.633 30.9119 197.633 29.895V29.5206H199.061V29.8673C199.061 30.5236 199.352 31.0321 199.934 31.3926C200.526 31.7532 201.529 31.9334 202.944 31.9334C205.532 31.9334 206.826 31.2817 206.826 29.9782C206.826 28.684 205.564 28.0369 203.041 28.0369H201.085V27.1078L206.313 24.1403V23.96C205.555 24.2281 204.751 24.3622 203.9 24.3622H198.049V23.2112H207.838V24.3622L203.082 27.0246H203.387ZM212.047 32.6822C212.047 30.7964 212.467 29.1878 213.308 27.8566C214.159 26.5162 215.523 25.4345 217.399 24.6118V24.4315H209.356V23.2112H218.786V24.6395C216.909 25.3976 215.564 26.433 214.751 27.7457C213.946 29.0584 213.544 30.7039 213.544 32.6822V32.918H212.047V32.6822ZM218.826 33.0844C218.567 33.0844 218.354 33.0104 218.188 32.8625C218.031 32.7053 217.952 32.5112 217.952 32.2801C217.952 32.049 218.031 31.8595 218.188 31.7116C218.354 31.5544 218.567 31.4758 218.826 31.4758C219.085 31.4758 219.293 31.5544 219.45 31.7116C219.616 31.8595 219.699 32.049 219.699 32.2801C219.699 32.5112 219.616 32.7053 219.45 32.8625C219.293 33.0104 219.085 33.0844 218.826 33.0844ZM226.88 33.0844C225.53 33.0844 224.444 32.918 223.621 32.5852C222.798 32.2524 222.193 31.7208 221.805 30.9905C221.416 30.2602 221.222 29.2849 221.222 28.0646C221.222 26.3544 221.652 25.0925 222.512 24.279C223.381 23.4562 224.754 23.0448 226.63 23.0448C228.415 23.0448 229.727 23.3314 230.568 23.9046C231.419 24.4777 231.844 25.2219 231.844 26.1371V26.2619H230.416V26.1649C230.416 25.6009 230.115 25.1341 229.515 24.7643C228.923 24.3853 227.98 24.1958 226.686 24.1958C225.253 24.1958 224.208 24.5009 223.552 25.111C222.905 25.7119 222.581 26.6548 222.581 27.9398C222.581 28.2726 222.59 28.5453 222.609 28.7579H222.789C222.956 28.2125 223.386 27.7642 224.079 27.4129C224.781 27.0616 225.821 26.8859 227.199 26.8859C228.835 26.8859 230.042 27.1679 230.818 27.7318C231.595 28.2957 231.983 29.0491 231.983 29.9921C231.983 30.9258 231.572 31.6746 230.749 32.2385C229.935 32.8024 228.646 33.0844 226.88 33.0844ZM226.797 31.9334C228.109 31.9334 229.062 31.7485 229.653 31.3788C230.254 31.009 230.555 30.5329 230.555 29.9505C230.555 29.3681 230.25 28.892 229.639 28.5222C229.039 28.1524 228.068 27.9675 226.727 27.9675C225.387 27.9675 224.412 28.1524 223.802 28.5222C223.201 28.892 222.9 29.3681 222.9 29.9505C222.9 30.5329 223.205 31.009 223.815 31.3788C224.426 31.7485 225.419 31.9334 226.797 31.9334ZM238.89 31.6977H242.426V32.918H233.44V31.6977H237.462V27.4961C237.462 27.0708 237.494 26.6872 237.559 26.3451C237.623 25.9938 237.744 25.5039 237.919 24.8753H237.739C237.452 25.8182 237.055 26.4977 236.546 26.9137C236.038 27.3297 235.303 27.5377 234.342 27.5377H233.995V26.3174H234.536C235.543 26.3174 236.292 26.0724 236.782 25.5825C237.281 25.0833 237.531 24.3298 237.531 23.3222V23.2112H238.89V31.6977ZM245.048 32.6822C245.048 30.7964 245.468 29.1878 246.31 27.8566C247.16 26.5162 248.524 25.4345 250.4 24.6118V24.4315H242.358V23.2112H251.787V24.6395C249.91 25.3976 248.565 26.433 247.752 27.7457C246.948 29.0584 246.545 30.7039 246.545 32.6822V32.918H245.048V32.6822ZM258.148 33.0844C256.798 33.0844 255.712 32.918 254.889 32.5852C254.066 32.2524 253.461 31.7208 253.073 30.9905C252.684 30.2602 252.49 29.2849 252.49 28.0646C252.49 26.3544 252.92 25.0925 253.78 24.279C254.649 23.4562 256.022 23.0448 257.898 23.0448C259.682 23.0448 260.995 23.3314 261.836 23.9046C262.687 24.4777 263.112 25.2219 263.112 26.1371V26.2619H261.684V26.1649C261.684 25.6009 261.383 25.1341 260.782 24.7643C260.191 24.3853 259.248 24.1958 257.954 24.1958C256.521 24.1958 255.476 24.5009 254.82 25.111C254.173 25.7119 253.849 26.6548 253.849 27.9398C253.849 28.2726 253.858 28.5453 253.877 28.7579H254.057C254.224 28.2125 254.653 27.7642 255.347 27.4129C256.049 27.0616 257.089 26.8859 258.467 26.8859C260.103 26.8859 261.309 27.1679 262.086 27.7318C262.863 28.2957 263.251 29.0491 263.251 29.9921C263.251 30.9258 262.839 31.6746 262.017 32.2385C261.203 32.8024 259.914 33.0844 258.148 33.0844ZM258.065 31.9334C259.377 31.9334 260.33 31.7485 260.921 31.3788C261.522 31.009 261.822 30.5329 261.822 29.9505C261.822 29.3681 261.517 28.892 260.907 28.5222C260.306 28.1524 259.336 27.9675 257.995 27.9675C256.655 27.9675 255.68 28.1524 255.069 28.5222C254.468 28.892 254.168 29.3681 254.168 29.9505C254.168 30.5329 254.473 31.009 255.083 31.3788C255.693 31.7485 256.687 31.9334 258.065 31.9334ZM266.715 32.6822C266.715 30.7964 267.135 29.1878 267.977 27.8566C268.827 26.5162 270.191 25.4345 272.067 24.6118V24.4315H264.024V23.2112H273.454V24.6395C271.577 25.3976 270.232 26.433 269.419 27.7457C268.614 29.0584 268.212 30.7039 268.212 32.6822V32.918H266.715V32.6822ZM279.912 27.0246C283.156 27.0246 284.779 28.0276 284.779 30.0337C284.779 30.9581 284.358 31.6977 283.517 32.2524C282.685 32.807 281.335 33.0844 279.468 33.0844C277.564 33.0844 276.2 32.807 275.377 32.2524C274.564 31.6977 274.157 30.9119 274.157 29.895V29.5206H275.585V29.8673C275.585 30.5236 275.876 31.0321 276.459 31.3926C277.05 31.7532 278.054 31.9334 279.468 31.9334C282.056 31.9334 283.351 31.2817 283.351 29.9782C283.351 28.684 282.089 28.0369 279.565 28.0369H277.61V27.1078L282.838 24.1403V23.96C282.08 24.2281 281.275 24.3622 280.425 24.3622H274.573V23.2112H284.363V24.3622L279.607 27.0246H279.912ZM288.797 27.8427C288.27 27.8427 287.803 27.741 287.396 27.5377C286.999 27.3343 286.694 27.0523 286.481 26.6918C286.268 26.322 286.162 25.906 286.162 25.4438C286.162 24.9816 286.268 24.5702 286.481 24.2097C286.694 23.8399 286.999 23.5533 287.396 23.3499C287.803 23.1465 288.27 23.0448 288.797 23.0448C289.324 23.0448 289.786 23.1465 290.183 23.3499C290.59 23.5533 290.9 23.8399 291.112 24.2097C291.325 24.5702 291.431 24.9816 291.431 25.4438C291.431 25.906 291.325 26.322 291.112 26.6918C290.9 27.0523 290.59 27.3343 290.183 27.5377C289.786 27.741 289.324 27.8427 288.797 27.8427ZM288.797 26.983C289.305 26.983 289.717 26.8397 290.031 26.5531C290.345 26.2573 290.502 25.8875 290.502 25.4438C290.502 25.0001 290.345 24.6349 290.031 24.3483C289.717 24.0525 289.305 23.9046 288.797 23.9046C288.288 23.9046 287.877 24.0525 287.563 24.3483C287.248 24.6349 287.091 25.0001 287.091 25.4438C287.091 25.8875 287.248 26.2573 287.563 26.5531C287.877 26.8397 288.288 26.983 288.797 26.983Z" fill="black"/>
<path fill-rule="evenodd" clip-rule="evenodd" d="M4.24466 25.9022C4.40552 25.7972 4.58223 25.6968 4.77238 25.6005C5.53344 25.2149 6.56335 24.8693 7.79778 24.5706C8.02839 23.5332 8.38508 22.5424 8.85121 21.6144C8.82257 21.6285 8.79403 21.6427 8.7656 21.6569C6.4181 22.8307 4.84442 24.3082 4.24466 25.9022ZM9.98735 21.1032C9.37492 22.113 8.90633 23.2169 8.60929 24.3872C10.0934 24.0738 11.8376 23.8183 13.7642 23.6367C13.9982 22.212 14.3636 20.8886 14.8363 19.7141C13.0557 20.042 11.4201 20.5152 9.98735 21.1032ZM15.1958 18.893C13.5897 19.1611 12.0858 19.5445 10.7232 20.0246C12.4323 17.7853 14.9052 16.1415 17.763 15.4688C16.8997 16.1482 16.1384 17.1144 15.5112 18.2717C15.4024 18.4725 15.2972 18.6798 15.1958 18.893ZM15.7084 19.567C15.1932 20.7366 14.79 22.0899 14.5329 23.5689C16.3297 23.4215 18.2693 23.3371 20.2933 23.3278V19.1991C18.6987 19.2164 17.1607 19.3442 15.7084 19.567ZM20.2933 18.4523C18.846 18.4677 17.4409 18.5722 16.0991 18.7559C16.1218 18.7128 16.1447 18.67 16.1677 18.6275C17.2864 16.5632 18.7471 15.3264 20.2933 15.1542V18.4523ZM21.04 19.1991V23.3278C23.064 23.3371 25.0037 23.4215 26.8005 23.5689C26.5434 22.0899 26.1402 20.7366 25.625 19.567C24.1727 19.3442 22.6346 19.2164 21.04 19.1991ZM25.2342 18.7559C23.8925 18.5722 22.4873 18.4677 21.04 18.4523V15.1542C22.5863 15.3264 24.047 16.5632 25.1657 18.6275C25.1887 18.67 25.2115 18.7128 25.2342 18.7559ZM26.4971 19.7141C26.9698 20.8886 27.3352 22.212 27.5692 23.6367C29.4958 23.8183 31.2398 24.0738 32.7239 24.3872C32.4269 23.2168 31.9583 22.113 31.3459 21.1032C29.9132 20.5152 28.2776 20.042 26.4971 19.7141ZM30.6101 20.0245C29.2475 19.5445 27.7437 19.1611 26.1376 18.893C26.0362 18.6798 25.931 18.4726 25.8221 18.2717C25.195 17.1144 24.4336 16.1482 23.5703 15.4688C26.4282 16.1415 28.901 17.7853 30.6101 20.0245ZM32.482 21.6144C32.9481 22.5423 33.3048 23.5331 33.5354 24.5706C34.7699 24.8693 35.7999 25.2149 36.561 25.6005C36.7511 25.6968 36.9278 25.7973 37.0887 25.9022C36.4889 24.3082 34.9152 22.8307 32.5677 21.6569C32.5393 21.6427 32.5107 21.6285 32.482 21.6144ZM37.3601 27.357C37.3601 27.2309 37.3022 27.072 37.1167 26.8778C36.9297 26.6819 36.6352 26.4751 36.2235 26.2665C35.5957 25.9485 34.7393 25.6483 33.6877 25.3781C33.788 26.0232 33.84 26.6841 33.84 27.357C33.84 28.03 33.788 28.691 33.6877 29.3362C34.7393 29.0659 35.5956 28.7657 36.2235 28.4475C36.6351 28.239 36.9297 28.0321 37.1167 27.8362C37.3022 27.6419 37.3601 27.483 37.3601 27.357ZM32.8983 29.5253C33.0265 28.8214 33.0933 28.0968 33.0933 27.357C33.0933 26.6173 33.0265 25.8928 32.8984 25.1892C32.8187 25.1714 32.738 25.1537 32.6565 25.1362C31.2307 24.8308 29.5474 24.579 27.6804 24.3974C27.8024 25.3489 27.8668 26.3398 27.8668 27.357C27.8668 28.3744 27.8024 29.3656 27.6803 30.3173C29.5473 30.1356 31.2307 29.8837 32.6565 29.5782C32.738 29.5607 32.8186 29.543 32.8983 29.5253ZM27.5691 31.0781C29.4956 30.8964 31.2397 30.6407 32.7238 30.3272C32.4267 31.4975 31.9581 32.6012 31.3457 33.6109C29.9131 34.1989 28.2775 34.6721 26.497 35C26.9697 33.8257 27.335 32.5025 27.5691 31.0781ZM26.918 30.3868C27.0498 29.4188 27.1201 28.4039 27.1201 27.357C27.1201 26.3103 27.0498 25.2957 26.9181 24.328C25.0949 24.1733 23.1143 24.0841 21.04 24.0745V30.6404C23.1143 30.6308 25.0948 30.5416 26.918 30.3868ZM21.04 31.3871C23.064 31.3778 25.0036 31.2934 26.8004 31.1459C26.5432 32.6246 26.1401 33.9777 25.6249 35.1471C24.1726 35.37 22.6346 35.4978 21.04 35.5151V31.3871ZM20.2933 30.6404V24.0745C18.2191 24.0841 16.2385 24.1733 14.4153 24.328C14.2836 25.2957 14.2133 26.3103 14.2133 27.357C14.2133 28.4039 14.2836 29.4188 14.4155 30.3868C16.2386 30.5416 18.2191 30.6308 20.2933 30.6404ZM14.533 31.1459C16.3298 31.2934 18.2694 31.3778 20.2933 31.3871V35.5151C18.6987 35.4978 17.1607 35.37 15.7085 35.1471C15.1933 33.9777 14.7902 32.6246 14.533 31.1459ZM13.6531 30.3174C13.5311 29.3656 13.4667 28.3744 13.4667 27.357C13.4667 26.3398 13.531 25.3489 13.653 24.3974C11.786 24.579 10.1026 24.8308 8.67685 25.1362C8.59525 25.1537 8.51455 25.1714 8.43477 25.1892C8.30669 25.8928 8.23986 26.6173 8.23986 27.357C8.23986 28.0968 8.30673 28.8214 8.43486 29.5252C8.51462 29.543 8.5953 29.5607 8.67688 29.5782C10.1027 29.8837 11.7861 30.1356 13.6531 30.3174ZM8.60943 30.3272C10.0936 30.6407 11.8377 30.8964 13.7643 31.0781C13.9984 32.5025 14.3638 33.8257 14.8364 35C13.0558 34.6721 11.4202 34.1989 9.98748 33.6109C9.37508 32.6012 8.90649 31.4975 8.60943 30.3272ZM7.64553 29.3362C6.59399 29.0659 5.73765 28.7656 5.10983 28.4475C4.69819 28.239 4.40367 28.0321 4.21664 27.8362C4.03115 27.6419 3.97323 27.483 3.97323 27.357C3.97323 27.2309 4.03115 27.072 4.21663 26.8778C4.40365 26.6819 4.69817 26.4751 5.1098 26.2665C5.73762 25.9485 6.59394 25.6483 7.64547 25.3781C7.5452 26.0233 7.49319 26.6841 7.49319 27.357C7.49319 28.03 7.54522 28.6909 7.64553 29.3362ZM7.79789 30.1437C8.02851 31.1811 8.3852 32.1718 8.8513 33.0997C8.82263 33.0855 8.79406 33.0713 8.7656 33.0571C6.41816 31.8834 4.8445 30.4058 4.24471 28.8118C4.40554 28.9168 4.58223 29.0173 4.77235 29.1136C5.53344 29.4992 6.5634 29.845 7.79789 30.1437ZM9.4782 34.2074C9.1166 34.0538 8.76746 33.8929 8.43167 33.725C6.91132 32.9648 5.63929 32.0473 4.73333 31.0095C5.53836 32.8906 6.95136 34.5844 8.82034 35.9639C10.3141 37.0665 12.0943 37.9636 14.0743 38.5886C12.2021 37.5211 10.621 36.0128 9.4782 34.2074ZM20.6667 40.3272C15.8822 40.3272 11.5359 38.8963 8.37693 36.5647C5.21806 34.2331 3.22656 30.9819 3.22656 27.357C3.22656 23.732 5.21806 20.4808 8.37693 18.1492C11.5359 15.8176 15.8822 14.3867 20.6667 14.3867C25.4511 14.3867 29.7974 15.8176 32.9564 18.1492C36.1153 20.4808 38.1068 23.732 38.1068 27.357C38.1068 30.9819 36.1153 34.2331 32.9564 36.5647C29.7974 38.8963 25.4511 40.3272 20.6667 40.3272ZM37.0886 28.8118C36.9278 28.9168 36.7511 29.0173 36.561 29.1136C35.7999 29.4992 34.7699 29.845 33.5353 30.1438C33.3047 31.1811 32.948 32.1719 32.4819 33.0997C32.5106 33.0856 32.5392 33.0714 32.5677 33.0571C34.9152 31.8834 36.4888 30.4058 37.0886 28.8118ZM31.855 34.2074C32.2167 34.0538 32.5658 33.8929 32.9017 33.725C34.422 32.9648 35.694 32.0473 36.6 31.0095C35.795 32.8906 34.382 34.5844 32.513 35.9639C31.0192 37.0665 29.239 37.9636 27.259 38.5886C29.1312 37.5211 30.7122 36.0128 31.855 34.2074ZM30.6099 34.6896C29.2473 35.1697 27.7435 35.553 26.1374 35.8212C26.0361 36.0343 25.9309 36.2414 25.8221 36.4422C25.195 37.5995 24.4336 38.5657 23.5703 39.2451C26.4281 38.5724 28.9008 36.9288 30.6099 34.6896ZM21.04 39.5598C22.5863 39.3876 24.047 38.1507 25.1657 36.0864C25.1886 36.044 25.2115 36.0013 25.2341 35.9583C23.8924 36.1419 22.4873 36.2465 21.04 36.2618V39.5598ZM20.2933 36.2618C18.8461 36.2465 17.441 36.1419 16.0993 35.9583C16.1219 36.0013 16.1447 36.044 16.1677 36.0864C17.2864 38.1507 18.7471 39.3876 20.2933 39.5598V36.2618ZM15.196 35.8212C15.2973 36.0343 15.4025 36.2414 15.5112 36.4422C16.1384 37.5995 16.8997 38.5657 17.763 39.2452C14.9053 38.5724 12.4325 36.9287 10.7233 34.6896C12.0859 35.1697 13.5898 35.553 15.196 35.8212ZM36.6 23.7045C35.6941 22.6667 34.422 21.7493 32.9017 20.9891C32.5659 20.8212 32.2167 20.6603 31.8551 20.5067C30.7123 18.7012 29.1312 17.1928 27.259 16.1253C29.239 16.7503 31.0192 17.6474 32.513 18.75C34.382 20.1295 35.795 21.8233 36.6 23.7045ZM14.0743 16.1253C12.202 17.1929 10.6209 18.7012 9.47807 20.5067C9.11652 20.6603 8.76742 20.8212 8.43168 20.9891C6.91131 21.7493 5.63926 22.6667 4.73329 23.7045C5.53832 21.8233 6.95133 20.1295 8.82034 18.75C10.3141 17.6474 12.0943 16.7503 14.0743 16.1253Z" fill="black"/>
<path d="M1007.48 31.3507C1009.63 31.3507 1011.36 29.6141 1011.36 27.4719C1011.36 25.3297 1009.63 23.5931 1007.48 23.5931C1005.34 23.5931 1003.6 25.3297 1003.6 27.4719C1003.6 29.6141 1005.34 31.3507 1007.48 31.3507Z" fill="black"/>
<path fill-rule="evenodd" clip-rule="evenodd" d="M1007.48 19.2051C1007.93 19.2051 1008.28 19.5633 1008.28 20.0051V22.1409C1008.28 22.5827 1007.93 22.9409 1007.48 22.9409C1007.04 22.9409 1006.68 22.5827 1006.68 22.1409V20.0051C1006.68 19.5633 1007.04 19.2051 1007.48 19.2051ZM1001.58 21.5727C1001.9 21.2603 1002.4 21.2603 1002.72 21.5727L1003.78 22.6394C1004.09 22.9518 1004.09 23.4584 1003.78 23.7708C1003.47 24.0832 1002.96 24.0832 1002.65 23.7708L1001.58 22.7041C1001.27 22.3917 1001.27 21.8852 1001.58 21.5727ZM1013.38 21.5727C1013.69 21.8852 1013.69 22.3917 1013.38 22.7041L1012.32 23.7708C1012 24.0832 1011.5 24.0832 1011.18 23.7708C1010.87 23.4584 1010.87 22.9518 1011.18 22.6394L1012.25 21.5727C1012.56 21.2603 1013.07 21.2603 1013.38 21.5727ZM999.217 27.4713C999.217 27.0294 999.575 26.6713 1000.02 26.6713H1002.15C1002.59 26.6713 1002.95 27.0294 1002.95 27.4713C1002.95 27.9131 1002.59 28.2713 1002.15 28.2713H1000.02C999.575 28.2713 999.217 27.9131 999.217 27.4713ZM1012.01 27.4713C1012.01 27.0294 1012.37 26.6713 1012.81 26.6713H1014.95C1015.39 26.6713 1015.75 27.0294 1015.75 27.4713C1015.75 27.9131 1015.39 28.2713 1014.95 28.2713H1012.81C1012.37 28.2713 1012.01 27.9131 1012.01 27.4713ZM1003.78 31.1728C1004.09 31.4852 1004.09 31.9918 1003.78 32.3042L1002.72 33.3708C1002.4 33.6833 1001.9 33.6833 1001.58 33.3708C1001.27 33.0584 1001.27 32.5519 1001.58 32.2395L1002.65 31.1728C1002.96 30.8604 1003.47 30.8604 1003.78 31.1728ZM1011.18 31.1728C1011.5 30.8604 1012 30.8604 1012.32 31.1728L1013.38 32.2395C1013.69 32.5519 1013.69 33.0584 1013.38 33.3708C1013.07 33.6833 1012.56 33.6833 1012.25 33.3708L1011.18 32.3042C1010.87 31.9918 1010.87 31.4852 1011.18 31.1728ZM1007.48 32.0041C1007.93 32.0041 1008.28 32.3623 1008.28 32.8041V34.9393C1008.28 35.3812 1007.93 35.7394 1007.48 35.7394C1007.04 35.7394 1006.68 35.3812 1006.68 34.9393V32.8041C1006.68 32.3623 1007.04 32.0041 1007.48 32.0041Z" fill="black"/>
<path d="M1030.86 32.1039C1029.79 32.1039 1028.84 31.8867 1028.02 31.4522C1027.2 31.0177 1026.57 30.4214 1026.12 29.6634C1025.67 28.9053 1025.45 28.0456 1025.45 27.0841C1025.45 26.1227 1025.67 25.263 1026.12 24.5049C1026.57 23.7469 1027.2 23.1506 1028.02 22.7161C1028.84 22.2816 1029.79 22.0644 1030.86 22.0644C1031.93 22.0644 1032.88 22.2816 1033.69 22.7161C1034.51 23.1506 1035.15 23.7469 1035.59 24.5049C1036.04 25.263 1036.27 26.1227 1036.27 27.0841C1036.27 28.0456 1036.04 28.9053 1035.59 29.6634C1035.15 30.4214 1034.51 31.0177 1033.69 31.4522C1032.88 31.8867 1031.93 32.1039 1030.86 32.1039ZM1030.86 30.8836C1031.65 30.8836 1032.34 30.7218 1032.94 30.3983C1033.54 30.0747 1034.01 29.6264 1034.34 29.0532C1034.67 28.4708 1034.84 27.8145 1034.84 27.0841C1034.84 26.3538 1034.67 25.7021 1034.34 25.1289C1034.01 24.5465 1033.54 24.0935 1032.94 23.77C1032.34 23.4464 1031.65 23.2846 1030.86 23.2846C1030.08 23.2846 1029.38 23.4464 1028.78 23.77C1028.18 24.0935 1027.71 24.5465 1027.38 25.1289C1027.05 25.7021 1026.88 26.3538 1026.88 27.0841C1026.88 27.8145 1027.05 28.4708 1027.38 29.0532C1027.71 29.6264 1028.18 30.0747 1028.78 30.3983C1029.38 30.7218 1030.08 30.8836 1030.86 30.8836ZM1043.41 26.0441C1046.65 26.0441 1048.28 27.0472 1048.28 29.0532C1048.28 29.9777 1047.86 30.7172 1047.01 31.2719C1046.18 31.8266 1044.83 32.1039 1042.97 32.1039C1041.06 32.1039 1039.7 31.8266 1038.87 31.2719C1038.06 30.7172 1037.65 29.9314 1037.65 28.9145V28.5401H1039.08V28.8868C1039.08 29.5432 1039.37 30.0516 1039.96 30.4122C1040.55 30.7727 1041.55 30.953 1042.97 30.953C1045.55 30.953 1046.85 30.3012 1046.85 28.9977C1046.85 27.7035 1045.59 27.0564 1043.06 27.0564H1041.11V26.1273L1046.33 23.1598V22.9796C1045.58 23.2477 1044.77 23.3817 1043.92 23.3817H1038.07V22.2308H1047.86V23.3817L1043.1 26.0441H1043.41ZM1050.53 25.018C1050.27 25.018 1050.06 24.944 1049.89 24.7961C1049.74 24.639 1049.66 24.4448 1049.66 24.2137C1049.66 23.9826 1049.74 23.7931 1049.89 23.6452C1050.06 23.488 1050.27 23.4095 1050.53 23.4095C1050.79 23.4095 1051 23.488 1051.16 23.6452C1051.32 23.7931 1051.41 23.9826 1051.41 24.2137C1051.41 24.4448 1051.32 24.639 1051.16 24.7961C1051 24.944 1050.79 25.018 1050.53 25.018ZM1050.53 30.745C1050.27 30.745 1050.06 30.671 1049.89 30.5231C1049.74 30.3659 1049.66 30.1718 1049.66 29.9407C1049.66 29.7096 1049.74 29.5201 1049.89 29.3722C1050.06 29.215 1050.27 29.1364 1050.53 29.1364C1050.79 29.1364 1051 29.215 1051.16 29.3722C1051.32 29.5201 1051.41 29.7096 1051.41 29.9407C1051.41 30.1718 1051.32 30.3659 1051.16 30.5231C1051 30.671 1050.79 30.745 1050.53 30.745ZM1058.18 32.1039C1056.4 32.1039 1055.09 31.8219 1054.26 31.258C1053.44 30.6941 1053.03 29.9546 1053.03 29.0393V28.8868H1054.45V28.9977C1054.45 29.5802 1054.75 30.0516 1055.33 30.4122C1055.92 30.7727 1056.88 30.953 1058.2 30.953C1059.5 30.953 1060.45 30.7542 1061.04 30.3567C1061.64 29.9592 1061.94 29.4322 1061.94 28.7759C1061.94 28.1195 1061.64 27.5926 1061.04 27.1951C1060.45 26.7976 1059.49 26.5988 1058.17 26.5988C1056.99 26.5988 1056.1 26.7328 1055.52 27.0009C1054.95 27.269 1054.56 27.5741 1054.36 27.9161H1052.93L1053.59 22.2308H1063.09V23.3817H1054.69L1054.23 26.9732H1054.41C1055.07 26.0025 1056.47 25.5172 1058.6 25.5172C1060.25 25.5172 1061.45 25.8084 1062.22 26.3908C1062.99 26.964 1063.37 27.7682 1063.37 28.8036C1063.37 29.8298 1062.96 30.6386 1062.14 31.2303C1061.31 31.8127 1060 32.1039 1058.18 32.1039ZM1070.63 32.1039C1069.28 32.1039 1068.19 31.9375 1067.37 31.6047C1066.54 31.2719 1065.94 30.7403 1065.55 30.01C1065.16 29.2797 1064.97 28.3044 1064.97 27.0841C1064.97 25.3739 1065.4 24.112 1066.26 23.2985C1067.13 22.4758 1068.5 22.0644 1070.38 22.0644C1072.16 22.0644 1073.47 22.351 1074.31 22.9241C1075.16 23.4973 1075.59 24.2415 1075.59 25.1567V25.2815H1074.16V25.1844C1074.16 24.6205 1073.86 24.1536 1073.26 23.7839C1072.67 23.4048 1071.73 23.2153 1070.43 23.2153C1069 23.2153 1067.95 23.5204 1067.3 24.1305C1066.65 24.7314 1066.33 25.6744 1066.33 26.9593C1066.33 27.2921 1066.34 27.5649 1066.35 27.7775H1066.53C1066.7 27.2321 1067.13 26.7837 1067.82 26.4324C1068.53 26.0811 1069.57 25.9055 1070.94 25.9055C1072.58 25.9055 1073.79 26.1874 1074.56 26.7513C1075.34 27.3153 1075.73 28.0687 1075.73 29.0116C1075.73 29.9453 1075.32 30.6941 1074.49 31.258C1073.68 31.8219 1072.39 32.1039 1070.63 32.1039ZM1070.54 30.953C1071.86 30.953 1072.81 30.7681 1073.4 30.3983C1074 30.0285 1074.3 29.5524 1074.3 28.97C1074.3 28.3876 1074 27.9115 1073.39 27.5417C1072.78 27.172 1071.81 26.9871 1070.47 26.9871C1069.13 26.9871 1068.16 27.172 1067.55 27.5417C1066.95 27.9115 1066.65 28.3876 1066.65 28.97C1066.65 29.5524 1066.95 30.0285 1067.56 30.3983C1068.17 30.7681 1069.16 30.953 1070.54 30.953Z" fill="black"/>
<path d="M1118.52 27.4727C1116.17 27.4727 1114.26 29.3829 1114.26 31.7393H1122.79C1122.79 29.3829 1120.88 27.4727 1118.52 27.4727Z" fill="black"/>
<path fill-rule="evenodd" clip-rule="evenodd" d="M1118.52 22.4023C1118.97 22.4023 1119.32 22.7605 1119.32 23.2023V25.3381C1119.32 25.7799 1118.97 26.1381 1118.52 26.1381C1118.08 26.1381 1117.72 25.7799 1117.72 25.3381V23.2023C1117.72 22.7605 1118.08 22.4023 1118.52 22.4023Z" fill="black"/>
<path fill-rule="evenodd" clip-rule="evenodd" d="M1109.99 31.7336C1109.99 31.2918 1110.32 30.9336 1110.72 30.9336H1126.33C1126.73 30.9336 1127.06 31.2918 1127.06 31.7336C1127.06 32.1754 1126.73 32.5336 1126.33 32.5336H1110.72C1110.32 32.5336 1109.99 32.1754 1109.99 31.7336Z" fill="black"/>
<path fill-rule="evenodd" clip-rule="evenodd" d="M1125.12 25.1407C1125.43 25.4532 1125.43 25.9597 1125.12 26.2721L1123.61 27.7815C1123.3 28.0939 1122.79 28.0938 1122.48 27.7813C1122.17 27.4688 1122.17 26.9623 1122.48 26.6499L1123.99 25.1405C1124.3 24.8281 1124.81 24.8282 1125.12 25.1407Z" fill="black"/>
<path fill-rule="evenodd" clip-rule="evenodd" d="M1111.93 25.1407C1112.24 24.8282 1112.74 24.8281 1113.06 25.1405L1114.57 26.6499C1114.88 26.9623 1114.88 27.4688 1114.57 27.7813C1114.25 28.0938 1113.75 28.0939 1113.44 27.7815L1111.93 26.2721C1111.61 25.9597 1111.61 25.4532 1111.93 25.1407Z" fill="black"/>
<path d="M1138.09 30.7866H1146.85V31.9375H1136.7V30.3151C1136.7 29.3906 1136.94 28.6973 1137.42 28.2351C1137.91 27.7636 1138.5 27.4585 1139.18 27.3199C1139.87 27.172 1140.78 27.061 1141.89 26.9871C1142.75 26.9316 1143.42 26.8623 1143.91 26.7791C1144.4 26.6959 1144.81 26.5341 1145.13 26.2937C1145.46 26.0441 1145.63 25.6744 1145.63 25.1844C1145.63 23.8717 1144.36 23.2153 1141.82 23.2153C1140.49 23.2153 1139.52 23.4326 1138.9 23.8671C1138.29 24.3015 1137.99 24.8793 1137.99 25.6004V25.9748H1136.56V25.5727C1136.56 24.4911 1136.99 23.6359 1137.84 23.0073C1138.69 22.3787 1140.01 22.0644 1141.82 22.0644C1143.66 22.0644 1144.99 22.3417 1145.81 22.8964C1146.64 23.4511 1147.06 24.1952 1147.06 25.1289C1147.06 25.9424 1146.84 26.5526 1146.39 26.9593C1145.95 27.3661 1145.41 27.6342 1144.77 27.7636C1144.13 27.893 1143.28 27.9947 1142.22 28.0687C1141.28 28.1334 1140.54 28.2166 1140 28.3183C1139.46 28.4107 1139.01 28.6095 1138.64 28.9145C1138.27 29.2104 1138.09 29.6541 1138.09 30.2458V30.7866ZM1154.13 32.1039C1153.06 32.1039 1152.11 31.8867 1151.28 31.4522C1150.47 31.0177 1149.84 30.4214 1149.38 29.6634C1148.94 28.9053 1148.72 28.0456 1148.72 27.0841C1148.72 26.1227 1148.94 25.263 1149.38 24.5049C1149.84 23.7469 1150.47 23.1506 1151.28 22.7161C1152.11 22.2816 1153.06 22.0644 1154.13 22.0644C1155.2 22.0644 1156.14 22.2816 1156.96 22.7161C1157.78 23.1506 1158.41 23.7469 1158.86 24.5049C1159.31 25.263 1159.54 26.1227 1159.54 27.0841C1159.54 28.0456 1159.31 28.9053 1158.86 29.6634C1158.41 30.4214 1157.78 31.0177 1156.96 31.4522C1156.14 31.8867 1155.2 32.1039 1154.13 32.1039ZM1154.13 30.8836C1154.91 30.8836 1155.61 30.7218 1156.21 30.3983C1156.81 30.0747 1157.28 29.6264 1157.61 29.0532C1157.94 28.4708 1158.11 27.8145 1158.11 27.0841C1158.11 26.3538 1157.94 25.7021 1157.61 25.1289C1157.28 24.5465 1156.81 24.0935 1156.21 23.77C1155.61 23.4464 1154.91 23.2846 1154.13 23.2846C1153.34 23.2846 1152.65 23.4464 1152.05 23.77C1151.45 24.0935 1150.98 24.5465 1150.65 25.1289C1150.31 25.7021 1150.15 26.3538 1150.15 27.0841C1150.15 27.8145 1150.31 28.4708 1150.65 29.0532C1150.98 29.6264 1151.45 30.0747 1152.05 30.3983C1152.65 30.7218 1153.34 30.8836 1154.13 30.8836ZM1161.94 25.018C1161.68 25.018 1161.47 24.944 1161.3 24.7961C1161.14 24.639 1161.06 24.4448 1161.06 24.2137C1161.06 23.9826 1161.14 23.7931 1161.3 23.6452C1161.47 23.488 1161.68 23.4095 1161.94 23.4095C1162.2 23.4095 1162.4 23.488 1162.56 23.6452C1162.73 23.7931 1162.81 23.9826 1162.81 24.2137C1162.81 24.4448 1162.73 24.639 1162.56 24.7961C1162.4 24.944 1162.2 25.018 1161.94 25.018ZM1161.94 30.745C1161.68 30.745 1161.47 30.671 1161.3 30.5231C1161.14 30.3659 1161.06 30.1718 1161.06 29.9407C1161.06 29.7096 1161.14 29.5201 1161.3 29.3722C1161.47 29.215 1161.68 29.1364 1161.94 29.1364C1162.2 29.1364 1162.4 29.215 1162.56 29.3722C1162.73 29.5201 1162.81 29.7096 1162.81 29.9407C1162.81 30.1718 1162.73 30.3659 1162.56 30.5231C1162.4 30.671 1162.2 30.745 1161.94 30.745ZM1169.59 32.1039C1167.8 32.1039 1166.5 31.8219 1165.66 31.258C1164.84 30.6941 1164.43 29.9546 1164.43 29.0393V28.8868H1165.86V28.9977C1165.86 29.5802 1166.15 30.0516 1166.73 30.4122C1167.32 30.7727 1168.28 30.953 1169.6 30.953C1170.91 30.953 1171.85 30.7542 1172.45 30.3567C1173.05 29.9592 1173.35 29.4322 1173.35 28.7759C1173.35 28.1195 1173.05 27.5926 1172.45 27.1951C1171.85 26.7976 1170.9 26.5988 1169.57 26.5988C1168.39 26.5988 1167.51 26.7328 1166.93 27.0009C1166.35 27.269 1165.96 27.5741 1165.76 27.9161H1164.33L1165 22.2308H1174.5V23.3817H1166.09L1165.64 26.9732H1165.82C1166.47 26.0025 1167.87 25.5172 1170 25.5172C1171.65 25.5172 1172.86 25.8084 1173.62 26.3908C1174.39 26.964 1174.77 27.7682 1174.77 28.8036C1174.77 29.8298 1174.36 30.6386 1173.54 31.2303C1172.72 31.8127 1171.4 32.1039 1169.59 32.1039ZM1182.03 32.1039C1180.68 32.1039 1179.59 31.9375 1178.77 31.6047C1177.95 31.2719 1177.34 30.7403 1176.95 30.01C1176.57 29.2797 1176.37 28.3044 1176.37 27.0841C1176.37 25.3739 1176.8 24.112 1177.66 23.2985C1178.53 22.4758 1179.9 22.0644 1181.78 22.0644C1183.56 22.0644 1184.88 22.351 1185.72 22.9241C1186.57 23.4973 1186.99 24.2415 1186.99 25.1567V25.2815H1185.57V25.1844C1185.57 24.6205 1185.26 24.1536 1184.66 23.7839C1184.07 23.4048 1183.13 23.2153 1181.84 23.2153C1180.4 23.2153 1179.36 23.5204 1178.7 24.1305C1178.05 24.7314 1177.73 25.6744 1177.73 26.9593C1177.73 27.2921 1177.74 27.5649 1177.76 27.7775H1177.94C1178.1 27.2321 1178.53 26.7837 1179.23 26.4324C1179.93 26.0811 1180.97 25.9055 1182.35 25.9055C1183.98 25.9055 1185.19 26.1874 1185.97 26.7513C1186.74 27.3153 1187.13 28.0687 1187.13 29.0116C1187.13 29.9453 1186.72 30.6941 1185.9 31.258C1185.08 31.8219 1183.79 32.1039 1182.03 32.1039ZM1181.95 30.953C1183.26 30.953 1184.21 30.7681 1184.8 30.3983C1185.4 30.0285 1185.7 29.5524 1185.7 28.97C1185.7 28.3876 1185.4 27.9115 1184.79 27.5417C1184.19 27.172 1183.22 26.9871 1181.88 26.9871C1180.54 26.9871 1179.56 27.172 1178.95 27.5417C1178.35 27.9115 1178.05 28.3876 1178.05 28.97C1178.05 29.5524 1178.35 30.0285 1178.96 30.3983C1179.57 30.7681 1180.57 30.953 1181.95 30.953Z" fill="black"/>
<path d="M1225.29 28.8414C1225.29 25.7401 1229.68 21.0684 1229.68 21.0684C1229.68 21.0684 1234.09 25.7401 1234.09 28.8414C1234.1 29.3593 1233.99 29.8732 1233.77 30.3534C1233.56 30.8336 1233.23 31.2706 1232.82 31.6389C1232.41 32.0073 1231.93 32.2998 1231.39 32.4994C1230.85 32.699 1230.28 32.8018 1229.69 32.8018C1229.11 32.8018 1228.54 32.699 1228 32.4994C1227.46 32.2998 1226.97 32.0073 1226.56 31.6389C1226.16 31.2706 1225.83 30.8336 1225.61 30.3534C1225.4 29.8732 1225.29 29.3593 1225.29 28.8414Z" fill="black"/>
<path d="M1253.28 26.0441C1256.53 26.0441 1258.15 27.0472 1258.15 29.0532C1258.15 29.9777 1257.73 30.7172 1256.89 31.2719C1256.06 31.8266 1254.71 32.1039 1252.84 32.1039C1250.94 32.1039 1249.57 31.8266 1248.75 31.2719C1247.94 30.7172 1247.53 29.9314 1247.53 28.9145V28.5401H1248.96V28.8868C1248.96 29.5432 1249.25 30.0516 1249.83 30.4122C1250.42 30.7727 1251.43 30.953 1252.84 30.953C1255.43 30.953 1256.72 30.3012 1256.72 28.9977C1256.72 27.7035 1255.46 27.0564 1252.94 27.0564H1250.98V26.1273L1256.21 23.1598V22.9796C1255.45 23.2477 1254.65 23.3817 1253.8 23.3817H1247.95V22.2308H1257.74V23.3817L1252.98 26.0441H1253.28ZM1265.07 32.1039C1263.28 32.1039 1261.97 31.8219 1261.14 31.258C1260.32 30.6941 1259.91 29.9546 1259.91 29.0393V28.8868H1261.34V28.9977C1261.34 29.5802 1261.63 30.0516 1262.21 30.4122C1262.8 30.7727 1263.76 30.953 1265.08 30.953C1266.38 30.953 1267.33 30.7542 1267.92 30.3567C1268.52 29.9592 1268.83 29.4322 1268.83 28.7759C1268.83 28.1195 1268.52 27.5926 1267.92 27.1951C1267.33 26.7976 1266.38 26.5988 1265.05 26.5988C1263.87 26.5988 1262.99 26.7328 1262.4 27.0009C1261.83 27.269 1261.44 27.5741 1261.24 27.9161H1259.81L1260.48 22.2308H1269.98V23.3817H1261.57L1261.12 26.9732H1261.3C1261.95 26.0025 1263.35 25.5172 1265.48 25.5172C1267.13 25.5172 1268.34 25.8084 1269.1 26.3908C1269.87 26.964 1270.25 27.7682 1270.25 28.8036C1270.25 29.8298 1269.84 30.6386 1269.02 31.2303C1268.2 31.8127 1266.88 32.1039 1265.07 32.1039ZM1274.35 27.0009C1273.8 27.0009 1273.32 26.8946 1272.92 26.682C1272.51 26.4694 1272.2 26.1782 1271.98 25.8084C1271.75 25.4294 1271.64 25.0041 1271.64 24.5327C1271.64 24.0612 1271.75 23.6406 1271.98 23.2708C1272.2 22.8918 1272.51 22.5959 1272.92 22.3833C1273.32 22.1707 1273.8 22.0644 1274.35 22.0644C1274.89 22.0644 1275.37 22.1707 1275.77 22.3833C1276.18 22.5959 1276.5 22.8918 1276.72 23.2708C1276.94 23.6406 1277.05 24.0612 1277.05 24.5327C1277.05 25.0041 1276.94 25.4294 1276.72 25.8084C1276.5 26.1782 1276.18 26.4694 1275.77 26.682C1275.37 26.8946 1274.89 27.0009 1274.35 27.0009ZM1274.42 31.9375H1273.17L1280.38 22.2308H1281.63L1274.42 31.9375ZM1274.35 26.1412C1274.88 26.1412 1275.31 25.9887 1275.64 25.6836C1275.96 25.3785 1276.12 24.9949 1276.12 24.5327C1276.12 24.0704 1275.96 23.6868 1275.64 23.3817C1275.31 23.0766 1274.88 22.9241 1274.35 22.9241C1273.81 22.9241 1273.38 23.0766 1273.06 23.3817C1272.73 23.6868 1272.57 24.0704 1272.57 24.5327C1272.57 24.9949 1272.73 25.3785 1273.06 25.6836C1273.38 25.9887 1273.81 26.1412 1274.35 26.1412ZM1280.45 32.1039C1279.9 32.1039 1279.43 31.9976 1279.02 31.785C1278.61 31.5723 1278.3 31.2811 1278.08 30.9114C1277.85 30.5323 1277.74 30.1071 1277.74 29.6356C1277.74 29.1642 1277.85 28.7435 1278.08 28.3737C1278.3 27.9947 1278.61 27.6989 1279.02 27.4863C1279.43 27.2737 1279.9 27.1673 1280.45 27.1673C1280.99 27.1673 1281.47 27.2737 1281.88 27.4863C1282.28 27.6989 1282.6 27.9947 1282.82 28.3737C1283.04 28.7435 1283.15 29.1642 1283.15 29.6356C1283.15 30.1071 1283.04 30.5323 1282.82 30.9114C1282.6 31.2811 1282.28 31.5723 1281.88 31.785C1281.47 31.9976 1280.99 32.1039 1280.45 32.1039ZM1280.45 31.2442C1280.98 31.2442 1281.41 31.0916 1281.74 30.7866C1282.06 30.4815 1282.22 30.0978 1282.22 29.6356C1282.22 29.1734 1282.06 28.7897 1281.74 28.4847C1281.41 28.1796 1280.98 28.0271 1280.45 28.0271C1279.91 28.0271 1279.48 28.1796 1279.16 28.4847C1278.83 28.7897 1278.67 29.1734 1278.67 29.6356C1278.67 30.0978 1278.83 30.4815 1279.16 30.7866C1279.48 31.0916 1279.91 31.2442 1280.45 31.2442Z" fill="black"/>
<path d="M1321.41 33.231C1319.93 33.231 1318.81 32.956 1318.07 32.4059C1317.33 31.8457 1316.97 31.1124 1316.97 30.2058C1316.97 29.4724 1317.19 28.8613 1317.64 28.3724C1318.1 27.8733 1318.65 27.5677 1319.3 27.4557V27.2112H1316.07V25.4694H1318.08C1318.4 25.4694 1318.62 25.4032 1318.75 25.2708C1318.89 25.1384 1318.95 24.9143 1318.95 24.5985V23.4374H1320.92V25.393H1325.32V27.2112H1320.51C1320.12 27.3945 1319.82 27.6543 1319.61 27.9904C1319.4 28.3164 1319.29 28.7391 1319.29 29.2585C1319.29 30.5623 1320 31.2142 1321.41 31.2142C1322.14 31.2142 1322.68 31.0716 1323.03 30.7864C1323.39 30.5012 1323.57 30.1091 1323.57 29.6099V29.4266H1325.97V29.6558C1325.97 30.7762 1325.59 31.6522 1324.84 32.2837C1324.08 32.9152 1322.94 33.231 1321.41 33.231Z" fill="black"/>
<path d="M1330.15 27.4557C1329.55 27.4557 1329.03 27.3436 1328.58 27.1195C1328.13 26.8852 1327.79 26.5695 1327.54 26.1722C1327.3 25.7648 1327.17 25.3065 1327.17 24.7972C1327.17 24.2879 1327.3 23.8346 1327.54 23.4374C1327.79 23.0299 1328.13 22.7142 1328.58 22.4901C1329.03 22.2558 1329.55 22.1387 1330.15 22.1387C1330.75 22.1387 1331.28 22.2558 1331.73 22.4901C1332.18 22.7142 1332.52 23.0299 1332.77 23.4374C1333.01 23.8346 1333.13 24.2879 1333.13 24.7972C1333.13 25.3065 1333.01 25.7648 1332.77 26.1722C1332.52 26.5695 1332.18 26.8852 1331.73 27.1195C1331.28 27.3436 1330.75 27.4557 1330.15 27.4557ZM1330.15 26.0195C1330.56 26.0195 1330.89 25.9074 1331.13 25.6833C1331.39 25.4491 1331.51 25.1537 1331.51 24.7972C1331.51 24.4407 1331.39 24.1504 1331.13 23.9263C1330.89 23.692 1330.56 23.5749 1330.15 23.5749C1329.75 23.5749 1329.42 23.692 1329.18 23.9263C1328.93 24.1504 1328.81 24.4407 1328.81 24.7972C1328.81 25.1537 1328.93 25.4491 1329.18 25.6833C1329.42 25.9074 1329.75 26.0195 1330.15 26.0195Z" fill="black"/>
<path d="M1346.39 30.1626H1345.26V27.6111H1342.57V26.5433H1345.26V23.9919H1346.39V26.5433H1349.08V27.6111H1346.39V30.1626ZM1356.47 30.7172H1360.01V31.9375H1351.02V30.7172H1355.04V26.5156C1355.04 26.0904 1355.07 25.7067 1355.14 25.3647C1355.2 25.0134 1355.32 24.5234 1355.5 23.8948H1355.32C1355.03 24.8377 1354.64 25.5172 1354.13 25.9332C1353.62 26.3492 1352.88 26.5572 1351.92 26.5572H1351.58V25.3369H1352.12C1353.12 25.3369 1353.87 25.0919 1354.36 24.602C1354.86 24.1028 1355.11 23.3494 1355.11 22.3417V22.2308H1356.47V30.7172ZM1368.64 27.0148C1369.5 27.0333 1370.2 27.2552 1370.73 27.6804C1371.28 28.0964 1371.55 28.6603 1371.55 29.3722C1371.55 30.2319 1371.15 30.9021 1370.33 31.3828C1369.53 31.8635 1368.14 32.1039 1366.16 32.1039C1364.18 32.1039 1362.78 31.8635 1361.97 31.3828C1361.17 30.9021 1360.76 30.2319 1360.76 29.3722C1360.76 28.6603 1361.03 28.0964 1361.57 27.6804C1362.11 27.2552 1362.82 27.0333 1363.68 27.0148V26.8345C1362.88 26.8068 1362.24 26.5942 1361.76 26.1967C1361.28 25.7899 1361.04 25.263 1361.04 24.6159C1361.04 22.9149 1362.75 22.0644 1366.16 22.0644C1369.57 22.0644 1371.28 22.9149 1371.28 24.6159C1371.28 25.263 1371.03 25.7899 1370.55 26.1967C1370.07 26.5942 1369.44 26.8068 1368.64 26.8345V27.0148ZM1362.47 24.8516C1362.47 25.3508 1362.74 25.7483 1363.29 26.0441C1363.83 26.3307 1364.79 26.474 1366.16 26.474C1367.53 26.474 1368.48 26.3307 1369.03 26.0441C1369.57 25.7483 1369.85 25.3508 1369.85 24.8516C1369.85 24.3431 1369.57 23.9456 1369.03 23.6591C1368.48 23.3632 1367.53 23.2153 1366.16 23.2153C1364.79 23.2153 1363.83 23.3632 1363.29 23.6591C1362.74 23.9456 1362.47 24.3431 1362.47 24.8516ZM1366.16 30.953C1367.64 30.953 1368.67 30.8004 1369.25 30.4954C1369.83 30.181 1370.12 29.7558 1370.12 29.2196C1370.12 28.6834 1369.83 28.2628 1369.25 27.9577C1368.67 27.6434 1367.64 27.4863 1366.16 27.4863C1364.68 27.4863 1363.65 27.6434 1363.07 27.9577C1362.48 28.2628 1362.19 28.6834 1362.19 29.2196C1362.19 29.7558 1362.48 30.181 1363.07 30.4954C1363.65 30.8004 1364.68 30.953 1366.16 30.953Z" fill="black"/>
</svg>
