<svg width="64" height="64" viewBox="0 0 64 64" fill="none" xmlns="http://www.w3.org/2000/svg">
<g clip-path="url(#clip0_4879_59214)">
<path d="M32 0C14.3262 0 0 14.3262 0 32C0 49.6738 14.3262 64 32 64C49.6738 64 64 49.6707 64 32C64 14.3293 49.6707 0 32 0Z" fill="#E2C189"/>
<path d="M45.6294 21.6875H18.5619C18.3125 21.6875 18.1104 21.8897 18.1104 22.1391V49.2066C18.1104 49.456 18.3125 49.6581 18.5619 49.6581H45.6294C45.8788 49.6581 46.081 49.456 46.081 49.2066V22.1391C46.081 21.8897 45.8788 21.6875 45.6294 21.6875Z" fill="#1B2D50"/>
<path d="M46.081 33.2753H33.8063V22.2378C39.0488 21.5786 42.4671 17.7509 42.4671 14.1535C42.4793 13.5225 42.3608 12.8957 42.1191 12.3127C41.8774 11.7296 41.5178 11.2028 41.0627 10.7654C40.411 10.1543 39.2204 9.42578 37.2501 9.42578C35.3205 9.42578 33.6739 10.1362 32.4863 11.4818C32.3538 11.6324 32.2304 11.7919 32.1115 11.9545C31.9941 11.7919 31.8707 11.6339 31.7367 11.4818C30.5551 10.1362 28.8994 9.42578 26.9743 9.42578C25.004 9.42578 23.8135 10.1543 23.1617 10.7654C22.707 11.2021 22.3476 11.7281 22.1059 12.3104C21.8642 12.8927 21.7456 13.5187 21.7574 14.149C21.7574 16.1057 22.811 18.1829 24.5811 19.7182C26.0953 21.0367 28.043 21.8886 30.1939 22.1972V33.2662H18.1104V36.8787H30.1939V49.6501H33.8063V36.8877H46.081V33.2753ZM35.1971 13.8706C35.6983 13.3031 36.35 13.0382 37.2501 13.0382C37.8658 13.0382 38.3414 13.1661 38.5913 13.3994C38.6848 13.4999 38.7564 13.6186 38.8018 13.7481C38.8471 13.8777 38.8651 14.0152 38.8547 14.152C38.8547 14.8294 38.4392 15.9838 37.2697 17.0013C36.315 17.8152 35.1586 18.357 33.9222 18.5697C33.9222 18.5411 33.9222 18.5125 33.9222 18.4839C33.9583 16.9426 34.2368 14.9603 35.1971 13.8706ZM25.3698 14.149C25.3593 14.0122 25.3774 13.8747 25.4227 13.7451C25.468 13.6156 25.5397 13.4969 25.6332 13.3964C25.8816 13.1631 26.3587 13.0352 26.9743 13.0352C27.8774 13.0352 28.5231 13.2986 29.0229 13.8645C29.6957 14.6171 30.1231 15.9326 30.2601 17.6485C30.2842 17.9601 30.2962 18.2506 30.3023 18.5366C30.3015 18.5456 30.3015 18.5547 30.3023 18.5637C27.0165 17.9345 25.3698 15.5654 25.3698 14.149Z" fill="#F18D3F"/>
</g>
<defs>
<clipPath id="clip0_4879_59214">
<rect width="64" height="64" fill="white"/>
</clipPath>
</defs>
</svg>
