<svg width="16" height="16" fill="none" xmlns="http://www.w3.org/2000/svg"><path d="M8 11.636a3.636 3.636 0 1 0 0-7.272 3.636 3.636 0 0 0 0 7.272Z" fill="#000"/><path fill-rule="evenodd" clip-rule="evenodd" d="M8 .25a.75.75 0 0 1 .75.75v2.002a.75.75 0 1 1-1.5 0V1A.75.75 0 0 1 8 .25ZM2.47 2.47a.75.75 0 0 1 1.06 0l1 1a.75.75 0 0 1-1.06 1.06l-1-1a.75.75 0 0 1 0-1.06Zm11.06 0a.75.75 0 0 1 0 1.06l-1 1a.75.75 0 1 1-1.06-1.06l1-1a.75.75 0 0 1 1.06 0ZM.25 8A.75.75 0 0 1 1 7.25h2.002a.75.75 0 0 1 0 1.5H1A.75.75 0 0 1 .25 8Zm11.998 0a.75.75 0 0 1 .75-.75H15a.75.75 0 0 1 0 1.5h-2.002a.75.75 0 0 1-.75-.75ZM4.53 11.47a.75.75 0 0 1 0 1.06l-1 1a.75.75 0 0 1-1.06-1.06l1-1a.75.75 0 0 1 1.06 0Zm6.94 0a.75.75 0 0 1 1.06 0l1 1a.75.75 0 1 1-1.06 1.06l-1-1a.75.75 0 0 1 0-1.06ZM8 12.249a.75.75 0 0 1 .75.75v2.002a.75.75 0 0 1-1.5 0v-2.002a.75.75 0 0 1 .75-.75Z" fill="#000"/></svg>