<svg width="24" height="24" viewBox="0 0 24 24" fill="none" xmlns="http://www.w3.org/2000/svg">
<path fill-rule="evenodd" clip-rule="evenodd" d="M6 1.25C6.41421 1.25 6.75 1.58579 6.75 2V4C6.75 4.41421 6.41421 4.75 6 4.75C5.58579 4.75 5.25 4.41421 5.25 4V2C5.25 1.58579 5.58579 1.25 6 1.25ZM18 1.25C18.4142 1.25 18.75 1.58579 18.75 2V4C18.75 4.41421 18.4142 4.75 18 4.75C17.5858 4.75 17.25 4.41421 17.25 4V2C17.25 1.58579 17.5858 1.25 18 1.25Z" fill="#A9AFBC"/>
<path fill-rule="evenodd" clip-rule="evenodd" d="M10.9892 2.25H13.0108C14.9745 2.24998 16.5307 2.24997 17.7487 2.427C19.0072 2.60993 20.0129 2.99506 20.7985 3.84436C21.5306 4.6359 21.88 5.62381 22.0567 6.84769C22.2309 8.05471 22.2477 9.57921 22.2497 11.4992V13C22.2497 13.4142 21.914 13.75 21.4997 13.75C21.0855 13.75 20.7497 13.4142 20.7497 13V11.5008C20.7477 9.55443 20.7281 8.14294 20.572 7.06197C20.4185 5.99786 20.1439 5.34577 19.6973 4.86292C19.2308 4.35858 18.6027 4.06689 17.533 3.91141C16.4352 3.75186 14.9881 3.75 12.95 3.75H11.05C9.01188 3.75 7.56476 3.75186 6.46704 3.91141C5.39728 4.06689 4.76921 4.35858 4.30269 4.86292C3.82849 5.37558 3.54821 6.07915 3.40078 7.26463C3.25137 8.46607 3.25 10.0449 3.25 12.2432V12.7568C3.25 14.9551 3.25137 16.5339 3.40078 17.7354C3.54821 18.9209 3.82849 19.6244 4.30269 20.1371C4.76921 20.6414 5.39728 20.9331 6.46704 21.0886C7.56476 21.2481 9.01188 21.25 11.05 21.25C11.4642 21.25 11.8 21.5858 11.8 22C11.8 22.4142 11.4642 22.75 11.05 22.75H10.9892C9.02555 22.75 7.46932 22.75 6.25129 22.573C4.99276 22.3901 3.98714 22.0049 3.20154 21.1556C2.42363 20.3147 2.07785 19.2521 1.91225 17.9205C1.74998 16.6157 1.74999 14.9435 1.75 12.81V12.19C1.74999 10.0565 1.74998 8.38431 1.91225 7.07951C2.07785 5.74792 2.42363 4.68535 3.20154 3.84436C3.98714 2.99506 4.99276 2.60993 6.25129 2.427C7.46932 2.24997 9.02555 2.24998 10.9892 2.25Z" fill="#A9AFBC"/>
<path fill-rule="evenodd" clip-rule="evenodd" d="M16.0378 14.4773C16.3265 14.7743 16.3198 15.2491 16.0227 15.5378C15.8612 15.6949 15.604 15.8971 15.3593 16.0893C15.3404 16.1042 15.3214 16.1191 15.3023 16.1341C15.0566 16.327 14.7939 16.5333 14.5452 16.7439C14.5428 16.746 14.5405 16.748 14.5381 16.75L21 16.75C21.4142 16.75 21.75 17.0858 21.75 17.5C21.75 17.9142 21.4142 18.25 21 18.25H14.5381C14.5405 18.252 14.5428 18.254 14.5452 18.2561C14.7939 18.4667 15.0566 18.673 15.3024 18.866C15.3214 18.8809 15.3404 18.8958 15.3593 18.9107C15.604 19.1029 15.8612 19.3051 16.0227 19.4622C16.3198 19.7509 16.3265 20.2257 16.0378 20.5227C15.7491 20.8198 15.2743 20.8265 14.9773 20.5378C14.886 20.4491 14.7042 20.3035 14.4328 20.0903C14.4131 20.0749 14.3931 20.0592 14.3729 20.0433C14.1307 19.8532 13.8466 19.6302 13.5755 19.4005C13.285 19.1543 12.9832 18.8787 12.7485 18.6032C12.631 18.4652 12.515 18.3096 12.4254 18.1422C12.339 17.9807 12.25 17.7583 12.25 17.5C12.25 17.2417 12.339 17.0193 12.4254 16.8578C12.515 16.6904 12.631 16.5348 12.7485 16.3968C12.9832 16.1213 13.285 15.8457 13.5755 15.5995C13.8466 15.3698 14.1307 15.1468 14.3728 14.9568C14.3931 14.9408 14.4131 14.9251 14.4328 14.9097C14.7042 14.6965 14.886 14.5509 14.9773 14.4622C15.2743 14.1735 15.7491 14.1802 16.0378 14.4773Z" fill="#A9AFBC"/>
<path fill-rule="evenodd" clip-rule="evenodd" d="M2.25 8C2.25 7.58579 2.58579 7.25 3 7.25H21C21.4142 7.25 21.75 7.58579 21.75 8C21.75 8.41421 21.4142 8.75 21 8.75H3C2.58579 8.75 2.25 8.41421 2.25 8Z" fill="#A9AFBC"/>
</svg>
