<svg width="16" height="16" fill="none" xmlns="http://www.w3.org/2000/svg"><path d="M14.667 5.079V3.104c0-.475-.171-.93-.476-1.265a1.553 1.553 0 0 0-1.147-.524H11.1v-.95a.385.385 0 0 0-.097-.258.317.317 0 0 0-.235-.107.317.317 0 0 0-.234.107.385.385 0 0 0-.098.258v.95H5.514v-.95a.385.385 0 0 0-.097-.258A.317.317 0 0 0 5.182 0a.317.317 0 0 0-.234.107.385.385 0 0 0-.097.259v.949H2.96c-.43 0-.843.19-1.147.525-.305.335-.476.79-.476 1.264v1.933a.348.348 0 0 0 0 .085v9.089c0 .474.171.929.476 1.264.304.335.717.524 1.147.525h10.083c.213 0 .425-.046.622-.136.197-.09.376-.222.527-.388.15-.166.27-.363.352-.58.081-.217.123-.45.123-.685V5.078ZM2.96 2.046h1.89v.804c0 .097.035.19.098.258a.317.317 0 0 0 .234.107.317.317 0 0 0 .235-.107.385.385 0 0 0 .097-.258v-.804h4.923v.804c0 .097.035.19.097.258a.317.317 0 0 0 .235.107.317.317 0 0 0 .234-.107.385.385 0 0 0 .097-.258v-.804h1.943a.92.92 0 0 1 .678.31c.18.199.282.467.283.748v1.611H2V3.104c0-.28.102-.55.282-.747a.92.92 0 0 1 .678-.31Zm10.083 13.222H2.96a.92.92 0 0 1-.678-.311A1.118 1.118 0 0 1 2 14.21V5.445h12.004v8.766c0 .28-.103.549-.283.747a.92.92 0 0 1-.678.31Z" fill="#000"/></svg>