<svg xmlns="http://www.w3.org/2000/svg" style="width: 0; height: 0; overflow: hidden; position: absolute; visibility: hidden;">

	<symbol id="heart" viewBox="0 0 10 8">
		<path d="M9 2.7c0-.5-.1-.9-.4-1.3C8.4 1 8 .7 7.5.5 7.1.4 6.6.4 6.2.5c-.5.1-.9.3-1.2.7C4.6.7 4 .5 3.4.4S2.3.6 1.8.9c-.5.4-.8 1-.8 1.6s.1 1.2.5 1.7C2 5 5.1 7.7 5.1 7.7s3-2.7 3.6-3.5c.2-.5.3-1 .3-1.5z"/>
	</symbol>

	<symbol id="person" viewBox="0 0 16 16">
		<circle cx="8" cy="8" r="8"/>
		<path d="M8 7.42994C8.52748 7.42973 9.03858 7.24667 9.44627 6.91194C9.85396 6.5772 10.133 6.1115 10.2359 5.59411C10.3389 5.07673 10.2593 4.53966 10.0108 4.07436C9.76222 3.60906 9.3601 3.2443 8.87286 3.0422C8.38563 2.84009 7.84341 2.81314 7.33854 2.96592C6.83366 3.11871 6.39735 3.44178 6.1039 3.88014C5.81045 4.31849 5.678 4.84502 5.72911 5.37006C5.78022 5.8951 6.01173 6.38619 6.38421 6.75971C6.59618 6.97227 6.84803 7.1409 7.1253 7.25591C7.40257 7.37092 7.69982 7.43006 8 7.42994Z" fill="#FBEED7"/>
		<path d="M8 8.00016C5.75439 8.00016 4 9.13008 4 10.5776C3.99977 10.7652 4.03655 10.951 4.10824 11.1244C4.17992 11.2978 4.2851 11.4553 4.41776 11.588C4.55041 11.7206 4.70793 11.8258 4.8813 11.8975C5.05467 11.9692 5.24047 12.006 5.42807 12.0058H10.5719C10.9507 12.0058 11.3139 11.8553 11.5817 11.5875C11.8495 11.3196 12 10.9563 12 10.5776C12 9.13535 10.2456 8.00543 8 8.00543V8.00016Z" fill="#FBEED7"/>
	</symbol>

	<symbol id="message" viewBox="0 0 24 24">
		<path d="M12 0C5.37234 0 0 5.37234 0 12C0 18.6277 5.37234 24 12 24C18.6277 24 24 18.6265 24 12C24 5.37347 18.6265 0 12 0Z"/>
		<path d="M12 6C7.85764 6 4.5 8.7652 4.5 12.1761C4.5 13.6261 5.10717 14.9587 6.12281 16.0129L5.25037 19.5L8.85743 17.7848C9.862 18.1629 10.9268 18.3549 12 18.3516C16.1418 18.3516 19.5 15.5869 19.5 12.1761C19.5 8.7652 16.1429 6 12 6ZM8.26559 13.4091C8.08016 13.4093 7.89886 13.3543 7.74463 13.2512C7.5904 13.1481 7.47017 13.0015 7.39914 12.83C7.3281 12.6584 7.30946 12.4696 7.34557 12.2875C7.38169 12.1053 7.47093 11.938 7.60201 11.8066C7.73309 11.6753 7.90012 11.5858 8.08198 11.5495C8.26384 11.5133 8.45235 11.5318 8.62368 11.6029C8.795 11.6739 8.94144 11.7943 9.04447 11.9487C9.1475 12.1031 9.20249 12.2846 9.20249 12.4703C9.20208 12.7189 9.1032 12.9572 8.92755 13.133C8.75191 13.3087 8.51385 13.4074 8.26559 13.4076V13.4091ZM12.0053 13.4091C11.8199 13.4093 11.6386 13.3543 11.4843 13.2512C11.3301 13.1481 11.2099 13.0015 11.1388 12.83C11.0678 12.6584 11.0492 12.4696 11.0853 12.2875C11.1214 12.1053 11.2106 11.938 11.3417 11.8066C11.4728 11.6753 11.6398 11.5858 11.8217 11.5495C12.0035 11.5133 12.192 11.5318 12.3634 11.6029C12.5347 11.6739 12.6811 11.7943 12.7842 11.9487C12.8872 12.1031 12.9422 12.2846 12.9422 12.4703C12.9418 12.7189 12.8429 12.9572 12.6672 13.133C12.4916 13.3087 12.2535 13.4074 12.0053 13.4076V13.4091ZM15.7445 13.4091C15.559 13.4091 15.3778 13.3541 15.2236 13.2509C15.0695 13.1478 14.9493 13.0011 14.8784 12.8296C14.8074 12.658 14.7889 12.4693 14.825 12.2871C14.8612 12.105 14.9505 11.9377 15.0816 11.8064C15.2127 11.6751 15.3797 11.5857 15.5616 11.5495C15.7434 11.5133 15.9319 11.5319 16.1032 11.6029C16.2745 11.674 16.4209 11.7943 16.5239 11.9487C16.6269 12.1031 16.6819 12.2846 16.6819 12.4703C16.6816 12.7191 16.5827 12.9575 16.4069 13.1333C16.2311 13.3091 15.9928 13.4077 15.7445 13.4076V13.4091Z" fill="#FBEED7"/>
	</symbol>

	<symbol id="telegram" viewBox="0 0 16 16">
		<path d="M14.6355 0.140722C14.6355 0.140722 16.1144 -0.550065 15.9929 1.12937C15.9507 1.8265 15.5809 4.24742 15.3168 6.87115L14.308 14.6346C14.308 14.6346 14.2235 15.7753 13.484 15.9718C12.7446 16.1683 11.6354 15.281 11.4294 15.0782C11.2234 14.8754 8.34481 12.708 7.31485 11.6179C7.20695 11.5281 7.11951 11.4073 7.0605 11.2665C7.00148 11.1257 6.97276 10.9695 6.97696 10.812C6.98116 10.6545 7.01815 10.5007 7.08455 10.3648C7.15094 10.2288 7.24464 10.1149 7.3571 10.0336L11.6776 5.0713C12.1689 4.47557 12.6601 3.094 10.6213 4.77344L4.84823 9.50755C4.55221 9.66866 4.23207 9.75621 3.9071 9.76493C3.58214 9.77364 3.25906 9.70333 2.95734 9.55825L0.284726 8.55059C0.284726 8.55059 -0.697695 7.8091 0.98721 7.06761C5.09648 4.74175 10.1565 2.37152 14.6355 0.140722Z"/>
	</symbol>

	<symbol id="instagram" viewBox="0 0 16 16">
		<path d="M8.00322 11.1094C9.7198 11.1094 11.1114 9.71724 11.1114 7.99999C11.1114 6.28273 9.7198 4.89062 8.00322 4.89062C6.28665 4.89062 4.89509 6.28273 4.89509 7.99999C4.89509 9.71724 6.28665 11.1094 8.00322 11.1094Z"/>
		<path d="M11.4133 0H4.593C3.37595 -1.14236e-06 2.20866 0.483229 1.34748 1.34356C0.486312 2.20389 0.0016715 3.37099 4.30973e-06 4.58851V11.3989C-0.000822663 12.0028 0.117371 12.601 0.34782 13.1592C0.578269 13.7174 0.916454 14.2247 1.34304 14.652C1.76962 15.0793 2.27623 15.4183 2.83388 15.6496C3.39154 15.8809 3.98931 16 4.593 16H11.4133C12.0167 16 12.6141 15.8809 13.1715 15.6495C13.7288 15.4181 14.2349 15.079 14.661 14.6516C15.0871 14.2242 15.4247 13.7169 15.6545 13.1587C15.8842 12.6006 16.0016 12.0025 16 11.3989V4.58851C16 3.37156 15.5167 2.20446 14.6566 1.34394C13.7964 0.483431 12.6297 0 11.4133 0ZM8.00314 12.2927C7.15446 12.2927 6.32485 12.0409 5.6192 11.5692C4.91355 11.0975 4.36356 10.4271 4.03878 9.64274C3.71401 8.85835 3.62903 7.99524 3.7946 7.16254C3.96017 6.32984 4.36885 5.56496 4.96896 4.96461C5.56906 4.36427 6.33364 3.95543 7.16601 3.7898C7.99838 3.62417 8.86115 3.70918 9.64523 4.03408C10.4293 4.35898 11.0995 4.90919 11.571 5.61511C12.0425 6.32104 12.2941 7.15099 12.2941 8C12.2925 9.13798 11.8398 10.2289 11.0355 11.0335C10.2311 11.8382 9.14067 12.291 8.00314 12.2927ZM12.5584 4.34933C12.3705 4.34933 12.1868 4.29359 12.0306 4.18915C11.8743 4.08472 11.7526 3.93628 11.6806 3.76261C11.6087 3.58894 11.5899 3.39784 11.6266 3.21348C11.6632 3.02911 11.7537 2.85976 11.8866 2.72684C12.0195 2.59392 12.1887 2.5034 12.373 2.46673C12.5573 2.43006 12.7484 2.44888 12.922 2.52081C13.0956 2.59275 13.2439 2.71457 13.3483 2.87087C13.4527 3.02716 13.5084 3.21092 13.5084 3.3989C13.5084 3.65097 13.4083 3.89272 13.2302 4.07096C13.052 4.2492 12.8104 4.34933 12.5584 4.34933Z"/>
	</symbol>

	<symbol id="whatsapp" viewBox="0 0 16 16">
		<path d="M8.00871 0C6.61031 0.000798054 5.23646 0.367017 4.02374 1.06226C2.81102 1.7575 1.80165 2.75755 1.09598 3.963C0.390313 5.16845 0.0129115 6.53732 0.00129281 7.93353C-0.0103259 9.32975 0.344243 10.7047 1.02976 11.9217L0.0126669 15.5517C-0.00363118 15.6102 -0.00421168 15.6719 0.0109838 15.7307C0.0261792 15.7895 0.0566146 15.8433 0.0992276 15.8866C0.131088 15.9206 0.169617 15.9478 0.212426 15.9664C0.255234 15.985 0.30141 15.9946 0.34809 15.9946H0.42924L4.21627 15.0547C5.28918 15.6278 6.47879 15.9492 7.69472 15.9944C8.91066 16.0397 10.1209 15.8077 11.2336 15.316C12.3463 14.8243 13.3321 14.0859 14.1162 13.1568C14.9002 12.2277 15.4619 11.1325 15.7585 9.9542C16.0551 8.77593 16.0788 7.54566 15.8279 6.35685C15.577 5.16805 15.058 4.05197 14.3104 3.09342C13.5628 2.13487 12.6063 1.35905 11.5134 0.824906C10.4205 0.290763 9.22008 0.0123448 8.0033 0.0108017L8.00871 0ZM12.0392 10.8035C11.884 11.0488 11.6809 11.2603 11.442 11.4255C11.2031 11.5907 10.9334 11.7062 10.6488 11.765C10.2222 11.8432 9.78318 11.821 9.36663 11.7002C8.96744 11.5805 8.57547 11.4381 8.19265 11.2735C6.77575 10.5743 5.56566 9.51873 4.68154 8.21067C4.19764 7.61094 3.90213 6.88175 3.83216 6.11479C3.8274 5.79845 3.88895 5.48462 4.01287 5.19344C4.13678 4.90227 4.32032 4.64019 4.55169 4.42404C4.62011 4.34753 4.70329 4.2856 4.79625 4.24198C4.88922 4.19835 4.99005 4.17392 5.0927 4.17015H5.48763C5.61206 4.17015 5.78518 4.12154 5.94749 4.51587C6.10979 4.91019 6.53177 5.92032 6.58046 6.02296C6.61029 6.07765 6.62592 6.13894 6.62592 6.20122C6.62592 6.26349 6.61029 6.32478 6.58046 6.37947C6.52767 6.50001 6.4585 6.61271 6.37488 6.71439C6.27209 6.83322 6.15848 6.97907 6.06651 7.0709C5.97454 7.16273 5.85552 7.28157 5.97454 7.48683C6.28967 8.0216 6.68361 8.50598 7.14311 8.9237C7.64455 9.3436 8.21338 9.67597 8.82563 9.90682C9.03121 10.0095 9.15023 9.98785 9.26925 9.85281C9.38828 9.71776 9.78321 9.26401 9.92387 9.05875C10.0645 8.85348 10.1944 8.89129 10.3837 8.95611C10.5731 9.02093 11.5848 9.49629 11.7903 9.61513C11.9959 9.73396 12.1312 9.77178 12.1853 9.85281C12.2302 10.1824 12.1795 10.518 12.0392 10.8197V10.8035Z"/>
	</symbol>

	<symbol id="vk" viewBox="0 0 22 12">
		<path d="M21.5191 0.798552C21.286 1.46708 20.9484 2.10127 20.5166 2.68142C20.1046 3.30904 19.6171 4.0308 19.0472 4.85298C18.5528 5.48061 18.2988 5.83835 18.2645 5.86345C18.1351 6.01209 18.0521 6.1899 18.0241 6.3781C18.0436 6.54988 18.1287 6.70988 18.2645 6.82999L18.6352 7.20656C20.599 9.05177 21.7045 10.3237 21.9517 11.0225C21.986 11.1046 22.0023 11.192 21.9997 11.2798C22.0004 11.437 21.9476 11.5905 21.8487 11.7192C21.7673 11.7994 21.6684 11.8632 21.5584 11.9064C21.4485 11.9497 21.3298 11.9714 21.2101 11.9702H18.697C18.3999 11.9695 18.1118 11.8766 17.8799 11.7066C17.5604 11.4689 17.2662 11.2041 17.001 10.9158C16.5822 10.4765 16.2046 10.1124 15.875 9.81119C14.7832 8.86348 13.9799 8.38649 13.458 8.38649H13.3962C13.2499 8.38721 13.1069 8.42643 12.9842 8.49946C12.8819 8.61238 12.826 8.75449 12.8263 8.90114C12.8263 8.90114 12.8263 8.9639 12.8263 8.989C12.8263 9.25261 12.792 9.56014 12.792 9.86767V11.1229C12.7987 11.1666 12.7987 11.211 12.792 11.2547C12.7921 11.3512 12.7694 11.4465 12.7256 11.5342C12.6817 11.6219 12.6177 11.7 12.5379 11.7631C12.1547 11.9164 11.7409 11.9955 11.3226 11.9953C11.2312 12.0016 11.1394 12.0016 11.0479 11.9953C9.65746 11.9756 8.29933 11.6088 7.12039 10.9346H7.15473C5.78792 10.1876 4.61621 9.17652 3.72156 7.97226V7.9346C2.88378 6.8704 2.1508 5.74045 1.5312 4.558L1.4694 4.43248C1.03932 3.66992 0.660961 2.88391 0.336454 2.0789L0.281522 1.92199C0.136355 1.51458 0.0419158 1.09351 0 0.666752C0 0.246246 0.274657 0.0391313 0.823963 0.0391313H3.30957C3.52839 0.0381381 3.74122 0.104454 3.91381 0.227415C4.09836 0.403282 4.23071 0.619315 4.29833 0.855036C4.69398 1.8995 5.18077 2.91323 5.75399 3.88645L5.651 3.77347C6.06515 4.54001 6.56444 5.26559 7.14099 5.93877C7.6285 6.4848 8.01301 6.76095 8.28767 6.76095C8.35289 6.76058 8.4169 6.74478 8.47345 6.71508C8.53001 6.68539 8.57718 6.64281 8.61039 6.59149C8.68364 6.41944 8.72091 6.23635 8.72025 6.05174C8.72025 6.01408 8.72025 5.97015 8.72025 5.93249V2.63748C8.70209 2.2672 8.60163 1.90417 8.425 1.57052C8.31694 1.35995 8.17837 1.16362 8.01302 0.986836C7.85864 0.849029 7.75948 0.667755 7.7315 0.472187C7.73258 0.403901 7.74969 0.336624 7.78168 0.274906C7.81366 0.213187 7.85977 0.158466 7.91689 0.114443C7.98503 0.0680192 8.06272 0.0346432 8.14531 0.01631C8.2279 -0.00202325 8.31368 -0.00493546 8.39753 0.00774835H12.2427C12.3278 0.00624503 12.4122 0.0224061 12.4895 0.0550191C12.5668 0.0876322 12.635 0.13585 12.689 0.196037C12.7842 0.36487 12.8336 0.552127 12.8332 0.742064V5.17934C12.8332 5.17934 12.8332 5.22328 12.8332 5.24838C12.8331 5.39888 12.8782 5.5465 12.9636 5.67517C12.9969 5.72072 13.0418 5.75823 13.0944 5.78446C13.147 5.81069 13.2058 5.82488 13.2658 5.82579C13.4205 5.81439 13.5695 5.76685 13.6983 5.68772C13.9526 5.53915 14.1836 5.35968 14.385 5.15424C14.9536 4.56947 15.4637 3.93933 15.9093 3.27138V3.21489C16.2252 2.73162 16.5959 2.14166 16.8775 1.53915L16.9324 1.41362L17.3238 0.635369C17.395 0.451235 17.5271 0.291906 17.7018 0.179454C17.8765 0.0670028 18.0851 0.00699546 18.2988 0.00774835H20.7569C21.4092 0.00774835 21.6564 0.277624 21.4916 0.82993L21.5191 0.798552Z"/>
	</symbol>

	<symbol id="arrow" viewBox="0 0 32 10">
		<path d="M25.7126 9.66667C25.7126 8.59259 25.9754 7.72222 26.5009 7.05556C27.0264 6.37654 27.7709 5.89506 28.7343 5.61111V5.40741C27.6958 5.54321 26.5447 5.61111 25.2809 5.61111H0V4.38889H25.2809C26.5447 4.38889 27.6958 4.45679 28.7343 4.59259V4.38889C27.7709 4.10494 27.0264 3.62963 26.5009 2.96296C25.9754 2.28395 25.7126 1.40741 25.7126 0.333332V0H26.895V0.259259C26.895 1.09876 27.0827 1.84568 27.4581 2.5C27.8334 3.14197 28.384 3.64815 29.1097 4.01852C29.8479 4.37654 30.7363 4.55556 31.7748 4.55556H32V5.44444H31.7748C30.7363 5.44444 29.8479 5.62963 29.1097 6C28.384 6.35803 27.8334 6.8642 27.4581 7.51852C27.0827 8.17284 26.895 8.91975 26.895 9.75926V10H25.7126V9.66667Z"/>
	</symbol>

	<symbol id="arrow-small" viewBox="0 0 16 16">
		<path d="M4.5 14.5c-.3-.3-.3-.8 0-1.1L9.9 8 4.5 2.5c-.3-.3-.3-.8 0-1.1s.8-.3 1.1 0l6 6c.3.3.3.8 0 1.1l-6 6c-.4.3-.8.3-1.1 0z"/>
	</symbol>

	<symbol id="cross" viewBox="0 0 18 18">
		<path d="M14.5 15.5 9 9.9l-5.5 5.6-1-1L8.1 9 2.5 3.5l1-1L9 8.1l5.5-5.6 1 1L9.9 9l5.6 5.5z"/>
	</symbol>

	<symbol id="filters" viewBox="0 0 16 16">
		<path d="M0 2.2h10v1.3H0zM13 2.2h3v1.3h-3zM6 7.2h10v1.3H6zM0 7.2h3v1.3H0zM0 12.2h8v1.3H0zM11 12.2h5v1.3h-5z"/>
		<path d="M4.5 10.5C3.1 10.5 2 9.4 2 8s1.1-2.5 2.5-2.5S7 6.6 7 8s-1.1 2.5-2.5 2.5zm0-3.7c-.7 0-1.2.5-1.2 1.2s.5 1.2 1.2 1.2S5.7 8.7 5.7 8s-.5-1.2-1.2-1.2zM9.5 15.5C8.1 15.5 7 14.4 7 13s1.1-2.5 2.5-2.5S12 11.6 12 13s-1.1 2.5-2.5 2.5zm0-3.7c-.7 0-1.2.5-1.2 1.2s.5 1.2 1.2 1.2 1.2-.5 1.2-1.2-.5-1.2-1.2-1.2zM11.5 5.5C10.1 5.5 9 4.4 9 3S10.1.5 11.5.5 14 1.6 14 3s-1.1 2.5-2.5 2.5zm0-3.7c-.7 0-1.2.5-1.2 1.2s.5 1.2 1.2 1.2 1.2-.5 1.2-1.2-.5-1.2-1.2-1.2z"/>
	</symbol>

	<symbol id="share" viewBox="0 0 16 16">
		<path class="st0" d="M12.5 11.8c-.7 0-1.2.5-1.2 1.2s.5 1.2 1.2 1.2 1.2-.5 1.2-1.2-.5-1.2-1.2-1.2zm0-1.3c-1.4 0-2.5 1.1-2.5 2.5s1.1 2.5 2.5 2.5S15 14.4 15 13s-1.1-2.5-2.5-2.5zM12.5 1.8c-.7 0-1.2.5-1.2 1.2s.5 1.2 1.2 1.2 1.2-.5 1.2-1.2-.5-1.2-1.2-1.2zm0-1.3C11.1.5 10 1.6 10 3s1.1 2.5 2.5 2.5S15 4.4 15 3 13.9.5 12.5.5zM3.5 6.8c-.7 0-1.2.5-1.2 1.2s.5 1.2 1.2 1.2S4.7 8.7 4.7 8s-.5-1.2-1.2-1.2zm0-1.3C2.1 5.5 1 6.6 1 8s1.1 2.5 2.5 2.5S6 9.4 6 8 4.9 5.5 3.5 5.5z"/>
		<path class="st0" d="M11.3 4.5 5 7.5l-.6-1.2 6.3-3 .6 1.2zM11 12.5l-6.3-3 .6-1.2 6.3 3-.6 1.2z"/>
	</symbol>

	<symbol id="like" viewBox="0 0 16 16">
		<path d="M15.7 7c-.2-.3-.5-.6-.8-.8-.4-.2-.7-.3-1.2-.3H9.9l.6-2.7c.1-.7-.1-1.4-.6-1.9-.1-.3-.4-.4-.7-.5H8.9c-.8-.2-1.5.2-1.7.8-.4 1.6-1.7 3.3-2.7 4.6-.1-.3-.2-.6-.5-.8s-.5-.3-.8-.3H1.4c-.4 0-.7.1-1 .4-.3.3-.4.6-.4 1v7.4c0 .4.1.7.4 1 .3.3.6.4 1 .4h1.8c.3 0 .6-.1.8-.3.2-.2.4-.4.5-.7.7.5 1.6.9 2.5.9h3.8c.8 0 1.9-.3 2.6-1.6.1-.2.7-1.3 1.4-2.6l.9-1.7c.2-.3.3-.7.3-1.1 0-.5-.1-.8-.3-1.2zM3.2 14H1.4V6.5h1.8V14c0-.1 0-.1 0 0 0-.1 0-.1 0 0zm11.4-5.3-.9 1.7c-.8 1.6-1.3 2.4-1.4 2.6v.1c-.3.4-.7.9-1.5.9H7c-.7 0-1.4-.4-1.7-.7-.5-.4-.7-.8-.8-.9v-4c.1-.2.6-.8.9-1.3 1-1.4 2.5-3.2 3-5h.4c.2.1.4.3.4.8l-.7 3.2c0 .1-.1.3 0 .4 0 .1.1.3.2.4l.2.2c.1.1.3.1.4.1h4.4c.2 0 .3 0 .5.1s.3.2.4.4c.1.1.1.3.1.5s-.1.3-.1.5z"/>
	</symbol>

	<symbol id="star" viewBox="0 0 12 12">
		<path d="M10.1 11.5 6.3.2c0-.1-.1-.1-.1-.2H6c-.1 0-.1 0-.2.1-.1 0-.1.1-.1.2L1.9 11.5v.2c0 .1.1.1.1.2s.1.1.2.1.1 0 .2-.1l9.5-7.1c.1 0 .1-.1.1-.2v-.2c0-.1-.1-.1-.1-.2s-.1-.1-.2-.1H.3c-.1 0-.1 0-.2.1 0 .1-.1.1-.1.2v.2c0 .1.1.1.1.2l9.5 7.1c.1.1.1.1.2.1s.1 0 .2-.1c.1 0 .1-.1.1-.2v-.2z"/>
	</symbol>

	<symbol id="fullscreen" viewBox="0 0 20 20">
		<path d="m8.3 15.9-3.8.6 4-4c.1-.1.2-.3.2-.4s-.1-.3-.2-.4c-.1-.1-.3-.2-.4-.2-.2 0-.3.1-.4.2l-4.1 4.1.6-3.9v-.2c0-.1-.1-.2-.1-.2 0-.1-.1-.1-.2-.2-.1 0-.1-.1-.2-.1h-.2c-.1 0-.2.1-.2.1-.2-.1-.3 0-.3 0 0 .1-.1.2-.1.2L2 17.1c0 .1-.1.2 0 .4 0 .1.1.2.2.3h.2L8 17c.1 0 .2 0 .2-.1.1 0 .1-.1.2-.2s.1-.1.1-.2v-.2c0-.1 0-.2-.1-.2 0-.1-.1-.1-.2-.2-.1 0-.1-.1-.2-.1.4.1.3.1.3.1zM18 2.5c0-.1-.1-.3-.2-.4h-.1l-5.6.8c-.2 0-.3.1-.4.2-.6.1-.7.3-.7.4 0 .2.1.3.2.4.1.1.3.2.4.2h.1l3.8-.6-4 4c-.1.1-.2.3-.2.4 0 .2.1.3.2.4s.3.2.4.2c.2 0 .3-.1.4-.2l4.1-4.1-.6 3.9c0 .2 0 .3.1.5.1.1.2.2.4.2h.1c.1 0 .3-.1.4-.2.1-.1.2-.2.2-.4l1-5.3v-.4z"/>
	</symbol>

	<symbol id="arrow-text" viewBox="0 0 12 8">
		<path d="M5.2.3c0 .8-.2 1.4-.5 1.9s-.8.8-1.5 1v.2c.8-.1 1.7-.2 2.5-.2H12v1.6H5.7c-.9 0-1.7-.1-2.5-.2v.2c1.4.4 2.1 1.3 2.1 2.9V8H3.7v-.2c0-1-.3-1.8-.9-2.4-.6-.6-1.5-.8-2.6-.8H0V3.5h.2c1.1 0 2-.3 2.6-.9.6-.6.9-1.4.9-2.4V0h1.6v.3z"/>
	</symbol>

	<symbol id="search" viewBox="0 0 16 17">
		<path d="m15.751 15.056-3.704-3.696a6.669 6.669 0 0 0 1.423-4.125 6.735 6.735 0 1 0-6.735 6.735 6.669 6.669 0 0 0 4.125-1.423l3.696 3.704a.842.842 0 0 0 1.195 0 .842.842 0 0 0 0-1.195Zm-9.016-2.77a5.05 5.05 0 1 1 0-10.102 5.05 5.05 0 0 1 0 10.102Z"/>
	</symbol>

	<symbol id="dropzone" viewBox="0 0 48 48">
		<path d="M24 48c-4.7 0-9.4-1.4-13.3-4-3.9-2.6-7-6.4-8.8-10.8C0 28.8-.5 24 .5 19.3 1.4 14.7 3.7 10.4 7 7c4.5-4.5 10.6-7 17-7s12.5 2.5 17 7 7 10.6 7 17-2.5 12.5-7 17c-2.2 2.2-4.9 4-7.8 5.2-2.9 1.2-6 1.8-9.2 1.8zm0-45.3C12.2 2.7 2.7 12.2 2.7 24S12.3 45.3 24 45.3c11.8 0 21.3-9.6 21.3-21.3S35.8 2.7 24 2.7z"/>
		<path d="M36.2 35.3H11.9c-.7 0-1.3-.3-1.8-.7-.5-.5-.7-1.1-.7-1.8V17.9c0-.7.3-1.3.7-1.8.5-.5 1.1-.7 1.8-.7h3.8c.1 0 .2 0 .2-.1.1-.1.1-.1.1-.2 0-.7.3-1.3.7-1.8.5-.5 1.1-.7 1.8-.7h10.9c.7 0 1.3.3 1.8.7.5.5.7 1.1.7 1.8 0 .1 0 .2.1.2.1.1.1.1.2.1H36c.7 0 1.3.3 1.8.7.5.5.7 1.1.7 1.8v14.9c0 .7-.3 1.3-.7 1.8-.3.5-.9.7-1.6.7zM11.9 17.5c-.1 0-.2 0-.2.1-.1.1-.1.1-.1.2v14.9c0 .1 0 .2.1.2.1.1.1.1.2.1h24.3c.1 0 .2 0 .2-.1.1-.1.1-.1.1-.2V17.9c0-.1 0-.2-.1-.2-.1-.1-.1-.1-.2-.1h-3.8c-.7 0-1.3-.3-1.8-.7-.5-.5-.7-1.1-.7-1.8 0-.1 0-.2-.1-.2-.1-.1-.1-.1-.2-.1h-11c-.1 0-.2 0-.2.1-.1.1-.1.1-.1.2 0 .7-.3 1.3-.7 1.8-.5.5-1.1.7-1.8.7l-3.9-.1z"/>
		<path d="M24.1 31.1c-1.4 0-2.8-.4-4-1.2-1.2-.8-2.1-1.9-2.6-3.2-.5-1.3-.7-2.7-.4-4.1.3-1.4 1-2.7 2-3.7s2.3-1.7 3.7-2c1.4-.3 2.8-.1 4.1.4 1.3.5 2.4 1.5 3.2 2.6.8 1.2 1.2 2.6 1.2 4 0 .9-.2 1.9-.5 2.7-.4.9-.9 1.7-1.5 2.3-.7.7-1.5 1.2-2.3 1.5-1.1.6-2 .7-2.9.7zm0-12.1c-1 0-1.9.3-2.8.8-.8.5-1.4 1.3-1.8 2.2-.4 1-.5 2-.3 3s.7 1.8 1.4 2.5 1.6 1.2 2.5 1.4c1 .2 2 .1 2.9-.3.9-.4 1.7-1 2.2-1.8.5-.9.8-1.8.8-2.8 0-1.3-.5-2.6-1.5-3.5-.9-.9-2.1-1.4-3.4-1.5z"/>
	</symbol>

	<symbol id="phone" viewBox="0 0 20 20">
		<path d="M18.3 4h-2.7s-.1 0-.1-.1v-.2c0-.5-.2-.9-.5-1.2-.4-.3-.8-.5-1.3-.5H6.3c-.5 0-.9.2-1.2.5-.4.3-.5.8-.5 1.3 0 .1 0 .1-.1.2H1.7c-.4 0-.9.2-1.2.5-.3.4-.5.8-.5 1.3v10.5c0 .5.2.9.5 1.2.3.3.8.5 1.2.5h16.6c.5 0 .9-.2 1.2-.5.3-.3.5-.8.5-1.2V5.8c0-.5-.2-.9-.5-1.2-.3-.4-.8-.6-1.2-.6zm.2 12.2c0 .1 0 .1-.1.2 0 0-.1.1-.2.1H1.7c-.1 0-.1 0-.2-.1 0 0-.1-.1-.1-.2V5.8c0-.1 0-.1.1-.2 0 0 .1-.1.2-.1h2.6c.5 0 .9-.2 1.2-.5.4-.3.5-.8.5-1.2 0-.1 0-.1.1-.2 0 0 .1-.1.2-.1h7.4c.1 0 .1 0 .2.1 0 0 .1.1.1.2 0 .5.2.9.5 1.2.3.3.8.5 1.2.5h2.6c.1 0 .1 0 .2.1 0 0 .1.1.1.2l-.1 10.4z"/><path d="M10 5.1c-1 0-1.9.3-2.7.8-.8.6-1.4 1.3-1.8 2.2s-.5 2-.3 2.9c.2 1 .7 1.9 1.3 2.6.7.7 1.5 1.2 2.5 1.4.9.2 1.9.1 2.8-.3.9-.4 1.6-1 2.2-1.8.5-.8.8-1.8.8-2.8 0-1.3-.5-2.6-1.4-3.5-.9-1-2.1-1.5-3.4-1.5zm0 8.4c-.7 0-1.3-.2-1.9-.6-.6-.4-1-.9-1.2-1.6-.3-.6-.3-1.3-.2-2 .1-.7.5-1.3.9-1.8.5-.5 1.1-.8 1.7-.9.7-.1 1.3-.1 1.9.2.6.3 1.1.7 1.5 1.3.4.6.6 1.2.6 1.9 0 .9-.4 1.8-1 2.4-.6.8-1.4 1.1-2.3 1.1z"/>
	</symbol>

	<symbol id="remove" viewBox="0 0 20 20">
		<path d="M0 10C0 4.5 4.5 0 10 0s10 4.5 10 10-4.5 10-10 10S0 15.5 0 10zm10-8.7c-4.8 0-8.7 3.9-8.7 8.7 0 4.8 3.9 8.7 8.7 8.7 4.8 0 8.7-3.9 8.7-8.7 0-4.8-3.9-8.7-8.7-8.7zm0 7.8 3.2-3.2.9.9-3.2 3.2 3.2 3.2-.9.9-3.2-3.2-3.2 3.2-.9-.9L9.1 10 5.9 6.8l.9-.9L10 9.1z"/>
	</symbol>

</svg>
