<svg width="18" height="18" viewBox="0 0 18 18" fill="none" xmlns="http://www.w3.org/2000/svg">
<path fill-rule="evenodd" clip-rule="evenodd" d="M9.00115 0.75C6.13153 0.75 3.39379 2.44727 2.24785 5.12601C1.18138 7.61898 1.75872 9.74049 2.96079 11.5571C3.94633 13.0466 5.38376 14.3759 6.68057 15.5751C6.92782 15.8037 7.17007 16.0278 7.40299 16.2472L7.40423 16.2483C7.8355 16.6521 8.40837 16.875 9.00115 16.875C9.59394 16.875 10.1668 16.6521 10.5981 16.2483C10.8182 16.0422 11.0464 15.8319 11.2792 15.6174C12.5902 14.4096 14.0478 13.0665 15.0437 11.5581C16.2443 9.73963 16.8196 7.6159 15.7545 5.12601C14.6085 2.44727 11.8708 0.75 9.00115 0.75ZM9.00032 5.0625C7.65413 5.0625 6.56282 6.15381 6.56282 7.5C6.56282 8.84619 7.65413 9.9375 9.00032 9.9375C10.3465 9.9375 11.4378 8.84619 11.4378 7.5C11.4378 6.15381 10.3465 5.0625 9.00032 5.0625Z" fill="#E39250"/>
</svg>
