<svg width="222" height="20" viewBox="0 0 222 20" fill="none" xmlns="http://www.w3.org/2000/svg">
<path d="M43.815 8.68775V2.79913H45.9923V16.772H43.815V10.4455H31.749V16.772H29.5718V2.79913H31.749V8.68775H43.815Z" fill="white"/>
<path d="M67.4513 16.772H65.1422L63.6426 13.955H53.3774L51.8715 16.772H49.5625L57.2426 2.79913H59.7587L67.4387 16.772H67.4513ZM54.2684 12.2979H62.7579L59.3508 5.97129C58.8865 5.0954 58.6543 4.45031 58.6543 4.03604V4.01828H58.3783V4.03604C58.3783 4.45031 58.1461 5.0954 57.6818 5.97129L54.2747 12.2979H54.2684Z" fill="white"/>
<path d="M76.7439 16.772H74.5666V4.55684H67.8591V2.79913H83.4577V4.55684H76.7502V16.772H76.7439Z" fill="white"/>
<path d="M99.5394 2.79925H102.055L94.6452 13.8781C93.9236 14.9553 93.177 15.7483 92.3989 16.2513C91.6209 16.7544 90.6483 17.0089 89.4812 17.0089C88.8161 17.0089 88.2012 16.9201 87.6428 16.7485V14.9493C88.2075 15.0855 88.7346 15.1506 89.2303 15.1506C90.046 15.1506 90.7236 15.0204 91.2507 14.754C91.7777 14.4877 92.242 14.0557 92.6373 13.4579L92.8883 13.0614L85.4404 2.79925H88.0004L93.0389 9.98396C93.3213 10.3982 93.5346 10.7474 93.6852 11.0315C93.8358 11.3156 93.9048 11.57 93.9048 11.7772V11.8955H94.1809V11.7772C94.1809 11.5523 94.2499 11.2978 94.3817 11.0078C94.5134 10.7237 94.708 10.3805 94.9652 9.97804L99.5394 2.79333V2.79925Z" fill="white"/>
<path d="M114.711 2.79913C116.619 2.79913 118.068 3.20749 119.072 4.0242C120.076 4.84091 120.572 5.95946 120.572 7.36799C120.572 8.77652 120.07 9.89506 119.072 10.7118C118.068 11.5285 116.619 11.9368 114.711 11.9368H107.602V16.7661H105.425V2.79913H114.718H114.711ZM114.711 10.1851C115.91 10.1851 116.826 9.93057 117.453 9.42753C118.081 8.92448 118.395 8.23797 118.395 7.37391C118.395 6.50985 118.081 5.82334 117.453 5.32029C116.826 4.81724 115.91 4.56276 114.711 4.56276H107.54V10.191H114.711V10.1851Z" fill="white"/>
<path d="M139.603 16.772H137.294L135.794 13.955H125.529L124.023 16.772H121.714L129.394 2.79913H131.91L139.59 16.772H139.603ZM126.42 12.2979H134.909L131.502 5.97129C131.038 5.0954 130.806 4.45031 130.806 4.03604V4.01828H130.53V4.03604C130.53 4.45031 130.297 5.0954 129.833 5.97129L126.426 12.2979H126.42Z" fill="white"/>
<path d="M141.278 16.7957V14.9966C141.585 15.1031 141.918 15.1564 142.275 15.1564C142.966 15.1564 143.493 14.9788 143.85 14.6178C144.208 14.2568 144.44 13.6472 144.541 12.7831L145.726 2.79913H159.612V16.772H157.435V4.55684H147.659L146.661 13.1027C146.523 14.3811 146.116 15.3517 145.444 16.0145C144.773 16.6773 143.869 17.0147 142.727 17.0147C142.194 17.0147 141.711 16.9436 141.29 16.7957H141.278Z" fill="white"/>
<path d="M164.663 16.772V2.79913H166.778V12.6648C166.778 13.2507 166.746 13.7478 166.69 14.1503C166.633 14.5586 166.539 15.0262 166.414 15.5588H166.69L177.865 2.80505H181.291V16.772H179.176V6.91229C179.176 6.32639 179.201 5.82926 179.264 5.42682C179.32 5.01846 179.415 4.55092 179.54 4.01828H179.264L168.089 16.772H164.663Z" fill="white"/>
<path d="M189.975 16.0738C188.55 15.4464 187.465 14.5883 186.724 13.4875C185.984 12.3867 185.614 11.1557 185.614 9.78271C185.614 8.40968 185.984 7.1787 186.724 6.07791C187.465 4.97712 188.55 4.11898 189.975 3.49165C191.399 2.86432 193.112 2.55066 195.12 2.55066C196.996 2.55066 198.602 2.79922 199.945 3.29635C201.288 3.79348 202.342 4.47999 203.107 5.34405C203.879 6.20811 204.381 7.18461 204.619 8.27948H202.442C202.135 7.13727 201.375 6.18444 200.164 5.43283C198.96 4.68121 197.278 4.30245 195.12 4.30245C193.582 4.30245 192.259 4.53918 191.154 5.01855C190.044 5.49793 189.209 6.14893 188.644 6.97748C188.08 7.80011 187.797 8.73518 187.797 9.77087C187.797 10.8066 188.08 11.7416 188.644 12.5643C189.209 13.3869 190.044 14.0438 191.154 14.5232C192.265 15.0026 193.582 15.2393 195.12 15.2393C197.278 15.2393 198.96 14.8664 200.164 14.1089C201.369 13.3573 202.128 12.4104 202.442 11.2623H204.619C204.268 12.9904 203.302 14.3812 201.721 15.4228C200.139 16.4703 197.937 16.9911 195.12 16.9911C193.118 16.9911 191.399 16.6774 189.975 16.0501V16.0738Z" fill="white"/>
<path d="M215.286 16.772H213.109V4.55684H206.401V2.79913H222V4.55684H215.292V16.772H215.286Z" fill="white"/>
<path d="M10.353 0C4.6369 0 0 4.37356 0 9.76504C0 15.1565 4.6369 19.5301 10.353 19.5301C16.0691 19.5301 20.706 15.1565 20.706 9.76504C20.706 4.37356 16.0754 0 10.353 0ZM5.622 13.8427L10.3593 3.73439L15.0966 13.8427H5.62827H5.622Z" fill="white"/>
</svg>
