<svg width="20" height="21" viewBox="0 0 20 21" fill="none" xmlns="http://www.w3.org/2000/svg">
<path d="M11.44 3.36999L12.9065 6.32723C13.1065 6.7389 13.6398 7.13375 14.0897 7.20937L16.7478 7.65463C18.4476 7.94028 18.8475 9.18366 17.6227 10.4103L15.5562 12.4938C15.2063 12.8466 15.0146 13.5271 15.1229 14.0144L15.7146 16.5936C16.1812 18.6351 15.1063 19.4248 13.3148 18.3579L10.8234 16.8708C10.3735 16.602 9.63189 16.602 9.17361 16.8708L6.68222 18.3579C4.89908 19.4248 3.81587 18.6267 4.28248 16.5936L4.87408 14.0144C4.9824 13.5271 4.79076 12.8466 4.4408 12.4938L2.37436 10.4103C1.15783 9.18366 1.54945 7.94028 3.24926 7.65463L5.9073 7.20937C6.34892 7.13375 6.88219 6.7389 7.08217 6.32723L8.54868 3.36999C9.34859 1.76534 10.6484 1.76534 11.44 3.36999Z" fill="#E0C695"/>
</svg>
