<svg width="18" height="18" viewBox="0 0 18 18" fill="none" xmlns="http://www.w3.org/2000/svg">
<path d="M10.2957 2.58313L11.6156 5.24466C11.7956 5.61515 12.2755 5.97053 12.6805 6.03858L15.0727 6.43932C16.6025 6.69639 16.9625 7.81544 15.8601 8.91937L14.0003 10.7945C13.6854 11.1121 13.5129 11.7246 13.6104 12.1631L14.1428 14.4844C14.5628 16.3217 13.5954 17.0325 11.983 16.0722L9.74079 14.7339C9.33583 14.4919 8.66841 14.4919 8.25595 14.7339L6.0137 16.0722C4.40888 17.0325 3.43399 16.3142 3.85394 14.4844L4.38638 12.1631C4.48387 11.7246 4.31139 11.1121 3.99642 10.7945L2.13663 8.91937C1.04175 7.81544 1.39421 6.69639 2.92404 6.43932L5.31628 6.03858C5.71373 5.97053 6.19368 5.61515 6.37366 5.24466L7.69352 2.58313C8.41344 1.13896 9.58331 1.13896 10.2957 2.58313Z" fill="#E39250"/>
</svg>
