<svg width="172" height="119" viewBox="0 0 172 119" fill="none" xmlns="http://www.w3.org/2000/svg">
<path d="M114.462 29.7538C114.462 29.7538 138.588 31.092 144.574 61.2008C150.501 91.2426 123.562 109.308 106.501 107.234C99.0175 106.297 91.7141 101.279 86.6855 101.747C78.9031 102.483 72.4378 111.65 65.4935 115.062C55.9152 119.813 43.1642 119.946 35.3818 111.315C28.1981 103.353 25.8035 91.1757 24.7858 80.3366C23.7681 69.4974 24.2471 57.8553 28.258 47.8191C32.3287 37.649 41.3682 30.2222 51.4853 30.0884C63.2187 29.8876 72.5575 41.329 84.4705 39.7901C91.6542 38.9203 96.9821 28.884 114.462 29.7538Z" fill="#F4E6CB"/>
<g clip-path="url(#clip0_4801_4804)">
<path d="M85.7508 12C68.0781 12 53.75 26.3265 53.75 44.0007C53.75 61.6749 68.0781 76.0015 85.7508 76.0015C103.423 76.0015 117.75 61.6734 117.75 43.9992C117.75 26.3251 103.425 12 85.7508 12Z" fill="#202D4D"/>
<path d="M83.115 24.7305C84.8293 24.7286 86.5426 24.7672 88.2572 24.7321C88.3823 25.2606 88.4427 25.8182 88.5466 26.3531C88.7455 27.3774 88.9792 28.4046 89.1113 29.4396C90.5566 29.8491 92.0211 30.3414 93.3044 31.1355C93.6935 30.8534 94.1142 30.6064 94.5139 30.3384C95.4184 29.7321 96.3271 29.1172 97.2591 28.5539C97.5406 28.8456 97.8432 29.1209 98.1348 29.403L99.8024 31.0215C100.196 31.4052 100.608 31.7805 100.961 32.2034C100.803 32.5034 100.584 32.7788 100.399 33.0626C99.9187 33.7954 99.4144 34.5119 98.9237 35.2376C98.7279 35.5272 98.521 35.8106 98.3384 36.1087C99.1587 37.5535 99.5895 38.6388 100.041 40.226C101.559 40.6086 103.131 40.8319 104.671 41.1153L104.674 46.3921C104.076 46.5433 103.453 46.63 102.847 46.748C101.887 46.9374 100.93 47.1404 99.9753 47.3568C99.5534 48.8577 99.1561 49.868 98.3777 51.2146C98.5571 51.5293 98.7789 51.821 98.9726 52.1271C99.6473 53.1931 100.349 54.2451 101.008 55.3205C100.582 55.7693 100.126 56.1893 99.6849 56.6228L97.3268 58.9375C96.5895 58.4165 95.8136 57.9351 95.0554 57.4444C94.4586 57.0582 93.8635 56.6434 93.2475 56.2896C92.0004 57.0553 90.6535 57.5519 89.2424 57.9299L88.2742 62.7292L87.891 62.7305L83.0986 62.7291L82.2622 57.9075C80.8154 57.5113 79.4712 56.9665 78.1798 56.2053C77.8699 56.3966 77.5734 56.6199 77.2722 56.825C76.2226 57.5394 75.1852 58.2968 74.1017 58.9586C72.8977 57.7148 71.5861 56.53 70.4044 55.2729C70.8226 54.7115 71.214 54.1294 71.6122 53.5538C72.11 52.8342 72.6127 52.1163 73.0999 51.3896C72.8972 50.957 72.6357 50.5486 72.4267 50.1171C71.977 49.1889 71.6512 48.2191 71.3849 47.2253C70.7136 47.147 70.0357 47.0065 69.3701 46.8883C68.4732 46.7266 67.5745 46.5759 66.6738 46.4362L66.678 41.1099C67.4145 40.9877 68.1466 40.8382 68.8816 40.7068C69.7112 40.5665 70.54 40.4208 71.3677 40.2698C71.7169 38.8059 72.3218 37.4351 73.0576 36.1253C72.6643 35.6345 72.3274 35.0748 71.967 34.5579C71.4371 33.798 70.8561 33.0364 70.3992 32.2301C71.2336 31.3774 72.058 30.5153 72.8726 29.6438C73.2537 29.2417 73.6286 28.831 74.0265 28.4453C74.4827 28.7763 74.967 29.0753 75.4312 29.3958C76.295 29.9922 77.1539 30.6063 78.0435 31.1636C79.4994 30.3621 80.6264 29.8835 82.2371 29.4562C82.5093 27.8801 82.8029 26.2994 83.115 24.7305Z" fill="#E39250"/>
<path d="M84.9126 30.6667C84.9194 30.6662 84.9262 30.6654 84.9331 30.6651C85.0411 30.659 85.1492 30.6542 85.2574 30.6508C85.3656 30.6474 85.4738 30.6453 85.582 30.6446C85.6902 30.6439 85.7984 30.6444 85.9066 30.6463C86.0148 30.6482 86.123 30.6514 86.2311 30.656C86.3392 30.6606 86.4473 30.6665 86.5553 30.6737C86.6633 30.6809 86.7711 30.6894 86.8789 30.6993C86.9867 30.7091 87.0943 30.7203 87.2018 30.7328C87.3093 30.7453 87.4166 30.7591 87.5237 30.7743C87.6309 30.7894 87.7378 30.8059 87.8445 30.8236C87.9513 30.8414 88.0578 30.8604 88.1641 30.8808C88.2703 30.9012 88.3763 30.9229 88.4821 30.9458C88.5878 30.9688 88.6932 30.9931 88.7984 31.0187C88.9035 31.0442 89.0083 31.0711 89.1127 31.0992C89.2172 31.1274 89.3213 31.1568 89.425 31.1874C89.5288 31.2181 89.6321 31.2501 89.735 31.2833C89.838 31.3166 89.9405 31.3511 90.0426 31.3868C90.1447 31.4226 90.2463 31.4596 90.3474 31.4978C90.4486 31.536 90.5493 31.5755 90.6495 31.6162C90.7497 31.6569 90.8493 31.6989 90.9485 31.742C91.0476 31.7852 91.1462 31.8296 91.2443 31.8752C91.3423 31.9207 91.4398 31.9675 91.5367 32.0155C91.6336 32.0634 91.7299 32.1126 91.8255 32.1629C91.9212 32.2133 92.0162 32.2648 92.1106 32.3174C92.205 32.3701 92.2987 32.4239 92.3918 32.4789C92.4849 32.5339 92.5772 32.59 92.6689 32.6472C92.7606 32.7044 92.8515 32.7628 92.9417 32.8222C93.032 32.8817 93.1214 32.9423 93.2101 33.004C93.2988 33.0656 93.3868 33.1284 93.4739 33.1922C93.5611 33.256 93.6475 33.3209 93.733 33.3869C93.8186 33.4528 93.9033 33.5198 93.9872 33.5878C94.0711 33.6558 94.1541 33.7249 94.2363 33.795C94.3185 33.865 94.3998 33.9361 94.4802 34.0081C94.5595 34.0783 94.638 34.1495 94.7156 34.2217C94.7931 34.2938 94.8698 34.3669 94.9456 34.4409C95.0213 34.515 95.0962 34.5899 95.1701 34.6658C95.244 34.7416 95.317 34.8184 95.389 34.896C95.461 34.9736 95.5321 35.0521 95.6021 35.1315C95.6722 35.2109 95.7413 35.2911 95.8094 35.3722C95.8775 35.4532 95.9446 35.5351 96.0107 35.6178C96.0768 35.7005 96.1418 35.784 96.2059 35.8683C96.2699 35.9526 96.3329 36.0377 96.3948 36.1235C96.4567 36.2094 96.5175 36.2959 96.5773 36.3833C96.6371 36.4706 96.6958 36.5586 96.7534 36.6474C96.811 36.7361 96.8675 36.8256 96.9229 36.9157C96.9783 37.0058 97.0326 37.0966 97.0857 37.1881C97.1389 37.2796 97.1909 37.3717 97.2418 37.4644C97.2927 37.5571 97.3424 37.6505 97.391 37.7444C97.4396 37.8384 97.487 37.9329 97.5332 38.028C97.5794 38.1231 97.6245 38.2188 97.6684 38.315C97.7123 38.4112 97.755 38.5079 97.7965 38.6052C97.8379 38.7025 97.8782 38.8002 97.9173 38.8984C97.9564 38.9967 97.9942 39.0954 98.0309 39.1946C98.0675 39.2937 98.1029 39.3933 98.1371 39.4934C98.1713 39.5934 98.2042 39.6938 98.236 39.7946C98.2676 39.8955 98.2981 39.9967 98.3273 40.0983C98.3565 40.1999 98.3844 40.3018 98.4111 40.4041C98.4378 40.5063 98.4632 40.6089 98.4874 40.7118C98.5115 40.8147 98.5344 40.9178 98.556 41.0213C98.5776 41.1247 98.5979 41.2284 98.617 41.3323C98.636 41.4363 98.6538 41.5404 98.6703 41.6448C98.6867 41.7492 98.7019 41.8538 98.7158 41.9585C98.7297 42.0633 98.7423 42.1682 98.7536 42.2732C98.7649 42.3783 98.7749 42.4834 98.7836 42.5887C98.7923 42.694 98.7997 42.7994 98.8058 42.9049C98.8129 43.0118 98.8186 43.1187 98.823 43.2257C98.8274 43.3328 98.8305 43.4398 98.8322 43.5469C98.8339 43.654 98.8343 43.7611 98.8333 43.8682C98.8324 43.9753 98.8301 44.0824 98.8265 44.1895C98.8229 44.2965 98.8179 44.4035 98.8117 44.5104C98.8054 44.6173 98.7977 44.7241 98.7888 44.8309C98.7798 44.9376 98.7696 45.0442 98.758 45.1507C98.7463 45.2572 98.7334 45.3635 98.7191 45.4697C98.7049 45.5759 98.6893 45.6818 98.6724 45.7876C98.6555 45.8934 98.6372 45.9989 98.6177 46.1043C98.5981 46.2096 98.5773 46.3147 98.5551 46.4195C98.5329 46.5243 98.5095 46.6288 98.4847 46.733C98.4599 46.8373 98.4339 46.9412 98.4065 47.0448C98.3791 47.1484 98.3505 47.2516 98.3205 47.3545C98.2906 47.4574 98.2594 47.5599 98.2269 47.662C98.1944 47.7641 98.1606 47.8658 98.1256 47.9671C98.0905 48.0683 98.0542 48.1692 98.0167 48.2695C97.9791 48.3699 97.9403 48.4698 97.9003 48.5692C97.8602 48.6686 97.8189 48.7675 97.7764 48.866C97.7339 48.9644 97.6902 49.0622 97.6452 49.1595C97.6003 49.2569 97.5541 49.3536 97.5067 49.4498C97.4594 49.546 97.4108 49.6416 97.361 49.7365C97.3113 49.8315 97.2604 49.9259 97.2083 50.0196C97.1561 50.1133 97.1029 50.2064 97.0484 50.2988C96.994 50.3912 96.9384 50.4829 96.8817 50.574C96.825 50.665 96.7671 50.7553 96.7082 50.8449C96.6492 50.9345 96.5891 51.0234 96.5279 51.1115C96.4667 51.1996 96.4044 51.287 96.3411 51.3735C96.2777 51.4601 96.2132 51.5459 96.1477 51.6309C96.0822 51.7159 96.0156 51.8 95.948 51.8834C95.8804 51.9667 95.8118 52.0492 95.7421 52.1309C95.6724 52.2125 95.6018 52.2933 95.5301 52.3732C93.1683 55.0173 90.0543 56.5678 86.4985 56.7758C85.9428 56.793 85.3865 56.8022 84.8315 56.7626C84.744 56.7567 84.6565 56.7499 84.5691 56.7422C84.4817 56.7345 84.3944 56.726 84.3071 56.7166C84.2199 56.7072 84.1328 56.6969 84.0458 56.6857C83.9587 56.6745 83.8718 56.6625 83.7851 56.6496C83.6983 56.6367 83.6116 56.6229 83.5251 56.6082C83.4386 56.5936 83.3523 56.5781 83.2661 56.5617C83.1799 56.5453 83.0939 56.5281 83.0081 56.51C82.9223 56.4919 82.8366 56.4729 82.7512 56.4531C82.6657 56.4333 82.5804 56.4126 82.4954 56.3911C82.4104 56.3695 82.3256 56.3471 82.241 56.3239C82.1564 56.3007 82.0721 56.2766 81.988 56.2517C81.9039 56.2268 81.8201 56.201 81.7365 56.1744C81.6529 56.1478 81.5696 56.1204 81.4866 56.0921C81.4036 56.0638 81.3209 56.0347 81.2385 56.0048C81.156 55.9749 81.0739 55.9441 80.9921 55.9125C80.9103 55.8809 80.8288 55.8486 80.7477 55.8154C80.6665 55.7821 80.5857 55.7481 80.5052 55.7133C80.4248 55.6785 80.3447 55.6428 80.265 55.6064C80.1852 55.57 80.1059 55.5327 80.0269 55.4947C79.9479 55.4567 79.8693 55.4179 79.7911 55.3783C79.7129 55.3387 79.6351 55.2983 79.5577 55.2571C79.4804 55.216 79.4034 55.174 79.3269 55.1313C79.2503 55.0886 79.1742 55.0452 79.0986 55.0009C79.023 54.9567 78.9478 54.9117 78.873 54.866C78.7983 54.8202 78.724 54.7738 78.6502 54.7265C78.5764 54.6793 78.5031 54.6313 78.4303 54.5827C78.3574 54.534 78.2851 54.4846 78.2133 54.4344C78.1414 54.3843 78.0702 54.3334 77.9994 54.2818C77.9286 54.2303 77.8583 54.178 77.7885 54.125C77.7188 54.072 77.6496 54.0183 77.5809 53.9639C77.5123 53.9096 77.4442 53.8545 77.3767 53.7988C77.3092 53.7431 77.2422 53.6867 77.1758 53.6296C74.5159 51.3309 72.8024 48.1505 72.5564 44.6345C72.5486 44.5281 72.5421 44.4216 72.5369 44.3151C72.5316 44.2086 72.5278 44.102 72.5252 43.9954C72.5226 43.8887 72.5214 43.7821 72.5215 43.6754C72.5215 43.5687 72.5229 43.4621 72.5257 43.3555C72.5284 43.2488 72.5325 43.1422 72.5378 43.0357C72.5432 42.9292 72.5499 42.8227 72.5579 42.7163C72.5659 42.61 72.5752 42.5037 72.5858 42.3976C72.5965 42.2914 72.6084 42.1854 72.6217 42.0796C72.635 41.9737 72.6495 41.8681 72.6654 41.7626C72.6813 41.6571 72.6985 41.5518 72.717 41.4467C72.7355 41.3417 72.7553 41.2368 72.7764 41.1323C72.7975 41.0277 72.8199 40.9234 72.8435 40.8193C72.8672 40.7153 72.8922 40.6116 72.9185 40.5082C72.9447 40.4047 72.9722 40.3016 73.001 40.1989C73.0298 40.0962 73.0599 39.9938 73.0912 39.8918C73.1226 39.7898 73.1552 39.6882 73.189 39.587C73.2229 39.4858 73.258 39.385 73.2944 39.2846C73.3307 39.1843 73.3683 39.0844 73.4072 38.985C73.446 38.8856 73.4861 38.7866 73.5274 38.6882C73.5686 38.5897 73.6111 38.4918 73.6549 38.3944C73.6986 38.297 73.7435 38.2002 73.7896 38.1039C73.8357 38.0076 73.883 37.9119 73.9315 37.8167C73.98 37.7216 74.0296 37.6271 74.0805 37.5332C74.1313 37.4393 74.1833 37.346 74.2364 37.2533C74.2896 37.1607 74.3439 37.0687 74.3993 36.9774C74.4547 36.8861 74.5113 36.7955 74.5689 36.7055C74.6266 36.6156 74.6854 36.5264 74.7452 36.4379C74.8051 36.3495 74.8661 36.2618 74.9281 36.1748C74.9902 36.0878 75.0533 36.0016 75.1175 35.9162C75.1817 35.8307 75.2469 35.7461 75.3132 35.6623C75.3795 35.5784 75.4468 35.4954 75.5152 35.4132C75.5835 35.331 75.6529 35.2497 75.7232 35.1692C75.7955 35.0874 75.8687 35.0064 75.9429 34.9263C76.0172 34.8462 76.0924 34.767 76.1686 34.6887C76.2448 34.6105 76.3219 34.5332 76.4 34.4568C76.4781 34.3804 76.5571 34.305 76.637 34.2306C76.717 34.1561 76.7979 34.0827 76.8796 34.0102C76.9614 33.9377 77.044 33.8663 77.1276 33.7958C77.2111 33.7254 77.2955 33.656 77.3807 33.5876C77.466 33.5192 77.552 33.4519 77.6389 33.3856C77.7258 33.3193 77.8135 33.2541 77.902 33.1899C77.9906 33.1258 78.0799 33.0627 78.1699 33.0008C78.26 32.9388 78.3508 32.878 78.4424 32.8182C78.534 32.7585 78.6263 32.6999 78.7193 32.6424C78.8123 32.5849 78.906 32.5286 79.0004 32.4734C79.0948 32.4182 79.1899 32.3642 79.2856 32.3113C79.3814 32.2584 79.4778 32.2067 79.5748 32.1562C79.6718 32.1057 79.7694 32.0563 79.8677 32.0082C79.9659 31.9601 80.0647 31.9132 80.1641 31.8674C80.2635 31.8217 80.3634 31.7772 80.4639 31.7339C80.5644 31.6907 80.6654 31.6486 80.767 31.6078C80.8685 31.567 80.9705 31.5274 81.073 31.4891C81.1755 31.4508 81.2785 31.4137 81.3819 31.3779C81.4853 31.3421 81.5892 31.3076 81.6935 31.2744C81.7977 31.2411 81.9024 31.2091 82.0074 31.1784C82.1125 31.1477 82.2179 31.1183 82.3237 31.0901C82.4295 31.062 82.5356 31.0352 82.642 31.0096C82.7485 30.9841 82.8553 30.9599 82.9623 30.9369C83.0694 30.914 83.1767 30.8924 83.2843 30.8721C83.3918 30.8518 83.4997 30.8328 83.6077 30.8151C83.7157 30.7974 83.824 30.7811 83.9325 30.7661C84.0409 30.751 84.1495 30.7373 84.2583 30.7249C84.3671 30.7126 84.4761 30.7015 84.5851 30.6918C84.6942 30.6821 84.8033 30.6737 84.9126 30.6667Z" fill="#E39250"/>
<path d="M85.1284 34.5332C85.1994 34.5289 85.2705 34.5253 85.3416 34.5226C85.4127 34.5199 85.4838 34.518 85.5549 34.5169C85.6261 34.5159 85.6973 34.5156 85.7684 34.5162C85.8396 34.5167 85.9107 34.5181 85.9818 34.5203C86.053 34.5225 86.1241 34.5255 86.1951 34.5294C86.2662 34.5332 86.3372 34.5379 86.4081 34.5434C86.4791 34.5488 86.5499 34.5551 86.6208 34.5622C86.6916 34.5693 86.7623 34.5773 86.8329 34.586C86.9035 34.5948 86.974 34.6043 87.0444 34.6147C87.1148 34.625 87.185 34.6362 87.2552 34.6482C87.3253 34.6602 87.3953 34.673 87.4651 34.6866C87.535 34.7002 87.6046 34.7146 87.6741 34.7298C87.7436 34.745 87.813 34.761 87.8821 34.7778C87.9512 34.7946 88.0201 34.8122 88.0888 34.8306C88.1575 34.849 88.226 34.8682 88.2943 34.8882C88.3626 34.9081 88.4306 34.9289 88.4984 34.9504C88.5662 34.972 88.6337 34.9943 88.701 35.0174C88.7683 35.0405 88.8353 35.0644 88.902 35.089C88.9687 35.1137 89.0351 35.1391 89.1012 35.1652C89.1673 35.1914 89.2332 35.2183 89.2986 35.246C89.3641 35.2737 89.4293 35.3021 89.4941 35.3313C89.559 35.3605 89.6234 35.3905 89.6876 35.4212C89.7517 35.4518 89.8155 35.4832 89.8789 35.5154C89.9423 35.5475 90.0053 35.5804 90.0679 35.614C90.1306 35.6476 90.1928 35.6819 90.2547 35.7169C90.3165 35.752 90.3779 35.7877 90.4389 35.8242C90.4999 35.8606 90.5605 35.8978 90.6206 35.9357C90.6808 35.9735 90.7405 36.012 90.7997 36.0513C90.859 36.0905 90.9177 36.1304 90.976 36.1709C91.0344 36.2115 91.0922 36.2528 91.1496 36.2947C91.2069 36.3366 91.2638 36.3792 91.3201 36.4224C91.3765 36.4656 91.4323 36.5095 91.4877 36.554C91.5478 36.6023 91.6073 36.6513 91.6662 36.7011C91.7251 36.7509 91.7833 36.8014 91.841 36.8527C91.8986 36.9039 91.9556 36.9558 92.0119 37.0085C92.0683 37.0611 92.1239 37.1144 92.1789 37.1684C92.234 37.2224 92.2883 37.2771 92.3419 37.3325C92.3956 37.3878 92.4485 37.4438 92.5007 37.5005C92.553 37.5571 92.6045 37.6144 92.6554 37.6724C92.7062 37.7303 92.7562 37.7889 92.8056 37.848C92.8549 37.9072 92.9035 37.967 92.9514 38.0273C92.9993 38.0877 93.0464 38.1486 93.0927 38.2102C93.1391 38.2717 93.1846 38.3338 93.2294 38.3965C93.2742 38.4591 93.3182 38.5223 93.3615 38.5861C93.4047 38.6498 93.4471 38.7141 93.4887 38.7789C93.5303 38.8437 93.5711 38.909 93.6111 38.9748C93.6511 39.0406 93.6902 39.1068 93.7285 39.1736C93.7669 39.2404 93.8044 39.3076 93.841 39.3753C93.8777 39.443 93.9135 39.5111 93.9484 39.5797C93.9834 39.6483 94.0175 39.7173 94.0507 39.7867C94.0839 39.8561 94.1163 39.9259 94.1478 39.9962C94.1793 40.0664 94.2099 40.137 94.2396 40.2079C94.2694 40.2789 94.2982 40.3502 94.3262 40.4219C94.3541 40.4936 94.3812 40.5656 94.4073 40.638C94.4335 40.7104 94.4587 40.783 94.4831 40.856C94.5074 40.929 94.5308 41.0023 94.5533 41.0758C94.5759 41.1494 94.5974 41.2232 94.6181 41.2973C94.6388 41.3714 94.6585 41.4457 94.6773 41.5203C94.6961 41.5949 94.714 41.6697 94.731 41.7447C94.7479 41.8197 94.7639 41.8949 94.779 41.9703C94.7941 42.0458 94.8082 42.1213 94.8214 42.1971C94.8346 42.2729 94.8468 42.3488 94.8581 42.4249C94.8694 42.5009 94.8798 42.5771 94.8892 42.6535C94.8986 42.7298 94.907 42.8062 94.9145 42.8827C94.9213 42.9563 94.9272 43.03 94.9323 43.1037C94.9373 43.1774 94.9414 43.2512 94.9447 43.325C94.9479 43.3988 94.9502 43.4726 94.9516 43.5465C94.953 43.6204 94.9536 43.6943 94.9532 43.7681C94.9528 43.842 94.9515 43.9159 94.9494 43.9898C94.9472 44.0636 94.9441 44.1375 94.9401 44.2112C94.9361 44.285 94.9312 44.3587 94.9254 44.4324C94.9197 44.506 94.913 44.5796 94.9054 44.6532C94.8978 44.7267 94.8894 44.8 94.88 44.8733C94.8706 44.9466 94.8604 45.0198 94.8492 45.0929C94.8381 45.1659 94.826 45.2388 94.8131 45.3116C94.8001 45.3843 94.7863 45.4569 94.7716 45.5293C94.7569 45.6018 94.7413 45.674 94.7248 45.7461C94.7084 45.8181 94.691 45.8899 94.6728 45.9616C94.6546 46.0332 94.6355 46.1046 94.6155 46.1758C94.5955 46.2469 94.5747 46.3178 94.553 46.3885C94.5313 46.4592 94.5088 46.5296 94.4853 46.5997C94.4619 46.6698 94.4377 46.7396 94.4125 46.8092C94.3874 46.8787 94.3615 46.9479 94.3347 47.0168C94.3079 47.0857 94.2802 47.1543 94.2517 47.2225C94.2232 47.2908 94.1939 47.3586 94.1638 47.4261C94.1337 47.4937 94.1027 47.5608 94.0709 47.6276C94.0391 47.6944 94.0065 47.7608 93.9731 47.8268C93.9398 47.8928 93.9056 47.9584 93.8706 48.0235C93.8356 48.0887 93.7998 48.1534 93.7632 48.2177C93.7266 48.282 93.6892 48.3459 93.6511 48.4093C93.6129 48.4727 93.574 48.5356 93.5344 48.5981C93.4947 48.6605 93.4543 48.7225 93.4131 48.784C93.3719 48.8454 93.33 48.9064 93.2873 48.9669C93.2446 49.0274 93.2012 49.0873 93.1571 49.1467C93.1129 49.2061 93.0681 49.265 93.0225 49.3234C92.9769 49.3817 92.9306 49.4395 92.8837 49.4967C91.1777 51.5563 88.9037 52.6977 86.2431 52.9511C85.6671 52.9759 85.1018 52.9725 84.5286 52.9012C82.7256 52.677 80.9729 51.8735 79.5937 50.7037C79.5368 50.6549 79.4806 50.6054 79.425 50.5551C79.3694 50.5049 79.3144 50.4541 79.2601 50.4025C79.2057 50.351 79.152 50.2988 79.0989 50.2459C79.0459 50.1931 78.9935 50.1396 78.9417 50.0854C78.89 50.0313 78.8389 49.9765 78.7885 49.9212C78.7381 49.8658 78.6884 49.8098 78.6394 49.7532C78.5904 49.6966 78.542 49.6394 78.4944 49.5817C78.4468 49.5239 78.3999 49.4655 78.3538 49.4066C78.3076 49.3477 78.2622 49.2882 78.2175 49.2282C78.1727 49.1682 78.1288 49.1076 78.0855 49.0465C78.0423 48.9854 77.9999 48.9238 77.9582 48.8617C77.9165 48.7995 77.8756 48.7369 77.8354 48.6738C77.7953 48.6106 77.7559 48.547 77.7173 48.4829C77.6787 48.4189 77.6409 48.3543 77.604 48.2893C77.567 48.2243 77.5308 48.1588 77.4954 48.0929C77.46 48.027 77.4254 47.9607 77.3917 47.8939C77.358 47.8272 77.3251 47.7601 77.293 47.6925C77.2609 47.625 77.2296 47.557 77.1992 47.4887C77.1688 47.4204 77.1392 47.3518 77.1105 47.2827C77.0818 47.2137 77.0539 47.1444 77.0269 47.0746C76.9999 47.0049 76.9737 46.9349 76.9484 46.8646C76.9231 46.7942 76.8987 46.7236 76.8751 46.6527C76.8516 46.5817 76.8289 46.5105 76.8071 46.439C76.7853 46.3675 76.7644 46.2957 76.7444 46.2237C76.7244 46.1517 76.7053 46.0795 76.687 46.007C76.6688 45.9345 76.6514 45.8619 76.635 45.789C76.6185 45.7161 76.603 45.643 76.5883 45.5697C76.5737 45.4965 76.5599 45.423 76.5471 45.3494C76.5342 45.2758 76.5223 45.202 76.5113 45.1281C76.5003 45.0542 76.4901 44.9802 76.4809 44.9061C76.4717 44.8319 76.4634 44.7577 76.4561 44.6833C76.4487 44.609 76.4423 44.5345 76.4367 44.46C76.4312 44.3842 76.4266 44.3084 76.4229 44.2325C76.4192 44.1566 76.4165 44.0807 76.4147 44.0048C76.4129 43.9288 76.412 43.8529 76.4121 43.7769C76.4122 43.7009 76.4132 43.625 76.4151 43.549C76.4171 43.473 76.42 43.3971 76.4238 43.3213C76.4276 43.2454 76.4324 43.1696 76.4381 43.0938C76.4438 43.018 76.4504 42.9424 76.458 42.8668C76.4655 42.7912 76.474 42.7157 76.4834 42.6403C76.4929 42.5649 76.5032 42.4896 76.5145 42.4145C76.5258 42.3394 76.538 42.2644 76.5511 42.1895C76.5643 42.1147 76.5784 42.04 76.5933 41.9655C76.6083 41.891 76.6242 41.8167 76.641 41.7426C76.6578 41.6685 76.6756 41.5946 76.6942 41.5209C76.7129 41.4473 76.7324 41.3738 76.7529 41.3006C76.7733 41.2274 76.7946 41.1545 76.8169 41.0818C76.8391 41.0092 76.8623 40.9368 76.8864 40.8647C76.9104 40.7926 76.9353 40.7207 76.9611 40.6492C76.9869 40.5777 77.0136 40.5066 77.0412 40.4357C77.0688 40.3649 77.0972 40.2944 77.1265 40.2242C77.1558 40.1541 77.186 40.0843 77.2171 40.0149C77.2481 39.9455 77.28 39.8764 77.3127 39.8078C77.3454 39.7392 77.379 39.6709 77.4134 39.6031C77.4478 39.5353 77.4831 39.4679 77.5192 39.401C77.5553 39.334 77.5922 39.2675 77.6299 39.2015C77.6676 39.1354 77.7061 39.0698 77.7455 39.0047C77.7848 38.9396 77.825 38.875 77.866 38.8109C77.9069 38.7467 77.9486 38.6831 77.9911 38.62C78.0336 38.5569 78.0769 38.4943 78.121 38.4323C78.165 38.3702 78.2098 38.3087 78.2554 38.2478C78.301 38.1868 78.3473 38.1264 78.3943 38.0666C78.4414 38.0068 78.4892 37.9475 78.5377 37.8889C78.5863 37.8302 78.6355 37.7722 78.6855 37.7147C80.3252 35.817 82.6338 34.721 85.1284 34.5332Z" fill="#FEFEFE"/>
<path d="M85.4054 38.1848C85.4125 38.1838 85.4195 38.1826 85.4267 38.1819C86.656 38.0695 88.1621 38.6203 89.1129 39.3716C90.2879 40.3 91.0961 41.6254 91.264 43.1213C91.2695 43.1665 91.2744 43.2118 91.2787 43.2572C91.283 43.3026 91.2868 43.348 91.29 43.3935C91.2931 43.439 91.2957 43.4845 91.2978 43.53C91.2998 43.5755 91.3012 43.6211 91.3021 43.6667C91.303 43.7122 91.3033 43.7578 91.303 43.8034C91.3026 43.849 91.3018 43.8945 91.3003 43.9401C91.2989 43.9856 91.2969 44.0312 91.2942 44.0767C91.2916 44.1222 91.2885 44.1677 91.2847 44.2131C91.281 44.2585 91.2766 44.3039 91.2717 44.3492C91.2668 44.3945 91.2613 44.4398 91.2553 44.4849C91.2492 44.5301 91.2426 44.5752 91.2354 44.6202C91.2282 44.6652 91.2204 44.7101 91.2121 44.755C91.2038 44.7998 91.1948 44.8445 91.1853 44.8891C91.1759 44.9337 91.1658 44.9782 91.1553 45.0225C91.1447 45.0668 91.1335 45.111 91.1218 45.1551C91.1101 45.1992 91.0978 45.2431 91.0849 45.2868C91.0721 45.3306 91.0587 45.3741 91.0448 45.4175C91.0308 45.461 91.0163 45.5042 91.0013 45.5472C90.9863 45.5903 90.9707 45.6332 90.9546 45.6758C90.9384 45.7185 90.9218 45.761 90.9046 45.8032C90.8874 45.8454 90.8696 45.8875 90.8513 45.9292C90.8331 45.9711 90.8143 46.0126 90.7949 46.054C90.7756 46.0953 90.7558 46.1363 90.7355 46.1772C90.7151 46.218 90.6942 46.2585 90.6728 46.2989C90.6514 46.3392 90.6295 46.3792 90.6071 46.4189C90.5847 46.4587 90.5618 46.4982 90.5384 46.5373C90.515 46.5765 90.491 46.6154 90.4666 46.654C90.4423 46.6926 90.4174 46.7308 90.392 46.7688C90.3666 46.8067 90.3408 46.8444 90.3145 46.8817C90.2881 46.919 90.2613 46.9559 90.2341 46.9925C90.2068 47.0292 90.1791 47.0655 90.1509 47.1014C90.1227 47.1373 90.0941 47.1729 90.0651 47.2081C89.3165 48.1266 88.2312 48.8315 87.0718 49.109C86.7413 49.1881 86.4033 49.221 86.066 49.2559C84.5618 49.3066 83.2796 48.9432 82.1102 47.9858C81.0137 47.0881 80.2732 45.6903 80.1403 44.2855C80.0009 42.8117 80.4102 41.3384 81.3657 40.1935C82.3992 38.9552 83.8152 38.3259 85.4054 38.1848Z" fill="#202D4D"/>
</g>
<defs>
<clipPath id="clip0_4801_4804">
<rect width="64" height="64" fill="white" transform="translate(53.75 12)"/>
</clipPath>
</defs>
</svg>
