<svg width="149" height="143" viewBox="0 0 149 143" fill="none" xmlns="http://www.w3.org/2000/svg">
<path d="M133.716 12.2738C138.996 19.0539 143.316 26.674 145.956 34.8341C148.236 42.0343 150.456 51.2744 145.176 57.6945C134.136 71.1947 111.696 65.8546 125.796 98.1351C139.896 130.416 130.416 132.876 120.216 138.396C110.016 143.916 86.5553 148.176 81.7553 119.195C78.5752 106.355 66.515 99.9951 55.2948 101.855C47.1347 103.175 30.5744 106.295 24.0343 102.275C13.3542 95.6751 4.53403 84.2749 1.59399 71.9747C-3.26609 51.9944 7.05409 15.9338 32.3745 15.9338C38.5546 15.9338 44.5547 18.0339 49.9548 20.9739C60.5749 26.914 71.3751 41.3743 84.1553 26.674C90.6354 19.1739 95.8555 10.0537 103.956 4.11366C115.596 -4.34648 126.036 2.43365 133.716 12.2738Z" fill="#F4E6CB"/>
<path d="M74.5 9C56.8262 9 42.5 23.3266 42.5 40.9992C42.5 58.6719 56.8262 73 74.5 73C92.1737 73 106.5 58.6734 106.5 40.9992C106.5 23.3251 92.1722 9 74.5 9Z" fill="#202D4D"/>
<path d="M90.2749 35.704C90.2749 50.2894 74.5002 62.1831 74.5002 62.1831C74.5002 62.1831 58.7256 50.376 58.7256 35.704C58.7256 31.4905 60.3875 27.4496 63.3459 24.4702C66.3042 21.4907 70.3165 19.8169 74.5002 19.8169C78.6839 19.8169 82.6963 21.4907 85.6546 24.4702C88.6129 27.4496 90.2749 31.4905 90.2749 35.704V35.704Z" fill="#E39250"/>
<path d="M74.4999 42.3521C78.7315 42.3521 82.1618 38.9218 82.1618 34.6902C82.1618 30.4586 78.7315 27.0282 74.4999 27.0282C70.2683 27.0282 66.8379 30.4586 66.8379 34.6902C66.8379 38.9218 70.2683 42.3521 74.4999 42.3521Z" fill="#E9E6E1"/>
</svg>
