<svg width="229" height="148" viewBox="0 0 229 148" fill="none" xmlns="http://www.w3.org/2000/svg">
<path d="M180.7 5.39332C180.7 5.39332 205.426 13.4323 218.135 60.4231C230.844 107.414 234.297 130.702 218.135 142.553C201.973 154.405 182.91 146.78 180.7 121.006C178.628 95.2311 167.301 57.5224 152.52 79.9818C137.739 102.441 119.367 117.608 112.322 120.591C105.277 123.575 80.5505 123.575 98.232 98.1317C115.914 72.7716 112.322 54.9532 97.5413 59.5943C82.7607 64.2354 21.4278 88.7667 8.71915 76.6668C-3.98946 64.5669 -9.65307 29.5103 57.3434 13.0179C124.34 -3.47443 153.211 -2.23129 180.7 5.39332Z" fill="#F4E6CB"/>
<path d="M115.501 12C97.8281 12 83.5 26.3265 83.5 44.0007C83.5 61.6749 97.8281 76.0015 115.501 76.0015C133.173 76.0015 147.5 61.6734 147.5 43.9992C147.5 26.3251 133.175 12 115.501 12Z" fill="#202D4D"/>
<path d="M131.685 41.5909C131.685 39.7118 131.111 37.8775 130.04 36.3336C128.969 34.7896 127.452 33.6097 125.691 32.9518C123.931 32.2939 122.012 32.1892 120.191 32.6521C118.37 33.1149 116.733 34.1231 115.501 35.5415C113.925 33.7253 111.702 32.5963 109.306 32.3949C106.909 32.1936 104.529 32.9358 102.672 34.4635C100.815 35.9913 99.6278 38.1838 99.3635 40.574C99.0992 42.9641 99.7786 45.363 101.257 47.2596C103.291 50.4732 115.522 61.1526 115.522 61.1526C115.522 61.1526 127.714 50.4732 129.742 47.2596C131.005 45.6405 131.689 43.6446 131.685 41.5909V41.5909Z" fill="#E39250"/>
</svg>
