<svg width="172" height="90" viewBox="0 0 172 90" fill="none" xmlns="http://www.w3.org/2000/svg">
<path d="M124.786 3.92916C124.786 3.92916 139.588 8.74164 147.196 36.8723C154.804 65.003 156.871 78.9443 147.196 86.039C137.521 93.1336 126.109 88.5692 124.786 73.1395C123.545 57.7098 116.764 35.1358 107.916 48.581C99.0676 62.0262 88.0692 71.1054 83.8518 72.8915C79.6344 74.6775 64.832 74.6775 75.4169 59.4463C86.0019 44.2647 83.8518 33.5978 75.0035 36.3762C66.1551 39.1545 29.4387 53.84 21.8308 46.5965C14.2228 39.353 10.8324 18.3666 50.9393 8.49358C91.0463 -1.37945 108.329 -0.635246 124.786 3.92916Z" fill="#F4E6CB"/>
<path d="M86.2508 13C68.5781 13 54.25 27.3265 54.25 45.0007C54.25 62.6749 68.5781 77.0015 86.2508 77.0015C103.923 77.0015 118.25 62.6734 118.25 44.9992C118.25 27.3251 103.925 13 86.2508 13Z" fill="#202D4D"/>
<path d="M102.435 42.5909C102.435 40.7118 101.861 38.8775 100.79 37.3335C99.7188 35.7896 98.2016 34.6097 96.4415 33.9517C94.6813 33.2938 92.7621 33.1892 90.9409 33.652C89.1197 34.1148 87.4833 35.123 86.2508 36.5415C84.6747 34.7252 82.4518 33.5962 80.0555 33.3948C77.6593 33.1935 75.2791 33.9357 73.422 35.4635C71.565 36.9912 70.3778 39.1838 70.1135 41.5739C69.8492 43.9641 70.5286 46.3629 72.007 48.2595C74.0406 51.4731 86.2719 62.1526 86.2719 62.1526C86.2719 62.1526 98.4641 51.4731 100.492 48.2595C101.755 46.6405 102.439 44.6446 102.435 42.5909Z" fill="#E39250"/>
</svg>
