<svg width="203" height="148" viewBox="0 0 203 148" fill="none" xmlns="http://www.w3.org/2000/svg">
<path d="M151.304 0.0891612C151.304 0.0891612 191.603 2.3245 201.603 52.6196C211.503 102.803 166.504 132.98 138.004 129.515C125.504 127.951 113.304 119.568 104.904 120.35C91.9035 121.58 81.1035 136.892 69.5035 142.592C53.5035 150.527 32.2035 150.751 19.2035 136.333C7.20353 123.033 3.20352 102.691 1.50352 84.5849C-0.196478 66.4787 0.603511 47.0313 7.30351 30.2662C14.1035 13.2777 29.2035 0.871524 46.1035 0.647991C65.7035 0.312691 81.3035 19.4248 101.204 16.8542C113.204 15.4012 122.104 -1.36381 151.304 0.0891612Z" fill="#F4E6CB"/>
<g clip-path="url(#clip0_4801_26157)">
<path d="M102.501 12C84.8281 12 70.5 26.3265 70.5 44.0007C70.5 61.6749 84.8281 76.0015 102.501 76.0015C120.173 76.0015 134.5 61.6734 134.5 43.9992C134.5 26.3251 120.175 12 102.501 12Z" fill="#202D4D"/>
<path d="M99.865 24.7305C101.579 24.7286 103.293 24.7672 105.007 24.7321C105.132 25.2606 105.193 25.8182 105.297 26.3531C105.495 27.3774 105.729 28.4046 105.861 29.4396C107.307 29.8491 108.771 30.3414 110.054 31.1355C110.443 30.8534 110.864 30.6064 111.264 30.3384C112.168 29.7321 113.077 29.1172 114.009 28.5539C114.291 28.8456 114.593 29.1209 114.885 29.403L116.552 31.0215C116.946 31.4052 117.358 31.7805 117.711 32.2034C117.553 32.5034 117.334 32.7788 117.149 33.0626C116.669 33.7954 116.164 34.5119 115.674 35.2376C115.478 35.5272 115.271 35.8106 115.088 36.1086C115.909 37.5535 116.34 38.6388 116.791 40.226C118.309 40.6086 119.881 40.8319 121.421 41.1153L121.424 46.3921C120.826 46.5433 120.203 46.63 119.597 46.748C118.637 46.9374 117.68 47.1404 116.725 47.3568C116.303 48.8577 115.906 49.868 115.128 51.2146C115.307 51.5293 115.529 51.821 115.723 52.1271C116.397 53.1931 117.099 54.2451 117.758 55.3205C117.332 55.7693 116.876 56.1893 116.435 56.6228L114.077 58.9375C113.339 58.4165 112.564 57.9351 111.805 57.4444C111.209 57.0582 110.613 56.6434 109.997 56.2896C108.75 57.0553 107.403 57.5519 105.992 57.9299L105.024 62.7292L104.641 62.7305L99.8486 62.7291L99.0122 57.9075C97.5654 57.5113 96.2212 56.9665 94.9298 56.2053C94.6199 56.3966 94.3234 56.6199 94.0222 56.825C92.9726 57.5394 91.9352 58.2968 90.8517 58.9586C89.6477 57.7148 88.3361 56.53 87.1544 55.2729C87.5726 54.7115 87.964 54.1294 88.3622 53.5538C88.86 52.8342 89.3627 52.1163 89.8499 51.3896C89.6472 50.957 89.3857 50.5486 89.1767 50.1171C88.727 49.1889 88.4012 48.2191 88.1349 47.2253C87.4636 47.147 86.7857 47.0065 86.1201 46.8883C85.2232 46.7266 84.3245 46.5759 83.4238 46.4362L83.428 41.1099C84.1645 40.9877 84.8966 40.8382 85.6316 40.7068C86.4612 40.5665 87.29 40.4208 88.1177 40.2698C88.4669 38.8059 89.0718 37.4351 89.8076 36.1253C89.4143 35.6345 89.0774 35.0748 88.717 34.5579C88.1871 33.798 87.6061 33.0364 87.1492 32.2301C87.9836 31.3774 88.808 30.5153 89.6226 29.6438C90.0037 29.2417 90.3786 28.831 90.7765 28.4453C91.2327 28.7763 91.717 29.0753 92.1812 29.3958C93.045 29.9922 93.9039 30.6063 94.7935 31.1636C96.2494 30.3621 97.3764 29.8835 98.9871 29.4562C99.2593 27.8801 99.5529 26.2994 99.865 24.7305Z" fill="#E39250"/>
<path d="M101.663 30.6667C101.669 30.6662 101.676 30.6655 101.683 30.6651C101.791 30.659 101.899 30.6543 102.007 30.6509C102.116 30.6475 102.224 30.6454 102.332 30.6447C102.44 30.6439 102.548 30.6445 102.657 30.6464C102.765 30.6483 102.873 30.6515 102.981 30.6561C103.089 30.6606 103.197 30.6665 103.305 30.6737C103.413 30.6809 103.521 30.6895 103.629 30.6994C103.737 30.7092 103.844 30.7204 103.952 30.7329C104.059 30.7454 104.167 30.7592 104.274 30.7743C104.381 30.7895 104.488 30.8059 104.595 30.8237C104.701 30.8414 104.808 30.8605 104.914 30.8809C105.02 30.9013 105.126 30.9229 105.232 30.9459C105.338 30.9689 105.443 30.9931 105.548 31.0187C105.653 31.0443 105.758 31.0711 105.863 31.0993C105.967 31.1274 106.071 31.1568 106.175 31.1875C106.279 31.2182 106.382 31.2502 106.485 31.2834C106.588 31.3166 106.69 31.3511 106.793 31.3869C106.895 31.4226 106.996 31.4596 107.097 31.4979C107.199 31.5361 107.299 31.5756 107.4 31.6163C107.5 31.657 107.599 31.6989 107.699 31.7421C107.798 31.7852 107.896 31.8296 107.994 31.8752C108.092 31.9208 108.19 31.9675 108.287 32.0155C108.384 32.0635 108.48 32.1127 108.576 32.163C108.671 32.2133 108.766 32.2648 108.861 32.3175C108.955 32.3702 109.049 32.424 109.142 32.479C109.235 32.5339 109.327 32.59 109.419 32.6472C109.511 32.7045 109.602 32.7629 109.692 32.8223C109.782 32.8818 109.871 32.9424 109.96 33.004C110.049 33.0657 110.137 33.1284 110.224 33.1923C110.311 33.2561 110.397 33.321 110.483 33.3869C110.569 33.4529 110.653 33.5198 110.737 33.5879C110.821 33.6559 110.904 33.7249 110.986 33.795C111.068 33.8651 111.15 33.9361 111.23 34.0082C111.31 34.0784 111.388 34.1496 111.466 34.2217C111.543 34.2939 111.62 34.367 111.696 34.441C111.771 34.515 111.846 34.59 111.92 34.6658C111.994 34.7417 112.067 34.8184 112.139 34.8961C112.211 34.9737 112.282 35.0522 112.352 35.1316C112.422 35.211 112.491 35.2912 112.559 35.3723C112.628 35.4533 112.695 35.5352 112.761 35.6179C112.827 35.7006 112.892 35.7841 112.956 35.8684C113.02 35.9527 113.083 36.0377 113.145 36.1236C113.207 36.2094 113.268 36.296 113.327 36.3833C113.387 36.4706 113.446 36.5587 113.503 36.6474C113.561 36.7362 113.618 36.8256 113.673 36.9158C113.728 37.0059 113.783 37.0967 113.836 37.1882C113.889 37.2796 113.941 37.3717 113.992 37.4645C114.043 37.5572 114.092 37.6505 114.141 37.7445C114.19 37.8384 114.237 37.933 114.283 38.0281C114.329 38.1232 114.375 38.2189 114.418 38.3151C114.462 38.4113 114.505 38.508 114.546 38.6053C114.588 38.7025 114.628 38.8003 114.667 38.8985C114.706 38.9967 114.744 39.0954 114.781 39.1946C114.818 39.2938 114.853 39.3934 114.887 39.4934C114.921 39.5935 114.954 39.6939 114.986 39.7947C115.018 39.8955 115.048 39.9967 115.077 40.0983C115.106 40.1999 115.134 40.3019 115.161 40.4041C115.188 40.5064 115.213 40.6089 115.237 40.7118C115.262 40.8147 115.284 40.9179 115.306 41.0213C115.328 41.1248 115.348 41.2285 115.367 41.3324C115.386 41.4363 115.404 41.5405 115.42 41.6449C115.437 41.7493 115.452 41.8538 115.466 41.9585C115.48 42.0633 115.492 42.1682 115.504 42.2733C115.515 42.3783 115.525 42.4835 115.534 42.5888C115.542 42.6941 115.55 42.7995 115.556 42.905C115.563 43.0118 115.569 43.1188 115.573 43.2258C115.577 43.3328 115.58 43.4399 115.582 43.547C115.584 43.6541 115.584 43.7612 115.583 43.8683C115.582 43.9754 115.58 44.0825 115.577 44.1895C115.573 44.2965 115.568 44.4035 115.562 44.5105C115.555 44.6174 115.548 44.7242 115.539 44.8309C115.53 44.9377 115.52 45.0443 115.508 45.1508C115.496 45.2573 115.483 45.3636 115.469 45.4698C115.455 45.5759 115.439 45.6819 115.422 45.7877C115.405 45.8934 115.387 45.999 115.368 46.1043C115.348 46.2097 115.327 46.3147 115.305 46.4195C115.283 46.5243 115.259 46.6289 115.235 46.7331C115.21 46.8373 115.184 46.9413 115.156 47.0449C115.129 47.1484 115.1 47.2517 115.071 47.3546C115.041 47.4574 115.009 47.5599 114.977 47.662C114.944 47.7641 114.911 47.8659 114.876 47.9671C114.841 48.0684 114.804 48.1692 114.767 48.2696C114.729 48.37 114.69 48.4699 114.65 48.5693C114.61 48.6687 114.569 48.7676 114.526 48.866C114.484 48.9644 114.44 49.0623 114.395 49.1596C114.35 49.2569 114.304 49.3537 114.257 49.4498C114.209 49.546 114.161 49.6416 114.111 49.7366C114.061 49.8316 114.01 49.9259 113.958 50.0197C113.906 50.1134 113.853 50.2064 113.798 50.2989C113.744 50.3913 113.688 50.483 113.632 50.574C113.575 50.665 113.517 50.7554 113.458 50.845C113.399 50.9346 113.339 51.0234 113.278 51.1115C113.217 51.1997 113.154 51.287 113.091 51.3736C113.028 51.4602 112.963 51.546 112.898 51.631C112.832 51.716 112.766 51.8001 112.698 51.8835C112.63 51.9668 112.562 52.0493 112.492 52.1309C112.422 52.2126 112.352 52.2934 112.28 52.3733C109.918 55.0174 106.804 56.5679 103.249 56.7759C102.693 56.793 102.136 56.8023 101.582 56.7627C101.494 56.7568 101.407 56.75 101.319 56.7423C101.232 56.7346 101.144 56.7261 101.057 56.7166C100.97 56.7072 100.883 56.6969 100.796 56.6857C100.709 56.6746 100.622 56.6625 100.535 56.6497C100.448 56.6367 100.362 56.623 100.275 56.6083C100.189 56.5937 100.102 56.5781 100.016 56.5618C99.9299 56.5454 99.8439 56.5281 99.7581 56.51C99.6723 56.4919 99.5866 56.473 99.5012 56.4532C99.4157 56.4333 99.3304 56.4126 99.2454 56.3911C99.1604 56.3696 99.0756 56.3472 98.991 56.324C98.9064 56.3008 98.8221 56.2767 98.738 56.2518C98.6539 56.2268 98.5701 56.2011 98.4865 56.1745C98.4029 56.1479 98.3196 56.1204 98.2366 56.0922C98.1536 56.0639 98.0709 56.0348 97.9885 56.0049C97.906 55.9749 97.8239 55.9442 97.7421 55.9126C97.6603 55.881 97.5788 55.8486 97.4977 55.8154C97.4165 55.7822 97.3357 55.7482 97.2552 55.7133C97.1748 55.6785 97.0947 55.6429 97.015 55.6065C96.9352 55.57 96.8559 55.5328 96.7769 55.4948C96.6979 55.4567 96.6193 55.4179 96.5411 55.3783C96.4629 55.3387 96.3851 55.2983 96.3077 55.2572C96.2304 55.216 96.1534 55.1741 96.0769 55.1314C96.0003 55.0887 95.9242 55.0452 95.8486 55.001C95.773 54.9568 95.6978 54.9118 95.623 54.866C95.5483 54.8203 95.474 54.7738 95.4002 54.7266C95.3264 54.6794 95.2531 54.6314 95.1803 54.5827C95.1074 54.534 95.0351 54.4846 94.9633 54.4345C94.8914 54.3843 94.8202 54.3335 94.7494 54.2819C94.6786 54.2303 94.6083 54.178 94.5385 54.1251C94.4688 54.0721 94.3996 54.0184 94.3309 53.964C94.2623 53.9097 94.1942 53.8546 94.1267 53.7989C94.0592 53.7431 93.9922 53.6867 93.9258 53.6297C91.2659 51.3309 89.5524 48.1505 89.3064 44.6346C89.2986 44.5282 89.2921 44.4217 89.2869 44.3152C89.2816 44.2086 89.2778 44.102 89.2752 43.9954C89.2726 43.8888 89.2714 43.7821 89.2715 43.6755C89.2715 43.5688 89.2729 43.4622 89.2757 43.3555C89.2784 43.2489 89.2825 43.1423 89.2878 43.0358C89.2932 42.9292 89.2999 42.8228 89.3079 42.7164C89.3159 42.61 89.3252 42.5038 89.3358 42.3976C89.3465 42.2915 89.3584 42.1855 89.3717 42.0797C89.385 41.9738 89.3995 41.8681 89.4154 41.7627C89.4313 41.6571 89.4485 41.5519 89.467 41.4468C89.4855 41.3417 89.5053 41.2369 89.5264 41.1323C89.5475 41.0277 89.5699 40.9234 89.5935 40.8194C89.6172 40.7154 89.6422 40.6116 89.6685 40.5082C89.6947 40.4048 89.7222 40.3017 89.751 40.1989C89.7798 40.0962 89.8099 39.9938 89.8412 39.8918C89.8726 39.7898 89.9052 39.6882 89.939 39.587C89.9729 39.4858 90.008 39.385 90.0444 39.2847C90.0807 39.1843 90.1183 39.0845 90.1572 38.985C90.196 38.8856 90.2361 38.7867 90.2774 38.6883C90.3186 38.5898 90.3611 38.4919 90.4049 38.3945C90.4486 38.2971 90.4935 38.2002 90.5396 38.104C90.5857 38.0076 90.633 37.9119 90.6815 37.8168C90.73 37.7217 90.7796 37.6271 90.8305 37.5332C90.8813 37.4393 90.9333 37.346 90.9864 37.2534C91.0396 37.1607 91.0939 37.0688 91.1493 36.9775C91.2047 36.8862 91.2613 36.7955 91.3189 36.7056C91.3766 36.6157 91.4354 36.5265 91.4952 36.438C91.5551 36.3495 91.6161 36.2618 91.6781 36.1748C91.7402 36.0879 91.8033 36.0016 91.8675 35.9162C91.9317 35.8308 91.9969 35.7461 92.0632 35.6623C92.1295 35.5785 92.1968 35.4955 92.2652 35.4133C92.3335 35.3311 92.4029 35.2498 92.4732 35.1693C92.5455 35.0874 92.6187 35.0064 92.6929 34.9263C92.7672 34.8462 92.8424 34.7671 92.9186 34.6888C92.9948 34.6106 93.0719 34.5332 93.15 34.4569C93.2281 34.3805 93.3071 34.3051 93.387 34.2306C93.467 34.1562 93.5479 34.0827 93.6296 34.0102C93.7114 33.9378 93.794 33.8663 93.8776 33.7959C93.9611 33.7254 94.0455 33.656 94.1307 33.5876C94.216 33.5193 94.302 33.4519 94.3889 33.3856C94.4758 33.3193 94.5635 33.2541 94.652 33.19C94.7406 33.1259 94.8299 33.0628 94.9199 33.0009C95.01 32.9389 95.1008 32.878 95.1924 32.8183C95.284 32.7586 95.3763 32.6999 95.4693 32.6424C95.5623 32.585 95.656 32.5286 95.7504 32.4734C95.8448 32.4182 95.9399 32.3642 96.0356 32.3113C96.1314 32.2585 96.2278 32.2068 96.3248 32.1563C96.4218 32.1057 96.5194 32.0564 96.6177 32.0083C96.7159 31.9601 96.8147 31.9132 96.9141 31.8675C97.0135 31.8218 97.1134 31.7773 97.2139 31.734C97.3144 31.6907 97.4154 31.6487 97.517 31.6079C97.6185 31.5671 97.7205 31.5275 97.823 31.4892C97.9255 31.4509 98.0285 31.4138 98.1319 31.378C98.2353 31.3422 98.3392 31.3077 98.4435 31.2744C98.5477 31.2411 98.6524 31.2091 98.7574 31.1784C98.8625 31.1477 98.9679 31.1183 99.0737 31.0902C99.1795 31.0621 99.2856 31.0352 99.392 31.0097C99.4985 30.9841 99.6053 30.9599 99.7123 30.937C99.8194 30.9141 99.9267 30.8924 100.034 30.8721C100.142 30.8518 100.25 30.8328 100.358 30.8152C100.466 30.7975 100.574 30.7811 100.682 30.7661C100.791 30.7511 100.9 30.7374 101.008 30.725C101.117 30.7126 101.226 30.7016 101.335 30.6919C101.444 30.6822 101.553 30.6738 101.663 30.6667Z" fill="#E39250"/>
<path d="M101.878 34.5333C101.949 34.5289 102.02 34.5254 102.092 34.5226C102.163 34.5199 102.234 34.518 102.305 34.517C102.376 34.5159 102.447 34.5156 102.518 34.5162C102.59 34.5167 102.661 34.5181 102.732 34.5203C102.803 34.5225 102.874 34.5255 102.945 34.5294C103.016 34.5333 103.087 34.5379 103.158 34.5434C103.229 34.5489 103.3 34.5551 103.371 34.5622C103.442 34.5694 103.512 34.5773 103.583 34.586C103.653 34.5948 103.724 34.6043 103.794 34.6147C103.865 34.6251 103.935 34.6363 104.005 34.6483C104.075 34.6602 104.145 34.673 104.215 34.6866C104.285 34.7002 104.355 34.7146 104.424 34.7298C104.494 34.745 104.563 34.7611 104.632 34.7779C104.701 34.7947 104.77 34.8123 104.839 34.8307C104.908 34.8491 104.976 34.8682 105.044 34.8882C105.113 34.9082 105.181 34.9289 105.248 34.9505C105.316 34.972 105.384 34.9943 105.451 35.0174C105.518 35.0405 105.585 35.0644 105.652 35.089C105.719 35.1137 105.785 35.1391 105.851 35.1652C105.917 35.1914 105.983 35.2183 106.049 35.246C106.114 35.2737 106.179 35.3022 106.244 35.3314C106.309 35.3605 106.373 35.3905 106.438 35.4212C106.502 35.4519 106.565 35.4833 106.629 35.5154C106.692 35.5476 106.755 35.5804 106.818 35.614C106.881 35.6476 106.943 35.6819 107.005 35.717C107.066 35.752 107.128 35.7878 107.189 35.8242C107.25 35.8607 107.31 35.8978 107.371 35.9357C107.431 35.9735 107.49 36.0121 107.55 36.0513C107.609 36.0905 107.668 36.1304 107.726 36.171C107.784 36.2116 107.842 36.2528 107.9 36.2947C107.957 36.3366 108.014 36.3792 108.07 36.4224C108.126 36.4656 108.182 36.5095 108.238 36.554C108.298 36.6023 108.357 36.6514 108.416 36.7011C108.475 36.751 108.533 36.8015 108.591 36.8527C108.649 36.9039 108.706 36.9558 108.762 37.0085C108.818 37.0611 108.874 37.1145 108.929 37.1685C108.984 37.2225 109.038 37.2771 109.092 37.3325C109.146 37.3878 109.198 37.4439 109.251 37.5005C109.303 37.5572 109.355 37.6144 109.405 37.6724C109.456 37.7303 109.506 37.7889 109.556 37.8481C109.605 37.9072 109.654 37.967 109.701 38.0274C109.749 38.0877 109.796 38.1487 109.843 38.2102C109.889 38.2717 109.935 38.3338 109.979 38.3965C110.024 38.4591 110.068 38.5224 110.111 38.5861C110.155 38.6498 110.197 38.7141 110.239 38.7789C110.28 38.8437 110.321 38.909 110.361 38.9748C110.401 39.0406 110.44 39.1069 110.479 39.1736C110.517 39.2404 110.554 39.3077 110.591 39.3753C110.628 39.443 110.663 39.5112 110.698 39.5797C110.733 39.6483 110.767 39.7173 110.801 39.7868C110.834 39.8562 110.866 39.926 110.898 39.9962C110.929 40.0664 110.96 40.137 110.99 40.208C111.019 40.2789 111.048 40.3503 111.076 40.422C111.104 40.4937 111.131 40.5657 111.157 40.6381C111.183 40.7104 111.209 40.7831 111.233 40.856C111.257 40.929 111.281 41.0023 111.303 41.0759C111.326 41.1494 111.347 41.2232 111.368 41.2973C111.389 41.3714 111.409 41.4457 111.427 41.5203C111.446 41.5949 111.464 41.6697 111.481 41.7447C111.498 41.8197 111.514 41.895 111.529 41.9704C111.544 42.0458 111.558 42.1214 111.571 42.1972C111.585 42.2729 111.597 42.3488 111.608 42.4249C111.619 42.501 111.63 42.5772 111.639 42.6535C111.649 42.7298 111.657 42.8062 111.664 42.8828C111.671 42.9563 111.677 43.03 111.682 43.1037C111.687 43.1774 111.691 43.2512 111.695 43.325C111.698 43.3988 111.7 43.4727 111.702 43.5465C111.703 43.6204 111.704 43.6943 111.703 43.7682C111.703 43.8421 111.702 43.9159 111.699 43.9898C111.697 44.0637 111.694 44.1375 111.69 44.2113C111.686 44.285 111.681 44.3588 111.675 44.4324C111.67 44.5061 111.663 44.5797 111.655 44.6532C111.648 44.7267 111.639 44.8001 111.63 44.8734C111.621 44.9467 111.61 45.0198 111.599 45.0929C111.588 45.1659 111.576 45.2389 111.563 45.3116C111.55 45.3844 111.536 45.457 111.522 45.5294C111.507 45.6018 111.491 45.674 111.475 45.7461C111.458 45.8181 111.441 45.89 111.423 45.9616C111.405 46.0332 111.385 46.1046 111.366 46.1758C111.346 46.247 111.325 46.3179 111.303 46.3885C111.281 46.4592 111.259 46.5296 111.235 46.5997C111.212 46.6698 111.188 46.7396 111.163 46.8092C111.137 46.8787 111.111 46.9479 111.085 47.0169C111.058 47.0857 111.03 47.1543 111.002 47.2225C110.973 47.2908 110.944 47.3587 110.914 47.4262C110.884 47.4937 110.853 47.5609 110.821 47.6277C110.789 47.6945 110.757 47.7608 110.723 47.8268C110.69 47.8928 110.656 47.9584 110.621 48.0235C110.586 48.0887 110.55 48.1535 110.513 48.2178C110.477 48.2821 110.439 48.3459 110.401 48.4093C110.363 48.4727 110.324 48.5356 110.284 48.5981C110.245 48.6606 110.204 48.7225 110.163 48.784C110.122 48.8455 110.08 48.9065 110.037 48.9669C109.995 49.0274 109.951 49.0873 109.907 49.1468C109.863 49.2062 109.818 49.265 109.773 49.3234C109.727 49.3817 109.681 49.4395 109.634 49.4967C107.928 51.5563 105.654 52.6977 102.993 52.9511C102.417 52.9759 101.852 52.9725 101.279 52.9013C99.4756 52.677 97.7229 51.8735 96.3437 50.7037C96.2868 50.6549 96.2306 50.6054 96.175 50.5552C96.1194 50.505 96.0644 50.4541 96.0101 50.4025C95.9557 50.351 95.902 50.2988 95.8489 50.246C95.7959 50.1931 95.7435 50.1396 95.6917 50.0855C95.64 50.0313 95.5889 49.9766 95.5385 49.9212C95.4881 49.8658 95.4384 49.8098 95.3894 49.7532C95.3404 49.6967 95.292 49.6395 95.2444 49.5817C95.1968 49.5239 95.1499 49.4656 95.1038 49.4066C95.0576 49.3477 95.0122 49.2883 94.9675 49.2282C94.9227 49.1682 94.8788 49.1076 94.8355 49.0465C94.7923 48.9855 94.7499 48.9238 94.7082 48.8617C94.6665 48.7996 94.6256 48.7369 94.5854 48.6738C94.5453 48.6107 94.5059 48.5471 94.4673 48.483C94.4287 48.4189 94.3909 48.3543 94.354 48.2893C94.317 48.2243 94.2808 48.1588 94.2454 48.093C94.21 48.0271 94.1754 47.9607 94.1417 47.894C94.108 47.8272 94.0751 47.7601 94.043 47.6926C94.0109 47.625 93.9796 47.5571 93.9492 47.4888C93.9188 47.4205 93.8892 47.3518 93.8605 47.2828C93.8318 47.2138 93.8039 47.1444 93.7769 47.0747C93.7499 47.005 93.7237 46.9349 93.6984 46.8646C93.6731 46.7943 93.6487 46.7236 93.6251 46.6527C93.6016 46.5817 93.5789 46.5105 93.5571 46.439C93.5353 46.3675 93.5144 46.2958 93.4944 46.2238C93.4744 46.1518 93.4553 46.0795 93.437 46.007C93.4188 45.9346 93.4014 45.8619 93.385 45.789C93.3685 45.7161 93.353 45.643 93.3383 45.5697C93.3237 45.4965 93.3099 45.423 93.2971 45.3494C93.2842 45.2758 93.2723 45.202 93.2613 45.1282C93.2503 45.0543 93.2401 44.9802 93.2309 44.9061C93.2217 44.8319 93.2134 44.7577 93.2061 44.6833C93.1987 44.609 93.1923 44.5346 93.1867 44.46C93.1812 44.3843 93.1766 44.3084 93.1729 44.2326C93.1692 44.1567 93.1665 44.0807 93.1647 44.0048C93.1629 43.9288 93.162 43.8529 93.1621 43.7769C93.1622 43.701 93.1632 43.625 93.1651 43.549C93.1671 43.4731 93.17 43.3972 93.1738 43.3213C93.1776 43.2454 93.1824 43.1696 93.1881 43.0938C93.1938 43.0181 93.2004 42.9424 93.208 42.8668C93.2155 42.7912 93.224 42.7157 93.2334 42.6403C93.2429 42.5649 93.2532 42.4897 93.2645 42.4145C93.2758 42.3394 93.288 42.2644 93.3011 42.1896C93.3143 42.1147 93.3284 42.0401 93.3433 41.9656C93.3583 41.8911 93.3742 41.8168 93.391 41.7426C93.4078 41.6686 93.4256 41.5947 93.4442 41.521C93.4629 41.4473 93.4824 41.3739 93.5029 41.3007C93.5233 41.2275 93.5446 41.1545 93.5669 41.0819C93.5891 41.0092 93.6123 40.9368 93.6364 40.8647C93.6604 40.7926 93.6853 40.7208 93.7111 40.6493C93.7369 40.5778 93.7636 40.5066 93.7912 40.4358C93.8188 40.3649 93.8472 40.2944 93.8765 40.2243C93.9058 40.1541 93.936 40.0843 93.9671 40.0149C93.9981 39.9455 94.03 39.8765 94.0627 39.8078C94.0954 39.7392 94.129 39.671 94.1634 39.6031C94.1978 39.5353 94.2331 39.4679 94.2692 39.401C94.3053 39.3341 94.3422 39.2676 94.3799 39.2015C94.4176 39.1354 94.4561 39.0699 94.4955 39.0048C94.5348 38.9397 94.575 38.875 94.616 38.8109C94.6569 38.7468 94.6986 38.6831 94.7411 38.62C94.7836 38.5569 94.8269 38.4943 94.871 38.4323C94.915 38.3702 94.9598 38.3087 95.0054 38.2478C95.051 38.1869 95.0973 38.1265 95.1443 38.0666C95.1914 38.0068 95.2392 37.9476 95.2877 37.8889C95.3363 37.8303 95.3855 37.7722 95.4355 37.7147C97.0752 35.817 99.3838 34.721 101.878 34.5333Z" fill="#FEFEFE"/>
<path d="M102.155 38.1848C102.162 38.1838 102.17 38.1826 102.177 38.1819C103.406 38.0695 104.912 38.6203 105.863 39.3716C107.038 40.3 107.846 41.6253 108.014 43.1213C108.019 43.1665 108.024 43.2118 108.029 43.2572C108.033 43.3026 108.037 43.348 108.04 43.3934C108.043 43.4389 108.046 43.4844 108.048 43.53C108.05 43.5755 108.051 43.6211 108.052 43.6666C108.053 43.7122 108.053 43.7578 108.053 43.8033C108.053 43.8489 108.052 43.8945 108.05 43.94C108.049 43.9856 108.047 44.0311 108.044 44.0766C108.042 44.1222 108.038 44.1676 108.035 44.213C108.031 44.2585 108.027 44.3038 108.022 44.3491C108.017 44.3945 108.011 44.4397 108.005 44.4849C107.999 44.5301 107.993 44.5752 107.985 44.6202C107.978 44.6652 107.97 44.7101 107.962 44.7549C107.954 44.7998 107.945 44.8445 107.935 44.8891C107.926 44.9337 107.916 44.9781 107.905 45.0225C107.895 45.0668 107.884 45.111 107.872 45.1551C107.86 45.1991 107.848 45.243 107.835 45.2868C107.822 45.3305 107.809 45.3741 107.795 45.4175C107.781 45.4609 107.766 45.5042 107.751 45.5472C107.736 45.5903 107.721 45.6331 107.705 45.6758C107.688 45.7185 107.672 45.7609 107.655 45.8032C107.637 45.8454 107.62 45.8874 107.601 45.9292C107.583 45.971 107.564 46.0126 107.545 46.0539C107.526 46.0952 107.506 46.1363 107.485 46.1771C107.465 46.2179 107.444 46.2585 107.423 46.2988C107.401 46.3391 107.38 46.3792 107.357 46.4189C107.335 46.4587 107.312 46.4981 107.288 46.5373C107.265 46.5765 107.241 46.6154 107.217 46.654C107.192 46.6925 107.167 46.7308 107.142 46.7687C107.117 46.8067 107.091 46.8443 107.064 46.8816C107.038 46.9189 107.011 46.9559 106.984 46.9925C106.957 47.0291 106.929 47.0654 106.901 47.1014C106.873 47.1373 106.844 47.1729 106.815 47.2081C106.067 48.1265 104.981 48.8315 103.822 49.109C103.491 49.188 103.153 49.2209 102.816 49.2558C101.312 49.3066 100.03 48.9432 98.8602 47.9858C97.7637 47.088 97.0232 45.6903 96.8903 44.2855C96.7509 42.8116 97.1602 41.3384 98.1157 40.1935C99.1492 38.9552 100.565 38.3259 102.155 38.1848Z" fill="#202D4D"/>
</g>
<defs>
<clipPath id="clip0_4801_26157">
<rect width="64" height="64" fill="white" transform="translate(70.5 12)"/>
</clipPath>
</defs>
</svg>
