<svg width="172" height="119" viewBox="0 0 172 119" fill="none" xmlns="http://www.w3.org/2000/svg">
<path d="M24.9641 64.1095C19.9029 74.9891 41.0245 95.0347 59.1572 107.269C77.25 119.464 86.3363 121.297 88.9267 114.004C91.5171 106.672 78.5253 99.6974 83.7061 90.8901C88.8868 82.0828 105.944 90.6111 110.646 93.879C115.349 97.1469 138.543 111.573 146.672 88.9772C154.802 66.3811 123.08 66.5803 119.613 66.3811C116.146 66.1818 88.3688 69.9678 87.492 60.2439C86.6153 50.52 106.382 50.9185 105.784 43.3865C105.146 35.8146 51.2267 7.75872 24.9641 64.1095Z" fill="#F4E6CB"/>
<g clip-path="url(#clip0_4801_4815)">
<path d="M86.2508 12C68.5781 12 54.25 26.3265 54.25 44.0007C54.25 61.6749 68.5781 76.0015 86.2508 76.0015C103.923 76.0015 118.25 61.6734 118.25 43.9992C118.25 26.3251 103.925 12 86.2508 12Z" fill="#202D4D"/>
<path d="M99.9507 30.3296C100.567 30.5835 101.175 30.8606 101.799 31.0917C101.81 32.9617 101.812 34.8317 101.804 36.7017C101.791 38.2105 101.771 39.7172 101.631 41.221C101.083 47.1163 98.7842 52.8014 94.577 57.0361C92.7916 58.8332 90.7717 60.2793 88.5609 61.5083C87.9193 61.8649 87.236 62.241 86.5495 62.5001C86.4758 62.3304 86.5213 60.4532 86.5203 60.1057C86.913 59.961 87.2913 59.7365 87.6608 59.5412C88.101 59.3113 88.5338 59.0683 88.9592 58.8122C89.3847 58.5561 89.802 58.2874 90.2111 58.006C90.6203 57.7246 91.0206 57.4311 91.412 57.1255C91.8034 56.82 92.1852 56.5028 92.5575 56.174C97.4286 51.7948 99.6613 45.6427 99.9003 39.2001C99.978 37.1052 99.9506 35.0011 99.9491 32.9046C99.9486 32.0647 99.9007 31.2004 99.9485 30.3636L99.9507 30.3296Z" fill="#E39250"/>
<path d="M71.25 31.2573L73.315 30.3716L73.3149 36.7574C73.3125 38.0734 73.2503 39.4139 73.3518 40.7256C73.7816 46.2784 75.8957 51.4763 79.8525 55.4468C81.4804 57.0804 83.3138 58.4074 85.3415 59.4987C85.7194 59.702 86.1194 59.9556 86.5206 60.1056C86.5215 60.4531 86.4761 62.3303 86.5497 62.5C86.3233 62.4984 85.6353 62.0969 85.3983 61.9719C82.9247 60.6677 80.7497 59.2156 78.7524 57.241C74.2396 52.7795 71.778 47.0508 71.3233 40.7483C71.2317 39.4788 71.2671 38.2052 71.2662 36.9334L71.25 31.2573Z" fill="#E39250"/>
<path d="M73.3146 30.3716C74.3786 29.9421 75.4201 29.4531 76.4702 28.9907L82.6697 26.2298L85.2014 25.0842C85.6341 24.8884 86.0815 24.6475 86.5311 24.5C87.0065 24.6771 87.461 24.903 87.9211 25.1156C88.5785 25.4177 89.238 25.7151 89.8995 26.0079L96.4272 28.8219C97.6007 29.3265 98.7636 29.8558 99.9505 30.3295L99.9484 30.3636C99.9005 31.2003 99.9484 32.0647 99.949 32.9045C99.9504 35.0011 99.9779 37.1051 99.9001 39.2C99.6611 45.6427 97.4284 51.7947 92.5573 56.174C92.1851 56.5027 91.8033 56.8199 91.4118 57.1255C91.0205 57.4311 90.6202 57.7245 90.211 58.0059C89.8018 58.2873 89.3845 58.556 88.959 58.8121C88.5336 59.0682 88.1008 59.3112 87.6606 59.5411C87.2912 59.7365 86.9128 59.961 86.5202 60.1056C86.119 59.9557 85.719 59.702 85.3411 59.4987C83.3134 58.4074 81.48 57.0804 79.8521 55.4469C75.8953 51.4763 73.7812 46.2785 73.3515 40.7257C73.2499 39.4139 73.3121 38.0734 73.3145 36.7574L73.3146 30.3716Z" fill="#E39250"/>
<path d="M86.5565 43.8121C87.0882 43.244 87.6574 42.7047 88.2074 42.1541C88.9608 41.3949 89.7098 40.6314 90.4544 39.8637C91.2632 39.0336 92.078 38.2095 92.8988 37.3913C93.2449 37.044 93.5748 36.6594 93.9402 36.3342C94.0346 36.2503 94.1213 36.1964 94.2464 36.1711C94.382 36.1436 94.4855 36.1523 94.5999 36.233C94.8772 36.4287 96.1428 37.6312 96.1514 37.9183C96.162 38.2719 95.4595 38.8419 95.2108 39.0949L86.5124 47.9883C85.991 48.5218 85.4781 49.3527 84.6582 49.3899C84.624 49.3915 84.5898 49.3915 84.5555 49.3902C84.5213 49.3889 84.4872 49.3861 84.4532 49.382C84.4192 49.3779 84.3854 49.3723 84.3519 49.3654C84.3184 49.3585 84.2852 49.3502 84.2523 49.3405C84.2195 49.3309 84.187 49.3198 84.1551 49.3075C84.1231 49.2951 84.0918 49.2815 84.0609 49.2665C84.0301 49.2516 84 49.2355 83.9705 49.218C83.941 49.2006 83.9123 49.182 83.8843 49.1622C83.4252 48.8371 83.0348 48.3042 82.6339 47.9029L79.5981 44.8464C79.1271 44.3718 78.6773 43.8679 78.1827 43.418C77.956 43.1864 77.3525 42.693 77.3644 42.3619C77.3682 42.2584 77.4206 42.1622 77.4814 42.081C77.6304 41.8819 78.5319 40.9593 78.7247 40.802C78.9201 40.6425 79.1639 40.5274 79.423 40.5603C79.5575 40.5774 79.7002 40.7247 79.7987 40.8146C80.5252 41.477 81.1945 42.2255 81.8866 42.926C82.8096 43.8604 83.7623 44.773 84.6468 45.7442C85.0518 45.3459 85.4458 44.9364 85.848 44.5353C86.0747 44.3092 86.3647 44.0677 86.5565 43.8121Z" fill="#FEFEFE"/>
<path d="M73.3146 30.3716C74.3786 29.9421 75.4201 29.4531 76.4702 28.9907L82.6697 26.2298L85.2014 25.0842C85.6341 24.8884 86.0815 24.6475 86.5311 24.5C86.4704 25.0416 86.5167 25.6313 86.5174 26.1772L86.5196 29.4635L86.5217 40.6011C86.5217 40.9995 86.4645 43.6437 86.5566 43.8119C86.3647 44.0675 86.0747 44.3089 85.8481 44.535C85.4458 44.9362 85.0519 45.3457 84.6468 45.744C83.7623 44.7728 82.8096 43.8601 81.8866 42.9258C81.1946 42.2253 80.5252 41.4768 79.7988 40.8144C79.7002 40.7245 79.5575 40.5772 79.423 40.5601C79.1639 40.5271 78.9202 40.6423 78.7247 40.8018C78.532 40.9591 77.6304 41.8816 77.4814 42.0807C77.4206 42.1619 77.3682 42.2582 77.3645 42.3617C77.3525 42.6928 77.956 43.1862 78.1827 43.4178C78.6773 43.8676 79.1271 44.3716 79.5981 44.8462L82.6339 47.9026C83.0349 48.3039 83.4252 48.8369 83.8844 49.162C83.9123 49.1817 83.941 49.2004 83.9705 49.2178C84 49.2352 84.0302 49.2514 84.061 49.2663C84.0918 49.2813 84.1232 49.2949 84.1551 49.3072C84.1871 49.3196 84.2195 49.3306 84.2523 49.3403C84.2852 49.35 84.3184 49.3583 84.352 49.3652C84.3855 49.3721 84.4192 49.3776 84.4532 49.3818C84.4872 49.3859 84.5213 49.3886 84.5556 49.39C84.5898 49.3913 84.624 49.3912 84.6582 49.3897C85.4781 49.3525 85.9911 48.5215 86.5124 47.9881C86.5618 48.6848 86.5098 49.3824 86.5419 50.0783L86.5304 50.1007C86.5619 50.5954 86.539 51.0987 86.5334 51.5945C86.5244 52.3266 86.52 53.0588 86.5204 53.7909C86.5187 55.8936 86.5609 58.004 86.5202 60.1056C86.119 59.9557 85.719 59.702 85.3411 59.4987C83.3134 58.4074 81.48 57.0804 79.8521 55.4469C75.8953 51.4763 73.7812 46.2785 73.3515 40.7257C73.2499 39.4139 73.3121 38.0734 73.3145 36.7574L73.3146 30.3716Z" fill="#E39250"/>
</g>
<defs>
<clipPath id="clip0_4801_4815">
<rect width="64" height="64" fill="white" transform="translate(54.25 12)"/>
</clipPath>
</defs>
</svg>
