<svg width="172" height="88" viewBox="0 0 172 88" fill="none" xmlns="http://www.w3.org/2000/svg">
<path d="M120.919 8.97701C124.08 13.0359 126.666 17.5976 128.247 22.4826C129.612 26.7929 130.941 32.3244 127.78 36.1678C121.171 44.2495 107.737 41.0528 116.178 60.3772C124.619 79.7017 118.944 81.1744 112.838 84.4789C106.731 87.7835 92.687 90.3338 89.8135 72.9848C87.9098 65.2981 80.69 61.4907 73.9732 62.6042C69.0882 63.3944 59.1745 65.2622 55.2593 62.8557C48.8657 58.9046 43.5856 52.0799 41.8256 44.7165C38.9161 32.7555 45.0942 11.1681 60.2521 11.1681C63.9518 11.1681 67.5437 12.4252 70.7764 14.1853C77.1341 17.7413 83.5995 26.3978 91.2503 17.5976C95.1295 13.1077 98.2545 7.64799 103.104 4.092C110.072 -0.972596 116.322 3.08628 120.919 8.97701Z" fill="#F4E6CB"/>
<path d="M85.75 12C68.0762 12 53.75 26.3266 53.75 43.9992C53.75 61.6719 68.0762 76 85.75 76C103.424 76 117.75 61.6734 117.75 43.9992C117.75 26.3251 103.422 12 85.75 12Z" fill="#202D4D"/>
<path d="M101.525 38.704C101.525 53.2894 85.7502 65.1831 85.7502 65.1831C85.7502 65.1831 69.9756 53.376 69.9756 38.704C69.9756 34.4905 71.6375 30.4496 74.5959 27.4702C77.5542 24.4907 81.5665 22.8169 85.7502 22.8169C89.9339 22.8169 93.9463 24.4907 96.9046 27.4702C99.8629 30.4496 101.525 34.4905 101.525 38.704Z" fill="#E39250"/>
<path d="M85.7499 45.3521C89.9815 45.3521 93.4118 41.9218 93.4118 37.6902C93.4118 33.4586 89.9815 30.0282 85.7499 30.0282C81.5183 30.0282 78.0879 33.4586 78.0879 37.6902C78.0879 41.9218 81.5183 45.3521 85.7499 45.3521Z" fill="#E9E6E1"/>
</svg>
