<svg width="207" height="148" viewBox="0 0 207 148" fill="none" xmlns="http://www.w3.org/2000/svg">
<path d="M1.47517 57.4785C-6.97932 75.6524 28.3032 109.137 58.5928 129.575C88.816 149.945 103.994 153.008 108.321 140.825C112.648 128.576 90.9462 116.926 99.6004 102.214C108.255 87.5019 136.747 101.748 144.602 107.207C152.458 112.666 191.202 136.764 204.782 99.0187C218.363 61.2731 165.372 61.6059 159.581 61.2731C153.789 60.9402 107.389 67.2644 105.925 51.0211C104.46 34.7779 137.479 35.4436 136.481 22.8618C135.415 10.2133 45.3453 -36.6525 1.47517 57.4785Z" fill="#F4E6CB"/>
<g clip-path="url(#clip0_4801_26158)">
<path d="M103.501 12C85.8281 12 71.5 26.3265 71.5 44.0007C71.5 61.6749 85.8281 76.0015 103.501 76.0015C121.173 76.0015 135.5 61.6734 135.5 43.9992C135.5 26.3251 121.175 12 103.501 12Z" fill="#202D4D"/>
<path d="M117.201 30.3296C117.817 30.5835 118.425 30.8606 119.049 31.0917C119.06 32.9617 119.062 34.8317 119.054 36.7017C119.041 38.2105 119.021 39.7172 118.881 41.221C118.333 47.1163 116.034 52.8014 111.827 57.0361C110.042 58.8332 108.022 60.2793 105.811 61.5083C105.169 61.8649 104.486 62.241 103.799 62.5001C103.726 62.3304 103.771 60.4532 103.77 60.1057C104.163 59.961 104.541 59.7365 104.911 59.5412C105.351 59.3113 105.784 59.0683 106.209 58.8122C106.635 58.5561 107.052 58.2874 107.461 58.006C107.87 57.7246 108.271 57.4311 108.662 57.1255C109.053 56.8199 109.435 56.5028 109.807 56.174C114.679 51.7948 116.911 45.6427 117.15 39.2001C117.228 37.1052 117.201 35.0011 117.199 32.9046C117.199 32.0647 117.151 31.2004 117.199 30.3636L117.201 30.3296Z" fill="#E39250"/>
<path d="M88.5 31.2573L90.565 30.3716L90.5649 36.7574C90.5625 38.0734 90.5003 39.4139 90.6018 40.7256C91.0316 46.2784 93.1457 51.4763 97.1025 55.4468C98.7304 57.0804 100.564 58.4074 102.592 59.4987C102.969 59.702 103.369 59.9556 103.771 60.1056C103.771 60.4531 103.726 62.3303 103.8 62.4999C103.573 62.4984 102.885 62.0969 102.648 61.9719C100.175 60.6677 97.9997 59.2156 96.0024 57.241C91.4896 52.7795 89.028 47.0508 88.5733 40.7483C88.4817 39.4788 88.5171 38.2052 88.5162 36.9334L88.5 31.2573Z" fill="#E39250"/>
<path d="M90.5646 30.3716C91.6286 29.9421 92.6701 29.4531 93.7202 28.9907L99.9197 26.2298L102.451 25.0842C102.884 24.8884 103.332 24.6475 103.781 24.5C104.256 24.6771 104.711 24.903 105.171 25.1156C105.828 25.4177 106.488 25.7151 107.15 26.0079L113.677 28.8219C114.851 29.3265 116.014 29.8558 117.201 30.3295L117.198 30.3636C117.151 31.2003 117.198 32.0647 117.199 32.9045C117.2 35.0011 117.228 37.1051 117.15 39.2C116.911 45.6427 114.678 51.7947 109.807 56.174C109.435 56.5027 109.053 56.8199 108.662 57.1255C108.27 57.4311 107.87 57.7245 107.461 58.0059C107.052 58.2873 106.634 58.556 106.209 58.8121C105.784 59.0682 105.351 59.3112 104.911 59.5411C104.541 59.7365 104.163 59.961 103.77 60.1056C103.369 59.9557 102.969 59.7021 102.591 59.4987C100.563 58.4074 98.73 57.0804 97.1021 55.4469C93.1453 51.4763 91.0312 46.2785 90.6015 40.7257C90.4999 39.4139 90.5621 38.0734 90.5645 36.7574L90.5646 30.3716Z" fill="#E39250"/>
<path d="M103.807 43.8121C104.338 43.244 104.907 42.7047 105.457 42.1541C106.211 41.3949 106.96 40.6314 107.704 39.8637C108.513 39.0336 109.328 38.2095 110.149 37.3913C110.495 37.044 110.825 36.6594 111.19 36.3342C111.285 36.2503 111.371 36.1964 111.496 36.1711C111.632 36.1436 111.736 36.1523 111.85 36.233C112.127 36.4287 113.393 37.6312 113.401 37.9183C113.412 38.2719 112.71 38.8419 112.461 39.0949L103.762 47.9883C103.241 48.5218 102.728 49.3527 101.908 49.3899C101.874 49.3915 101.84 49.3915 101.806 49.3902C101.771 49.3889 101.737 49.3861 101.703 49.382C101.669 49.3779 101.635 49.3723 101.602 49.3654C101.568 49.3585 101.535 49.3502 101.502 49.3405C101.469 49.3309 101.437 49.3198 101.405 49.3075C101.373 49.2951 101.342 49.2815 101.311 49.2665C101.28 49.2516 101.25 49.2355 101.22 49.218C101.191 49.2006 101.162 49.182 101.134 49.1622C100.675 48.8371 100.285 48.3042 99.8839 47.9029L96.8481 44.8464C96.3771 44.3718 95.9273 43.8679 95.4327 43.418C95.206 43.1864 94.6025 42.693 94.6144 42.3619C94.6182 42.2584 94.6706 42.1622 94.7314 42.081C94.8804 41.8819 95.7819 40.9593 95.9747 40.802C96.1701 40.6425 96.4139 40.5274 96.673 40.5603C96.8075 40.5774 96.9502 40.7247 97.0487 40.8146C97.7752 41.477 98.4445 42.2255 99.1366 42.926C100.06 43.8604 101.012 44.773 101.897 45.7442C102.302 45.3459 102.696 44.9364 103.098 44.5353C103.325 44.3092 103.615 44.0677 103.807 43.8121Z" fill="#FEFEFE"/>
<path d="M90.5646 30.3716C91.6286 29.9421 92.6701 29.4531 93.7202 28.9907L99.9197 26.2298L102.451 25.0842C102.884 24.8884 103.332 24.6475 103.781 24.5C103.72 25.0416 103.767 25.6313 103.767 26.1772L103.77 29.4635L103.772 40.6011C103.772 40.9995 103.714 43.6437 103.807 43.8119C103.615 44.0675 103.325 44.3089 103.098 44.535C102.696 44.9362 102.302 45.3457 101.897 45.744C101.012 44.7728 100.06 43.8601 99.1366 42.9258C98.4446 42.2253 97.7752 41.4768 97.0488 40.8144C96.9502 40.7245 96.8075 40.5772 96.673 40.5601C96.4139 40.5271 96.1702 40.6423 95.9747 40.8018C95.782 40.9591 94.8804 41.8816 94.7314 42.0807C94.6706 42.1619 94.6182 42.2582 94.6145 42.3617C94.6025 42.6928 95.206 43.1862 95.4327 43.4178C95.9273 43.8676 96.3771 44.3716 96.8481 44.8462L99.8839 47.9026C100.285 48.3039 100.675 48.8369 101.134 49.162C101.162 49.1817 101.191 49.2004 101.221 49.2178C101.25 49.2352 101.28 49.2514 101.311 49.2663C101.342 49.2813 101.373 49.2949 101.405 49.3072C101.437 49.3196 101.469 49.3306 101.502 49.3403C101.535 49.35 101.568 49.3583 101.602 49.3652C101.635 49.3721 101.669 49.3776 101.703 49.3818C101.737 49.3859 101.771 49.3886 101.806 49.39C101.84 49.3913 101.874 49.3912 101.908 49.3897C102.728 49.3525 103.241 48.5215 103.762 47.9881C103.812 48.6848 103.76 49.3824 103.792 50.0783L103.78 50.1007C103.812 50.5954 103.789 51.0987 103.783 51.5945C103.774 52.3266 103.77 53.0588 103.77 53.7909C103.769 55.8936 103.811 58.004 103.77 60.1056C103.369 59.9557 102.969 59.7021 102.591 59.4987C100.563 58.4074 98.73 57.0804 97.1021 55.4469C93.1453 51.4763 91.0312 46.2785 90.6015 40.7257C90.4999 39.4139 90.5621 38.0734 90.5645 36.7574L90.5646 30.3716Z" fill="#E39250"/>
</g>
<defs>
<clipPath id="clip0_4801_26158">
<rect width="64" height="64" fill="white" transform="translate(71.5 12)"/>
</clipPath>
</defs>
</svg>
