<svg width="536" height="51" viewBox="0 0 536 51" fill="none" xmlns="http://www.w3.org/2000/svg">
<g clip-path="url(#clip0_108_408)">
<path d="M13.5889 35.7663L24.988 9.63524L36.4022 35.7663H13.5889ZM24.9729 0C20.0374 0 15.2128 1.4798 11.109 4.25228C7.00531 7.02475 3.80684 10.9654 1.9181 15.5758C0.0293669 20.1863 -0.464813 25.2595 0.498057 30.1539C1.46093 35.0484 3.8376 39.5442 7.32753 43.0729C10.8175 46.6016 15.2639 49.0047 20.1046 49.9782C24.9452 50.9518 29.9627 50.4521 34.5226 48.5424C39.0824 46.6327 42.9797 43.3987 45.7217 39.2494C48.4637 35.1001 49.9273 30.2218 49.9273 25.2315C49.9273 18.5397 47.2982 12.122 42.6183 7.39014C37.9385 2.65831 31.5912 0 24.9729 0Z" fill="#192F51"/>
<path d="M239.912 7.2417H245.943L228.121 35.8578C226.739 38.2322 224.904 40.3052 222.723 41.956C220.621 43.3442 218.146 44.0417 215.636 43.9532C214.133 43.9652 212.637 43.7388 211.203 43.2824V38.7087C212.45 39.0348 213.731 39.2088 215.018 39.227C216.701 39.2899 218.373 38.9339 219.888 38.1903C221.278 37.391 222.433 36.2337 223.236 34.8363L223.839 33.7996L205.941 7.2417H212.108L224.246 25.7956C224.804 26.6676 225.307 27.5739 225.754 28.5094C226.1 29.1146 226.301 29.7933 226.342 30.4913V30.7962H227.005V30.4913C227.023 29.8032 227.187 29.1271 227.488 28.5094C227.896 27.5894 228.364 26.6981 228.89 25.8414L239.912 7.2417Z" fill="black"/>
<path d="M276.477 26.314C278.834 26.4869 281.175 25.806 283.081 24.393C283.832 23.7369 284.428 22.9176 284.822 21.9962C285.216 21.0749 285.399 20.0753 285.358 19.0723C285.405 18.0641 285.225 17.0583 284.83 16.1311C284.436 15.2039 283.837 14.3797 283.081 13.7211C281.185 12.2846 278.84 11.5864 276.477 11.7544H259.182V26.2987L276.477 26.314ZM276.477 7.2417C281.081 7.2417 284.599 8.29873 287.031 10.4128C288.237 11.4843 289.188 12.8163 289.814 14.3101C290.44 15.8039 290.726 17.4211 290.65 19.0418C290.725 20.6647 290.439 22.2838 289.813 23.7799C289.186 25.276 288.236 26.6109 287.031 27.6861C284.619 29.8103 281.101 30.8673 276.477 30.8572H259.363V43.3434H254.086V7.2417H276.477Z" fill="black"/>
<path d="M304.688 31.7872H325.134L316.931 15.4286C316.033 13.8976 315.458 12.195 315.243 10.428H314.579C314.364 12.195 313.789 13.8976 312.891 15.4286L304.688 31.7872ZM336.458 43.3434H330.909L327.215 36.0712H302.487L298.868 43.3434H293.304L311.88 7.2417H317.912L336.458 43.3434Z" fill="black"/>
<path d="M340.499 43.3891V38.7392C341.265 39.0311 342.078 39.1759 342.896 39.1661C343.591 39.2124 344.288 39.1116 344.942 38.8701C345.597 38.6286 346.194 38.2517 346.696 37.7635C347.72 36.3963 348.29 34.7367 348.324 33.0221L351.189 7.2417H384.663V43.3434H379.415V11.7697H355.863L353.451 33.8453C353.3 36.6245 352.239 39.2739 350.435 41.3767C349.586 42.2485 348.564 42.9289 347.436 43.3729C346.308 43.817 345.1 44.0147 343.891 43.9532C342.711 43.9755 341.537 43.7845 340.423 43.3891" fill="black"/>
<path d="M396.861 43.3434V7.2417H401.957V32.7172C401.968 34.001 401.897 35.2843 401.746 36.5591C401.61 37.611 401.399 38.8154 401.083 40.1875H401.746L428.676 7.2417H436.939V43.3434H431.842V17.8527C431.832 16.5688 431.902 15.2856 432.053 14.0108C432.189 12.9741 432.4 11.7544 432.717 10.3823H432.053L405.124 43.3434H396.861Z" fill="black"/>
<path d="M457.852 41.5291C454.662 40.1115 451.945 37.7928 450.026 34.8515C448.236 31.9946 447.304 28.6742 447.343 25.2925C447.302 21.9057 448.234 18.5798 450.026 15.7182C451.945 12.7769 454.662 10.4582 457.852 9.04063C461.759 7.32916 465.99 6.50184 470.246 6.61657C474.212 6.519 478.161 7.1758 481.887 8.55277C484.827 9.63612 487.447 11.4564 489.501 13.843C491.338 16.0291 492.594 18.6526 493.15 21.4658H487.903C487.072 18.396 485.107 15.7657 482.414 14.1174C479.504 12.1965 475.448 11.1598 470.246 11.1598C466.966 11.0737 463.705 11.7029 460.687 13.0045C458.236 14.0696 456.142 15.8271 454.655 18.066C453.293 20.2217 452.585 22.7342 452.62 25.2925C452.587 27.8457 453.295 30.3527 454.655 32.5037C456.142 34.7426 458.236 36.5001 460.687 37.5652C463.705 38.8668 466.966 39.496 470.246 39.4099C475.448 39.4099 479.504 38.4495 482.414 36.498C485.107 34.8497 487.072 32.2194 487.903 29.1496H493.15C492.755 31.3238 491.934 33.3961 490.735 35.2446C489.536 37.0931 487.984 38.6804 486.169 39.913C482.349 42.6166 477.041 43.9633 470.246 43.9531C465.99 44.0679 461.759 43.2405 457.852 41.5291Z" fill="black"/>
<path d="M518.858 43.3434H513.611V11.7697H497.432V7.2417H535.022V11.7697H518.858V43.3434Z" fill="black"/>
<path d="M105.611 22.4416V7.2417H110.858V43.3434H105.611V26.9848H76.5402V43.3434H71.278V7.2417H76.5402V22.4416H105.611Z" fill="black"/>
<path d="M130.807 31.7872H151.253L143.05 15.4286C142.151 13.8976 141.576 12.195 141.361 10.428H140.698C140.483 12.1928 139.913 13.8944 139.024 15.4286L130.807 31.7872ZM162.576 43.3434H157.028L153.394 36.0712H128.666L125.047 43.3434H119.483L137.999 7.2417H144.03L162.576 43.3434Z" fill="black"/>
<path d="M184.967 43.3434H179.72V11.7697H163.556V7.2417H201.146V11.7697H184.967V43.3434Z" fill="black"/>
</g>
<defs>
<clipPath id="clip0_108_408">
<rect width="535.019" height="50.463" fill="white" transform="translate(0.0185547)"/>
</clipPath>
</defs>
</svg>